<svg id="svg1144" fill="rgba(0,0,0,0.5)" height="512" viewBox="0 0 8.4666667 8.4666667" width="512" xmlns="http://www.w3.org/2000/svg" xmlns:svg="http://www.w3.org/2000/svg"><g id="layer2"><path id="rect1702" d="m2.3771159.00002065c-.1455154.00257825-.259932.122147-.259932.26768399v.52503297h-1.85363409c-.146324 0-.26355.11981-.26355.26613409v7.142199c0 .1461209.117429.2656171.26355.2656171h7.93749999c.1469289 0 .2656171-.1186881.2656171-.2656171v-7.142199c0-.14713209-.1184852-.26613409-.2656171-.26613409h-1.8515669s0-.35002198 0-.52503297c0-.14856099-.119133-.26941816-.267684-.26768399-.1461229.00170583-.2614821.121551-.2614821.26768399v.52503297h-3.1739668s0-.35002198 0-.52503297c0-.14917799-.1200785-.27032674-.2692341-.26768399zm-1.8479491 1.32240005h1.5880171v.265617c0 .360781.5291661.360781.5291661 0v-.265617h3.1739668v.265617c0 .36078.5291661.36078.5291661 0v-.265617h1.588017v1.3239499h-7.4083331zm0 1.8536341h7.4083331v4.7614658h-7.4083331zm.79375.7947829v.52865h.5291661v-.52865zm1.3229161 0v.52865h.529167v-.52865zm1.322917 0v.52865h.5291669v-.52865zm1.322917 0v.52865h.5291658v-.52865zm1.3229158 0v.52865h.5291672v-.52865zm-5.2916659 1.3208501v.5291669h.5291661v-.5291669zm1.3229161 0v.5291669h.529167v-.5291669zm1.322917 0v.5291669h.5291669v-.5291669zm1.322917 0v.5291669h.5291658v-.5291669zm1.3229158 0v.5291669h.5291672v-.5291669zm-5.2916659 1.3229169v.5291659h.5291661v-.5291659zm1.3229161 0v.5291659h.529167v-.5291659zm1.322917 0v.5291659h.5291669v-.5291659zm1.322917 0v.5291659h.5291658v-.5291659zm1.3229158 0v.5291659h.5291672v-.5291659z" font-variant-ligatures="normal" font-variant-position="normal" font-variant-caps="normal" font-variant-numeric="normal" font-variant-alternates="normal" font-feature-settings="normal" text-indent="0" text-align="start" text-decoration-line="none" text-decoration-style="solid" text-decoration-color="rgba(0,0,0,0.5)" text-transform="none" text-orientation="mixed" white-space="normal" shape-padding="0" isolation="auto" mix-blend-mode="normal" solid-color="rgba(0,0,0,0.5)" solid-opacity="1" vector-effect="none"/></g></svg>