<?xml version="1.0" encoding="utf-8"?>
<!-- Generator: Adobe Illustrator 16.0.2, SVG Export Plug-In . SVG Version: 6.00 Build 0)  -->
<!DOCTYPE svg PUBLIC "-//W3C//DTD SVG 1.1//EN" "http://www.w3.org/Graphics/SVG/1.1/DTD/svg11.dtd">
<svg version="1.1" id="Capa_1" xmlns="http://www.w3.org/2000/svg" xmlns:xlink="http://www.w3.org/1999/xlink" x="0px" y="0px"
	 width="101px" height="101px" viewBox="255.999 346 100 100" enable-background="new 255.999 346 100 100" xml:space="preserve">
<g>
	<g>
		<path fill="#83B645" d="M305.999,346c-27.614,0-50,22.386-50,50c0,27.614,22.386,50,50,50s50-22.387,50-50
			C355.97,368.397,333.601,346.029,305.999,346z M333.525,380.667l-35.715,35.714c-1.395,1.395-3.655,1.395-5.05,0l-14.286-14.286
			c-1.419-1.37-1.458-3.631-0.088-5.05c1.371-1.418,3.631-1.458,5.05-0.088c0.03,0.029,0.059,0.058,0.088,0.088l11.761,11.761
			l33.189-33.189c1.419-1.37,3.681-1.331,5.051,0.088C334.862,377.089,334.862,379.283,333.525,380.667z"/>
	</g>
</g>
</svg>
