<?xml version="1.0" encoding="utf-8"?>
<!-- Generator: Adobe Illustrator 16.0.2, SVG Export Plug-In . SVG Version: 6.00 Build 0)  -->
<!DOCTYPE svg PUBLIC "-//W3C//DTD SVG 1.1//EN" "http://www.w3.org/Graphics/SVG/1.1/DTD/svg11.dtd">
<svg version="1.1" id="Layer_1" xmlns="http://www.w3.org/2000/svg" xmlns:xlink="http://www.w3.org/1999/xlink" x="0px" y="0px"
	 width="64px" height="64px" viewBox="224 224.001 64 64" enable-background="new 224 224.001 64 64" xml:space="preserve">
<g>
	<linearGradient id="SVGID_1_" gradientUnits="userSpaceOnUse" x1="261.3809" y1="224.0015" x2="261.3809" y2="288.0024">
		<stop  offset="0" style="stop-color:#234930"/>
		<stop  offset="1" style="stop-color:#83B645"/>
	</linearGradient>
	<path fill="url(#SVGID_1_)" d="M285.809,264.62h-0.94v-32.474c0-1.899-1.545-3.444-3.444-3.444h-19.381v-2.509
		c0-1.208-0.983-2.191-2.191-2.191h-7.703c-1.208,0-2.192,0.983-2.192,2.191v2.509h-6.626c-0.519,0-0.939,0.42-0.939,0.939
		c0,0.519,0.42,0.939,0.939,0.939h38.093c0.863,0,1.565,0.703,1.565,1.566v32.474h-14.794c-0.519,0-0.939,0.42-0.939,0.939
		c0,0.519,0.421,0.939,0.939,0.939h17.613c0.172,0,0.313,0.14,0.313,0.313v2.195c0,0.173-0.141,0.313-0.313,0.313h-50.108
		c-0.519,0-0.939,0.421-0.939,0.939s0.42,0.939,0.939,0.939h5.459l-3.155,15.678c-0.056,0.276,0.016,0.563,0.194,0.78
		c0.179,0.218,0.445,0.345,0.727,0.345h5.635c0.447,0,0.833-0.315,0.921-0.754l1.03-5.117h19.037l1.029,5.117
		c0.089,0.438,0.474,0.754,0.921,0.754h5.635c0.282,0,0.549-0.127,0.727-0.345c0.179-0.218,0.25-0.504,0.194-0.78l-3.155-15.678
		h14.91c1.208,0,2.191-0.983,2.191-2.192v-2.195C288,265.604,287.017,264.62,285.809,264.62L285.809,264.62z M251.835,226.193
		c0-0.172,0.141-0.313,0.313-0.313h7.703c0.172,0,0.313,0.141,0.313,0.313v2.509h-8.329V226.193z M263.348,271.198l1.015,5.042
		h-16.666l1.015-5.042H263.348z M243.791,286.123h-3.719l3.004-14.924h3.719L243.791,286.123z M246.889,280.252l0.43-2.133h17.422
		l0.429,2.133H246.889z M271.985,286.123h-3.719l-3.003-14.924h3.719L271.985,286.123z"/>
	<linearGradient id="SVGID_2_" gradientUnits="userSpaceOnUse" x1="244.688" y1="228.7012" x2="244.688" y2="271.1987">
		<stop  offset="0" style="stop-color:#234930"/>
		<stop  offset="1" style="stop-color:#83B645"/>
	</linearGradient>
	<path fill="url(#SVGID_2_)" d="M231.943,269.32h-5.751c-0.173,0-0.313-0.141-0.313-0.313v-2.195c0-0.173,0.141-0.313,0.313-0.313
		h38.246c0.52,0,0.939-0.42,0.939-0.939c0-0.519-0.42-0.938-0.939-0.938H229.01v-32.474c0-0.863,0.703-1.566,1.565-1.566h8.998
		c0.519,0,0.939-0.42,0.939-0.939c0-0.519-0.42-0.939-0.939-0.939h-8.997c-1.899,0-3.444,1.545-3.444,3.444v32.475h-0.94
		c-1.208,0-2.192,0.983-2.192,2.191v2.195c0,1.209,0.983,2.191,2.192,2.191h5.751c0.519,0,0.939-0.42,0.939-0.938
		C232.883,269.74,232.462,269.32,231.943,269.32L231.943,269.32z"/>
	<linearGradient id="SVGID_3_" gradientUnits="userSpaceOnUse" x1="243.1753" y1="239.708" x2="243.1753" y2="245.3857">
		<stop  offset="0" style="stop-color:#234930"/>
		<stop  offset="1" style="stop-color:#83B645"/>
	</linearGradient>
	<path fill="url(#SVGID_3_)" d="M246.66,239.975c-0.372-0.362-0.966-0.354-1.329,0.017l-3.05,3.127l-1.281-1.246
		c-0.372-0.362-0.966-0.353-1.328,0.019c-0.362,0.372-0.354,0.966,0.019,1.328l1.953,1.899c0.183,0.178,0.419,0.266,0.655,0.266
		c0.245,0,0.489-0.095,0.673-0.284l3.705-3.799C247.039,240.932,247.031,240.337,246.66,239.975L246.66,239.975z"/>
	<linearGradient id="SVGID_4_" gradientUnits="userSpaceOnUse" x1="243.1753" y1="235.3672" x2="243.1753" y2="249.3857">
		<stop  offset="0" style="stop-color:#234930"/>
		<stop  offset="1" style="stop-color:#83B645"/>
	</linearGradient>
	<path fill="url(#SVGID_4_)" d="M250.185,242.376c0-3.865-3.145-7.009-7.009-7.009c-3.865,0-7.009,3.145-7.009,7.009
		s3.144,7.009,7.009,7.009C247.04,249.386,250.185,246.241,250.185,242.376z M243.175,247.507c-2.829,0-5.131-2.301-5.131-5.13
		s2.302-5.131,5.131-5.131c2.829,0,5.13,2.302,5.13,5.131S246.004,247.507,243.175,247.507z"/>
	<linearGradient id="SVGID_5_" gradientUnits="userSpaceOnUse" x1="243.1753" y1="253.5654" x2="243.1753" y2="259.6489">
		<stop  offset="0" style="stop-color:#234930"/>
		<stop  offset="1" style="stop-color:#83B645"/>
	</linearGradient>
	<path fill="url(#SVGID_5_)" d="M245.941,253.84c-0.367-0.367-0.961-0.367-1.328,0l-1.438,1.438l-1.438-1.438
		c-0.367-0.367-0.962-0.367-1.329,0s-0.367,0.962,0,1.329l1.438,1.438l-1.438,1.438c-0.367,0.367-0.367,0.962,0,1.328
		c0.184,0.184,0.424,0.275,0.664,0.275c0.241,0,0.481-0.092,0.665-0.275l1.438-1.438l1.438,1.438
		c0.184,0.184,0.424,0.275,0.664,0.275s0.481-0.092,0.664-0.275c0.367-0.366,0.367-0.961,0-1.328l-1.438-1.438l1.438-1.438
		C246.309,254.802,246.309,254.208,245.941,253.84L245.941,253.84z"/>
	<linearGradient id="SVGID_6_" gradientUnits="userSpaceOnUse" x1="271.8223" y1="253.5654" x2="271.8223" y2="259.6489">
		<stop  offset="0" style="stop-color:#234930"/>
		<stop  offset="1" style="stop-color:#83B645"/>
	</linearGradient>
	<path fill="url(#SVGID_6_)" d="M274.59,253.84c-0.367-0.367-0.962-0.367-1.329,0l-1.438,1.438l-1.438-1.438
		c-0.367-0.367-0.961-0.367-1.328,0s-0.367,0.962,0,1.329l1.438,1.438l-1.438,1.438c-0.367,0.367-0.367,0.962,0,1.328
		c0.184,0.184,0.424,0.275,0.664,0.275s0.48-0.092,0.664-0.275l1.438-1.438l1.438,1.438c0.184,0.184,0.424,0.275,0.665,0.275
		c0.24,0,0.48-0.092,0.664-0.275c0.366-0.366,0.366-0.961,0-1.328l-1.438-1.438l1.438-1.438
		C274.956,254.802,274.956,254.208,274.59,253.84z"/>
	<linearGradient id="SVGID_7_" gradientUnits="userSpaceOnUse" x1="258.0625" y1="239.5049" x2="258.0625" y2="245.5884">
		<stop  offset="0" style="stop-color:#234930"/>
		<stop  offset="1" style="stop-color:#83B645"/>
	</linearGradient>
	<path fill="url(#SVGID_7_)" d="M255.296,245.313c0.184,0.183,0.424,0.275,0.665,0.275c0.24,0,0.481-0.092,0.665-0.275l1.438-1.438
		l1.438,1.438c0.183,0.183,0.423,0.275,0.664,0.275c0.24,0,0.48-0.092,0.664-0.275c0.366-0.367,0.366-0.962,0-1.329l-1.438-1.438
		l1.438-1.438c0.366-0.367,0.366-0.962,0-1.329c-0.367-0.367-0.962-0.367-1.328,0l-1.438,1.438l-1.438-1.438
		c-0.367-0.367-0.962-0.367-1.329,0c-0.367,0.367-0.367,0.961,0,1.329l1.438,1.438l-1.438,1.438
		C254.929,244.352,254.929,244.946,255.296,245.313L255.296,245.313z"/>
	<linearGradient id="SVGID_8_" gradientUnits="userSpaceOnUse" x1="258.0625" y1="252.6265" x2="258.0625" y2="260.5884">
		<stop  offset="0" style="stop-color:#234930"/>
		<stop  offset="1" style="stop-color:#83B645"/>
	</linearGradient>
	<path fill="url(#SVGID_8_)" d="M254.082,256.607c0,2.194,1.786,3.98,3.98,3.98c2.195,0,3.98-1.786,3.98-3.98
		c0-2.195-1.785-3.981-3.98-3.981C255.868,252.626,254.082,254.412,254.082,256.607L254.082,256.607z M260.164,256.607
		c0,1.158-0.942,2.102-2.102,2.102c-1.158,0-2.102-0.943-2.102-2.102c0-1.159,0.943-2.102,2.102-2.102
		C259.222,254.505,260.164,255.448,260.164,256.607z"/>
	<linearGradient id="SVGID_9_" gradientUnits="userSpaceOnUse" x1="262.1836" y1="238.1792" x2="262.1836" y2="250.9116">
		<stop  offset="0" style="stop-color:#234930"/>
		<stop  offset="1" style="stop-color:#83B645"/>
	</linearGradient>
	<path fill="url(#SVGID_9_)" d="M252.057,249.509c-0.092,0.51,0.247,1,0.757,1.092c0.154,0.028,1.775,0.311,4.03,0.311
		c3.09,0,7.37-0.531,10.693-2.979c2.709-1.996,4.317-4.923,4.78-8.7c0.063-0.515-0.304-0.983-0.818-1.046
		c-0.514-0.063-0.983,0.304-1.047,0.818c-0.396,3.241-1.75,5.734-4.023,7.411c-5.088,3.754-13.199,2.352-13.281,2.337
		C252.638,248.661,252.149,248.999,252.057,249.509z"/>
</g>
</svg>
