<?xml version="1.0" encoding="utf-8"?>
<!-- Generator: Adobe Illustrator 16.0.2, SVG Export Plug-In . SVG Version: 6.00 Build 0)  -->
<!DOCTYPE svg PUBLIC "-//W3C//DTD SVG 1.1//EN" "http://www.w3.org/Graphics/SVG/1.1/DTD/svg11.dtd">
<svg version="1.1" id="Layer_1" xmlns="http://www.w3.org/2000/svg" xmlns:xlink="http://www.w3.org/1999/xlink" x="0px" y="0px"
	 width="100px" height="75.305px" viewBox="0 0 100 75.305" enable-background="new 0 0 100 75.305" xml:space="preserve">
<g>
	<linearGradient id="SVGID_1_" gradientUnits="userSpaceOnUse" x1="50" y1="75.3047" x2="50" y2="4.882813e-004">
		<stop  offset="0" style="stop-color:#1C98C3"/>
		<stop  offset="1" style="stop-color:#4FA0CA"/>
	</linearGradient>
	<path fill="url(#SVGID_1_)" d="M50,0C33.857,0,20.058,10.213,14.716,24.513h2.244C22.197,11.389,35.029,2.085,50,2.085
		s27.802,9.304,33.04,22.427h2.244C79.941,10.213,66.142,0,50,0z M50,4.512c-13.632,0-25.342,8.236-30.43,20h60.859
		C75.341,12.749,63.635,4.512,50,4.512z M83.04,50.797C77.801,63.921,64.97,73.219,50,73.219s-27.803-9.298-33.04-22.422h-2.244
		C20.058,65.096,33.857,75.305,50,75.305s29.941-10.209,35.284-24.508H83.04z M19.57,50.797C24.658,62.561,36.367,70.798,50,70.798
		c13.636,0,25.342-8.237,30.43-20.001H19.57z"/>
	<linearGradient id="SVGID_2_" gradientUnits="userSpaceOnUse" x1="50.0005" y1="48.709" x2="50.0005" y2="26.5967">
		<stop  offset="0" style="stop-color:#1C98C3"/>
		<stop  offset="1" style="stop-color:#4FA0CA"/>
	</linearGradient>
	<polygon fill="url(#SVGID_2_)" points="0,26.596 100,26.596 92.448,37.653 100,48.709 0,48.709 7.552,37.653 	"/>
</g>
<g>
	<path fill="#FFFFFF" d="M17.517,33.236c0.528,0,0.962,0.078,1.302,0.234c0.34,0.156,0.642,0.338,0.906,0.546
		c0.16,0.12,0.282,0.134,0.366,0.042c0.084-0.092,0.142-0.31,0.174-0.654h0.276c-0.016,0.312-0.028,0.69-0.036,1.134
		c-0.008,0.444-0.012,1.034-0.012,1.77h-0.276c-0.04-0.368-0.092-0.682-0.156-0.942c-0.064-0.26-0.152-0.49-0.264-0.69
		c-0.112-0.2-0.272-0.38-0.48-0.54c-0.2-0.2-0.432-0.348-0.696-0.444c-0.264-0.096-0.54-0.144-0.828-0.144
		c-0.432,0-0.8,0.114-1.104,0.342c-0.304,0.228-0.55,0.538-0.738,0.93c-0.188,0.392-0.326,0.834-0.414,1.326
		c-0.088,0.492-0.132,1.002-0.132,1.53c0,0.535,0.046,1.05,0.138,1.541c0.092,0.492,0.236,0.931,0.432,1.314
		c0.196,0.385,0.45,0.688,0.762,0.912c0.312,0.225,0.68,0.336,1.104,0.336c0.264,0,0.53-0.05,0.798-0.15
		c0.268-0.1,0.498-0.246,0.69-0.438c0.312-0.24,0.524-0.538,0.636-0.895c0.112-0.355,0.196-0.829,0.252-1.422h0.276
		c0,0.761,0.004,1.375,0.012,1.842c0.008,0.469,0.02,0.863,0.036,1.183h-0.276c-0.032-0.344-0.086-0.56-0.162-0.647
		c-0.076-0.088-0.202-0.076-0.378,0.035c-0.296,0.209-0.61,0.391-0.942,0.547c-0.332,0.155-0.758,0.233-1.278,0.233
		c-0.848,0-1.59-0.172-2.226-0.517c-0.636-0.344-1.13-0.84-1.482-1.487s-0.528-1.429-0.528-2.34c0-0.896,0.182-1.68,0.546-2.352
		c0.364-0.672,0.864-1.196,1.5-1.572C15.951,33.424,16.684,33.236,17.517,33.236z"/>
	<path fill="#FFFFFF" d="M25.977,33.236c0.848,0,1.59,0.172,2.226,0.516c0.636,0.344,1.13,0.838,1.482,1.482
		c0.352,0.644,0.528,1.426,0.528,2.346c0,0.896-0.18,1.68-0.54,2.352s-0.862,1.195-1.506,1.572
		c-0.644,0.375-1.378,0.563-2.202,0.563c-0.848,0-1.59-0.172-2.226-0.517c-0.636-0.344-1.13-0.84-1.482-1.487
		s-0.528-1.429-0.528-2.34c0-0.896,0.182-1.68,0.546-2.352c0.364-0.672,0.864-1.196,1.5-1.572
		C24.411,33.424,25.144,33.236,25.977,33.236z M25.928,33.452c-0.448,0-0.838,0.18-1.17,0.54c-0.332,0.36-0.588,0.856-0.768,1.488
		c-0.18,0.632-0.27,1.364-0.27,2.196c0,0.848,0.102,1.586,0.306,2.214s0.48,1.112,0.828,1.452s0.734,0.51,1.158,0.51
		c0.448,0,0.838-0.18,1.17-0.54c0.332-0.36,0.588-0.858,0.768-1.494c0.18-0.636,0.27-1.366,0.27-2.19
		c0-0.856-0.102-1.596-0.306-2.22c-0.204-0.624-0.48-1.105-0.828-1.446C26.738,33.623,26.353,33.452,25.928,33.452z"/>
	<path fill="#FFFFFF" d="M38.948,33.404v0.24c-0.256,0.032-0.448,0.098-0.576,0.198c-0.128,0.1-0.214,0.258-0.258,0.474
		s-0.066,0.52-0.066,0.912v6.696c-0.096-0.008-0.194-0.012-0.294-0.012s-0.206,0.004-0.318,0.012l-5.208-6.601v4.608
		c0,0.439,0.024,0.777,0.072,1.014s0.154,0.404,0.318,0.504s0.422,0.17,0.774,0.21v0.24c-0.152-0.017-0.352-0.026-0.6-0.03
		c-0.248-0.004-0.48-0.006-0.696-0.006c-0.184,0-0.372,0.002-0.564,0.006s-0.352,0.014-0.48,0.03v-0.24
		c0.256-0.04,0.448-0.108,0.576-0.204s0.214-0.254,0.258-0.474s0.066-0.522,0.066-0.906v-5.4c0-0.296-0.022-0.514-0.066-0.654
		s-0.132-0.236-0.264-0.288c-0.132-0.052-0.322-0.082-0.57-0.09v-0.24c0.128,0.008,0.288,0.016,0.48,0.024
		c0.192,0.008,0.38,0.012,0.564,0.012c0.192,0,0.376-0.004,0.552-0.012c0.176-0.008,0.336-0.016,0.48-0.024l4.644,5.724v-3.755
		c0-0.44-0.024-0.778-0.072-1.014c-0.048-0.236-0.154-0.406-0.318-0.51s-0.422-0.172-0.774-0.204v-0.24
		c0.152,0.008,0.352,0.016,0.6,0.024c0.248,0.008,0.48,0.012,0.696,0.012c0.192,0,0.382-0.004,0.57-0.012
		C38.662,33.42,38.82,33.413,38.948,33.404z"/>
	<path fill="#FFFFFF" d="M46.125,33.404c-0.032,0.36-0.054,0.708-0.066,1.044c-0.012,0.336-0.018,0.596-0.018,0.78
		c0,0.176,0.004,0.344,0.012,0.504s0.016,0.296,0.024,0.408H45.8c-0.104-0.624-0.248-1.114-0.432-1.47s-0.41-0.61-0.678-0.762
		c-0.268-0.152-0.586-0.228-0.954-0.228H43.34c-0.232,0-0.408,0.021-0.528,0.06c-0.12,0.04-0.2,0.12-0.24,0.24
		s-0.06,0.304-0.06,0.552v6.023c0,0.313,0.032,0.545,0.096,0.697c0.064,0.151,0.188,0.252,0.372,0.299
		c0.184,0.049,0.456,0.076,0.816,0.084V41.9c-0.248-0.008-0.568-0.017-0.96-0.024c-0.392-0.008-0.804-0.012-1.236-0.012
		c-0.344,0-0.68,0.004-1.008,0.012s-0.624,0.017-0.888,0.024v-0.24c0.256-0.016,0.448-0.048,0.576-0.096s0.214-0.144,0.258-0.288
		c0.043-0.145,0.066-0.359,0.066-0.648v-5.952c0-0.296-0.022-0.514-0.066-0.654c-0.044-0.14-0.132-0.236-0.264-0.288
		c-0.132-0.052-0.322-0.082-0.57-0.09v-0.24c0.328,0.008,0.676,0.014,1.044,0.018c0.368,0.004,0.732,0.008,1.092,0.012
		s0.696,0.006,1.008,0.006c0.312,0,0.568,0,0.768,0c0.368,0,0.786-0.002,1.254-0.006C45.338,33.431,45.756,33.42,46.125,33.404z
		 M44.336,37.556v0.24h-2.184v-0.24H44.336z M44.636,35.972c-0.032,0.456-0.046,0.804-0.042,1.044c0.004,0.24,0.006,0.46,0.006,0.66
		c0,0.199,0.004,0.42,0.012,0.66c0.008,0.239,0.028,0.588,0.06,1.043h-0.276c-0.048-0.279-0.124-0.539-0.228-0.779
		s-0.256-0.434-0.456-0.582c-0.2-0.148-0.46-0.223-0.78-0.223v-0.24c0.24,0,0.442-0.05,0.606-0.15
		c0.164-0.1,0.302-0.232,0.414-0.396c0.112-0.164,0.2-0.338,0.264-0.522c0.064-0.184,0.112-0.356,0.144-0.516H44.636z"/>
	<path fill="#FFFFFF" d="M50.516,33.404v0.24c-0.256,0.008-0.45,0.038-0.582,0.09c-0.132,0.052-0.218,0.148-0.258,0.288
		s-0.06,0.358-0.06,0.654v5.952c0,0.289,0.022,0.504,0.066,0.648c0.043,0.145,0.13,0.24,0.258,0.288s0.32,0.08,0.576,0.096v0.24
		c-0.216-0.017-0.488-0.026-0.816-0.03s-0.66-0.006-0.996-0.006c-0.392,0-0.754,0.002-1.086,0.006s-0.602,0.014-0.81,0.03v-0.24
		c0.256-0.016,0.448-0.048,0.576-0.096s0.214-0.144,0.258-0.288c0.043-0.145,0.066-0.359,0.066-0.648v-5.952
		c0-0.296-0.022-0.514-0.066-0.654c-0.044-0.14-0.132-0.236-0.264-0.288c-0.132-0.052-0.322-0.082-0.57-0.09v-0.24
		c0.208,0.008,0.478,0.016,0.81,0.024c0.332,0.008,0.694,0.012,1.086,0.012c0.336,0,0.667-0.004,0.996-0.012
		C50.028,33.42,50.3,33.413,50.516,33.404z"/>
	<path fill="#FFFFFF" d="M51.321,33.404c0.199,0.008,0.469,0.016,0.809,0.024c0.341,0.008,0.679,0.012,1.015,0.012
		c0.384,0,0.756-0.004,1.116-0.012c0.359-0.008,0.615-0.012,0.768-0.012c0.744,0,1.362,0.082,1.854,0.246
		c0.491,0.164,0.86,0.402,1.104,0.714s0.365,0.688,0.365,1.128c0,0.272-0.057,0.546-0.168,0.822
		c-0.111,0.276-0.303,0.532-0.57,0.768c-0.268,0.236-0.634,0.424-1.098,0.564s-1.049,0.21-1.752,0.21h-1.152v-0.24h1.032
		c0.472,0,0.83-0.09,1.074-0.27c0.243-0.18,0.411-0.42,0.504-0.72c0.092-0.3,0.138-0.634,0.138-1.002
		c0-0.632-0.111-1.122-0.336-1.47c-0.225-0.348-0.607-0.522-1.152-0.522c-0.312,0-0.514,0.068-0.605,0.204
		c-0.092,0.136-0.139,0.412-0.139,0.828v5.952c0,0.289,0.022,0.504,0.066,0.648s0.131,0.24,0.258,0.288
		c0.129,0.048,0.32,0.08,0.576,0.096v0.24c-0.216-0.017-0.488-0.026-0.816-0.03s-0.659-0.006-0.995-0.006
		c-0.384,0-0.746,0.002-1.087,0.006c-0.34,0.004-0.609,0.014-0.809,0.03v-0.24c0.256-0.016,0.447-0.048,0.575-0.096
		s0.214-0.144,0.259-0.288c0.043-0.145,0.065-0.359,0.065-0.648v-5.952c0-0.296-0.022-0.514-0.065-0.654
		c-0.045-0.14-0.133-0.236-0.265-0.288c-0.132-0.052-0.322-0.082-0.569-0.09V33.404z M53.588,37.665
		c0.344,0.008,0.642,0.023,0.894,0.047c0.252,0.024,0.474,0.047,0.666,0.066s0.364,0.034,0.517,0.042
		c0.728,0.063,1.266,0.22,1.613,0.468s0.574,0.621,0.678,1.116l0.277,1.236c0.07,0.319,0.146,0.544,0.227,0.672
		s0.197,0.192,0.35,0.192c0.104-0.008,0.189-0.035,0.258-0.078c0.066-0.045,0.141-0.11,0.221-0.198l0.168,0.144
		c-0.215,0.248-0.447,0.426-0.695,0.534s-0.549,0.162-0.9,0.162c-0.432,0-0.787-0.092-1.068-0.276
		c-0.279-0.184-0.463-0.523-0.551-1.02l-0.217-1.2c-0.056-0.336-0.124-0.63-0.203-0.882c-0.08-0.252-0.191-0.452-0.33-0.6
		c-0.141-0.148-0.335-0.223-0.582-0.223h-1.297L53.588,37.665z"/>
	<path fill="#FFFFFF" d="M69.943,33.404v0.24c-0.256,0.008-0.447,0.038-0.575,0.09c-0.128,0.052-0.215,0.148-0.259,0.288
		s-0.065,0.358-0.065,0.654v5.952c0,0.289,0.021,0.504,0.065,0.648s0.131,0.24,0.259,0.288s0.319,0.08,0.575,0.096v0.24
		c-0.224-0.017-0.506-0.026-0.846-0.03s-0.686-0.006-1.038-0.006c-0.384,0-0.744,0.002-1.08,0.006s-0.607,0.014-0.815,0.03v-0.24
		c0.271-0.016,0.478-0.048,0.618-0.096c0.14-0.048,0.233-0.144,0.281-0.288c0.049-0.145,0.072-0.359,0.072-0.648v-6.492h0.084
		l-2.976,7.777h-0.192l-3.24-7.729v5.748c0,0.439,0.024,0.777,0.072,1.014s0.154,0.404,0.318,0.504c0.163,0.1,0.422,0.17,0.773,0.21
		v0.24c-0.151-0.017-0.352-0.026-0.6-0.03s-0.48-0.006-0.696-0.006c-0.184,0-0.372,0.002-0.563,0.006
		c-0.192,0.004-0.353,0.014-0.48,0.03v-0.24c0.256-0.04,0.448-0.108,0.576-0.204s0.214-0.254,0.258-0.474s0.066-0.522,0.066-0.906
		v-5.4c0-0.296-0.022-0.514-0.066-0.654s-0.132-0.236-0.264-0.288c-0.132-0.052-0.322-0.082-0.57-0.09v-0.24
		c0.128,0.008,0.288,0.016,0.48,0.024c0.191,0.008,0.38,0.012,0.563,0.012c0.344,0,0.682-0.004,1.014-0.012
		c0.332-0.008,0.626-0.016,0.883-0.024l2.52,6.084l-0.3,0.276l2.412-6.324c0.136,0,0.275,0,0.42,0c0.144,0,0.288,0,0.432,0
		c0.353,0,0.698-0.004,1.038-0.012C69.437,33.42,69.719,33.413,69.943,33.404z"/>
	<path fill="#FFFFFF" d="M77.167,33.404c-0.032,0.352-0.054,0.692-0.066,1.02c-0.012,0.328-0.018,0.58-0.018,0.756
		c0,0.16,0.004,0.312,0.012,0.456s0.016,0.264,0.024,0.36h-0.276c-0.08-0.584-0.204-1.046-0.372-1.386
		c-0.168-0.34-0.386-0.58-0.654-0.72c-0.268-0.14-0.581-0.21-0.941-0.21h-0.492c-0.232,0-0.408,0.021-0.528,0.06
		c-0.119,0.04-0.199,0.12-0.239,0.24s-0.061,0.304-0.061,0.552v6.24c0,0.248,0.021,0.432,0.061,0.552s0.12,0.2,0.239,0.24
		c0.12,0.04,0.296,0.06,0.528,0.06h0.588c0.36,0,0.678-0.078,0.954-0.233c0.276-0.156,0.512-0.422,0.708-0.798
		c0.196-0.377,0.346-0.885,0.45-1.524h0.275c-0.023,0.257-0.035,0.593-0.035,1.008c0,0.185,0.004,0.444,0.012,0.78
		s0.032,0.684,0.072,1.044c-0.408-0.017-0.868-0.026-1.38-0.03c-0.513-0.004-0.969-0.006-1.368-0.006c-0.2,0-0.456,0-0.769,0
		c-0.312,0-0.647,0.002-1.008,0.006s-0.724,0.008-1.092,0.012c-0.368,0.005-0.716,0.011-1.044,0.019v-0.24
		c0.256-0.016,0.447-0.048,0.576-0.096c0.128-0.048,0.214-0.144,0.258-0.288s0.065-0.359,0.065-0.648v-5.952
		c0-0.296-0.021-0.514-0.065-0.654s-0.132-0.236-0.265-0.288c-0.132-0.052-0.321-0.082-0.569-0.09v-0.24
		c0.328,0.008,0.676,0.014,1.044,0.018c0.368,0.004,0.731,0.008,1.092,0.012s0.696,0.006,1.008,0.006c0.313,0,0.568,0,0.769,0
		c0.367,0,0.786-0.002,1.254-0.006S76.799,33.42,77.167,33.404z M75.295,37.508v0.241h-2.1v-0.241H75.295z M75.643,35.924
		c-0.032,0.456-0.046,0.804-0.042,1.044c0.004,0.24,0.006,0.46,0.006,0.66c0,0.201,0.004,0.419,0.013,0.66
		c0.008,0.24,0.027,0.588,0.06,1.045h-0.275c-0.041-0.281-0.114-0.541-0.223-0.781c-0.107-0.239-0.262-0.434-0.462-0.582
		c-0.2-0.147-0.46-0.221-0.78-0.221v-0.241c0.24,0,0.444-0.05,0.612-0.15s0.306-0.232,0.414-0.396s0.194-0.338,0.258-0.522
		c0.064-0.184,0.112-0.356,0.145-0.516H75.643z"/>
	<path fill="#FFFFFF" d="M82.064,33.404c1.576,0,2.748,0.358,3.516,1.074c0.769,0.716,1.152,1.742,1.152,3.078
		c0,0.873-0.188,1.634-0.564,2.287s-0.922,1.158-1.638,1.518s-1.574,0.54-2.574,0.54c-0.128,0-0.296-0.004-0.504-0.013
		c-0.208-0.008-0.424-0.014-0.647-0.018c-0.225-0.004-0.425-0.006-0.601-0.006c-0.352,0-0.698,0.002-1.038,0.006
		s-0.61,0.014-0.81,0.03v-0.24c0.256-0.016,0.447-0.048,0.576-0.096c0.128-0.048,0.214-0.144,0.258-0.288s0.065-0.359,0.065-0.648
		v-5.952c0-0.296-0.021-0.514-0.065-0.654s-0.132-0.236-0.265-0.288c-0.132-0.052-0.321-0.082-0.569-0.09v-0.24
		c0.199,0.008,0.47,0.018,0.81,0.03c0.34,0.012,0.679,0.014,1.015,0.006c0.287-0.008,0.613-0.016,0.978-0.024
		S81.824,33.404,82.064,33.404z M82.051,33.621c-0.367,0-0.607,0.068-0.72,0.204c-0.112,0.136-0.168,0.412-0.168,0.828v6
		c0,0.416,0.059,0.692,0.174,0.828c0.116,0.136,0.358,0.204,0.727,0.204c0.672,0,1.202-0.158,1.59-0.475
		c0.388-0.315,0.666-0.777,0.834-1.386s0.252-1.348,0.252-2.22c0-0.896-0.09-1.638-0.27-2.226c-0.181-0.588-0.467-1.028-0.858-1.32
		C83.219,33.767,82.7,33.621,82.051,33.621z"/>
</g>
</svg>
