<svg version="1.1" id="Layer_1" xmlns="http://www.w3.org/2000/svg" xmlns:xlink="http://www.w3.org/1999/xlink" x="0px" y="0px" width="93px" height="64px"
	 viewBox="0 0 721.4 497.2" style="enable-background:new 0 0 721.4 497.2;" xml:space="preserve">
<style type="text/css">
	.st0{fill-rule:evenodd;clip-rule:evenodd;fill:#808285;}
	.st1{fill-rule:evenodd;clip-rule:evenodd;fill:#B4D44C;}
</style>
<g>
	<polygon class="st0" points="138,496.8 138,473.1 129.6,473.1 129.6,468.3 152.2,468.3 152.2,473.1 143.7,473.1 143.7,496.8 	"/>
	<path class="st0" d="M172.5,496.8v-28.5h12.1c3,0,5.2,0.3,6.6,0.8s2.5,1.4,3.3,2.7s1.2,2.8,1.2,4.5c0,2.1-0.6,3.9-1.9,5.3
		c-1.3,1.4-3.1,2.3-5.6,2.6c1.2,0.7,2.3,1.5,3.1,2.4c0.8,0.9,1.9,2.4,3.3,4.6l3.5,5.6h-6.9l-4.2-6.2c-1.5-2.2-2.5-3.6-3-4.2
		c-0.5-0.6-1.1-1-1.7-1.2s-1.6-0.3-2.9-0.3h-1.2v11.9L172.5,496.8L172.5,496.8z M178.2,480.3h4.2c2.8,0,4.5-0.1,5.2-0.3
		s1.2-0.6,1.6-1.2c0.4-0.6,0.6-1.3,0.6-2.1c0-1-0.3-1.7-0.8-2.3s-1.2-1-2.2-1.1c-0.5-0.1-1.9-0.1-4.2-0.1h-4.5L178.2,480.3
		L178.2,480.3z"/>
	<path class="st0" d="M243.4,496.8h-6.3l-2.5-6.5h-11.4l-2.3,6.5h-6.1l11.1-28.5h6.1L243.4,496.8L243.4,496.8z M232.8,485.5
		l-3.9-10.6l-3.8,10.6H232.8L232.8,485.5z"/>
	<polygon class="st0" points="263.1,496.8 263.1,468.3 268.7,468.3 280.4,487.3 280.4,468.3 285.7,468.3 285.7,496.8 279.9,496.8 
		268.5,478.2 268.5,496.8 	"/>
	<path class="st0" d="M306.9,487.5l5.6-0.5c0.3,1.9,1,3.3,2,4.1c1,0.9,2.4,1.3,4.2,1.3s3.2-0.4,4.2-1.2c0.9-0.8,1.4-1.7,1.4-2.7
		c0-0.7-0.2-1.2-0.6-1.7c-0.4-0.5-1.1-0.9-2.1-1.2c-0.7-0.2-2.2-0.6-4.6-1.2c-3.1-0.8-5.2-1.7-6.5-2.8c-1.7-1.6-2.6-3.5-2.6-5.7
		c0-1.4,0.4-2.8,1.2-4.1c0.8-1.3,2-2.2,3.6-2.9c1.6-0.7,3.4-1,5.6-1c3.6,0,6.3,0.8,8.1,2.3c1.8,1.6,2.8,3.7,2.8,6.3l-5.7,0.3
		c-0.2-1.5-0.8-2.5-1.6-3.2c-0.8-0.6-2-1-3.6-1c-1.7,0-3,0.3-3.9,1c-0.6,0.4-0.9,1-0.9,1.8c0,0.7,0.3,1.3,0.9,1.7
		c0.7,0.6,2.5,1.2,5.3,1.9s4.9,1.3,6.2,2c1.3,0.7,2.4,1.7,3.1,2.9c0.8,1.2,1.1,2.7,1.1,4.5c0,1.6-0.5,3.2-1.4,4.6
		c-0.9,1.4-2.2,2.5-3.8,3.2c-1.7,0.7-3.7,1-6.2,1c-3.6,0-6.4-0.8-8.3-2.5C308.4,493.1,307.3,490.7,306.9,487.5L306.9,487.5z"/>
	<polygon class="st0" points="351.3,496.8 351.3,468.3 357,468.3 357,496.8 	"/>
	<polygon class="st0" points="379.2,496.8 379.2,468.5 385,468.5 385,492 399.3,492 399.3,496.8 	"/>
	<polygon class="st0" points="424.3,496.8 414.1,468.3 420.3,468.3 427.5,489.4 434.5,468.3 440.6,468.3 430.4,496.8 	"/>
	<path class="st0" d="M482.8,496.8h-6.3l-2.5-6.5h-11.3l-2.3,6.5h-6.1l11.1-28.5h6.1L482.8,496.8L482.8,496.8z M472.2,485.5
		l-3.9-10.6l-3.8,10.6H472.2L472.2,485.5z"/>
	<polygon class="st0" points="502.5,496.8 502.5,468.3 508.1,468.3 519.8,487.3 519.8,468.3 525.1,468.3 525.1,496.8 519.3,496.8 
		507.8,478.2 507.8,496.8 	"/>
	<polygon class="st0" points="547.6,496.8 547.6,468.3 553.3,468.3 553.3,496.8 	"/>
	<path class="st0" d="M601,496.8h-6.3l-2.5-6.5h-11.4l-2.3,6.5h-6.1l11.1-28.5h6.1L601,496.8L601,496.8z M590.5,485.5l-3.9-10.6
		l-3.8,10.6H590.5L590.5,485.5z"/>
	<path class="st1" d="M515.2,282.6c0,3.1-2.6,5.7-5.8,5.7H300c-9.7,0-32-2.9-26.6-19.3c9.6-28.9,38.6-48.7,64.6-61.4
		c42.7-17.6,93.4-31.9,125.7-66.5c32.8-35,47-80.1,49.7-127.1l3.9-0.2L515.2,282.6L515.2,282.6z M503.9,97.1
		c-19.2,50.5-52.6,75.5-95.7,93.8c-41,17.5-102.4,34.1-120.3,81.5c-0.4,1.1,1,2.9,2.2,2.9l213.8,0.3V97.1L503.9,97.1z"/>
	<path class="st1" d="M522.9,7.4c-30.8,1.4-55.5,5.2-93.9,24.1c-51.7,25.5-67.2,58.8-83.3,94c-20.7,45.5-40.4,89.6-78.5,122.3
		c-4.3,3.7-22.9,13.9-22.9,3.3V61.7c0-11.6-3.6-31.9,9.1-39.5c3.6-2.2,7.5-3.1,11.7-3.2l181.5-2.9c6.7-3.5,40.5-18.4,83.8-15.8
		C529.8,3.3,526,8,522.9,7.4L522.9,7.4z M421.8,27.8l-156.5,2.6c-7.7,0.1-10.7,6.5-10.5,13.7L253.9,240l-0.1,2.9
		c37.7-9.5,71.1-106.6,97.6-155.4C366.7,59.4,391,40.7,421.8,27.8L421.8,27.8z"/>
	<path class="st1" d="M353.2,168.2c31-52.3,68.6-87,121.5-117l0.5,1.1C430.5,85.7,395.1,131.7,353.2,168.2L353.2,168.2z"/>
	<path class="st0" d="M243.8,454.3v-57.6c0-2.4,0.3-4.7,1-6.9c0.7-2.3,1.7-4.7,3.1-7.2c2.5-4.1,6.2-7.5,11-10.3
		c5-2.4,10.4-3.6,16.2-3.6c9.5,0,17.1,4,23.1,11.9c5.5-7.9,13.9-11.9,25.3-11.9c5.1,0,9.9,1.2,14.4,3.8c4.6,2.5,8.2,5.9,10.9,10.3
		c2.7,4.4,4,9,4,13.9v57.6h-15.4v-52.8c0-4.6-0.9-8.3-2.6-11s-3.5-4.6-5.4-5.6c-1.9-1-4.3-1.5-7.1-1.5c-5.5,0-9.6,1.8-12.3,5.4
		c-2.7,3.6-4,7.8-4,12.6v52.8h-15.7v-51.9c0-5.9-1.3-10.5-3.9-13.9c-2.6-3.4-6.5-5.1-11.5-5.1c-6.2,0-10.4,1.8-12.5,5.4
		c-2.1,3.6-3.2,8.5-3.2,14.6v50.8h-15.4V454.3z"/>
	<path class="st0" d="M436.1,454.3v-48.4c0-2.2-0.3-4.2-0.9-6c-0.6-1.9-1.6-3.7-2.8-5.5c-2.1-3.3-5.3-6-9.5-8s-9-3-14.3-3
		c-1.9,0-3.9,0.2-5.9,0.6c-2,0.4-4.5,1.2-7.7,2.6c-3.1,1.4-5.8,3.7-8.1,6.9s-3.8,6.2-4.6,8.9s-1.2,5.8-1.2,9.4
		c0,8.9,2.6,16.1,8,21.7c5.6,5.3,12.1,8,19.5,8c8,0,15.1-3.9,21.4-11.6v18.4c-1.9,1.1-4.2,2.4-6.9,3.9s-4.7,2.5-6,3.1
		s-4.6,0.9-9.9,0.9c-10.9,0-20.5-4-28.9-12.2c-8.3-8.1-12.5-18.8-12.5-32.1c0-11.8,3.9-22,11.6-30.4s18.6-12.6,32.4-12.6
		c8.6,0,16.2,1.8,22.6,5.3c6.5,3.5,11.3,8.3,14.5,14.1c3.2,5.9,4.8,12.2,4.8,18.9v47.2h-15.6V454.3z"/>
	<path class="st0" d="M466.5,370.5h14.6v9.8c2-3.1,4.9-5.8,8.8-8.1c3.9-2.3,8.3-3.4,13.1-3.4h4.6v14.6H504c-7.6,0-12.8,2.2-15.4,6.5
		c-2.6,4.3-4.4,8-5.3,11c-0.9,3-1.4,6.1-1.4,9.4v44h-15.4L466.5,370.5L466.5,370.5z"/>
	<path class="st0" d="M517.7,331.9h15.4v69.7h7.9c4.1-0.4,6.9-1.3,8.4-2.9c1.5-1.5,2.9-3.1,4.1-4.9c1.2-1.8,2.5-4.1,3.9-6.9
		l9.6-16.4h17.5l-8.2,14.1c-3.9,6.8-7,11.7-9.4,14.8s-4.8,5-7.3,5.7c13.4,2,20.1,9.5,20.1,22.6v26.9h-15.4v-22.2
		c0-5.3-1.2-9.2-3.5-12c-2.3-2.7-5.9-4.1-10.6-4.1h-17v38.3h-15.5V331.9L517.7,331.9z"/>
	<path class="st0" d="M676.2,428.2v-79h15.2v21.3h30v14.7h-30v45.9c0,2.1,0.9,4,2.7,5.8s4.5,2.7,8.3,2.7h19v14.6H702
		c-8.8,0-15.3-2.4-19.5-7.3C678.3,442.2,676.2,435.9,676.2,428.2L676.2,428.2z"/>
	<path class="st1" d="M186.4,368.8c3.4,0,6.8,0.5,10.1,1.3c3.4,0.8,6.8,2.1,10.2,3.7c3.4,1.6,6.5,3.7,9.2,6.2
		c2.8,2.4,5.8,6.1,9.1,10.9c3.3,4.8,4.9,11.8,4.9,20.8c0,6.4-1.5,12.9-4.5,19.7c-3,6.7-6.9,11.9-11.8,15.5s-9.2,6-12.8,7.3
		c-3.6,1.3-7.5,1.9-11.7,1.9c-0.9,0-1.9,0-2.8-0.1c-0.9,0-1.8,0.1-2.8,0.1c-4.2,0-8.1-0.6-11.7-1.9c-3.6-1.2-7.9-3.7-12.8-7.3
		s-8.9-8.8-11.8-15.5c-3-6.7-4.5-13.3-4.5-19.7c0-9,1.6-16,4.9-20.8s6.3-8.5,9.1-10.9c2.8-2.5,5.9-4.5,9.2-6.2
		c3.4-1.7,6.8-2.9,10.2-3.7C179.6,369.3,182.9,368.9,186.4,368.8L186.4,368.8z M186.4,441.4c0.2,0,0.4,0,0.6,0c5.2,0,9.9-1,14-3.1
		s7.2-5.4,9.5-9.9c2.2-4.5,3.3-10.5,3.3-18.1c0-5.3-1.3-10-4-14.1c-1.1-2-2.5-3.8-4.1-5.4c-1.6-1.6-3.5-2.9-5.7-4
		c-4.1-2.2-8.6-3.4-13.6-3.4c-4.9,0-9.5,1.1-13.6,3.4c-2.2,1-4.1,2.4-5.7,4s-3,3.3-4.1,5.4c-2.6,4.1-4,8.8-4,14.1
		c0,7.6,1.1,13.6,3.3,18.1c2.2,4.5,5.4,7.8,9.5,9.9c4.1,2.1,8.7,3.1,14,3.1C186,441.4,186.2,441.4,186.4,441.4L186.4,441.4z"/>
	<path class="st1" d="M115.3,368.8c-3.4,0-6.8,0.5-10.1,1.3c-3.4,0.8-6.8,2.1-10.2,3.7c-3.4,1.6-6.5,3.7-9.2,6.2
		c-2.8,2.4-5.8,6.1-9.1,10.9c-3.3,4.8-4.9,11.8-4.9,20.8c0,6.4,1.5,12.9,4.5,19.7c3,6.7,6.9,11.9,11.8,15.5c4.9,3.6,9.2,6,12.8,7.3
		s7.5,1.9,11.7,1.9c0.9,0,1.9,0,2.8-0.1c0.9,0,1.8,0.1,2.8,0.1c4.2,0,8.1-0.6,11.7-1.9c3.6-1.2,7.9-3.7,12.8-7.3
		c0.6-0.5,1.3-1,1.9-1.5l-1.3-1.8l-1.7-2.7l-1.5-2.8l-1.3-2.8l-0.7-1.5l-0.6-1.5l-0.2-0.4c-2,2.7-4.4,4.8-7.3,6.3
		c-4.1,2.1-8.7,3.1-14,3.1c-0.2,0-0.4,0-0.6,0c-0.2,0-0.4,0-0.6,0c-5.2,0-9.9-1-14-3.1s-7.2-5.4-9.5-9.9c-2.2-4.5-3.3-10.5-3.3-18.1
		c0-5.3,1.3-10,4-14.1c1.1-2,2.5-3.8,4.1-5.4c1.6-1.6,3.5-2.9,5.7-4c4.1-2.2,8.6-3.4,13.6-3.4c4.9,0,9.5,1.1,13.6,3.4
		c2.2,1,4.1,2.4,5.7,4c0.6,0.6,1.2,1.2,1.7,1.8l0.5-1.3l0.7-1.5l0.7-1.5l0.8-1.4l0.8-1.3l1.4-2l1.3-1.8l1.3-1.7l0.5-0.6
		c-2.6-2.2-5.5-4.1-8.7-5.7c-3.4-1.7-6.8-2.9-10.2-3.7C122.1,369.3,118.8,368.9,115.3,368.8L115.3,368.8z"/>
	<path class="st1" d="M43.5,368.8c-3.4,0-6.8,0.5-10.1,1.3c-3.4,0.8-6.8,2.1-10.2,3.7c-3.4,1.6-6.5,3.7-9.2,6.2
		c-2.8,2.4-5.8,6.1-9.1,10.9C1.6,395.7,0,402.7,0,411.7c0,6.4,1.5,12.9,4.5,19.7c3,6.7,6.9,11.9,11.8,15.5c4.9,3.6,9.2,6,12.8,7.3
		s7.5,1.9,11.7,1.9c0.9,0,1.9,0,2.8-0.1c0.9,0,1.8,0.1,2.8,0.1c4.2,0,8.1-0.6,11.7-1.9c3.6-1.2,7.8-3.7,12.8-7.3
		c0.6-0.5,1.3-1,1.9-1.5l-1.3-1.8l-1.7-2.7l-1.5-2.8l-1.3-2.8l-0.7-1.5l-0.6-1.5l-0.2-0.4c-2,2.7-4.4,4.8-7.3,6.3
		c-4.1,2.1-8.7,3.1-14,3.1c-0.2,0-0.4,0-0.6,0s-0.4,0-0.6,0c-5.2,0-9.9-1-14-3.1s-7.2-5.4-9.5-9.9c-1.2-2.3-2-5.1-2.6-8.3h34.5
		c-0.4-2.9-0.6-5.8-0.6-8.7c0-2.1,0.1-4.1,0.2-6.1H16.6c0.6-3.3,1.8-6.4,3.6-9.2c1.1-2,2.5-3.8,4.1-5.4c1.6-1.6,3.5-2.9,5.7-4
		c4.1-2.2,8.6-3.4,13.6-3.4s9.5,1.1,13.6,3.4c2.2,1,4.1,2.4,5.7,4c0.6,0.6,1.2,1.2,1.7,1.8l0.5-1.3l0.6-1.5l0.7-1.5l0.8-1.4l0.8-1.3
		l1.4-2l1.3-1.8l1.3-1.7l0.5-0.6c-2.6-2.2-5.5-4.1-8.7-5.7c-3.4-1.7-6.8-2.9-10.2-3.7C50.3,369.3,47,368.9,43.5,368.8L43.5,368.8z"
		/>
	<path class="st0" d="M633.4,368.8c-3.4,0-6.8,0.5-10.1,1.3c-3.4,0.8-6.8,2.1-10.2,3.7c-3.4,1.6-6.5,3.7-9.2,6.2
		c-2.8,2.4-5.8,6.1-9.1,10.9c-3.3,4.8-4.9,11.8-4.9,20.8c0,6.4,1.5,12.9,4.5,19.7c3,6.7,6.9,11.9,11.8,15.5c4.9,3.6,9.2,6,12.8,7.3
		s7.5,1.9,11.7,1.9c0.9,0,1.9,0,2.8-0.1c0.9,0,1.8,0.1,2.8,0.1c4.2,0,8.1-0.6,11.7-1.9c3.6-1.2,7.9-3.7,12.8-7.3
		c0.6-0.5,1.3-1,1.9-1.5l-1.3-1.8l-1.7-2.7l-1.5-2.8l-1.3-2.8l-0.7-1.5l-0.6-1.5l-0.2-0.4c-2,2.7-4.4,4.8-7.3,6.3
		c-4.1,2.1-8.7,3.1-14,3.1c-0.2,0-0.4,0-0.6,0c-0.2,0-0.4,0-0.6,0c-5.2,0-9.9-1-14-3.1s-7.2-5.4-9.5-9.9c-1.2-2.3-2-5.1-2.6-8.3
		h34.5c-0.4-2.9-0.6-5.8-0.6-8.7c0-2.1,0.1-4.1,0.2-6.1h-34.4c0.6-3.3,1.8-6.4,3.6-9.2c1.1-2,2.5-3.8,4.1-5.4c1.6-1.6,3.5-2.9,5.7-4
		c4.1-2.2,8.6-3.4,13.6-3.4c4.9,0,9.4,1.1,13.5,3.4c2.2,1,4.1,2.4,5.7,4c0.6,0.6,1.2,1.2,1.7,1.8l0.5-1.3l0.7-1.5l0.7-1.5l0.8-1.4
		l0.8-1.3l1.4-2l1.3-1.8l1.3-1.7l0.5-0.6c-2.6-2.2-5.5-4.1-8.7-5.7c-3.4-1.7-6.8-2.9-10.2-3.7C640.2,369.3,636.8,368.9,633.4,368.8
		L633.4,368.8z"/>
</g>
</svg>
