<svg xmlns="http://www.w3.org/2000/svg" width="375" viewBox="0 0 375 375" height="375" version="1.0"><defs><clipPath id="a"><path d="M 103 75 L 311.210938 75 L 311.210938 318.628906 L 103 318.628906 Z M 103 75"/></clipPath><clipPath id="b"><path d="M 67 203 L 183 203 L 183 318.628906 L 67 318.628906 Z M 67 203"/></clipPath><clipPath id="c"><path d="M 63.710938 115 L 179 115 L 179 198 L 63.710938 198 Z M 63.710938 115"/></clipPath><clipPath id="d"><path d="M 71.066406 117.375 L 74 117.375 L 74 196.359375 L 71.066406 196.359375 Z M 71.066406 117.375"/></clipPath><clipPath id="e"><path d="M 98.054688 117.429688 C 77.902344 137.566406 65.4375 165.382812 65.4375 196.109375 L 176.792969 196.109375 L 98.054688 117.429688"/></clipPath><clipPath id="f"><path d="M 78.628906 117.375 L 81.375 117.375 L 81.375 196.359375 L 78.628906 196.359375 Z M 78.628906 117.375"/></clipPath><clipPath id="g"><path d="M 98.054688 117.429688 C 77.902344 137.566406 65.4375 165.382812 65.4375 196.109375 L 176.792969 196.109375 L 98.054688 117.429688"/></clipPath><clipPath id="h"><path d="M 85.5 117.375 L 88.9375 117.375 L 88.9375 196.359375 L 85.5 196.359375 Z M 85.5 117.375"/></clipPath><clipPath id="i"><path d="M 98.054688 117.429688 C 77.902344 137.566406 65.4375 165.382812 65.4375 196.109375 L 176.792969 196.109375 L 98.054688 117.429688"/></clipPath><clipPath id="j"><path d="M 93.058594 117.375 L 96 117.375 L 96 196.359375 L 93.058594 196.359375 Z M 93.058594 117.375"/></clipPath><clipPath id="k"><path d="M 98.054688 117.429688 C 77.902344 137.566406 65.4375 165.382812 65.4375 196.109375 L 176.792969 196.109375 L 98.054688 117.429688"/></clipPath><clipPath id="l"><path d="M 100 117.375 L 103.371094 117.375 L 103.371094 196.359375 L 100 196.359375 Z M 100 117.375"/></clipPath><clipPath id="m"><path d="M 98.054688 117.429688 C 77.902344 137.566406 65.4375 165.382812 65.4375 196.109375 L 176.792969 196.109375 L 98.054688 117.429688"/></clipPath><clipPath id="n"><path d="M 107.492188 117.375 L 110.929688 117.375 L 110.929688 196.359375 L 107.492188 196.359375 Z M 107.492188 117.375"/></clipPath><clipPath id="o"><path d="M 98.054688 117.429688 C 77.902344 137.566406 65.4375 165.382812 65.4375 196.109375 L 176.792969 196.109375 L 98.054688 117.429688"/></clipPath><clipPath id="p"><path d="M 115.054688 117.375 L 117.804688 117.375 L 117.804688 196.359375 L 115.054688 196.359375 Z M 115.054688 117.375"/></clipPath><clipPath id="q"><path d="M 98.054688 117.429688 C 77.902344 137.566406 65.4375 165.382812 65.4375 196.109375 L 176.792969 196.109375 L 98.054688 117.429688"/></clipPath><clipPath id="r"><path d="M 122 117.375 L 125.363281 117.375 L 125.363281 196.359375 L 122 196.359375 Z M 122 117.375"/></clipPath><clipPath id="s"><path d="M 98.054688 117.429688 C 77.902344 137.566406 65.4375 165.382812 65.4375 196.109375 L 176.792969 196.109375 L 98.054688 117.429688"/></clipPath><clipPath id="t"><path d="M 129.488281 117.375 L 132.925781 117.375 L 132.925781 196.359375 L 129.488281 196.359375 Z M 129.488281 117.375"/></clipPath><clipPath id="u"><path d="M 98.054688 117.429688 C 77.902344 137.566406 65.4375 165.382812 65.4375 196.109375 L 176.792969 196.109375 L 98.054688 117.429688"/></clipPath><clipPath id="v"><path d="M 137 117.375 L 139.796875 117.375 L 139.796875 196.359375 L 137 196.359375 Z M 137 117.375"/></clipPath><clipPath id="w"><path d="M 98.054688 117.429688 C 77.902344 137.566406 65.4375 165.382812 65.4375 196.109375 L 176.792969 196.109375 L 98.054688 117.429688"/></clipPath><clipPath id="x"><path d="M 144 117.375 L 147 117.375 L 147 196.359375 L 144 196.359375 Z M 144 117.375"/></clipPath><clipPath id="y"><path d="M 98.054688 117.429688 C 77.902344 137.566406 65.4375 165.382812 65.4375 196.109375 L 176.792969 196.109375 L 98.054688 117.429688"/></clipPath><clipPath id="z"><path d="M 151.480469 117.375 L 154.230469 117.375 L 154.230469 196.359375 L 151.480469 196.359375 Z M 151.480469 117.375"/></clipPath><clipPath id="A"><path d="M 98.054688 117.429688 C 77.902344 137.566406 65.4375 165.382812 65.4375 196.109375 L 176.792969 196.109375 L 98.054688 117.429688"/></clipPath><clipPath id="B"><path d="M 158.355469 117.375 L 161.792969 117.375 L 161.792969 196.359375 L 158.355469 196.359375 Z M 158.355469 117.375"/></clipPath><clipPath id="C"><path d="M 98.054688 117.429688 C 77.902344 137.566406 65.4375 165.382812 65.4375 196.109375 L 176.792969 196.109375 L 98.054688 117.429688"/></clipPath><clipPath id="D"><path d="M 166 117.375 L 169 117.375 L 169 196.359375 L 166 196.359375 Z M 166 117.375"/></clipPath><clipPath id="E"><path d="M 98.054688 117.429688 C 77.902344 137.566406 65.4375 165.382812 65.4375 196.109375 L 176.792969 196.109375 L 98.054688 117.429688"/></clipPath><clipPath id="F"><path d="M 79.3125 205 L 82.75 205 L 82.75 316.546875 L 79.3125 316.546875 Z M 79.3125 205"/></clipPath><clipPath id="G"><path d="M 180.972656 316.296875 L 180.972656 205.027344 L 69.617188 205.027344 C 69.617188 266.480469 119.472656 316.296875 180.972656 316.296875"/></clipPath><clipPath id="H"><path d="M 87 205 L 90 205 L 90 316.546875 L 87 316.546875 Z M 87 205"/></clipPath><clipPath id="I"><path d="M 180.972656 316.296875 L 180.972656 205.027344 L 69.617188 205.027344 C 69.617188 266.480469 119.472656 316.296875 180.972656 316.296875"/></clipPath><clipPath id="J"><path d="M 72.441406 205 L 75.878906 205 L 75.878906 316.546875 L 72.441406 316.546875 Z M 72.441406 205"/></clipPath><clipPath id="K"><path d="M 180.972656 316.296875 L 180.972656 205.027344 L 69.617188 205.027344 C 69.617188 266.480469 119.472656 316.296875 180.972656 316.296875"/></clipPath><clipPath id="L"><path d="M 94.433594 205 L 97.183594 205 L 97.183594 316.546875 L 94.433594 316.546875 Z M 94.433594 205"/></clipPath><clipPath id="M"><path d="M 180.972656 316.296875 L 180.972656 205.027344 L 69.617188 205.027344 C 69.617188 266.480469 119.472656 316.296875 180.972656 316.296875"/></clipPath><clipPath id="N"><path d="M 101.308594 205 L 104.746094 205 L 104.746094 316.546875 L 101.308594 316.546875 Z M 101.308594 205"/></clipPath><clipPath id="O"><path d="M 180.972656 316.296875 L 180.972656 205.027344 L 69.617188 205.027344 C 69.617188 266.480469 119.472656 316.296875 180.972656 316.296875"/></clipPath><clipPath id="P"><path d="M 109 205 L 112 205 L 112 316.546875 L 109 316.546875 Z M 109 205"/></clipPath><clipPath id="Q"><path d="M 180.972656 316.296875 L 180.972656 205.027344 L 69.617188 205.027344 C 69.617188 266.480469 119.472656 316.296875 180.972656 316.296875"/></clipPath><clipPath id="R"><path d="M 116 205 L 119 205 L 119 316.546875 L 116 316.546875 Z M 116 205"/></clipPath><clipPath id="S"><path d="M 180.972656 316.296875 L 180.972656 205.027344 L 69.617188 205.027344 C 69.617188 266.480469 119.472656 316.296875 180.972656 316.296875"/></clipPath><clipPath id="T"><path d="M 123.300781 205 L 126.738281 205 L 126.738281 316.546875 L 123.300781 316.546875 Z M 123.300781 205"/></clipPath><clipPath id="U"><path d="M 180.972656 316.296875 L 180.972656 205.027344 L 69.617188 205.027344 C 69.617188 266.480469 119.472656 316.296875 180.972656 316.296875"/></clipPath><clipPath id="V"><path d="M 130.863281 205 L 133.613281 205 L 133.613281 316.546875 L 130.863281 316.546875 Z M 130.863281 205"/></clipPath><clipPath id="W"><path d="M 180.972656 316.296875 L 180.972656 205.027344 L 69.617188 205.027344 C 69.617188 266.480469 119.472656 316.296875 180.972656 316.296875"/></clipPath><clipPath id="X"><path d="M 138 205 L 141 205 L 141 316.546875 L 138 316.546875 Z M 138 205"/></clipPath><clipPath id="Y"><path d="M 180.972656 316.296875 L 180.972656 205.027344 L 69.617188 205.027344 C 69.617188 266.480469 119.472656 316.296875 180.972656 316.296875"/></clipPath><clipPath id="Z"><path d="M 145.296875 205 L 148.734375 205 L 148.734375 316.546875 L 145.296875 316.546875 Z M 145.296875 205"/></clipPath><clipPath id="aa"><path d="M 180.972656 316.296875 L 180.972656 205.027344 L 69.617188 205.027344 C 69.617188 266.480469 119.472656 316.296875 180.972656 316.296875"/></clipPath><clipPath id="ab"><path d="M 152.167969 205 L 155.605469 205 L 155.605469 316.546875 L 152.167969 316.546875 Z M 152.167969 205"/></clipPath><clipPath id="ac"><path d="M 180.972656 316.296875 L 180.972656 205.027344 L 69.617188 205.027344 C 69.617188 266.480469 119.472656 316.296875 180.972656 316.296875"/></clipPath><clipPath id="ad"><path d="M 160 205 L 163 205 L 163 316.546875 L 160 316.546875 Z M 160 205"/></clipPath><clipPath id="ae"><path d="M 180.972656 316.296875 L 180.972656 205.027344 L 69.617188 205.027344 C 69.617188 266.480469 119.472656 316.296875 180.972656 316.296875"/></clipPath><clipPath id="af"><path d="M 167.289062 205 L 170 205 L 170 316.546875 L 167.289062 316.546875 Z M 167.289062 205"/></clipPath><clipPath id="ag"><path d="M 180.972656 316.296875 L 180.972656 205.027344 L 69.617188 205.027344 C 69.617188 266.480469 119.472656 316.296875 180.972656 316.296875"/></clipPath><clipPath id="ah"><path d="M 174.164062 205 L 177.597656 205 L 177.597656 316.546875 L 174.164062 316.546875 Z M 174.164062 205"/></clipPath><clipPath id="ai"><path d="M 180.972656 316.296875 L 180.972656 205.027344 L 69.617188 205.027344 C 69.617188 266.480469 119.472656 316.296875 180.972656 316.296875"/></clipPath><clipPath id="aj"><path d="M 187.5 197.566406 L 315 197.566406 L 315 325.644531 L 187.5 325.644531 Z M 187.5 197.566406"/></clipPath><clipPath id="ak"><path d="M 191.636719 286 L 208 286 L 208 318.675781 L 191.636719 318.675781 Z M 191.636719 286"/></clipPath><clipPath id="al"><path d="M 211 275 L 228 275 L 228 318.675781 L 211 318.675781 Z M 211 275"/></clipPath><clipPath id="am"><path d="M 231 263 L 248 263 L 248 318.675781 L 231 318.675781 Z M 231 263"/></clipPath><clipPath id="an"><path d="M 251 255 L 268 255 L 268 318.675781 L 251 318.675781 Z M 251 255"/></clipPath><clipPath id="ao"><path d="M 271 245 L 288 245 L 288 318.675781 L 271 318.675781 Z M 271 245"/></clipPath><clipPath id="ap"><path d="M 291 231 L 307 231 L 307 318.675781 L 291 318.675781 Z M 291 231"/></clipPath><clipPath id="aq"><path d="M 280 199.425781 L 302 199.425781 L 302 220 L 280 220 Z M 280 199.425781"/></clipPath></defs><path fill="#FFF" d="M-37.5 -37.5H412.5V412.5H-37.5z"/><path fill="#FFF" d="M-37.5 -37.5H412.5V412.5H-37.5z"/><g clip-path="url(#a)"><path fill="#2B7F5C" d="M 311.214844 196.796875 C 311.074219 161.101562 295.183594 126.714844 267.710938 103.800781 C 239.105469 79.9375 200.441406 70.460938 164.007812 78.347656 C 141.359375 83.253906 120.558594 94.808594 104.128906 111.082031 C 103.46875 111.734375 103.472656 112.855469 104.128906 113.507812 C 113.617188 122.992188 123.105469 132.476562 132.597656 141.960938 C 147.707031 157.058594 162.816406 172.152344 177.925781 187.253906 C 180.285156 189.609375 182.644531 191.96875 185.003906 194.328125 C 185.730469 195.050781 187.445312 197.535156 188.488281 197.804688 C 189.085938 197.960938 188.410156 196.734375 188.1875 197.015625 C 188.011719 197.238281 188.1875 198.328125 188.1875 198.601562 C 188.1875 201.078125 188.1875 203.554688 188.1875 206.035156 C 188.1875 226.515625 188.1875 246.996094 188.1875 267.480469 C 188.1875 277.824219 188.1875 288.171875 188.1875 298.519531 C 188.1875 304.15625 187.917969 309.867188 188.1875 315.5 C 188.199219 315.765625 188.1875 316.035156 188.1875 316.296875 C 188.1875 317.222656 188.976562 318.019531 189.90625 318.011719 C 240.273438 317.816406 286.289062 285.960938 303.78125 238.664062 C 308.730469 225.273438 311.15625 211.058594 311.214844 196.796875 C 311.226562 194.585938 307.789062 194.582031 307.78125 196.796875 C 307.585938 245.507812 276.777344 290.332031 230.890625 307.273438 C 217.757812 312.121094 203.898438 314.527344 189.90625 314.578125 C 190.476562 315.152344 191.050781 315.726562 191.625 316.296875 C 191.625 302.691406 191.625 289.085938 191.625 275.480469 C 191.625 253.890625 191.625 232.296875 191.625 210.707031 C 191.625 207.527344 191.625 204.351562 191.625 201.171875 C 191.625 199.828125 191.871094 198.226562 191.625 196.902344 C 191.398438 195.695312 190.746094 195.207031 189.914062 194.375 C 188.199219 192.660156 186.484375 190.945312 184.769531 189.230469 C 170.300781 174.777344 155.835938 160.324219 141.367188 145.867188 C 133.992188 138.492188 126.609375 131.117188 119.230469 123.746094 C 116.652344 121.171875 114.074219 118.59375 111.496094 116.019531 C 110.128906 114.652344 108.753906 112.792969 107.160156 111.683594 C 106.9375 111.53125 106.75 111.273438 106.558594 111.082031 C 106.558594 111.890625 106.558594 112.699219 106.558594 113.507812 C 134.824219 85.507812 175.933594 73.214844 214.921875 81.667969 C 248.171875 88.875 277.179688 110.671875 293.46875 140.503906 C 302.898438 157.757812 307.699219 177.160156 307.78125 196.796875 C 307.789062 199.003906 311.226562 199.007812 311.214844 196.796875"/></g><path fill="#2B7F5C" d="M 262.851562 108.859375 C 249.894531 98.195312 234.957031 90.433594 218.746094 86.074219 C 217.144531 85.640625 216.460938 88.125 218.0625 88.554688 C 233.828125 92.800781 248.425781 100.304688 261.027344 110.679688 C 262.296875 111.722656 264.128906 109.914062 262.851562 108.859375"/><path fill="#2B7F5C" d="M 274.789062 120.347656 C 272.5 117.8125 270.105469 115.382812 267.613281 113.046875 C 266.402344 111.914062 264.574219 113.734375 265.789062 114.867188 C 268.285156 117.199219 270.679688 119.636719 272.964844 122.171875 C 274.082031 123.40625 275.898438 121.578125 274.789062 120.347656"/><g clip-path="url(#b)"><path fill="#2B7F5C" d="M 182.691406 316.296875 C 182.691406 283.855469 182.691406 251.40625 182.691406 218.960938 C 182.691406 214.316406 182.691406 209.671875 182.691406 205.027344 C 182.691406 204.097656 181.90625 203.308594 180.972656 203.308594 C 148.503906 203.308594 116.035156 203.308594 83.566406 203.308594 C 78.917969 203.308594 74.265625 203.308594 69.617188 203.308594 C 68.691406 203.308594 67.894531 204.09375 67.898438 205.027344 C 68.101562 251.917969 97.757812 294.75 141.851562 311.0625 C 154.367188 315.691406 167.644531 317.957031 180.972656 318.011719 C 183.1875 318.023438 183.1875 314.589844 180.972656 314.578125 C 135.496094 314.386719 93.683594 285.609375 78.011719 242.773438 C 73.582031 230.664062 71.390625 217.910156 71.335938 205.027344 C 70.761719 205.597656 70.191406 206.167969 69.617188 206.742188 C 102.085938 206.742188 134.558594 206.742188 167.027344 206.742188 C 171.675781 206.742188 176.324219 206.742188 180.972656 206.742188 C 180.402344 206.167969 179.828125 205.597656 179.257812 205.027344 C 179.257812 237.46875 179.257812 269.914062 179.257812 302.359375 C 179.257812 307.007812 179.257812 311.648438 179.257812 316.296875 C 179.257812 318.507812 182.691406 318.507812 182.691406 316.296875"/></g><g clip-path="url(#c)"><path fill="#2B7F5C" d="M 96.839844 116.210938 C 75.742188 137.496094 63.871094 166.15625 63.722656 196.109375 C 63.714844 197.035156 64.511719 197.824219 65.4375 197.824219 C 97.910156 197.824219 130.375 197.824219 162.847656 197.824219 C 167.496094 197.824219 172.148438 197.824219 176.792969 197.824219 C 178.28125 197.824219 179.0625 195.945312 178.011719 194.894531 C 155.050781 171.953125 132.09375 149.007812 109.132812 126.070312 C 105.84375 122.78125 102.558594 119.5 99.269531 116.210938 C 97.703125 114.648438 95.273438 117.078125 96.839844 118.640625 C 119.796875 141.582031 142.757812 164.523438 165.714844 187.46875 C 169.003906 190.753906 172.292969 194.035156 175.582031 197.324219 C 175.984375 196.34375 176.390625 195.367188 176.792969 194.390625 C 144.328125 194.390625 111.855469 194.390625 79.386719 194.390625 C 74.738281 194.390625 70.085938 194.390625 65.4375 194.390625 C 66.011719 194.964844 66.582031 195.535156 67.15625 196.109375 C 67.300781 167.046875 78.800781 139.289062 99.269531 118.640625 C 100.828125 117.070312 98.398438 114.640625 96.839844 116.210938"/></g><g clip-path="url(#d)"><g clip-path="url(#e)"><path fill="#2B7F5C" d="M 71.421875 117.429688 C 71.421875 140.378906 71.421875 163.332031 71.421875 186.285156 C 71.421875 189.558594 71.421875 192.832031 71.421875 196.109375 C 71.421875 197.765625 74 197.769531 74 196.109375 C 74 173.15625 74 150.203125 74 127.253906 C 74 123.976562 74 120.703125 74 117.429688 C 74 115.769531 71.421875 115.765625 71.421875 117.429688"/></g></g><g clip-path="url(#f)"><g clip-path="url(#g)"><path fill="#2B7F5C" d="M 78.707031 117.429688 C 78.707031 140.378906 78.707031 163.332031 78.707031 186.285156 C 78.707031 189.558594 78.707031 192.832031 78.707031 196.109375 C 78.707031 197.765625 81.285156 197.769531 81.285156 196.109375 C 81.285156 173.15625 81.285156 150.203125 81.285156 127.253906 C 81.285156 123.976562 81.285156 120.703125 81.285156 117.429688 C 81.285156 115.769531 78.707031 115.765625 78.707031 117.429688"/></g></g><g clip-path="url(#h)"><g clip-path="url(#i)"><path fill="#2B7F5C" d="M 85.996094 117.429688 C 85.996094 140.378906 85.996094 163.332031 85.996094 186.285156 C 85.996094 189.558594 85.996094 192.832031 85.996094 196.109375 C 85.996094 197.765625 88.574219 197.769531 88.574219 196.109375 C 88.574219 173.15625 88.574219 150.203125 88.574219 127.253906 C 88.574219 123.976562 88.574219 120.703125 88.574219 117.429688 C 88.574219 115.769531 85.996094 115.765625 85.996094 117.429688"/></g></g><g clip-path="url(#j)"><g clip-path="url(#k)"><path fill="#2B7F5C" d="M 93.285156 117.429688 C 93.285156 140.378906 93.285156 163.332031 93.285156 186.285156 C 93.285156 189.558594 93.285156 192.832031 93.285156 196.109375 C 93.285156 197.765625 95.859375 197.769531 95.859375 196.109375 C 95.859375 173.15625 95.859375 150.203125 95.859375 127.253906 C 95.859375 123.976562 95.859375 120.703125 95.859375 117.429688 C 95.859375 115.769531 93.285156 115.765625 93.285156 117.429688"/></g></g><g clip-path="url(#l)"><g clip-path="url(#m)"><path fill="#2B7F5C" d="M 100.570312 117.429688 C 100.570312 140.378906 100.570312 163.332031 100.570312 186.285156 C 100.570312 189.558594 100.570312 192.832031 100.570312 196.109375 C 100.570312 197.765625 103.148438 197.769531 103.148438 196.109375 C 103.148438 173.15625 103.148438 150.203125 103.148438 127.253906 C 103.148438 123.976562 103.148438 120.703125 103.148438 117.429688 C 103.148438 115.769531 100.570312 115.765625 100.570312 117.429688"/></g></g><g clip-path="url(#n)"><g clip-path="url(#o)"><path fill="#2B7F5C" d="M 107.855469 117.429688 C 107.855469 140.378906 107.855469 163.332031 107.855469 186.285156 C 107.855469 189.558594 107.855469 192.832031 107.855469 196.109375 C 107.855469 197.765625 110.433594 197.769531 110.433594 196.109375 C 110.433594 173.15625 110.433594 150.203125 110.433594 127.253906 C 110.433594 123.976562 110.433594 120.703125 110.433594 117.429688 C 110.433594 115.769531 107.855469 115.765625 107.855469 117.429688"/></g></g><g clip-path="url(#p)"><g clip-path="url(#q)"><path fill="#2B7F5C" d="M 115.144531 117.429688 C 115.144531 140.378906 115.144531 163.332031 115.144531 186.285156 C 115.144531 189.558594 115.144531 192.832031 115.144531 196.109375 C 115.144531 197.765625 117.722656 197.769531 117.722656 196.109375 C 117.722656 173.15625 117.722656 150.203125 117.722656 127.253906 C 117.722656 123.976562 117.722656 120.703125 117.722656 117.429688 C 117.722656 115.769531 115.144531 115.765625 115.144531 117.429688"/></g></g><g clip-path="url(#r)"><g clip-path="url(#s)"><path fill="#2B7F5C" d="M 122.433594 117.429688 C 122.433594 140.378906 122.433594 163.332031 122.433594 186.285156 C 122.433594 189.558594 122.433594 192.832031 122.433594 196.109375 C 122.433594 197.765625 125.007812 197.769531 125.007812 196.109375 C 125.007812 173.15625 125.007812 150.203125 125.007812 127.253906 C 125.007812 123.976562 125.007812 120.703125 125.007812 117.429688 C 125.007812 115.769531 122.433594 115.765625 122.433594 117.429688"/></g></g><g clip-path="url(#t)"><g clip-path="url(#u)"><path fill="#2B7F5C" d="M 129.71875 117.429688 C 129.71875 140.378906 129.71875 163.332031 129.71875 186.285156 C 129.71875 189.558594 129.71875 192.832031 129.71875 196.109375 C 129.71875 197.765625 132.296875 197.769531 132.296875 196.109375 C 132.296875 173.15625 132.296875 150.203125 132.296875 127.253906 C 132.296875 123.976562 132.296875 120.703125 132.296875 117.429688 C 132.296875 115.769531 129.71875 115.765625 129.71875 117.429688"/></g></g><g clip-path="url(#v)"><g clip-path="url(#w)"><path fill="#2B7F5C" d="M 137.003906 117.429688 C 137.003906 140.378906 137.003906 163.332031 137.003906 186.285156 C 137.003906 189.558594 137.003906 192.832031 137.003906 196.109375 C 137.003906 197.765625 139.582031 197.769531 139.582031 196.109375 C 139.582031 173.15625 139.582031 150.203125 139.582031 127.253906 C 139.582031 123.976562 139.582031 120.703125 139.582031 117.429688 C 139.582031 115.769531 137.003906 115.765625 137.003906 117.429688"/></g></g><g clip-path="url(#x)"><g clip-path="url(#y)"><path fill="#2B7F5C" d="M 144.292969 117.429688 C 144.292969 140.378906 144.292969 163.332031 144.292969 186.285156 C 144.292969 189.558594 144.292969 192.832031 144.292969 196.109375 C 144.292969 197.765625 146.871094 197.769531 146.871094 196.109375 C 146.871094 173.15625 146.871094 150.203125 146.871094 127.253906 C 146.871094 123.976562 146.871094 120.703125 146.871094 117.429688 C 146.871094 115.769531 144.292969 115.765625 144.292969 117.429688"/></g></g><g clip-path="url(#z)"><g clip-path="url(#A)"><path fill="#2B7F5C" d="M 151.582031 117.429688 C 151.582031 140.378906 151.582031 163.332031 151.582031 186.285156 C 151.582031 189.558594 151.582031 192.832031 151.582031 196.109375 C 151.582031 197.765625 154.160156 197.769531 154.160156 196.109375 C 154.160156 173.15625 154.160156 150.203125 154.160156 127.253906 C 154.160156 123.976562 154.160156 120.703125 154.160156 117.429688 C 154.160156 115.769531 151.582031 115.765625 151.582031 117.429688"/></g></g><g clip-path="url(#B)"><g clip-path="url(#C)"><path fill="#2B7F5C" d="M 158.867188 117.429688 C 158.867188 140.378906 158.867188 163.332031 158.867188 186.285156 C 158.867188 189.558594 158.867188 192.832031 158.867188 196.109375 C 158.867188 197.765625 161.445312 197.769531 161.445312 196.109375 C 161.445312 173.15625 161.445312 150.203125 161.445312 127.253906 C 161.445312 123.976562 161.445312 120.703125 161.445312 117.429688 C 161.445312 115.769531 158.867188 115.765625 158.867188 117.429688"/></g></g><g clip-path="url(#D)"><g clip-path="url(#E)"><path fill="#2B7F5C" d="M 166.15625 117.429688 C 166.15625 140.378906 166.15625 163.332031 166.15625 186.285156 C 166.15625 189.558594 166.15625 192.832031 166.15625 196.109375 C 166.15625 197.765625 168.734375 197.769531 168.734375 196.109375 C 168.734375 173.15625 168.734375 150.203125 168.734375 127.253906 C 168.734375 123.976562 168.734375 120.703125 168.734375 117.429688 C 168.734375 115.769531 166.15625 115.765625 166.15625 117.429688"/></g></g><g clip-path="url(#F)"><g clip-path="url(#G)"><path fill="#2B7F5C" d="M 79.902344 205.027344 C 79.902344 237.507812 79.902344 269.996094 79.902344 302.476562 C 79.902344 307.128906 79.902344 311.78125 79.902344 316.433594 C 79.902344 318.089844 82.480469 318.089844 82.480469 316.433594 C 82.480469 283.949219 82.480469 251.464844 82.480469 218.980469 C 82.480469 214.328125 82.480469 209.675781 82.480469 205.027344 C 82.480469 203.367188 79.902344 203.363281 79.902344 205.027344"/></g></g><g clip-path="url(#H)"><g clip-path="url(#I)"><path fill="#2B7F5C" d="M 87.191406 205.027344 C 87.191406 237.507812 87.191406 269.996094 87.191406 302.476562 C 87.191406 307.128906 87.191406 311.78125 87.191406 316.433594 C 87.191406 318.089844 89.769531 318.089844 89.769531 316.433594 C 89.769531 283.949219 89.769531 251.464844 89.769531 218.980469 C 89.769531 214.328125 89.769531 209.675781 89.769531 205.027344 C 89.769531 203.367188 87.191406 203.363281 87.191406 205.027344"/></g></g><g clip-path="url(#J)"><g clip-path="url(#K)"><path fill="#2B7F5C" d="M 72.617188 205.027344 C 72.617188 237.507812 72.617188 269.996094 72.617188 302.476562 C 72.617188 307.128906 72.617188 311.78125 72.617188 316.433594 C 72.617188 318.089844 75.191406 318.089844 75.191406 316.433594 C 75.191406 283.949219 75.191406 251.464844 75.191406 218.980469 C 75.191406 214.328125 75.191406 209.675781 75.191406 205.027344 C 75.191406 203.367188 72.617188 203.363281 72.617188 205.027344"/></g></g><g clip-path="url(#L)"><g clip-path="url(#M)"><path fill="#2B7F5C" d="M 94.476562 205.027344 C 94.476562 237.507812 94.476562 269.996094 94.476562 302.476562 C 94.476562 307.128906 94.476562 311.78125 94.476562 316.433594 C 94.476562 318.089844 97.054688 318.089844 97.054688 316.433594 C 97.054688 283.949219 97.054688 251.464844 97.054688 218.980469 C 97.054688 214.328125 97.054688 209.675781 97.054688 205.027344 C 97.054688 203.367188 94.476562 203.363281 94.476562 205.027344"/></g></g><g clip-path="url(#N)"><g clip-path="url(#O)"><path fill="#2B7F5C" d="M 101.765625 205.027344 C 101.765625 237.507812 101.765625 269.996094 101.765625 302.476562 C 101.765625 307.128906 101.765625 311.78125 101.765625 316.433594 C 101.765625 318.089844 104.34375 318.089844 104.34375 316.433594 C 104.34375 283.949219 104.34375 251.464844 104.34375 218.980469 C 104.34375 214.328125 104.34375 209.675781 104.34375 205.027344 C 104.34375 203.367188 101.765625 203.363281 101.765625 205.027344"/></g></g><g clip-path="url(#P)"><g clip-path="url(#Q)"><path fill="#2B7F5C" d="M 109.050781 205.027344 C 109.050781 237.507812 109.050781 269.996094 109.050781 302.476562 C 109.050781 307.128906 109.050781 311.78125 109.050781 316.433594 C 109.050781 318.089844 111.628906 318.089844 111.628906 316.433594 C 111.628906 283.949219 111.628906 251.464844 111.628906 218.980469 C 111.628906 214.328125 111.628906 209.675781 111.628906 205.027344 C 111.628906 203.367188 109.050781 203.363281 109.050781 205.027344"/></g></g><g clip-path="url(#R)"><g clip-path="url(#S)"><path fill="#2B7F5C" d="M 116.339844 205.027344 C 116.339844 237.507812 116.339844 269.996094 116.339844 302.476562 C 116.339844 307.128906 116.339844 311.78125 116.339844 316.433594 C 116.339844 318.089844 118.917969 318.089844 118.917969 316.433594 C 118.917969 283.949219 118.917969 251.464844 118.917969 218.980469 C 118.917969 214.328125 118.917969 209.675781 118.917969 205.027344 C 118.917969 203.367188 116.339844 203.363281 116.339844 205.027344"/></g></g><g clip-path="url(#T)"><g clip-path="url(#U)"><path fill="#2B7F5C" d="M 123.628906 205.027344 C 123.628906 237.507812 123.628906 269.996094 123.628906 302.476562 C 123.628906 307.128906 123.628906 311.78125 123.628906 316.433594 C 123.628906 318.089844 126.203125 318.089844 126.203125 316.433594 C 126.203125 283.949219 126.203125 251.464844 126.203125 218.980469 C 126.203125 214.328125 126.203125 209.675781 126.203125 205.027344 C 126.203125 203.367188 123.628906 203.363281 123.628906 205.027344"/></g></g><g clip-path="url(#V)"><g clip-path="url(#W)"><path fill="#2B7F5C" d="M 130.914062 205.027344 C 130.914062 237.507812 130.914062 269.996094 130.914062 302.476562 C 130.914062 307.128906 130.914062 311.78125 130.914062 316.433594 C 130.914062 318.089844 133.492188 318.089844 133.492188 316.433594 C 133.492188 283.949219 133.492188 251.464844 133.492188 218.980469 C 133.492188 214.328125 133.492188 209.675781 133.492188 205.027344 C 133.492188 203.367188 130.914062 203.363281 130.914062 205.027344"/></g></g><g clip-path="url(#X)"><g clip-path="url(#Y)"><path fill="#2B7F5C" d="M 138.203125 205.027344 C 138.203125 237.507812 138.203125 269.996094 138.203125 302.476562 C 138.203125 307.128906 138.203125 311.78125 138.203125 316.433594 C 138.203125 318.089844 140.78125 318.089844 140.78125 316.433594 C 140.78125 283.949219 140.78125 251.464844 140.78125 218.980469 C 140.78125 214.328125 140.78125 209.675781 140.78125 205.027344 C 140.78125 203.367188 138.203125 203.363281 138.203125 205.027344"/></g></g><g clip-path="url(#Z)"><g clip-path="url(#aa)"><path fill="#2B7F5C" d="M 145.488281 205.027344 C 145.488281 237.507812 145.488281 269.996094 145.488281 302.476562 C 145.488281 307.128906 145.488281 311.78125 145.488281 316.433594 C 145.488281 318.089844 148.066406 318.089844 148.066406 316.433594 C 148.066406 283.949219 148.066406 251.464844 148.066406 218.980469 C 148.066406 214.328125 148.066406 209.675781 148.066406 205.027344 C 148.066406 203.367188 145.488281 203.363281 145.488281 205.027344"/></g></g><g clip-path="url(#ab)"><g clip-path="url(#ac)"><path fill="#2B7F5C" d="M 152.777344 205.027344 C 152.777344 237.507812 152.777344 269.996094 152.777344 302.476562 C 152.777344 307.128906 152.777344 311.78125 152.777344 316.433594 C 152.777344 318.089844 155.351562 318.089844 155.351562 316.433594 C 155.351562 283.949219 155.351562 251.464844 155.351562 218.980469 C 155.351562 214.328125 155.351562 209.675781 155.351562 205.027344 C 155.351562 203.367188 152.777344 203.363281 152.777344 205.027344"/></g></g><g clip-path="url(#ad)"><g clip-path="url(#ae)"><path fill="#2B7F5C" d="M 160.0625 205.027344 C 160.0625 237.507812 160.0625 269.996094 160.0625 302.476562 C 160.0625 307.128906 160.0625 311.78125 160.0625 316.433594 C 160.0625 318.089844 162.640625 318.089844 162.640625 316.433594 C 162.640625 283.949219 162.640625 251.464844 162.640625 218.980469 C 162.640625 214.328125 162.640625 209.675781 162.640625 205.027344 C 162.640625 203.367188 160.0625 203.363281 160.0625 205.027344"/></g></g><g clip-path="url(#af)"><g clip-path="url(#ag)"><path fill="#2B7F5C" d="M 167.351562 205.027344 C 167.351562 237.507812 167.351562 269.996094 167.351562 302.476562 C 167.351562 307.128906 167.351562 311.78125 167.351562 316.433594 C 167.351562 318.089844 169.929688 318.089844 169.929688 316.433594 C 169.929688 283.949219 169.929688 251.464844 169.929688 218.980469 C 169.929688 214.328125 169.929688 209.675781 169.929688 205.027344 C 169.929688 203.367188 167.351562 203.363281 167.351562 205.027344"/></g></g><g clip-path="url(#ah)"><g clip-path="url(#ai)"><path fill="#2B7F5C" d="M 174.636719 205.027344 C 174.636719 237.507812 174.636719 269.996094 174.636719 302.476562 C 174.636719 307.128906 174.636719 311.78125 174.636719 316.433594 C 174.636719 318.089844 177.214844 318.089844 177.214844 316.433594 C 177.214844 283.949219 177.214844 251.464844 177.214844 218.980469 C 177.214844 214.328125 177.214844 209.675781 177.214844 205.027344 C 177.214844 203.367188 174.636719 203.363281 174.636719 205.027344"/></g></g><path fill="#2B7F5C" d="M 195.714844 213.289062 C 195.714844 228.324219 195.714844 243.355469 195.714844 258.390625 C 195.714844 260.046875 198.292969 260.050781 198.292969 258.390625 C 198.292969 243.355469 198.292969 228.324219 198.292969 213.289062 C 198.292969 211.632812 195.714844 211.628906 195.714844 213.289062"/><path fill="#2B7F5C" d="M 195.714844 264.113281 C 195.714844 267.316406 195.714844 270.523438 195.714844 273.730469 C 195.714844 275.382812 198.292969 275.386719 198.292969 273.730469 C 198.292969 270.523438 198.292969 267.316406 198.292969 264.113281 C 198.292969 262.457031 195.714844 262.453125 195.714844 264.113281"/><path fill="#2B7F5C" d="M 195.714844 279.679688 C 195.714844 281.128906 195.714844 282.578125 195.714844 284.03125 C 195.714844 285.6875 198.292969 285.6875 198.292969 284.03125 C 198.292969 282.578125 198.292969 281.128906 198.292969 279.679688 C 198.292969 278.023438 195.714844 278.019531 195.714844 279.679688"/><path stroke-linecap="round" transform="matrix(3.00085 0 0 3 187.5 196.067)" fill="none" d="M 0.499861 -0.000346958 L 40.739729 -0.000346958" stroke="#2B7F5C"/><g clip-path="url(#aj)"><path fill="#FFF" d="M 315.152344 201.144531 C 315.152344 203.179688 315.101562 205.21875 315 207.253906 C 314.902344 209.289062 314.75 211.320312 314.550781 213.347656 C 314.351562 215.375 314.101562 217.398438 313.804688 219.410156 C 313.503906 221.425781 313.15625 223.433594 312.757812 225.433594 C 312.359375 227.429688 311.914062 229.417969 311.417969 231.394531 C 310.925781 233.371094 310.382812 235.335938 309.789062 237.285156 C 309.199219 239.234375 308.558594 241.167969 307.875 243.085938 C 307.1875 245.003906 306.453125 246.90625 305.675781 248.789062 C 304.894531 250.671875 304.070312 252.53125 303.199219 254.375 C 302.328125 256.214844 301.410156 258.035156 300.449219 259.832031 C 299.488281 261.628906 298.484375 263.402344 297.4375 265.148438 C 296.390625 266.898438 295.300781 268.617188 294.167969 270.3125 C 293.035156 272.007812 291.863281 273.671875 290.648438 275.308594 C 289.4375 276.945312 288.183594 278.550781 286.890625 280.125 C 285.597656 281.699219 284.269531 283.242188 282.898438 284.753906 C 281.53125 286.261719 280.125 287.738281 278.6875 289.179688 C 277.246094 290.621094 275.769531 292.023438 274.261719 293.390625 C 272.75 294.761719 271.207031 296.089844 269.632812 297.382812 C 268.058594 298.675781 266.453125 299.929688 264.816406 301.144531 C 263.179688 302.355469 261.511719 303.53125 259.820312 304.660156 C 258.125 305.792969 256.40625 306.882812 254.65625 307.929688 C 252.910156 308.980469 251.136719 309.984375 249.339844 310.941406 C 247.542969 311.902344 245.722656 312.820312 243.882812 313.691406 C 242.039062 314.5625 240.175781 315.386719 238.296875 316.167969 C 236.414062 316.945312 234.511719 317.679688 232.59375 318.367188 C 230.675781 319.050781 228.742188 319.691406 226.792969 320.28125 C 224.839844 320.875 222.878906 321.417969 220.902344 321.914062 C 218.925781 322.40625 216.9375 322.855469 214.941406 323.25 C 212.941406 323.648438 210.933594 323.996094 208.917969 324.296875 C 206.902344 324.59375 204.882812 324.84375 202.855469 325.042969 C 200.828125 325.246094 198.796875 325.394531 196.761719 325.492188 C 194.726562 325.59375 192.6875 325.644531 190.652344 325.644531 C 188.613281 325.644531 186.578125 325.59375 184.542969 325.492188 C 182.507812 325.394531 180.476562 325.246094 178.449219 325.042969 C 176.421875 324.84375 174.398438 324.59375 172.382812 324.296875 C 170.367188 323.996094 168.359375 323.648438 166.363281 323.25 C 164.363281 322.855469 162.375 322.40625 160.398438 321.914062 C 158.421875 321.417969 156.460938 320.875 154.511719 320.28125 C 152.5625 319.691406 150.625 319.050781 148.707031 318.367188 C 146.789062 317.679688 144.890625 316.945312 143.007812 316.167969 C 141.125 315.386719 139.261719 314.5625 137.421875 313.691406 C 135.578125 312.820312 133.757812 311.902344 131.960938 310.941406 C 130.164062 309.984375 128.394531 308.980469 126.644531 307.929688 C 124.898438 306.882812 123.175781 305.792969 121.480469 304.660156 C 119.789062 303.53125 118.121094 302.355469 116.488281 301.144531 C 114.851562 299.929688 113.242188 298.675781 111.667969 297.382812 C 110.09375 296.089844 108.550781 294.761719 107.042969 293.390625 C 105.53125 292.023438 104.058594 290.621094 102.617188 289.179688 C 101.175781 287.738281 99.769531 286.261719 98.402344 284.753906 C 97.035156 283.242188 95.703125 281.699219 94.410156 280.125 C 93.117188 278.550781 91.867188 276.945312 90.652344 275.308594 C 89.4375 273.671875 88.265625 272.007812 87.132812 270.3125 C 86 268.617188 84.910156 266.898438 83.863281 265.148438 C 82.816406 263.402344 81.8125 261.628906 80.851562 259.832031 C 79.890625 258.035156 78.976562 256.214844 78.105469 254.375 C 77.234375 252.53125 76.40625 250.671875 75.628906 248.789062 C 74.847656 246.90625 74.113281 245.003906 73.429688 243.085938 C 72.742188 241.167969 72.101562 239.234375 71.511719 237.285156 C 70.921875 235.335938 70.378906 233.371094 69.882812 231.394531 C 69.386719 229.417969 68.941406 227.429688 68.542969 225.433594 C 68.144531 223.433594 67.796875 221.425781 67.5 219.410156 C 67.199219 217.398438 66.949219 215.375 66.75 213.347656 C 66.550781 211.320312 66.402344 209.289062 66.300781 207.253906 C 66.199219 205.21875 66.152344 203.179688 66.152344 201.144531 C 66.152344 199.105469 66.199219 197.070312 66.300781 195.035156 C 66.402344 193 66.550781 190.96875 66.75 188.941406 C 66.949219 186.914062 67.199219 184.890625 67.5 182.875 C 67.796875 180.859375 68.144531 178.855469 68.542969 176.855469 C 68.941406 174.855469 69.386719 172.871094 69.882812 170.894531 C 70.378906 168.917969 70.921875 166.953125 71.511719 165.003906 C 72.101562 163.054688 72.742188 161.121094 73.429688 159.203125 C 74.113281 157.28125 74.847656 155.382812 75.628906 153.5 C 76.40625 151.617188 77.234375 149.753906 78.105469 147.914062 C 78.976562 146.070312 79.890625 144.253906 80.851562 142.457031 C 81.8125 140.660156 82.816406 138.886719 83.863281 137.136719 C 84.910156 135.390625 86 133.667969 87.132812 131.976562 C 88.265625 130.28125 89.4375 128.617188 90.652344 126.980469 C 91.867188 125.34375 93.117188 123.738281 94.410156 122.164062 C 95.703125 120.585938 97.035156 119.042969 98.402344 117.535156 C 99.769531 116.023438 101.175781 114.550781 102.617188 113.109375 C 104.058594 111.667969 105.53125 110.265625 107.042969 108.894531 C 108.550781 107.527344 110.09375 106.195312 111.667969 104.902344 C 113.242188 103.613281 114.851562 102.359375 116.488281 101.144531 C 118.121094 99.929688 119.789062 98.757812 121.484375 97.625 C 123.175781 96.492188 124.898438 95.40625 126.644531 94.355469 C 128.394531 93.308594 130.164062 92.304688 131.960938 91.34375 C 133.757812 90.382812 135.578125 89.46875 137.421875 88.597656 C 139.261719 87.726562 141.125 86.902344 143.007812 86.121094 C 144.890625 85.339844 146.789062 84.609375 148.707031 83.921875 C 150.625 83.234375 152.5625 82.597656 154.511719 82.003906 C 156.460938 81.414062 158.421875 80.871094 160.398438 80.375 C 162.375 79.878906 164.363281 79.433594 166.363281 79.035156 C 168.359375 78.640625 170.367188 78.289062 172.382812 77.992188 C 174.398438 77.691406 176.421875 77.441406 178.449219 77.242188 C 180.476562 77.042969 182.507812 76.894531 184.542969 76.792969 C 186.578125 76.695312 188.613281 76.644531 190.652344 76.644531 C 192.6875 76.644531 194.726562 76.695312 196.761719 76.792969 C 198.796875 76.894531 200.828125 77.042969 202.855469 77.242188 C 204.882812 77.441406 206.902344 77.691406 208.917969 77.992188 C 210.933594 78.289062 212.941406 78.640625 214.941406 79.035156 C 216.9375 79.433594 218.925781 79.878906 220.902344 80.375 C 222.878906 80.871094 224.839844 81.414062 226.792969 82.003906 C 228.742188 82.597656 230.675781 83.234375 232.59375 83.921875 C 234.511719 84.609375 236.414062 85.339844 238.296875 86.121094 C 240.175781 86.902344 242.039062 87.726562 243.882812 88.597656 C 245.722656 89.46875 247.542969 90.382812 249.339844 91.34375 C 251.136719 92.304688 252.910156 93.308594 254.65625 94.355469 C 256.40625 95.40625 258.125 96.492188 259.820312 97.625 C 261.511719 98.757812 263.179688 99.929688 264.816406 101.144531 C 266.453125 102.359375 268.058594 103.613281 269.632812 104.902344 C 271.207031 106.195312 272.75 107.527344 274.261719 108.894531 C 275.769531 110.265625 277.246094 111.667969 278.6875 113.109375 C 280.125 114.550781 281.53125 116.023438 282.898438 117.535156 C 284.269531 119.042969 285.597656 120.585938 286.890625 122.164062 C 288.183594 123.738281 289.4375 125.34375 290.648438 126.980469 C 291.863281 128.617188 293.035156 130.28125 294.167969 131.976562 C 295.300781 133.667969 296.390625 135.390625 297.4375 137.136719 C 298.484375 138.886719 299.488281 140.660156 300.449219 142.457031 C 301.410156 144.253906 302.328125 146.070312 303.199219 147.914062 C 304.070312 149.753906 304.894531 151.617188 305.675781 153.5 C 306.453125 155.382812 307.1875 157.28125 307.875 159.203125 C 308.558594 161.121094 309.199219 163.054688 309.789062 165.003906 C 310.382812 166.953125 310.925781 168.917969 311.417969 170.894531 C 311.914062 172.871094 312.359375 174.855469 312.757812 176.855469 C 313.15625 178.855469 313.503906 180.859375 313.804688 182.875 C 314.101562 184.890625 314.351562 186.914062 314.550781 188.941406 C 314.75 190.96875 314.902344 193 315 195.035156 C 315.101562 197.070312 315.152344 199.105469 315.152344 201.144531 Z M 315.152344 201.144531"/></g><g clip-path="url(#ak)"><path fill="#2B7F5C" d="M 195.753906 314.707031 L 203.699219 314.707031 L 203.699219 290.898438 L 195.753906 290.898438 Z M 205.683594 318.675781 L 193.765625 318.675781 C 192.671875 318.675781 191.78125 317.785156 191.78125 316.691406 L 191.78125 288.914062 C 191.78125 287.820312 192.671875 286.929688 193.765625 286.929688 L 205.683594 286.929688 C 206.777344 286.929688 207.671875 287.820312 207.671875 288.914062 L 207.671875 316.691406 C 207.671875 317.785156 206.777344 318.675781 205.683594 318.675781"/></g><g clip-path="url(#al)"><path fill="#2B7F5C" d="M 215.617188 314.707031 L 223.5625 314.707031 L 223.5625 278.992188 L 215.617188 278.992188 Z M 225.550781 318.675781 L 213.628906 318.675781 C 212.535156 318.675781 211.644531 317.785156 211.644531 316.691406 L 211.644531 277.007812 C 211.644531 275.914062 212.535156 275.023438 213.628906 275.023438 L 225.550781 275.023438 C 226.644531 275.023438 227.535156 275.914062 227.535156 277.007812 L 227.535156 316.691406 C 227.535156 317.785156 226.644531 318.675781 225.550781 318.675781"/></g><g clip-path="url(#am)"><path fill="#2B7F5C" d="M 235.480469 314.707031 L 243.425781 314.707031 L 243.425781 267.085938 L 235.480469 267.085938 Z M 245.414062 318.675781 L 233.496094 318.675781 C 232.398438 318.675781 231.507812 317.785156 231.507812 316.691406 L 231.507812 265.101562 C 231.507812 264.007812 232.398438 263.117188 233.496094 263.117188 L 245.414062 263.117188 C 246.507812 263.117188 247.398438 264.007812 247.398438 265.101562 L 247.398438 316.691406 C 247.398438 317.785156 246.507812 318.675781 245.414062 318.675781"/></g><g clip-path="url(#an)"><path fill="#2B7F5C" d="M 255.34375 314.707031 L 263.289062 314.707031 L 263.289062 259.148438 L 255.34375 259.148438 Z M 265.277344 318.675781 L 253.359375 318.675781 C 252.265625 318.675781 251.371094 317.785156 251.371094 316.691406 L 251.371094 257.164062 C 251.371094 256.074219 252.265625 255.179688 253.359375 255.179688 L 265.277344 255.179688 C 266.371094 255.179688 267.261719 256.074219 267.261719 257.164062 L 267.261719 316.691406 C 267.261719 317.785156 266.371094 318.675781 265.277344 318.675781"/></g><g clip-path="url(#ao)"><path fill="#2B7F5C" d="M 275.207031 314.707031 L 283.152344 314.707031 L 283.152344 249.230469 L 275.207031 249.230469 Z M 285.140625 318.675781 L 273.222656 318.675781 C 272.128906 318.675781 271.234375 317.785156 271.234375 316.691406 L 271.234375 247.246094 C 271.234375 246.152344 272.128906 245.261719 273.222656 245.261719 L 285.140625 245.261719 C 286.234375 245.261719 287.125 246.152344 287.125 247.246094 L 287.125 316.691406 C 287.125 317.785156 286.234375 318.675781 285.140625 318.675781"/></g><g clip-path="url(#ap)"><path fill="#2B7F5C" d="M 295.070312 314.707031 L 303.015625 314.707031 L 303.015625 235.339844 L 295.070312 235.339844 Z M 305.003906 318.675781 L 293.085938 318.675781 C 291.992188 318.675781 291.097656 317.785156 291.097656 316.691406 L 291.097656 233.355469 C 291.097656 232.261719 291.992188 231.371094 293.085938 231.371094 L 305.003906 231.371094 C 306.097656 231.371094 306.988281 232.261719 306.988281 233.355469 L 306.988281 316.691406 C 306.988281 317.785156 306.097656 318.675781 305.003906 318.675781"/></g><g clip-path="url(#aq)"><path fill="#2B7F5C" d="M 291.097656 212.933594 C 291.417969 212.933594 291.734375 213.007812 292.023438 213.164062 L 293.683594 214.03125 L 293.363281 212.1875 C 293.257812 211.542969 293.472656 210.886719 293.9375 210.4375 L 295.28125 209.125 L 293.425781 208.855469 C 292.773438 208.761719 292.214844 208.359375 291.929688 207.769531 L 291.097656 206.089844 L 290.269531 207.769531 C 289.980469 208.359375 289.421875 208.761719 288.769531 208.855469 L 286.917969 209.125 L 288.257812 210.4375 C 288.726562 210.886719 288.941406 211.542969 288.832031 212.1875 L 288.515625 214.03125 L 290.175781 213.164062 C 290.460938 213.007812 290.78125 212.933594 291.097656 212.933594 Z M 296.320312 219.644531 C 296.003906 219.644531 295.683594 219.566406 295.398438 219.417969 L 291.097656 217.164062 L 286.800781 219.417969 C 286.132812 219.769531 285.328125 219.714844 284.707031 219.265625 C 284.101562 218.824219 283.789062 218.070312 283.921875 217.328125 L 284.738281 212.542969 L 281.261719 209.15625 C 280.726562 208.628906 280.53125 207.847656 280.765625 207.125 C 280.996094 206.40625 281.617188 205.886719 282.363281 205.777344 L 287.171875 205.082031 L 289.316406 200.734375 C 289.988281 199.375 292.207031 199.375 292.882812 200.734375 L 295.023438 205.082031 L 299.835938 205.777344 C 300.582031 205.886719 301.203125 206.40625 301.433594 207.125 C 301.667969 207.847656 301.472656 208.628906 300.9375 209.15625 L 297.460938 212.542969 L 298.277344 217.328125 C 298.410156 218.070312 298.097656 218.824219 297.492188 219.265625 C 297.144531 219.519531 296.730469 219.644531 296.320312 219.644531"/></g><path fill="#2B7F5C" d="M 230.105469 243.859375 L 203.699219 270.234375 L 200.546875 267.085938 L 228.359375 239.308594 L 253.359375 239.308594 C 253.886719 239.308594 254.390625 239.097656 254.761719 238.726562 L 265.277344 228.222656 L 268.425781 231.371094 L 256.507812 243.277344 L 231.507812 243.277344 C 230.980469 243.277344 230.476562 243.484375 230.105469 243.859375 Z M 275.207031 221.449219 L 275.207031 232.535156 L 264.113281 221.449219 Z M 257.332031 247.246094 C 257.859375 247.246094 258.363281 247.035156 258.734375 246.664062 L 271.234375 234.175781 L 275.789062 238.726562 C 276.171875 239.105469 276.675781 239.308594 277.195312 239.308594 C 277.449219 239.308594 277.707031 239.261719 277.953125 239.152344 C 278.699219 238.851562 279.179688 238.128906 279.179688 237.324219 L 279.179688 219.464844 C 279.179688 218.375 278.289062 217.480469 277.195312 217.480469 L 259.316406 217.480469 C 258.511719 217.480469 257.789062 217.960938 257.484375 218.707031 C 257.175781 219.449219 257.347656 220.304688 257.914062 220.867188 L 262.46875 225.417969 L 252.535156 235.339844 L 227.535156 235.339844 C 227.007812 235.339844 226.503906 235.550781 226.128906 235.921875 L 196.335938 265.683594 C 195.558594 266.457031 195.558594 267.714844 196.335938 268.488281 L 202.292969 274.441406 C 202.683594 274.828125 203.1875 275.023438 203.699219 275.023438 C 204.210938 275.023438 204.714844 274.828125 205.101562 274.441406 L 232.332031 247.246094 L 257.332031 247.246094"/></svg>