<?xml version="1.0" encoding="utf-8"?>
<!-- Generator: Adobe Illustrator 16.0.2, SVG Export Plug-In . SVG Version: 6.00 Build 0)  -->
<!DOCTYPE svg PUBLIC "-//W3C//DTD SVG 1.1//EN" "http://www.w3.org/Graphics/SVG/1.1/DTD/svg11.dtd">
<svg version="1.1" id="Layer_1" xmlns="http://www.w3.org/2000/svg" xmlns:xlink="http://www.w3.org/1999/xlink" x="0px" y="0px"
	 width="66.602px" height="65.249px" viewBox="154.041 164.318 66.602 65.249"
	 enable-background="new 154.041 164.318 66.602 65.249" xml:space="preserve">
<g>
	<g>
		
			<linearGradient id="SVGID_1_" gradientUnits="userSpaceOnUse" x1="156.9338" y1="-156.6582" x2="211.7424" y2="-156.6582" gradientTransform="matrix(1 0 0 -1 8.3999 40.1602)">
			<stop  offset="0" style="stop-color:#234930"/>
			<stop  offset="1" style="stop-color:#83B645"/>
		</linearGradient>
		<linearGradient id="SVGID_2_" gradientUnits="userSpaceOnUse" x1="164.8342" y1="196.9434" x2="220.6428" y2="196.9434">
			<stop  offset="0" style="stop-color:#234930"/>
			<stop  offset="1" style="stop-color:#83B645"/>
		</linearGradient>
		<path fill="url(#SVGID_1_)" stroke="url(#SVGID_2_)" stroke-miterlimit="10" d="M220.143,196.813
			c-0.037-9.424-4.231-18.504-11.485-24.555c-7.555-6.301-17.763-8.803-27.383-6.721c-5.979,1.295-11.472,4.347-15.811,8.645
			c-0.174,0.172-0.173,0.467,0,0.639c2.505,2.505,5.011,5.01,7.517,7.514c3.99,3.986,7.979,7.973,11.97,11.959
			c0.622,0.622,1.245,1.245,1.868,1.868c0.192,0.19,0.646,0.847,0.92,0.918c0.158,0.041-0.021-0.283-0.078-0.209
			c-0.047,0.06,0,0.347,0,0.419c0,0.654,0,1.309,0,1.963c0,5.408,0,10.814,0,16.225c0,2.73,0,5.463,0,8.195
			c0,1.488-0.071,2.996,0,4.483c0.003,0.069,0,0.142,0,0.21c0,0.244,0.208,0.455,0.453,0.453c13.3-0.053,25.449-8.463,30.067-20.951
			C219.487,204.332,220.127,200.578,220.143,196.813c0.003-0.584-0.904-0.584-0.906,0c-0.052,12.862-8.187,24.697-20.303,29.172
			c-3.468,1.279-7.127,1.914-10.821,1.929c0.15,0.151,0.303,0.303,0.454,0.453c0-3.593,0-7.185,0-10.777c0-5.7,0-11.401,0-17.103
			c0-0.84,0-1.678,0-2.519c0-0.354,0.064-0.776,0-1.127c-0.061-0.319-0.231-0.448-0.451-0.668c-0.453-0.452-0.905-0.905-1.358-1.358
			c-3.82-3.814-7.64-7.631-11.46-11.448c-1.947-1.947-3.896-3.896-5.845-5.841c-0.682-0.68-1.362-1.36-2.042-2.041
			c-0.361-0.36-0.725-0.852-1.146-1.145c-0.059-0.04-0.108-0.107-0.159-0.158c0,0.213,0,0.426,0,0.64
			c7.463-7.394,18.318-10.64,28.613-8.407c8.779,1.902,16.438,7.658,20.739,15.535c2.489,4.556,3.758,9.679,3.778,14.863
			C219.239,197.396,220.146,197.396,220.143,196.813"/>
	</g>
</g>
<linearGradient id="SVGID_3_" gradientUnits="userSpaceOnUse" x1="184.9055" y1="-132.7007" x2="197.0872" y2="-132.7007" gradientTransform="matrix(1 0 0 -1 8.3999 40.1602)">
	<stop  offset="0" style="stop-color:#234930"/>
	<stop  offset="1" style="stop-color:#83B645"/>
</linearGradient>
<linearGradient id="SVGID_4_" gradientUnits="userSpaceOnUse" x1="192.8049" y1="172.8613" x2="205.9875" y2="172.8613">
	<stop  offset="0" style="stop-color:#234930"/>
	<stop  offset="1" style="stop-color:#83B645"/>
</linearGradient>
<path fill="url(#SVGID_3_)" stroke="url(#SVGID_4_)" stroke-miterlimit="10" d="M205.373,175.594
	c-3.421-2.816-7.365-4.865-11.646-6.016c-0.423-0.115-0.604,0.542-0.181,0.654c4.163,1.121,8.017,3.104,11.345,5.843
	C205.227,176.35,205.71,175.872,205.373,175.594"/>
<linearGradient id="SVGID_5_" gradientUnits="userSpaceOnUse" x1="198.6018" y1="-138.5986" x2="201.175" y2="-138.5986" gradientTransform="matrix(1 0 0 -1 8.3999 40.1602)">
	<stop  offset="0" style="stop-color:#234930"/>
	<stop  offset="1" style="stop-color:#83B645"/>
</linearGradient>
<linearGradient id="SVGID_6_" gradientUnits="userSpaceOnUse" x1="206.5022" y1="178.7578" x2="210.0754" y2="178.7578">
	<stop  offset="0" style="stop-color:#234930"/>
	<stop  offset="1" style="stop-color:#83B645"/>
</linearGradient>
<path fill="url(#SVGID_5_)" stroke="url(#SVGID_6_)" stroke-miterlimit="10" d="M209.484,179.475
	c-0.604-0.669-1.235-1.311-1.895-1.928c-0.319-0.299-0.802,0.182-0.481,0.48c0.659,0.615,1.291,1.26,1.896,1.928
	C209.297,180.283,209.777,179.8,209.484,179.475"/>
<g>
	<g>
		
			<linearGradient id="SVGID_7_" gradientUnits="userSpaceOnUse" x1="147.3948" y1="-173.5151" x2="177.7053" y2="-173.5151" gradientTransform="matrix(1 0 0 -1 8.3999 40.1602)">
			<stop  offset="0" style="stop-color:#234930"/>
			<stop  offset="1" style="stop-color:#83B645"/>
		</linearGradient>
		<linearGradient id="SVGID_8_" gradientUnits="userSpaceOnUse" x1="155.0305" y1="213.5547" x2="186.8577" y2="213.5547">
			<stop  offset="0" style="stop-color:#234930"/>
			<stop  offset="1" style="stop-color:#83B645"/>
		</linearGradient>
		<path fill="url(#SVGID_7_)" stroke="url(#SVGID_8_)" stroke-miterlimit="10" d="M186.106,228.365c0-8.565,0-17.135,0-25.7
			c0-1.228,0-2.453,0-3.679c0-0.246-0.208-0.454-0.454-0.454c-8.573,0-17.146,0-25.719,0c-1.228,0-2.456,0-3.684,0
			c-0.245,0-0.455,0.207-0.454,0.454c0.055,12.381,7.885,23.689,19.526,27.996c3.305,1.224,6.811,1.82,10.33,1.836
			c0.585,0.003,0.585-0.903,0-0.906c-12.008-0.051-23.048-7.648-27.187-18.96c-1.169-3.197-1.748-6.563-1.763-9.966
			c-0.151,0.149-0.302,0.301-0.454,0.451c8.573,0,17.147,0,25.72,0c1.229,0,2.455,0,3.683,0c-0.15-0.15-0.302-0.302-0.453-0.451
			c0,8.564,0,17.132,0,25.699c0,1.228,0,2.453,0,3.68C185.198,228.949,186.106,228.949,186.106,228.365"/>
	</g>
</g>
<g>
	<g>
		
			<linearGradient id="SVGID_9_" gradientUnits="userSpaceOnUse" x1="146.3948" y1="-146.082" x2="176.6995" y2="-146.082" gradientTransform="matrix(1 0 0 -1 8.3999 40.1602)">
			<stop  offset="0" style="stop-color:#234930"/>
			<stop  offset="1" style="stop-color:#83B645"/>
		</linearGradient>
		<linearGradient id="SVGID_10_" gradientUnits="userSpaceOnUse" x1="154.0413" y1="186.3711" x2="185.5999" y2="186.3711">
			<stop  offset="0" style="stop-color:#234930"/>
			<stop  offset="1" style="stop-color:#83B645"/>
		</linearGradient>
		<path fill="url(#SVGID_9_)" stroke="url(#SVGID_10_)" stroke-miterlimit="10" d="M163.539,175.535
			c-5.571,5.62-8.705,13.188-8.744,21.096c-0.002,0.245,0.208,0.453,0.453,0.453c8.573,0,17.146,0,25.72,0c1.228,0,2.456,0,3.682,0
			c0.394,0,0.6-0.496,0.322-0.773c-6.063-6.058-12.124-12.115-18.187-18.172c-0.868-0.869-1.736-1.734-2.604-2.604
			c-0.414-0.413-1.055,0.229-0.642,0.642c6.062,6.058,12.124,12.115,18.186,18.173c0.869,0.867,1.737,1.734,2.605,2.604
			c0.105-0.26,0.213-0.518,0.319-0.773c-8.571,0-17.146,0-25.719,0c-1.228,0-2.456,0-3.683,0c0.15,0.15,0.302,0.301,0.454,0.452
			c0.038-7.674,3.074-15.002,8.479-20.455C164.593,175.762,163.951,175.12,163.539,175.535"/>
	</g>
</g>
</svg>
