<svg xmlns="http://www.w3.org/2000/svg" width="375" viewBox="0 0 375 375" height="375" version="1.0"><defs><clipPath id="a"><path d="M 55 59 L 312 59 L 312 315.996094 L 55 315.996094 Z M 55 59"/></clipPath><clipPath id="b"><path d="M 190 221 L 233 221 L 233 284.5 L 190 284.5 Z M 190 221"/></clipPath><clipPath id="c"><path d="M 126 221 L 169 221 L 169 284.5 L 126 284.5 Z M 126 221"/></clipPath><clipPath id="d"><path d="M 205 228 L 241.84375 228 L 241.84375 270 L 205 270 Z M 205 228"/></clipPath><clipPath id="e"><path d="M 117.34375 228 L 154 228 L 154 270 L 117.34375 270 Z M 117.34375 228"/></clipPath><clipPath id="f"><path d="M 172 198.25 L 188 198.25 L 188 214 L 172 214 Z M 172 198.25"/></clipPath><clipPath id="g"><path d="M 117.34375 172 L 152.59375 172 L 152.59375 197.925781 L 117.34375 197.925781 Z M 117.34375 172"/></clipPath><clipPath id="h"><path d="M 117.34375 152.175781 L 152 152.175781 L 152 197 L 117.34375 197 Z M 117.34375 152.175781"/></clipPath><clipPath id="i"><path d="M 206.316406 172 L 241.566406 172 L 241.566406 197.925781 L 206.316406 197.925781 Z M 206.316406 172"/></clipPath><clipPath id="j"><path d="M 206.316406 152.175781 L 241 152.175781 L 241 197 L 206.316406 197 Z M 206.316406 152.175781"/></clipPath></defs><path fill="#FFF" d="M-37.5 -37.5H412.5V412.5H-37.5z"/><path fill="#FFF" d="M-37.5 -37.5H412.5V412.5H-37.5z"/><g clip-path="url(#a)"><path fill="#2B7F5C" d="M 310.144531 184.003906 L 187.15625 61.015625 C 185.152344 59.011719 181.914062 59.011719 179.910156 61.015625 L 116.914062 124.011719 L 116.914062 95.386719 C 116.914062 92.558594 114.617188 90.261719 111.789062 90.261719 C 108.960938 90.261719 106.664062 92.558594 106.664062 95.386719 L 106.664062 134.261719 L 56.921875 184.003906 C 54.917969 186.007812 54.917969 189.246094 56.921875 191.25 C 58.925781 193.253906 62.164062 193.253906 64.167969 191.25 L 86.167969 169.25 L 86.167969 310.617188 C 86.167969 313.449219 88.460938 315.738281 91.289062 315.738281 L 275.773438 315.738281 C 278.605469 315.738281 280.898438 313.449219 280.898438 310.617188 L 280.898438 169.25 L 302.898438 191.25 C 303.894531 192.25 305.207031 192.75 306.519531 192.75 C 307.832031 192.75 309.144531 192.25 310.144531 191.25 C 312.144531 189.246094 312.144531 186.007812 310.144531 184.003906 Z M 270.648438 305.492188 L 96.414062 305.492188 L 96.414062 159 L 115.410156 140.003906 C 115.410156 140.003906 115.410156 140.003906 115.417969 140 L 183.53125 71.886719 L 270.648438 159 Z M 270.648438 305.492188"/></g><g clip-path="url(#b)"><path fill="#2B7F5C" d="M 201.148438 270.945312 C 201.148438 273.796875 201.234375 276.652344 201.125 279.503906 C 201.003906 282.625 199.089844 284.449219 196.132812 284.519531 C 193.210938 284.585938 190.878906 282.8125 190.816406 279.804688 C 190.644531 271.453125 190.652344 263.09375 190.804688 254.742188 C 190.859375 251.921875 193.15625 250.089844 196.191406 250.015625 C 199.96875 249.925781 203.75 249.914062 207.527344 250.011719 C 209.339844 250.058594 210.128906 249.777344 210.28125 247.605469 C 210.648438 242.339844 211.570312 237.125 213.15625 232.0625 C 215.082031 225.894531 220.464844 221.949219 226.886719 221.992188 C 231.371094 222.023438 233.320312 224.558594 232.132812 229.03125 C 230.339844 235.792969 228.457031 242.527344 226.589844 249.269531 C 223.589844 260.101562 223.582031 260.097656 212.1875 260.097656 C 209.53125 260.097656 206.863281 260.238281 204.222656 260.054688 C 201.910156 259.890625 200.878906 260.441406 201.117188 263.003906 C 201.359375 265.628906 201.171875 268.296875 201.171875 270.945312 C 201.164062 270.945312 201.15625 270.945312 201.148438 270.945312 Z M 201.148438 270.945312" fill-rule="evenodd"/></g><g clip-path="url(#c)"><path fill="#2B7F5C" d="M 168.476562 267.273438 C 168.476562 271.148438 168.523438 275.023438 168.460938 278.894531 C 168.402344 282.4375 166.261719 284.582031 163.019531 284.511719 C 159.90625 284.445312 158.027344 282.378906 158.003906 278.859375 C 157.964844 273.558594 157.882812 268.253906 158.046875 262.957031 C 158.113281 260.753906 157.664062 259.921875 155.246094 260.035156 C 150.65625 260.246094 146.046875 260.128906 141.449219 260.085938 C 137.34375 260.046875 135.097656 258.335938 133.972656 254.296875 C 131.578125 245.699219 129.21875 237.085938 126.925781 228.460938 C 125.898438 224.59375 127.914062 222.089844 131.933594 221.992188 C 138.660156 221.828125 144.40625 225.960938 146.257812 232.578125 C 147.601562 237.375 148.609375 242.273438 148.828125 247.265625 C 148.917969 249.292969 149.445312 250.164062 151.660156 250.035156 C 154.917969 249.839844 158.199219 249.972656 161.46875 249.984375 C 166.722656 250.007812 168.464844 251.726562 168.476562 256.875 C 168.480469 260.339844 168.476562 263.808594 168.476562 267.273438 Z M 168.476562 267.273438" fill-rule="evenodd"/></g><path fill="#2B7F5C" d="M 179.941406 216.480469 C 183.105469 216.480469 186.265625 216.445312 189.433594 216.484375 C 194.984375 216.554688 199 220.527344 199.167969 226.074219 C 199.195312 226.890625 199.175781 227.703125 199.175781 228.519531 C 199.179688 232.589844 199.171875 232.472656 195.238281 232.597656 C 193.1875 232.664062 192.238281 232.21875 192.492188 229.972656 C 192.605469 229 193.089844 227.226562 191.625 227.171875 C 189.996094 227.105469 190.542969 228.90625 190.667969 229.835938 C 190.992188 232.242188 189.984375 232.671875 187.792969 232.605469 C 182.488281 232.441406 177.175781 232.441406 171.875 232.605469 C 169.691406 232.671875 168.902344 232 169.242188 229.890625 C 169.324219 229.394531 169.269531 228.871094 169.21875 228.367188 C 169.164062 227.75 169.035156 227.023438 168.261719 227.066406 C 167.59375 227.105469 167.257812 227.675781 167.300781 228.382812 C 167.304688 228.484375 167.316406 228.585938 167.300781 228.6875 C 167.109375 229.945312 167.96875 231.90625 166.800781 232.335938 C 165.183594 232.933594 163.1875 232.519531 161.355469 232.539062 C 160.71875 232.542969 160.445312 232.179688 160.46875 231.59375 C 160.609375 228.46875 159.824219 225.21875 161.21875 222.25 C 162.898438 218.675781 165.769531 216.582031 169.835938 216.492188 C 173.199219 216.417969 176.570312 216.480469 179.941406 216.480469 Z M 179.941406 216.480469" fill-rule="evenodd"/><path fill="#2B7F5C" d="M 180.132812 242.214844 C 171.75 242.214844 163.363281 242.097656 154.984375 242.285156 C 152.441406 242.339844 152.417969 241.148438 152.605469 239.378906 C 152.769531 237.78125 151.710938 235.761719 154.984375 235.789062 C 171.644531 235.929688 188.308594 235.925781 204.96875 235.78125 C 207.839844 235.753906 207.199219 237.40625 207.121094 238.878906 C 207.046875 240.324219 208.125 242.351562 204.96875 242.277344 C 196.695312 242.089844 188.410156 242.214844 180.132812 242.214844 Z M 180.132812 242.214844" fill-rule="evenodd"/><g clip-path="url(#d)"><path fill="#2B7F5C" d="M 213.984375 269.761719 C 212.25 269.761719 210.511719 269.75 208.773438 269.761719 C 206.964844 269.777344 205.746094 268.941406 205.65625 267.128906 C 205.558594 265.148438 206.945312 264.574219 208.703125 264.578125 C 211.5625 264.589844 214.425781 264.59375 217.285156 264.578125 C 223.761719 264.546875 227.570312 261.679688 229.292969 255.457031 C 231.53125 247.34375 233.738281 239.226562 235.90625 231.097656 C 236.402344 229.226562 237.214844 227.625 239.394531 228.269531 C 241.488281 228.882812 241.457031 230.628906 240.945312 232.519531 C 238.742188 240.644531 236.710938 248.816406 234.460938 256.929688 C 232.171875 265.179688 225.960938 269.746094 217.359375 269.761719 C 216.234375 269.761719 215.109375 269.761719 213.984375 269.761719 Z M 213.984375 269.761719" fill-rule="evenodd"/></g><g clip-path="url(#e)"><path fill="#2B7F5C" d="M 144.902344 269.761719 C 142.828125 269.597656 140.402344 269.867188 137.941406 269.382812 C 131.144531 268.046875 126.824219 263.996094 124.933594 257.550781 C 122.511719 249.277344 120.433594 240.902344 118.238281 232.566406 C 117.769531 230.789062 117.628906 228.859375 119.816406 228.253906 C 121.996094 227.648438 122.796875 229.234375 123.296875 231.121094 C 125.425781 239.160156 127.648438 247.175781 129.808594 255.207031 C 131.5 261.507812 135.414062 264.554688 141.941406 264.578125 C 144.804688 264.589844 147.664062 264.589844 150.527344 264.582031 C 152.28125 264.574219 153.730469 265.230469 153.632812 267.121094 C 153.546875 268.8125 152.308594 269.785156 150.476562 269.765625 C 148.738281 269.746094 147 269.761719 144.902344 269.761719 Z M 144.902344 269.761719" fill-rule="evenodd"/></g><path fill="#2B7F5C" d="M 231.707031 210.671875 C 231.699219 215.300781 227.988281 218.988281 223.355469 218.96875 C 218.714844 218.945312 215.046875 215.25 215.066406 210.605469 C 215.085938 205.972656 218.773438 202.335938 223.433594 202.351562 C 228.109375 202.371094 231.710938 205.992188 231.707031 210.671875 Z M 231.707031 210.671875" fill-rule="evenodd"/><path fill="#2B7F5C" d="M 144.085938 210.449219 C 144.125 215.128906 140.535156 218.863281 135.910156 218.957031 C 131.421875 219.042969 127.460938 215.230469 127.351562 210.710938 C 127.238281 206.078125 131.109375 202.308594 135.964844 202.320312 C 140.503906 202.335938 144.046875 205.878906 144.085938 210.449219 Z M 144.085938 210.449219" fill-rule="evenodd"/><g clip-path="url(#f)"><path fill="#2B7F5C" d="M 187.582031 206.035156 C 187.601562 210.410156 184.269531 213.710938 179.871094 213.679688 C 175.574219 213.648438 172.085938 210.148438 172.152344 205.933594 C 172.210938 201.890625 175.710938 198.441406 179.816406 198.378906 C 184.121094 198.308594 187.566406 201.699219 187.582031 206.035156 Z M 187.582031 206.035156" fill-rule="evenodd"/></g><g clip-path="url(#g)"><path fill="#2B7F5C" d="M 208.632812 217.984375 C 209.191406 217.550781 209.695312 217.0625 210.148438 216.523438 C 210.605469 215.988281 211 215.40625 211.335938 214.785156 C 211.671875 214.167969 211.9375 213.519531 212.140625 212.84375 C 212.339844 212.167969 212.46875 211.476562 212.527344 210.773438 C 212.585938 210.074219 212.570312 209.371094 212.480469 208.671875 C 212.394531 207.972656 212.234375 207.289062 212.007812 206.625 C 211.777344 205.957031 211.480469 205.320312 211.121094 204.714844 C 210.761719 204.109375 210.339844 203.546875 209.863281 203.027344 C 209.386719 202.511719 208.859375 202.046875 208.285156 201.636719 C 207.710938 201.226562 207.101562 200.882812 206.457031 200.597656 C 205.8125 200.316406 205.144531 200.101562 204.453125 199.957031 C 203.761719 199.8125 203.066406 199.738281 202.359375 199.738281 C 201.65625 199.738281 200.957031 199.8125 200.269531 199.957031 C 199.578125 200.101562 198.910156 200.316406 198.265625 200.597656 C 197.621094 200.882812 197.011719 201.226562 196.4375 201.636719 C 195.863281 202.046875 195.335938 202.511719 194.859375 203.027344 C 194.382812 203.546875 193.960938 204.109375 193.601562 204.714844 C 193.238281 205.320312 192.945312 205.957031 192.714844 206.625 C 192.484375 207.289062 192.328125 207.972656 192.238281 208.671875 C 192.152344 209.371094 192.136719 210.074219 192.195312 210.773438 C 192.253906 211.476562 192.382812 212.167969 192.582031 212.84375 C 192.785156 213.519531 193.050781 214.167969 193.386719 214.785156 C 193.722656 215.40625 194.117188 215.988281 194.570312 216.523438 C 195.027344 217.0625 195.53125 217.550781 196.085938 217.984375 C 193.628906 218.957031 191.503906 220.421875 189.710938 222.367188 L 188.742188 213.1875 C 188.722656 212.980469 188.660156 212.78125 188.566406 212.59375 C 188.46875 212.410156 188.339844 212.246094 188.183594 212.105469 C 188.027344 211.964844 187.851562 211.859375 187.652344 211.785156 C 187.457031 211.710938 187.253906 211.675781 187.042969 211.675781 L 185.34375 211.675781 L 185.34375 206.574219 C 185.34375 205.730469 185.28125 204.890625 185.152344 204.054688 C 185.027344 203.21875 184.839844 202.398438 184.589844 201.589844 C 184.34375 200.78125 184.035156 199.996094 183.667969 199.234375 C 183.304688 198.472656 182.882812 197.742188 182.410156 197.042969 C 181.933594 196.347656 181.410156 195.6875 180.835938 195.066406 C 180.265625 194.445312 179.648438 193.867188 178.988281 193.339844 C 178.332031 192.808594 177.636719 192.332031 176.90625 191.90625 C 176.175781 191.480469 175.417969 191.113281 174.632812 190.800781 C 175.1875 190.367188 175.691406 189.878906 176.144531 189.339844 C 176.601562 188.800781 176.992188 188.222656 177.328125 187.601562 C 177.660156 186.980469 177.925781 186.332031 178.125 185.65625 C 178.324219 184.980469 178.453125 184.292969 178.511719 183.589844 C 178.566406 182.890625 178.550781 182.1875 178.464844 181.488281 C 178.375 180.792969 178.214844 180.109375 177.984375 179.441406 C 177.757812 178.777344 177.460938 178.140625 177.097656 177.539062 C 176.738281 176.933594 176.320312 176.371094 175.839844 175.855469 C 175.363281 175.335938 174.839844 174.875 174.265625 174.464844 C 173.691406 174.054688 173.082031 173.710938 172.4375 173.425781 C 171.792969 173.144531 171.125 172.929688 170.433594 172.785156 C 169.746094 172.640625 169.046875 172.570312 168.34375 172.570312 C 167.640625 172.570312 166.941406 172.640625 166.253906 172.785156 C 165.5625 172.929688 164.898438 173.144531 164.25 173.425781 C 163.605469 173.710938 162.996094 174.054688 162.421875 174.464844 C 161.851562 174.875 161.324219 175.335938 160.847656 175.855469 C 160.367188 176.371094 159.949219 176.933594 159.589844 177.539062 C 159.226562 178.140625 158.929688 178.777344 158.703125 179.441406 C 158.472656 180.109375 158.3125 180.792969 158.222656 181.488281 C 158.136719 182.1875 158.121094 182.890625 158.175781 183.589844 C 158.234375 184.292969 158.363281 184.980469 158.5625 185.65625 C 158.761719 186.332031 159.027344 186.980469 159.359375 187.601562 C 159.695312 188.222656 160.089844 188.800781 160.542969 189.339844 C 160.996094 189.878906 161.5 190.367188 162.054688 190.800781 C 161.269531 191.113281 160.511719 191.480469 159.78125 191.90625 C 159.050781 192.332031 158.355469 192.808594 157.699219 193.339844 C 157.039062 193.867188 156.421875 194.445312 155.851562 195.066406 C 155.277344 195.6875 154.753906 196.347656 154.277344 197.042969 C 153.804688 197.742188 153.382812 198.472656 153.019531 199.234375 C 152.652344 199.996094 152.34375 200.78125 152.097656 201.589844 C 151.847656 202.398438 151.660156 203.21875 151.535156 204.054688 C 151.410156 204.890625 151.34375 205.730469 151.34375 206.574219 L 151.34375 211.675781 L 149.644531 211.675781 C 149.433594 211.675781 149.226562 211.710938 149.03125 211.789062 C 148.832031 211.863281 148.65625 211.972656 148.5 212.113281 C 148.339844 212.253906 148.214844 212.417969 148.117188 212.605469 C 148.023438 212.796875 147.964844 212.996094 147.945312 213.207031 L 147.027344 222.453125 C 145.246094 220.453125 143.109375 218.96875 140.617188 218 C 141.171875 217.566406 141.675781 217.078125 142.132812 216.542969 C 142.585938 216.003906 142.980469 215.421875 143.3125 214.804688 C 143.648438 214.183594 143.914062 213.535156 144.117188 212.859375 C 144.316406 212.183594 144.445312 211.496094 144.5 210.792969 C 144.558594 210.089844 144.542969 209.390625 144.457031 208.691406 C 144.367188 207.992188 144.207031 207.308594 143.980469 206.640625 C 143.75 205.976562 143.453125 205.339844 143.09375 204.734375 C 142.730469 204.128906 142.3125 203.566406 141.835938 203.050781 C 141.359375 202.53125 140.832031 202.066406 140.257812 201.660156 C 139.683594 201.25 139.074219 200.902344 138.429688 200.621094 C 137.785156 200.339844 137.117188 200.125 136.425781 199.980469 C 135.738281 199.835938 135.039062 199.761719 134.335938 199.761719 C 133.628906 199.761719 132.933594 199.835938 132.242188 199.980469 C 131.554688 200.125 130.886719 200.339844 130.242188 200.621094 C 129.597656 200.902344 128.988281 201.25 128.414062 201.660156 C 127.839844 202.066406 127.3125 202.53125 126.835938 203.050781 C 126.359375 203.566406 125.9375 204.128906 125.578125 204.734375 C 125.214844 205.339844 124.921875 205.976562 124.691406 206.640625 C 124.460938 207.308594 124.304688 207.992188 124.214844 208.691406 C 124.128906 209.390625 124.113281 210.089844 124.167969 210.792969 C 124.226562 211.496094 124.355469 212.183594 124.554688 212.859375 C 124.753906 213.535156 125.023438 214.183594 125.355469 214.804688 C 125.691406 215.421875 126.085938 216.003906 126.539062 216.542969 C 126.992188 217.078125 127.5 217.566406 128.054688 218 C 127.269531 218.3125 126.511719 218.679688 125.78125 219.105469 C 125.050781 219.53125 124.355469 220.011719 123.699219 220.539062 C 123.039062 221.070312 122.421875 221.644531 121.851562 222.265625 C 121.277344 222.886719 120.753906 223.546875 120.277344 224.246094 C 119.804688 224.945312 119.382812 225.675781 119.019531 226.4375 C 118.652344 227.199219 118.34375 227.984375 118.097656 228.789062 C 117.847656 229.597656 117.660156 230.417969 117.535156 231.253906 C 117.410156 232.089844 117.34375 232.929688 117.34375 233.777344 L 117.34375 252.476562 C 117.34375 252.703125 117.386719 252.917969 117.472656 253.125 C 117.558594 253.335938 117.683594 253.519531 117.84375 253.679688 C 118 253.835938 118.183594 253.960938 118.394531 254.046875 C 118.601562 254.132812 118.820312 254.175781 119.042969 254.175781 L 217.644531 254.175781 C 217.871094 254.175781 218.085938 254.132812 218.292969 254.046875 C 218.503906 253.960938 218.6875 253.835938 218.847656 253.679688 C 219.003906 253.519531 219.128906 253.335938 219.214844 253.125 C 219.300781 252.917969 219.34375 252.703125 219.34375 252.476562 L 219.34375 233.777344 C 219.34375 232.929688 219.28125 232.089844 219.15625 231.253906 C 219.03125 230.417969 218.84375 229.59375 218.59375 228.785156 C 218.347656 227.976562 218.039062 227.191406 217.675781 226.429688 C 217.308594 225.667969 216.886719 224.933594 216.414062 224.234375 C 215.9375 223.535156 215.414062 222.875 214.839844 222.253906 C 214.269531 221.628906 213.652344 221.054688 212.992188 220.523438 C 212.332031 219.996094 211.640625 219.515625 210.910156 219.089844 C 210.175781 218.664062 209.417969 218.296875 208.632812 217.984375 Z M 195.542969 209.976562 C 195.542969 209.53125 195.585938 209.085938 195.675781 208.648438 C 195.761719 208.210938 195.890625 207.785156 196.0625 207.375 C 196.230469 206.960938 196.441406 206.570312 196.691406 206.199219 C 196.9375 205.828125 197.21875 205.484375 197.535156 205.167969 C 197.851562 204.851562 198.195312 204.570312 198.566406 204.320312 C 198.9375 204.074219 199.328125 203.863281 199.742188 203.695312 C 200.152344 203.523438 200.578125 203.394531 201.015625 203.304688 C 201.457031 203.21875 201.898438 203.175781 202.34375 203.175781 C 202.789062 203.175781 203.234375 203.21875 203.671875 203.304688 C 204.109375 203.394531 204.535156 203.523438 204.945312 203.695312 C 205.359375 203.863281 205.75 204.074219 206.121094 204.320312 C 206.492188 204.570312 206.835938 204.851562 207.152344 205.167969 C 207.46875 205.484375 207.75 205.828125 207.996094 206.199219 C 208.246094 206.570312 208.457031 206.960938 208.625 207.375 C 208.796875 207.785156 208.925781 208.210938 209.011719 208.648438 C 209.101562 209.085938 209.144531 209.53125 209.144531 209.976562 C 209.144531 210.421875 209.101562 210.863281 209.011719 211.300781 C 208.925781 211.742188 208.796875 212.164062 208.625 212.578125 C 208.457031 212.992188 208.246094 213.382812 207.996094 213.753906 C 207.75 214.125 207.46875 214.46875 207.152344 214.785156 C 206.835938 215.101562 206.492188 215.382812 206.121094 215.628906 C 205.75 215.878906 205.359375 216.085938 204.945312 216.257812 C 204.535156 216.429688 204.109375 216.558594 203.671875 216.644531 C 203.234375 216.730469 202.789062 216.777344 202.34375 216.777344 C 201.898438 216.777344 201.457031 216.730469 201.015625 216.644531 C 200.578125 216.558594 200.152344 216.429688 199.742188 216.257812 C 199.328125 216.085938 198.9375 215.878906 198.566406 215.628906 C 198.195312 215.382812 197.851562 215.101562 197.535156 214.785156 C 197.21875 214.46875 196.9375 214.125 196.691406 213.753906 C 196.441406 213.382812 196.230469 212.992188 196.0625 212.578125 C 195.890625 212.164062 195.761719 211.742188 195.675781 211.300781 C 195.585938 210.863281 195.542969 210.421875 195.542969 209.976562 Z M 161.542969 182.777344 C 161.542969 182.328125 161.585938 181.886719 161.675781 181.449219 C 161.761719 181.011719 161.890625 180.585938 162.0625 180.171875 C 162.230469 179.761719 162.441406 179.371094 162.691406 178.996094 C 162.9375 178.625 163.21875 178.28125 163.535156 177.96875 C 163.851562 177.652344 164.195312 177.371094 164.566406 177.121094 C 164.9375 176.875 165.328125 176.664062 165.742188 176.492188 C 166.152344 176.324219 166.578125 176.195312 167.015625 176.105469 C 167.457031 176.019531 167.898438 175.976562 168.34375 175.976562 C 168.789062 175.976562 169.234375 176.019531 169.671875 176.105469 C 170.109375 176.195312 170.535156 176.324219 170.945312 176.492188 C 171.359375 176.664062 171.75 176.875 172.121094 177.121094 C 172.492188 177.371094 172.835938 177.652344 173.152344 177.96875 C 173.46875 178.28125 173.75 178.625 173.996094 178.996094 C 174.246094 179.371094 174.457031 179.761719 174.625 180.171875 C 174.796875 180.585938 174.925781 181.011719 175.011719 181.449219 C 175.101562 181.886719 175.144531 182.328125 175.144531 182.777344 C 175.144531 183.222656 175.101562 183.664062 175.011719 184.101562 C 174.925781 184.539062 174.796875 184.964844 174.625 185.378906 C 174.457031 185.789062 174.246094 186.183594 173.996094 186.554688 C 173.75 186.925781 173.46875 187.269531 173.152344 187.585938 C 172.835938 187.898438 172.492188 188.183594 172.121094 188.429688 C 171.75 188.679688 171.359375 188.886719 170.945312 189.058594 C 170.535156 189.230469 170.109375 189.359375 169.671875 189.445312 C 169.234375 189.53125 168.789062 189.574219 168.34375 189.574219 C 167.898438 189.574219 167.457031 189.53125 167.015625 189.445312 C 166.578125 189.359375 166.152344 189.230469 165.742188 189.058594 C 165.328125 188.886719 164.9375 188.679688 164.566406 188.429688 C 164.195312 188.183594 163.851562 187.898438 163.535156 187.585938 C 163.21875 187.269531 162.9375 186.925781 162.691406 186.554688 C 162.441406 186.183594 162.230469 185.789062 162.0625 185.378906 C 161.890625 184.964844 161.761719 184.539062 161.675781 184.101562 C 161.585938 183.664062 161.542969 183.222656 161.542969 182.777344 Z M 154.742188 206.574219 C 154.742188 205.683594 154.832031 204.796875 155.003906 203.921875 C 155.179688 203.046875 155.4375 202.195312 155.777344 201.371094 C 156.121094 200.546875 156.539062 199.761719 157.035156 199.019531 C 157.53125 198.277344 158.097656 197.589844 158.726562 196.960938 C 159.359375 196.328125 160.046875 195.765625 160.789062 195.269531 C 161.53125 194.773438 162.3125 194.351562 163.140625 194.011719 C 163.964844 193.667969 164.816406 193.410156 165.691406 193.238281 C 166.566406 193.0625 167.449219 192.976562 168.34375 192.976562 C 169.238281 192.976562 170.121094 193.0625 170.996094 193.238281 C 171.871094 193.410156 172.722656 193.667969 173.546875 194.011719 C 174.375 194.351562 175.15625 194.773438 175.898438 195.269531 C 176.640625 195.765625 177.328125 196.328125 177.960938 196.960938 C 178.59375 197.589844 179.15625 198.277344 179.652344 199.019531 C 180.148438 199.761719 180.566406 200.546875 180.910156 201.371094 C 181.25 202.195312 181.507812 203.046875 181.683594 203.921875 C 181.855469 204.796875 181.945312 205.683594 181.945312 206.574219 L 181.945312 211.675781 L 178.984375 211.675781 L 180.242188 203.429688 C 180.28125 203.183594 180.265625 202.941406 180.195312 202.703125 C 180.125 202.460938 180.007812 202.25 179.847656 202.058594 C 179.683594 201.871094 179.488281 201.726562 179.257812 201.625 C 179.03125 201.523438 178.792969 201.472656 178.542969 201.476562 L 158.144531 201.476562 C 157.894531 201.472656 157.65625 201.523438 157.429688 201.625 C 157.199219 201.726562 157.003906 201.871094 156.84375 202.058594 C 156.679688 202.25 156.5625 202.460938 156.492188 202.703125 C 156.421875 202.941406 156.40625 203.183594 156.445312 203.429688 L 157.703125 211.675781 L 154.742188 211.675781 Z M 176.570312 204.875 L 175.042969 215.074219 L 161.644531 215.074219 L 160.117188 204.875 Z M 158.144531 215.074219 L 158.433594 217.03125 C 158.464844 217.234375 158.527344 217.425781 158.628906 217.601562 C 158.726562 217.78125 158.855469 217.9375 159.011719 218.070312 C 159.167969 218.203125 159.34375 218.304688 159.535156 218.375 C 159.730469 218.445312 159.929688 218.476562 160.132812 218.476562 L 176.453125 218.476562 C 176.65625 218.476562 176.855469 218.445312 177.050781 218.375 C 177.242188 218.304688 177.417969 218.203125 177.574219 218.070312 C 177.730469 217.9375 177.855469 217.78125 177.957031 217.601562 C 178.058594 217.425781 178.121094 217.234375 178.152344 217.03125 L 178.542969 215.074219 L 185.515625 215.074219 L 186.824219 227.367188 L 187.417969 234.167969 L 179.613281 237.292969 C 179.292969 237.421875 179.03125 237.632812 178.835938 237.921875 C 178.640625 238.210938 178.542969 238.527344 178.542969 238.875 L 178.542969 243.976562 C 178.542969 244.496094 178.742188 244.929688 179.140625 245.269531 C 179.457031 245.539062 179.824219 245.675781 180.242188 245.675781 L 180.5 245.675781 L 188.320312 244.46875 L 188.863281 250.777344 L 147.824219 250.777344 L 148.367188 244.453125 L 156.1875 245.660156 L 156.445312 245.660156 C 156.863281 245.660156 157.230469 245.523438 157.550781 245.25 C 157.941406 244.914062 158.140625 244.492188 158.144531 243.976562 L 158.144531 238.875 C 158.144531 238.527344 158.046875 238.210938 157.851562 237.921875 C 157.65625 237.632812 157.398438 237.421875 157.074219 237.292969 L 149.285156 234.183594 L 151.191406 215.074219 Z M 127.542969 209.976562 C 127.542969 209.53125 127.585938 209.085938 127.675781 208.648438 C 127.761719 208.210938 127.890625 207.785156 128.0625 207.375 C 128.230469 206.960938 128.441406 206.570312 128.691406 206.199219 C 128.9375 205.828125 129.21875 205.484375 129.535156 205.167969 C 129.851562 204.851562 130.195312 204.570312 130.566406 204.320312 C 130.9375 204.074219 131.328125 203.863281 131.742188 203.695312 C 132.152344 203.523438 132.578125 203.394531 133.015625 203.304688 C 133.457031 203.21875 133.898438 203.175781 134.34375 203.175781 C 134.789062 203.175781 135.234375 203.21875 135.671875 203.304688 C 136.109375 203.394531 136.535156 203.523438 136.945312 203.695312 C 137.359375 203.863281 137.75 204.074219 138.121094 204.320312 C 138.492188 204.570312 138.835938 204.851562 139.152344 205.167969 C 139.46875 205.484375 139.75 205.828125 139.996094 206.199219 C 140.246094 206.570312 140.457031 206.960938 140.625 207.375 C 140.796875 207.785156 140.925781 208.210938 141.011719 208.648438 C 141.101562 209.085938 141.144531 209.53125 141.144531 209.976562 C 141.144531 210.421875 141.101562 210.863281 141.011719 211.300781 C 140.925781 211.742188 140.796875 212.164062 140.625 212.578125 C 140.457031 212.992188 140.246094 213.382812 139.996094 213.753906 C 139.75 214.125 139.46875 214.46875 139.152344 214.785156 C 138.835938 215.101562 138.492188 215.382812 138.121094 215.628906 C 137.75 215.878906 137.359375 216.085938 136.945312 216.257812 C 136.535156 216.429688 136.109375 216.558594 135.671875 216.644531 C 135.234375 216.730469 134.789062 216.777344 134.34375 216.777344 C 133.898438 216.777344 133.457031 216.730469 133.015625 216.644531 C 132.578125 216.558594 132.152344 216.429688 131.742188 216.257812 C 131.328125 216.085938 130.9375 215.878906 130.566406 215.628906 C 130.195312 215.382812 129.851562 215.101562 129.535156 214.785156 C 129.21875 214.46875 128.9375 214.125 128.691406 213.753906 C 128.441406 213.382812 128.230469 212.992188 128.0625 212.578125 C 127.890625 212.164062 127.761719 211.742188 127.675781 211.300781 C 127.585938 210.863281 127.542969 210.421875 127.542969 209.976562 Z M 120.742188 233.777344 C 120.742188 232.882812 120.832031 232 121.003906 231.121094 C 121.179688 230.246094 121.4375 229.394531 121.777344 228.570312 C 122.121094 227.746094 122.539062 226.960938 123.035156 226.21875 C 123.53125 225.476562 124.097656 224.789062 124.726562 224.160156 C 125.359375 223.527344 126.046875 222.964844 126.789062 222.46875 C 127.53125 221.972656 128.3125 221.554688 129.140625 221.210938 C 129.964844 220.871094 130.816406 220.613281 131.691406 220.4375 C 132.566406 220.261719 133.449219 220.175781 134.34375 220.175781 C 135.609375 220.175781 136.847656 220.347656 138.0625 220.695312 C 139.28125 221.039062 140.425781 221.546875 141.5 222.210938 C 142.574219 222.875 143.539062 223.675781 144.390625 224.609375 C 145.242188 225.542969 145.953125 226.574219 146.515625 227.707031 L 146.007812 232.808594 L 141.144531 230.917969 L 141.144531 226.976562 L 137.742188 226.976562 L 137.742188 232.074219 C 137.742188 232.425781 137.839844 232.742188 138.035156 233.03125 C 138.230469 233.320312 138.492188 233.527344 138.816406 233.65625 L 154.742188 240.03125 L 154.742188 241.988281 L 135.464844 239.027344 L 132.457031 233.011719 L 129.429688 234.539062 L 132.832031 241.339844 C 133.09375 241.863281 133.511719 242.167969 134.089844 242.257812 L 145.003906 243.957031 L 144.40625 250.757812 L 120.742188 250.757812 Z M 215.945312 250.777344 L 192.28125 250.777344 L 191.683594 243.976562 L 202.597656 242.277344 C 203.175781 242.1875 203.59375 241.878906 203.855469 241.359375 L 207.257812 234.558594 L 204.230469 233.027344 L 201.222656 239.046875 L 181.945312 241.988281 L 181.945312 240.03125 L 197.871094 233.65625 C 198.195312 233.527344 198.457031 233.320312 198.652344 233.03125 C 198.847656 232.742188 198.945312 232.425781 198.945312 232.074219 L 198.945312 226.976562 L 195.542969 226.976562 L 195.542969 230.917969 L 190.714844 232.859375 L 190.257812 227.585938 C 190.824219 226.472656 191.535156 225.457031 192.382812 224.539062 C 193.234375 223.621094 194.191406 222.835938 195.257812 222.183594 C 196.324219 221.527344 197.460938 221.03125 198.664062 220.691406 C 199.867188 220.347656 201.09375 220.179688 202.34375 220.175781 C 203.238281 220.175781 204.121094 220.261719 204.996094 220.4375 C 205.871094 220.613281 206.722656 220.871094 207.546875 221.210938 C 208.375 221.554688 209.15625 221.972656 209.898438 222.46875 C 210.640625 222.964844 211.328125 223.527344 211.960938 224.160156 C 212.59375 224.789062 213.15625 225.476562 213.652344 226.21875 C 214.148438 226.960938 214.566406 227.746094 214.910156 228.570312 C 215.25 229.394531 215.507812 230.246094 215.683594 231.121094 C 215.855469 232 215.945312 232.882812 215.945312 233.777344 Z M 215.945312 250.777344"/></g><g clip-path="url(#h)"><path fill="#2B7F5C" d="M 119.042969 189.574219 L 128.394531 189.574219 L 132.984375 195.695312 C 133.144531 195.910156 133.34375 196.078125 133.582031 196.195312 C 133.824219 196.316406 134.078125 196.375 134.34375 196.375 C 134.613281 196.375 134.863281 196.316406 135.105469 196.195312 C 135.34375 196.078125 135.542969 195.910156 135.703125 195.695312 L 140.292969 189.574219 L 149.644531 189.574219 C 149.871094 189.574219 150.085938 189.53125 150.292969 189.445312 C 150.503906 189.359375 150.6875 189.238281 150.847656 189.078125 C 151.003906 188.917969 151.128906 188.734375 151.214844 188.527344 C 151.300781 188.316406 151.34375 188.101562 151.34375 187.875 L 151.34375 153.875 C 151.34375 153.648438 151.300781 153.433594 151.214844 153.226562 C 151.128906 153.015625 151.003906 152.832031 150.847656 152.671875 C 150.6875 152.515625 150.503906 152.390625 150.292969 152.304688 C 150.085938 152.21875 149.871094 152.175781 149.644531 152.175781 L 119.042969 152.175781 C 118.820312 152.175781 118.601562 152.21875 118.394531 152.304688 C 118.183594 152.390625 118 152.515625 117.84375 152.671875 C 117.683594 152.832031 117.558594 153.015625 117.472656 153.226562 C 117.386719 153.433594 117.34375 153.648438 117.34375 153.875 L 117.34375 187.875 C 117.34375 188.101562 117.386719 188.316406 117.472656 188.527344 C 117.558594 188.734375 117.683594 188.917969 117.84375 189.078125 C 118 189.238281 118.183594 189.359375 118.394531 189.445312 C 118.601562 189.53125 118.820312 189.574219 119.042969 189.574219 Z M 120.742188 155.574219 L 147.945312 155.574219 L 147.945312 186.175781 L 139.445312 186.175781 C 138.878906 186.175781 138.425781 186.402344 138.082031 186.855469 L 134.34375 191.835938 L 130.605469 186.855469 C 130.265625 186.402344 129.8125 186.175781 129.242188 186.175781 L 120.742188 186.175781 Z M 120.742188 155.574219"/></g><path fill="#2B7F5C" d="M 124.144531 179.375 L 144.542969 179.375 L 144.542969 182.777344 L 124.144531 182.777344 Z M 124.144531 179.375"/><path fill="#2B7F5C" d="M 124.144531 172.574219 L 144.542969 172.574219 L 144.542969 175.976562 L 124.144531 175.976562 Z M 124.144531 172.574219"/><path fill="#2B7F5C" d="M 124.144531 165.777344 L 144.542969 165.777344 L 144.542969 169.175781 L 124.144531 169.175781 Z M 124.144531 165.777344"/><path fill="#2B7F5C" d="M 141.144531 158.976562 L 144.542969 158.976562 L 144.542969 162.375 L 141.144531 162.375 Z M 141.144531 158.976562"/><path fill="#2B7F5C" d="M 130.945312 158.976562 L 137.742188 158.976562 L 137.742188 162.375 L 130.945312 162.375 Z M 130.945312 158.976562"/><path fill="#2B7F5C" d="M 124.144531 158.976562 L 127.542969 158.976562 L 127.542969 162.375 L 124.144531 162.375 Z M 124.144531 158.976562"/><g clip-path="url(#i)"><path fill="#2B7F5C" d="M 297.605469 217.984375 C 298.160156 217.550781 298.667969 217.0625 299.121094 216.523438 C 299.578125 215.988281 299.972656 215.40625 300.304688 214.785156 C 300.640625 214.167969 300.910156 213.519531 301.109375 212.84375 C 301.308594 212.167969 301.441406 211.476562 301.496094 210.773438 C 301.554688 210.074219 301.539062 209.371094 301.453125 208.671875 C 301.363281 207.972656 301.207031 207.289062 300.976562 206.625 C 300.75 205.957031 300.453125 205.320312 300.09375 204.714844 C 299.730469 204.109375 299.3125 203.546875 298.832031 203.027344 C 298.355469 202.511719 297.832031 202.046875 297.257812 201.636719 C 296.683594 201.226562 296.074219 200.882812 295.425781 200.597656 C 294.78125 200.316406 294.113281 200.101562 293.425781 199.957031 C 292.734375 199.8125 292.035156 199.738281 291.332031 199.738281 C 290.625 199.738281 289.929688 199.8125 289.238281 199.957031 C 288.550781 200.101562 287.882812 200.316406 287.234375 200.597656 C 286.589844 200.882812 285.980469 201.226562 285.40625 201.636719 C 284.832031 202.046875 284.308594 202.511719 283.828125 203.027344 C 283.351562 203.546875 282.933594 204.109375 282.570312 204.714844 C 282.210938 205.320312 281.914062 205.957031 281.6875 206.625 C 281.457031 207.289062 281.296875 207.972656 281.210938 208.671875 C 281.125 209.371094 281.109375 210.074219 281.164062 210.773438 C 281.222656 211.476562 281.351562 212.167969 281.554688 212.84375 C 281.753906 213.519531 282.023438 214.167969 282.355469 214.785156 C 282.691406 215.40625 283.085938 215.988281 283.542969 216.523438 C 283.996094 217.0625 284.503906 217.550781 285.058594 217.984375 C 282.597656 218.957031 280.472656 220.421875 278.683594 222.367188 L 277.714844 213.1875 C 277.691406 212.980469 277.632812 212.78125 277.535156 212.59375 C 277.4375 212.410156 277.3125 212.246094 277.15625 212.105469 C 277 211.964844 276.820312 211.859375 276.625 211.785156 C 276.429688 211.710938 276.226562 211.675781 276.015625 211.675781 L 274.316406 211.675781 L 274.316406 206.574219 C 274.3125 205.730469 274.25 204.890625 274.125 204.054688 C 273.996094 203.21875 273.808594 202.398438 273.5625 201.589844 C 273.3125 200.78125 273.007812 199.996094 272.640625 199.234375 C 272.273438 198.472656 271.855469 197.742188 271.378906 197.042969 C 270.90625 196.347656 270.382812 195.6875 269.808594 195.066406 C 269.234375 194.445312 268.621094 193.867188 267.960938 193.339844 C 267.300781 192.808594 266.605469 192.332031 265.878906 191.90625 C 265.148438 191.480469 264.390625 191.113281 263.605469 190.800781 C 264.160156 190.367188 264.664062 189.878906 265.117188 189.339844 C 265.570312 188.800781 265.964844 188.222656 266.296875 187.601562 C 266.632812 186.980469 266.898438 186.332031 267.097656 185.65625 C 267.296875 184.980469 267.425781 184.292969 267.480469 183.589844 C 267.539062 182.890625 267.523438 182.1875 267.433594 181.488281 C 267.34375 180.792969 267.1875 180.109375 266.957031 179.441406 C 266.726562 178.777344 266.429688 178.140625 266.070312 177.539062 C 265.707031 176.933594 265.289062 176.371094 264.8125 175.855469 C 264.335938 175.335938 263.808594 174.875 263.234375 174.464844 C 262.660156 174.054688 262.050781 173.710938 261.40625 173.425781 C 260.761719 173.144531 260.09375 172.929688 259.40625 172.785156 C 258.714844 172.640625 258.019531 172.570312 257.316406 172.570312 C 256.609375 172.570312 255.914062 172.640625 255.222656 172.785156 C 254.535156 172.929688 253.867188 173.144531 253.222656 173.425781 C 252.578125 173.710938 251.96875 174.054688 251.394531 174.464844 C 250.820312 174.875 250.296875 175.335938 249.816406 175.855469 C 249.339844 176.371094 248.921875 176.933594 248.558594 177.539062 C 248.199219 178.140625 247.902344 178.777344 247.671875 179.441406 C 247.441406 180.109375 247.285156 180.792969 247.195312 181.488281 C 247.105469 182.1875 247.089844 182.890625 247.148438 183.589844 C 247.203125 184.292969 247.332031 184.980469 247.53125 185.65625 C 247.730469 186.332031 247.996094 186.980469 248.332031 187.601562 C 248.664062 188.222656 249.058594 188.800781 249.511719 189.339844 C 249.964844 189.878906 250.46875 190.367188 251.023438 190.800781 C 250.238281 191.113281 249.480469 191.480469 248.753906 191.90625 C 248.023438 192.332031 247.328125 192.808594 246.667969 193.339844 C 246.011719 193.867188 245.394531 194.445312 244.820312 195.066406 C 244.25 195.6875 243.722656 196.347656 243.25 197.042969 C 242.773438 197.742188 242.355469 198.472656 241.988281 199.234375 C 241.625 199.996094 241.316406 200.78125 241.066406 201.589844 C 240.820312 202.398438 240.632812 203.21875 240.503906 204.054688 C 240.378906 204.890625 240.316406 205.730469 240.316406 206.574219 L 240.316406 211.675781 L 238.613281 211.675781 C 238.402344 211.675781 238.199219 211.710938 238 211.789062 C 237.804688 211.863281 237.625 211.972656 237.46875 212.113281 C 237.3125 212.253906 237.183594 212.417969 237.089844 212.605469 C 236.996094 212.796875 236.9375 212.996094 236.914062 213.207031 L 235.996094 222.453125 C 234.21875 220.453125 232.082031 218.96875 229.585938 218 C 230.144531 217.566406 230.648438 217.078125 231.101562 216.542969 C 231.554688 216.003906 231.949219 215.421875 232.285156 214.804688 C 232.621094 214.183594 232.886719 213.535156 233.085938 212.859375 C 233.285156 212.183594 233.414062 211.496094 233.472656 210.792969 C 233.53125 210.089844 233.515625 209.390625 233.425781 208.691406 C 233.339844 207.992188 233.179688 207.308594 232.949219 206.640625 C 232.71875 205.976562 232.425781 205.339844 232.0625 204.734375 C 231.703125 204.128906 231.285156 203.566406 230.804688 203.050781 C 230.328125 202.53125 229.800781 202.066406 229.230469 201.660156 C 228.65625 201.25 228.046875 200.902344 227.398438 200.621094 C 226.753906 200.339844 226.085938 200.125 225.398438 199.980469 C 224.707031 199.835938 224.011719 199.761719 223.304688 199.761719 C 222.601562 199.761719 221.90625 199.835938 221.214844 199.980469 C 220.523438 200.125 219.859375 200.339844 219.210938 200.621094 C 218.566406 200.902344 217.957031 201.25 217.382812 201.660156 C 216.808594 202.066406 216.285156 202.53125 215.804688 203.050781 C 215.328125 203.566406 214.910156 204.128906 214.546875 204.734375 C 214.1875 205.339844 213.890625 205.976562 213.664062 206.640625 C 213.433594 207.308594 213.273438 207.992188 213.1875 208.691406 C 213.097656 209.390625 213.082031 210.089844 213.140625 210.792969 C 213.195312 211.496094 213.324219 212.183594 213.527344 212.859375 C 213.726562 213.535156 213.992188 214.183594 214.328125 214.804688 C 214.660156 215.421875 215.054688 216.003906 215.511719 216.542969 C 215.964844 217.078125 216.46875 217.566406 217.023438 218 C 216.238281 218.3125 215.480469 218.679688 214.753906 219.105469 C 214.023438 219.53125 213.328125 220.011719 212.667969 220.539062 C 212.011719 221.070312 211.394531 221.644531 210.820312 222.265625 C 210.25 222.886719 209.722656 223.546875 209.25 224.246094 C 208.773438 224.945312 208.355469 225.675781 207.988281 226.4375 C 207.625 227.199219 207.316406 227.984375 207.066406 228.789062 C 206.820312 229.597656 206.632812 230.417969 206.503906 231.253906 C 206.378906 232.089844 206.316406 232.929688 206.316406 233.777344 L 206.316406 252.476562 C 206.316406 252.703125 206.359375 252.917969 206.445312 253.125 C 206.53125 253.335938 206.652344 253.519531 206.8125 253.679688 C 206.972656 253.835938 207.15625 253.960938 207.363281 254.046875 C 207.574219 254.132812 207.789062 254.175781 208.015625 254.175781 L 306.613281 254.175781 C 306.839844 254.175781 307.058594 254.132812 307.265625 254.046875 C 307.472656 253.960938 307.65625 253.835938 307.816406 253.679688 C 307.976562 253.519531 308.097656 253.335938 308.183594 253.125 C 308.273438 252.917969 308.316406 252.703125 308.316406 252.476562 L 308.316406 233.777344 C 308.316406 232.929688 308.25 232.089844 308.125 231.253906 C 308 230.417969 307.8125 229.59375 307.566406 228.785156 C 307.316406 227.976562 307.011719 227.191406 306.644531 226.429688 C 306.28125 225.667969 305.859375 224.933594 305.382812 224.234375 C 304.910156 223.535156 304.386719 222.875 303.8125 222.253906 C 303.238281 221.628906 302.621094 221.054688 301.964844 220.523438 C 301.304688 219.996094 300.609375 219.515625 299.878906 219.089844 C 299.148438 218.664062 298.390625 218.296875 297.605469 217.984375 Z M 284.515625 209.976562 C 284.515625 209.53125 284.558594 209.085938 284.644531 208.648438 C 284.734375 208.210938 284.863281 207.785156 285.03125 207.375 C 285.203125 206.960938 285.414062 206.570312 285.660156 206.199219 C 285.910156 205.828125 286.191406 205.484375 286.507812 205.167969 C 286.820312 204.851562 287.164062 204.570312 287.535156 204.320312 C 287.90625 204.074219 288.300781 203.863281 288.710938 203.695312 C 289.125 203.523438 289.550781 203.394531 289.988281 203.304688 C 290.425781 203.21875 290.867188 203.175781 291.316406 203.175781 C 291.761719 203.175781 292.203125 203.21875 292.640625 203.304688 C 293.078125 203.394531 293.503906 203.523438 293.917969 203.695312 C 294.328125 203.863281 294.722656 204.074219 295.09375 204.320312 C 295.464844 204.570312 295.808594 204.851562 296.121094 205.167969 C 296.4375 205.484375 296.71875 205.828125 296.96875 206.199219 C 297.214844 206.570312 297.425781 206.960938 297.597656 207.375 C 297.769531 207.785156 297.898438 208.210938 297.984375 208.648438 C 298.070312 209.085938 298.113281 209.53125 298.113281 209.976562 C 298.113281 210.421875 298.070312 210.863281 297.984375 211.300781 C 297.898438 211.742188 297.769531 212.164062 297.597656 212.578125 C 297.425781 212.992188 297.214844 213.382812 296.96875 213.753906 C 296.71875 214.125 296.4375 214.46875 296.121094 214.785156 C 295.808594 215.101562 295.464844 215.382812 295.09375 215.628906 C 294.722656 215.878906 294.328125 216.085938 293.917969 216.257812 C 293.503906 216.429688 293.078125 216.558594 292.640625 216.644531 C 292.203125 216.730469 291.761719 216.777344 291.316406 216.777344 C 290.867188 216.777344 290.425781 216.730469 289.988281 216.644531 C 289.550781 216.558594 289.125 216.429688 288.710938 216.257812 C 288.300781 216.085938 287.90625 215.878906 287.535156 215.628906 C 287.164062 215.382812 286.820312 215.101562 286.507812 214.785156 C 286.191406 214.46875 285.910156 214.125 285.660156 213.753906 C 285.414062 213.382812 285.203125 212.992188 285.03125 212.578125 C 284.863281 212.164062 284.734375 211.742188 284.644531 211.300781 C 284.558594 210.863281 284.515625 210.421875 284.515625 209.976562 Z M 250.515625 182.777344 C 250.515625 182.328125 250.558594 181.886719 250.644531 181.449219 C 250.734375 181.011719 250.863281 180.585938 251.03125 180.171875 C 251.203125 179.761719 251.414062 179.371094 251.660156 178.996094 C 251.910156 178.625 252.191406 178.28125 252.507812 177.96875 C 252.820312 177.652344 253.164062 177.371094 253.535156 177.121094 C 253.90625 176.875 254.300781 176.664062 254.710938 176.492188 C 255.125 176.324219 255.550781 176.195312 255.988281 176.105469 C 256.425781 176.019531 256.867188 175.976562 257.316406 175.976562 C 257.761719 175.976562 258.203125 176.019531 258.640625 176.105469 C 259.078125 176.195312 259.503906 176.324219 259.917969 176.492188 C 260.328125 176.664062 260.722656 176.875 261.09375 177.121094 C 261.464844 177.371094 261.808594 177.652344 262.121094 177.96875 C 262.4375 178.28125 262.71875 178.625 262.96875 178.996094 C 263.214844 179.371094 263.425781 179.761719 263.597656 180.171875 C 263.769531 180.585938 263.898438 181.011719 263.984375 181.449219 C 264.070312 181.886719 264.113281 182.328125 264.113281 182.777344 C 264.113281 183.222656 264.070312 183.664062 263.984375 184.101562 C 263.898438 184.539062 263.769531 184.964844 263.597656 185.378906 C 263.425781 185.789062 263.214844 186.183594 262.96875 186.554688 C 262.71875 186.925781 262.4375 187.269531 262.121094 187.585938 C 261.808594 187.898438 261.464844 188.183594 261.09375 188.429688 C 260.722656 188.679688 260.328125 188.886719 259.917969 189.058594 C 259.503906 189.230469 259.078125 189.359375 258.640625 189.445312 C 258.203125 189.53125 257.761719 189.574219 257.316406 189.574219 C 256.867188 189.574219 256.425781 189.53125 255.988281 189.445312 C 255.550781 189.359375 255.125 189.230469 254.710938 189.058594 C 254.300781 188.886719 253.90625 188.679688 253.535156 188.429688 C 253.164062 188.183594 252.820312 187.898438 252.507812 187.585938 C 252.191406 187.269531 251.910156 186.925781 251.660156 186.554688 C 251.414062 186.183594 251.203125 185.789062 251.03125 185.378906 C 250.863281 184.964844 250.734375 184.539062 250.644531 184.101562 C 250.558594 183.664062 250.515625 183.222656 250.515625 182.777344 Z M 243.714844 206.574219 C 243.714844 205.683594 243.800781 204.796875 243.976562 203.921875 C 244.148438 203.046875 244.410156 202.195312 244.75 201.371094 C 245.089844 200.546875 245.511719 199.761719 246.007812 199.019531 C 246.503906 198.277344 247.066406 197.589844 247.699219 196.960938 C 248.328125 196.328125 249.015625 195.765625 249.757812 195.269531 C 250.5 194.773438 251.285156 194.351562 252.109375 194.011719 C 252.933594 193.667969 253.785156 193.410156 254.660156 193.238281 C 255.539062 193.0625 256.421875 192.976562 257.316406 192.976562 C 258.207031 192.976562 259.09375 193.0625 259.96875 193.238281 C 260.84375 193.410156 261.695312 193.667969 262.519531 194.011719 C 263.34375 194.351562 264.128906 194.773438 264.871094 195.269531 C 265.613281 195.765625 266.300781 196.328125 266.929688 196.960938 C 267.5625 197.589844 268.125 198.277344 268.621094 199.019531 C 269.117188 199.761719 269.539062 200.546875 269.878906 201.371094 C 270.222656 202.195312 270.480469 203.046875 270.652344 203.921875 C 270.828125 204.796875 270.914062 205.683594 270.914062 206.574219 L 270.914062 211.675781 L 267.957031 211.675781 L 269.214844 203.429688 C 269.253906 203.183594 269.234375 202.941406 269.167969 202.703125 C 269.097656 202.460938 268.980469 202.25 268.816406 202.058594 C 268.652344 201.871094 268.457031 201.726562 268.230469 201.625 C 268.003906 201.523438 267.765625 201.472656 267.515625 201.476562 L 247.113281 201.476562 C 246.867188 201.472656 246.625 201.523438 246.398438 201.625 C 246.171875 201.726562 245.976562 201.871094 245.8125 202.058594 C 245.648438 202.25 245.53125 202.460938 245.460938 202.703125 C 245.394531 202.941406 245.378906 203.183594 245.414062 203.429688 L 246.671875 211.675781 L 243.714844 211.675781 Z M 265.542969 204.875 L 264.011719 215.074219 L 250.617188 215.074219 L 249.085938 204.875 Z M 247.113281 215.074219 L 247.402344 217.03125 C 247.433594 217.234375 247.5 217.425781 247.597656 217.601562 C 247.699219 217.78125 247.828125 217.9375 247.984375 218.070312 C 248.140625 218.203125 248.3125 218.304688 248.507812 218.375 C 248.699219 218.445312 248.898438 218.476562 249.105469 218.476562 L 265.421875 218.476562 C 265.628906 218.476562 265.828125 218.445312 266.019531 218.375 C 266.214844 218.304688 266.386719 218.203125 266.542969 218.070312 C 266.699219 217.9375 266.828125 217.78125 266.929688 217.601562 C 267.027344 217.425781 267.09375 217.234375 267.125 217.03125 L 267.515625 215.074219 L 274.484375 215.074219 L 275.792969 227.367188 L 276.390625 234.167969 L 268.585938 237.292969 C 268.261719 237.421875 268.003906 237.632812 267.808594 237.921875 C 267.613281 238.210938 267.515625 238.527344 267.515625 238.875 L 267.515625 243.976562 C 267.515625 244.496094 267.714844 244.929688 268.109375 245.269531 C 268.429688 245.539062 268.796875 245.675781 269.214844 245.675781 L 269.46875 245.675781 L 277.289062 244.46875 L 277.832031 250.777344 L 236.796875 250.777344 L 237.339844 244.453125 L 245.160156 245.660156 L 245.414062 245.660156 C 245.832031 245.660156 246.203125 245.523438 246.519531 245.25 C 246.910156 244.914062 247.109375 244.492188 247.113281 243.976562 L 247.113281 238.875 C 247.113281 238.527344 247.015625 238.210938 246.820312 237.921875 C 246.625 237.632812 246.367188 237.421875 246.042969 237.292969 L 238.257812 234.183594 L 240.160156 215.074219 Z M 216.515625 209.976562 C 216.515625 209.53125 216.558594 209.085938 216.644531 208.648438 C 216.734375 208.210938 216.863281 207.785156 217.03125 207.375 C 217.203125 206.960938 217.414062 206.570312 217.660156 206.199219 C 217.910156 205.828125 218.191406 205.484375 218.507812 205.167969 C 218.820312 204.851562 219.164062 204.570312 219.535156 204.320312 C 219.90625 204.074219 220.300781 203.863281 220.710938 203.695312 C 221.125 203.523438 221.550781 203.394531 221.988281 203.304688 C 222.425781 203.21875 222.867188 203.175781 223.316406 203.175781 C 223.761719 203.175781 224.203125 203.21875 224.640625 203.304688 C 225.078125 203.394531 225.503906 203.523438 225.917969 203.695312 C 226.328125 203.863281 226.722656 204.074219 227.09375 204.320312 C 227.464844 204.570312 227.808594 204.851562 228.121094 205.167969 C 228.4375 205.484375 228.71875 205.828125 228.96875 206.199219 C 229.214844 206.570312 229.425781 206.960938 229.597656 207.375 C 229.769531 207.785156 229.898438 208.210938 229.984375 208.648438 C 230.070312 209.085938 230.113281 209.53125 230.113281 209.976562 C 230.113281 210.421875 230.070312 210.863281 229.984375 211.300781 C 229.898438 211.742188 229.769531 212.164062 229.597656 212.578125 C 229.425781 212.992188 229.214844 213.382812 228.96875 213.753906 C 228.71875 214.125 228.4375 214.46875 228.121094 214.785156 C 227.808594 215.101562 227.464844 215.382812 227.09375 215.628906 C 226.722656 215.878906 226.328125 216.085938 225.917969 216.257812 C 225.503906 216.429688 225.078125 216.558594 224.640625 216.644531 C 224.203125 216.730469 223.761719 216.777344 223.316406 216.777344 C 222.867188 216.777344 222.425781 216.730469 221.988281 216.644531 C 221.550781 216.558594 221.125 216.429688 220.710938 216.257812 C 220.300781 216.085938 219.90625 215.878906 219.535156 215.628906 C 219.164062 215.382812 218.820312 215.101562 218.507812 214.785156 C 218.191406 214.46875 217.910156 214.125 217.660156 213.753906 C 217.414062 213.382812 217.203125 212.992188 217.03125 212.578125 C 216.863281 212.164062 216.734375 211.742188 216.644531 211.300781 C 216.558594 210.863281 216.515625 210.421875 216.515625 209.976562 Z M 209.714844 233.777344 C 209.714844 232.882812 209.800781 232 209.976562 231.121094 C 210.148438 230.246094 210.410156 229.394531 210.75 228.570312 C 211.089844 227.746094 211.511719 226.960938 212.007812 226.21875 C 212.503906 225.476562 213.066406 224.789062 213.699219 224.160156 C 214.328125 223.527344 215.015625 222.964844 215.757812 222.46875 C 216.5 221.972656 217.285156 221.554688 218.109375 221.210938 C 218.933594 220.871094 219.785156 220.613281 220.660156 220.4375 C 221.539062 220.261719 222.421875 220.175781 223.316406 220.175781 C 224.578125 220.175781 225.820312 220.347656 227.035156 220.695312 C 228.25 221.039062 229.398438 221.546875 230.472656 222.210938 C 231.546875 222.875 232.511719 223.675781 233.363281 224.609375 C 234.214844 225.542969 234.921875 226.574219 235.488281 227.707031 L 234.976562 232.808594 L 230.113281 230.917969 L 230.113281 226.976562 L 226.714844 226.976562 L 226.714844 232.074219 C 226.714844 232.425781 226.8125 232.742188 227.007812 233.03125 C 227.203125 233.320312 227.460938 233.527344 227.785156 233.65625 L 243.714844 240.03125 L 243.714844 241.988281 L 224.4375 239.027344 L 221.425781 233.011719 L 218.402344 234.539062 L 221.800781 241.339844 C 222.0625 241.863281 222.484375 242.167969 223.058594 242.257812 L 233.972656 243.957031 L 233.378906 250.757812 L 209.714844 250.757812 Z M 304.914062 250.777344 L 281.25 250.777344 L 280.65625 243.976562 L 291.570312 242.277344 C 292.148438 242.1875 292.566406 241.878906 292.828125 241.359375 L 296.226562 234.558594 L 293.203125 233.027344 L 290.191406 239.046875 L 270.914062 241.988281 L 270.914062 240.03125 L 286.84375 233.65625 C 287.167969 233.527344 287.425781 233.320312 287.621094 233.03125 C 287.816406 232.742188 287.914062 232.425781 287.914062 232.074219 L 287.914062 226.976562 L 284.515625 226.976562 L 284.515625 230.917969 L 279.6875 232.859375 L 279.226562 227.585938 C 279.796875 226.472656 280.507812 225.457031 281.355469 224.539062 C 282.203125 223.621094 283.164062 222.835938 284.230469 222.183594 C 285.296875 221.527344 286.429688 221.03125 287.632812 220.691406 C 288.835938 220.347656 290.0625 220.179688 291.316406 220.175781 C 292.207031 220.175781 293.09375 220.261719 293.96875 220.4375 C 294.84375 220.613281 295.695312 220.871094 296.519531 221.210938 C 297.34375 221.554688 298.128906 221.972656 298.871094 222.46875 C 299.613281 222.964844 300.300781 223.527344 300.929688 224.160156 C 301.5625 224.789062 302.125 225.476562 302.621094 226.21875 C 303.117188 226.960938 303.539062 227.746094 303.878906 228.570312 C 304.222656 229.394531 304.480469 230.246094 304.652344 231.121094 C 304.828125 232 304.914062 232.882812 304.914062 233.777344 Z M 304.914062 250.777344"/></g><g clip-path="url(#j)"><path fill="#2B7F5C" d="M 208.015625 189.574219 L 217.363281 189.574219 L 221.953125 195.695312 C 222.117188 195.910156 222.316406 196.078125 222.554688 196.195312 C 222.792969 196.316406 223.046875 196.375 223.316406 196.375 C 223.582031 196.375 223.835938 196.316406 224.074219 196.195312 C 224.3125 196.078125 224.515625 195.910156 224.675781 195.695312 L 229.265625 189.574219 L 238.613281 189.574219 C 238.839844 189.574219 239.058594 189.53125 239.265625 189.445312 C 239.472656 189.359375 239.65625 189.238281 239.816406 189.078125 C 239.976562 188.917969 240.097656 188.734375 240.183594 188.527344 C 240.273438 188.316406 240.316406 188.101562 240.316406 187.875 L 240.316406 153.875 C 240.316406 153.648438 240.273438 153.433594 240.183594 153.226562 C 240.097656 153.015625 239.976562 152.832031 239.816406 152.671875 C 239.65625 152.515625 239.472656 152.390625 239.265625 152.304688 C 239.058594 152.21875 238.839844 152.175781 238.613281 152.175781 L 208.015625 152.175781 C 207.789062 152.175781 207.574219 152.21875 207.363281 152.304688 C 207.15625 152.390625 206.972656 152.515625 206.8125 152.671875 C 206.652344 152.832031 206.53125 153.015625 206.445312 153.226562 C 206.359375 153.433594 206.316406 153.648438 206.316406 153.875 L 206.316406 187.875 C 206.316406 188.101562 206.359375 188.316406 206.445312 188.527344 C 206.53125 188.734375 206.652344 188.917969 206.8125 189.078125 C 206.972656 189.238281 207.15625 189.359375 207.363281 189.445312 C 207.574219 189.53125 207.789062 189.574219 208.015625 189.574219 Z M 209.714844 155.574219 L 236.914062 155.574219 L 236.914062 186.175781 L 228.414062 186.175781 C 227.847656 186.175781 227.394531 186.402344 227.054688 186.855469 L 223.316406 191.835938 L 219.574219 186.855469 C 219.234375 186.402344 218.78125 186.175781 218.214844 186.175781 L 209.714844 186.175781 Z M 209.714844 155.574219"/></g><path fill="#2B7F5C" d="M 213.113281 179.375 L 233.515625 179.375 L 233.515625 182.777344 L 213.113281 182.777344 Z M 213.113281 179.375"/><path fill="#2B7F5C" d="M 213.113281 172.574219 L 233.515625 172.574219 L 233.515625 175.976562 L 213.113281 175.976562 Z M 213.113281 172.574219"/><path fill="#2B7F5C" d="M 213.113281 165.777344 L 233.515625 165.777344 L 233.515625 169.175781 L 213.113281 169.175781 Z M 213.113281 165.777344"/><path fill="#2B7F5C" d="M 230.113281 158.976562 L 233.515625 158.976562 L 233.515625 162.375 L 230.113281 162.375 Z M 230.113281 158.976562"/><path fill="#2B7F5C" d="M 219.914062 158.976562 L 226.714844 158.976562 L 226.714844 162.375 L 219.914062 162.375 Z M 219.914062 158.976562"/><path fill="#2B7F5C" d="M 213.113281 158.976562 L 216.515625 158.976562 L 216.515625 162.375 L 213.113281 162.375 Z M 213.113281 158.976562"/></svg>