<svg version="1.1" id="Layer_1" xmlns="http://www.w3.org/2000/svg" xmlns:xlink="http://www.w3.org/1999/xlink" x="0px" y="0px" width="126px" height="64px"
	 viewBox="0 0 201.2 101.1" style="enable-background:new 0 0 201.2 101.1;" xml:space="preserve">
<style type="text/css">
	.st0{fill-rule:evenodd;clip-rule:evenodd;}
	.st1{fill-rule:evenodd;clip-rule:evenodd;fill:#E31C1F;}
	.st2{fill-rule:evenodd;clip-rule:evenodd;fill:url(#SVGID_1_);}
	.st3{fill-rule:evenodd;clip-rule:evenodd;fill:url(#SVGID_2_);}
	.st4{fill-rule:evenodd;clip-rule:evenodd;fill:url(#SVGID_3_);}
	.st5{fill-rule:evenodd;clip-rule:evenodd;fill:url(#SVGID_4_);}
	.st6{fill-rule:evenodd;clip-rule:evenodd;fill:#FDCC00;}
	.st7{fill-rule:evenodd;clip-rule:evenodd;fill:#FFF081;}
	.st8{fill-rule:evenodd;clip-rule:evenodd;fill:url(#SVGID_5_);}
	.st9{fill-rule:evenodd;clip-rule:evenodd;fill:url(#SVGID_6_);}
	.st10{fill-rule:evenodd;clip-rule:evenodd;fill:#FFFFFF;}
	.st11{fill-rule:evenodd;clip-rule:evenodd;fill:url(#SVGID_7_);}
	.st12{fill-rule:evenodd;clip-rule:evenodd;fill:url(#SVGID_8_);}
	.st13{fill-rule:evenodd;clip-rule:evenodd;fill:url(#SVGID_9_);}
	.st14{fill-rule:evenodd;clip-rule:evenodd;fill:url(#SVGID_10_);}
	.st15{fill-rule:evenodd;clip-rule:evenodd;fill:url(#SVGID_11_);}
	.st16{fill-rule:evenodd;clip-rule:evenodd;fill:url(#SVGID_12_);}
	.st17{fill-rule:evenodd;clip-rule:evenodd;fill:#224895;}
</style>
<g>
	<g>
		<g>
			<polygon class="st0" points="191.3,47.5 191.3,44 190,44 190,43.5 193.1,43.5 193.1,44 191.8,44 191.8,47.5 			"/>
			<path class="st0" d="M193.7,47.5v-4h0.8l0.9,2.8c0.1,0.3,0.2,0.5,0.2,0.6c0-0.1,0.1-0.4,0.2-0.6l1-2.8h0.7v4H197v-3.4l-1.2,3.4
				h-0.5l-1.2-3.4v3.4H193.7z"/>
		</g>
		<path class="st1" d="M52.1,76.6c-1.4-1.4-2.1-3.1-2.1-5v-8.5c0-2.2-0.7-4-2.2-5.6c-1.5-1.6-3.3-2.3-5.5-2.3c-2.2,0-4,0.8-5.5,2.4
			c-1.5,1.6-2.3,3.4-2.3,5.6v15.6c-2.6,0-4.5-0.7-5.9-2.1c-1.4-1.4-2.1-3.1-2.1-5v-8.5c0-2.2-0.7-4-2.2-5.6
			c-1.5-1.6-3.3-2.3-5.5-2.3c-2.1,0-4,0.8-5.5,2.4C11.7,59.1,11,61,11,63.2v8.5c0,2-0.7,3.6-2.1,5c-1.4,1.4-3.4,2.1-5.9,2.1V63.1
			c0-4.3,1.5-8,4.6-11.1c3.1-3.1,6.8-4.6,11.1-4.6c4.7,0,8.6,1.8,11.8,5.3c1.5-1.6,3.3-2.9,5.3-3.9c2.1-0.9,4.2-1.4,6.4-1.4
			c4.3,0,8,1.5,11.1,4.6c3.1,3,4.6,6.7,4.6,11.1v15.6C55.5,78.7,53.5,78,52.1,76.6z"/>
		<path class="st1" d="M76.8,55.2c-2.2,0-4,0.8-5.5,2.3C69.8,59.1,69,61,69,63.1c0,2.2,0.8,4,2.3,5.6c1.5,1.6,3.3,2.3,5.5,2.3
			c2.1,0,4-0.8,5.5-2.3c1.5-1.6,2.3-3.4,2.3-5.6c0-2.2-0.8-4-2.3-5.6C80.8,56,78.9,55.2,76.8,55.2L76.8,55.2z M76.8,78.7
			c-4.3,0-8-1.5-11.1-4.6c-3.1-3-4.6-6.7-4.6-11c0-4.3,1.5-8,4.6-11.1c3.1-3.1,6.8-4.6,11.1-4.6c4.3,0,8.1,1.5,11.2,4.6
			c3.1,3.1,4.6,6.7,4.6,11.1c0,4.3-1.5,8-4.6,11C84.8,77.2,81.1,78.7,76.8,78.7z"/>
		<path class="st1" d="M120.7,76.6c-1.4-1.4-2.1-3.1-2.1-5v-8.5c0-2.2-0.7-4-2.3-5.6c-1.5-1.6-3.3-2.4-5.5-2.4c-2.1,0-4,0.8-5.5,2.4
			c-1.5,1.6-2.3,3.4-2.3,5.6v8.5c0,1.9-0.7,3.6-2.1,5c-1.4,1.4-3.4,2.1-5.9,2.1V63.1c0-4.3,1.5-8,4.6-11.1c3.1-3,6.8-4.6,11.2-4.6
			c4.3,0,8,1.5,11.1,4.6c3.1,3.1,4.6,6.7,4.6,11.1v15.6C124.1,78.7,122.1,78,120.7,76.6z"/>
		<path class="st1" d="M153,64.9c-1.3,1.3-2.9,2-4.8,2h-4.9c-1.1,0-2-0.4-2.7-1.1c-0.7-0.7-1.1-1.6-1.1-2.7c0-1.1,0.4-2,1.1-2.7
			c0.7-0.8,1.6-1.1,2.7-1.1H155C155,61.7,154.4,63.6,153,64.9L153,64.9z M145.4,78.7h9.6c0-2.5-0.7-4.4-2-5.7c-1.3-1.3-2.9-2-4.8-2
			h-2.8c-2.1,0-4-0.8-5.5-2.3c-1.5-1.6-2.3-3.4-2.3-5.6c0-2.2,0.8-4,2.3-5.6c1.5-1.6,3.3-2.4,5.5-2.4h2.8c1.9,0,3.4-0.7,4.8-2
			c1.3-1.3,2-3.2,2-5.7h-9.6c-4.3,0-8,1.5-11.1,4.6c-3.1,3.1-4.6,6.7-4.6,11.1c0,4.3,1.5,8,4.6,11C137.4,77.2,141.1,78.7,145.4,78.7
			z"/>
		<path class="st1" d="M177.3,70.9v7.9h-8v-7.9c-3.4-0.9-6.2-2.8-8.4-5.6c-2.2-2.8-3.3-6-3.3-9.5v-8.2c2.6,0,4.5,0.7,5.9,2.1
			c1.4,1.4,2.1,3.1,2.1,5v1.1c0,2.2,0.8,4,2.3,5.6c1.5,1.6,3.3,2.4,5.5,2.4c2.1,0,4-0.8,5.5-2.4c1.5-1.6,2.3-3.4,2.3-5.6v-1.1
			c0-1.9,0.7-3.6,2.1-5c1.4-1.4,3.4-2.1,5.9-2.1v8.2c0,3.5-1.1,6.7-3.3,9.5C183.6,68.1,180.8,70,177.3,70.9z"/>
		<linearGradient id="SVGID_1_" gradientUnits="userSpaceOnUse" x1="174.1069" y1="53.7528" x2="171.2334" y2="7.0226">
			<stop  offset="0" style="stop-color:#FDCC00"/>
			<stop  offset="0.1" style="stop-color:#FFFFFF"/>
			<stop  offset="0.45" style="stop-color:#FFFFFF"/>
			<stop  offset="1" style="stop-color:#FDCC00"/>
		</linearGradient>
		<path class="st2" d="M179.9,29.4C178,16,173.3,5.6,169.3,6.2c-4,0.5-5.7,11.8-3.9,25.2c1.8,13.4,6.6,23.8,10.5,23.2
			C180,54,181.7,42.8,179.9,29.4z"/>
		<linearGradient id="SVGID_2_" gradientUnits="userSpaceOnUse" x1="170.1018" y1="54.4902" x2="164.2699" y2="6.9224">
			<stop  offset="0" style="stop-color:#ECB317"/>
			<stop  offset="1.000000e-02" style="stop-color:#ECB317"/>
			<stop  offset="0.41" style="stop-color:#EDB616"/>
			<stop  offset="0.49" style="stop-color:#FFE800"/>
			<stop  offset="0.55" style="stop-color:#EDB616"/>
			<stop  offset="0.9" style="stop-color:#EDB71B"/>
			<stop  offset="0.99" style="stop-color:#FDCC00"/>
			<stop  offset="1" style="stop-color:#FDCC00"/>
		</linearGradient>
		<path class="st3" d="M165.3,6.7c-4,0.5-5.7,11.8-3.9,25.2c1.8,13.4,6.6,23.8,10.5,23.2l4-0.6c-4,0.5-8.7-9.8-10.5-23.2
			c-1.8-13.4-0.1-24.7,3.9-25.2L165.3,6.7L165.3,6.7z"/>
		<linearGradient id="SVGID_3_" gradientUnits="userSpaceOnUse" x1="155.2326" y1="14.3764" x2="190.746" y2="46.315">
			<stop  offset="0" style="stop-color:#FDCC00"/>
			<stop  offset="0.33" style="stop-color:#FDCC00"/>
			<stop  offset="0.38" style="stop-color:#FFE800"/>
			<stop  offset="0.54" style="stop-color:#FFFFFF"/>
			<stop  offset="0.57" style="stop-color:#FFE700"/>
			<stop  offset="0.67" style="stop-color:#FDDD00"/>
			<stop  offset="1" style="stop-color:#FDDD00"/>
		</linearGradient>
		<path class="st4" d="M180.2,29.4c-1.8-13.4-6.6-23.8-10.5-23.2c-4,0.6-5.7,11.8-3.9,25.2c1.8,13.4,6.6,23.8,10.5,23.2
			C180.3,54,182,42.7,180.2,29.4z"/>
		<linearGradient id="SVGID_4_" gradientUnits="userSpaceOnUse" x1="174.3919" y1="51.5779" x2="171.6028" y2="9.109">
			<stop  offset="0" style="stop-color:#ECB317"/>
			<stop  offset="0.14" style="stop-color:#EDB71B"/>
			<stop  offset="0.22" style="stop-color:#FDCC00"/>
			<stop  offset="0.35" style="stop-color:#FFFFFF"/>
			<stop  offset="0.47" style="stop-color:#FDCC00"/>
			<stop  offset="0.72" style="stop-color:#F7CB34"/>
			<stop  offset="1" style="stop-color:#EDB616"/>
		</linearGradient>
		<path class="st5" d="M178.9,29.5C177.2,17.4,173.2,8,170,8.4c-3.3,0.5-4.6,10.6-2.9,22.7c1.7,12.1,5.7,21.6,8.9,21.1
			C179.3,51.8,180.6,41.6,178.9,29.5z"/>
		<path class="st6" d="M164.8,45.9c0.6,1.6,1.2,3,1.8,4.2l4-0.6c-0.6-1.2-1.2-2.6-1.8-4.2L164.8,45.9L164.8,45.9z"/>
		<path class="st7" d="M166.1,49.1c0.2,0.4,0.3,0.7,0.5,1l4-0.6c-0.2-0.3-0.3-0.7-0.5-1L166.1,49.1L166.1,49.1z"/>
		<linearGradient id="SVGID_5_" gradientUnits="userSpaceOnUse" x1="164.1812" y1="29.9271" x2="162.7977" y2="11.3037">
			<stop  offset="0" style="stop-color:#CA811F"/>
			<stop  offset="1" style="stop-color:#EDB616"/>
		</linearGradient>
		<path class="st8" d="M161.8,11.6c-1.2,4.3-1.4,11-0.6,18.5l4-0.6c-0.9-7.5-0.6-14.2,0.6-18.5L161.8,11.6L161.8,11.6z"/>
		<linearGradient id="SVGID_6_" gradientUnits="userSpaceOnUse" x1="177.125" y1="28.1705" x2="168.1742" y2="30.8747">
			<stop  offset="0" style="stop-color:#FDCC00"/>
			<stop  offset="0.12" style="stop-color:#FDCC00"/>
			<stop  offset="0.88" style="stop-color:#FFE800"/>
			<stop  offset="1" style="stop-color:#FFE800"/>
		</linearGradient>
		<path class="st9" d="M178.3,28.7c-1.6-11.6-5.5-20.7-8.6-20.3c-3.1,0.4-4.4,10.2-2.8,21.9c1.6,11.6,5.5,20.7,8.6,20.3
			C178.7,50.2,179.9,40.4,178.3,28.7z"/>
		<path class="st10" d="M171,46.5c1.6,3.8,3.4,6,5,5.8c2.3-0.3,3.6-5.5,3.6-12.8c-0.1,6.9-1.5,11.7-3.8,12
			C174.3,51.7,172.5,49.8,171,46.5L171,46.5z"/>
		<path class="st10" d="M175.1,14.4c-1.7-4-3.5-6.5-5.2-6.2c-3.3,0.5-4.6,10.6-2.9,22.7c0.8,6,2.2,11.4,3.8,15.2
			c-1.6-3.8-2.9-9-3.7-14.9c-1.7-12.1-0.4-22.3,2.9-22.7C171.6,8.2,173.5,10.5,175.1,14.4L175.1,14.4z"/>
		<polygon class="st10" points="175.5,40.9 170.1,44.3 172,41.4 169.5,44.5 170.3,41.9 169.1,44.8 169,43.1 168.9,44.8 164.4,39.1 
			167.8,44.5 164.9,42.5 168,45.1 165.4,44.3 168.2,45.5 166.6,45.5 168.3,45.6 162.6,50.2 167.9,46.7 166,49.6 168.5,46.6 
			167.8,49.2 168.9,46.3 169,48 169.1,46.3 173.7,52 170.2,46.6 173.1,48.5 170.1,46 172.7,46.8 169.8,45.6 171.5,45.6 169.8,45.5 
			175.5,40.9 		"/>
		<linearGradient id="SVGID_7_" gradientUnits="userSpaceOnUse" x1="194.7408" y1="31.9464" x2="187.4993" y2="1.9334">
			<stop  offset="0" style="stop-color:#FDCC00"/>
			<stop  offset="3.000000e-02" style="stop-color:#FDCC00"/>
			<stop  offset="0.12" style="stop-color:#FFFFFF"/>
			<stop  offset="0.45" style="stop-color:#FFFFFF"/>
			<stop  offset="0.97" style="stop-color:#FDCC00"/>
			<stop  offset="1" style="stop-color:#FDCC00"/>
		</linearGradient>
		<path class="st11" d="M198.4,14.4c-3.6-9.2-9.8-15.5-13.8-14.1c-4,1.4-4.4,10-0.8,19.2c3.6,9.2,9.8,15.5,13.8,14.1
			C201.7,32.2,202,23.6,198.4,14.4z"/>
		<linearGradient id="SVGID_8_" gradientUnits="userSpaceOnUse" x1="191.2208" y1="34.0012" x2="179.4437" y2="2.7547">
			<stop  offset="0" style="stop-color:#ECB317"/>
			<stop  offset="7.000000e-02" style="stop-color:#ECB317"/>
			<stop  offset="0.42" style="stop-color:#EDB616"/>
			<stop  offset="0.49" style="stop-color:#FFE800"/>
			<stop  offset="0.54" style="stop-color:#EDB616"/>
			<stop  offset="0.85" style="stop-color:#EDB71B"/>
			<stop  offset="0.93" style="stop-color:#FDCC00"/>
			<stop  offset="1" style="stop-color:#FDCC00"/>
		</linearGradient>
		<path class="st12" d="M180.5,1.7c-4,1.4-4.4,10-0.8,19.2c3.6,9.2,9.8,15.5,13.8,14.1l4.1-1.4c-4,1.4-10.2-4.9-13.8-14.1
			c-3.6-9.2-3.2-17.8,0.8-19.2L180.5,1.7L180.5,1.7z"/>
		<linearGradient id="SVGID_9_" gradientUnits="userSpaceOnUse" x1="172.7215" y1="13.2329" x2="210.1655" y2="20.4256">
			<stop  offset="0" style="stop-color:#FDCC00"/>
			<stop  offset="0.32" style="stop-color:#FDCC00"/>
			<stop  offset="0.38" style="stop-color:#FFE800"/>
			<stop  offset="0.54" style="stop-color:#FECF00"/>
			<stop  offset="0.55" style="stop-color:#FFFFFF"/>
			<stop  offset="0.58" style="stop-color:#FFE700"/>
			<stop  offset="0.68" style="stop-color:#FDDD00"/>
			<stop  offset="1" style="stop-color:#FDDD00"/>
		</linearGradient>
		<path class="st13" d="M198.8,14.3c-3.6-9.2-9.8-15.5-13.8-14.1c-4,1.4-4.4,10-0.8,19.2c3.6,9.2,9.8,15.5,13.8,14.1
			C202,32.1,202.4,23.5,198.8,14.3z"/>
		<linearGradient id="SVGID_10_" gradientUnits="userSpaceOnUse" x1="194.9556" y1="30.5154" x2="187.9502" y2="3.1314">
			<stop  offset="0" style="stop-color:#ECB317"/>
			<stop  offset="3.000000e-02" style="stop-color:#ECB317"/>
			<stop  offset="0.16" style="stop-color:#EDB71B"/>
			<stop  offset="0.24" style="stop-color:#FDCC00"/>
			<stop  offset="0.36" style="stop-color:#FFFFFF"/>
			<stop  offset="0.47" style="stop-color:#FDCC00"/>
			<stop  offset="0.71" style="stop-color:#F7CB34"/>
			<stop  offset="0.97" style="stop-color:#EDB616"/>
			<stop  offset="1" style="stop-color:#EDB616"/>
		</linearGradient>
		<path class="st14" d="M197.5,14.7c-3.3-8.3-8.6-14.1-11.9-13c-3.3,1.2-3.4,8.8-0.1,17.2c3.3,8.3,8.6,14.1,11.9,13
			C200.7,30.7,200.7,23.1,197.5,14.7z"/>
		<path class="st6" d="M184.9,30.2c0.8,1,1.6,1.9,2.4,2.6l4.1-1.4c-0.8-0.7-1.6-1.6-2.4-2.6L184.9,30.2L184.9,30.2z"/>
		<path class="st7" d="M186.7,32.1c0.2,0.2,0.4,0.4,0.6,0.6l4.1-1.4c-0.2-0.2-0.4-0.4-0.6-0.6L186.7,32.1L186.7,32.1z"/>
		<linearGradient id="SVGID_11_" gradientUnits="userSpaceOnUse" x1="181.982" y1="19.011" x2="178.6781" y2="5.5382">
			<stop  offset="0" style="stop-color:#CA811F"/>
			<stop  offset="8.000000e-02" style="stop-color:#CA811F"/>
			<stop  offset="0.92" style="stop-color:#EDB616"/>
			<stop  offset="1" style="stop-color:#EDB616"/>
		</linearGradient>
		<path class="st15" d="M177.5,6.1c-0.7,3.4-0.1,8.3,1.7,13.5l4.1-1.4c-1.8-5.2-2.4-10.1-1.7-13.5L177.5,6.1L177.5,6.1z"/>
		<linearGradient id="SVGID_12_" gradientUnits="userSpaceOnUse" x1="195.5817" y1="14.2393" x2="186.3996" y2="18.3994">
			<stop  offset="0" style="stop-color:#FDCC00"/>
			<stop  offset="0.11" style="stop-color:#FDCC00"/>
			<stop  offset="0.89" style="stop-color:#FFE800"/>
			<stop  offset="1" style="stop-color:#FFE800"/>
		</linearGradient>
		<path class="st16" d="M196.8,14.3c-3.1-8-8.3-13.6-11.5-12.5c-3.2,1.1-3.2,8.5-0.1,16.5c3.1,8,8.3,13.6,11.5,12.5
			C199.9,29.7,199.9,22.3,196.8,14.3z"/>
		<path class="st10" d="M191.4,29c2.1,2.3,4.3,3.5,5.9,2.9c2.3-0.8,3.1-4.9,2.1-10.1c0.7,5-0.1,8.8-2.4,9.6
			C195.5,31.9,193.4,31,191.4,29L191.4,29z"/>
		<path class="st10" d="M191.6,4.8c-2.2-2.5-4.5-3.8-6.2-3.2c-3.3,1.2-3.4,8.8-0.1,17.1c1.6,4.1,3.7,7.6,5.9,10
			c-2.1-2.3-4.2-5.8-5.7-9.8c-3.3-8.3-3.2-16,0.1-17.2C187.2,1.2,189.4,2.4,191.6,4.8L191.6,4.8z"/>
		<polygon class="st10" points="195.4,23.8 190.2,27.7 191.9,25.1 189.6,27.9 190.1,25.8 189.3,28.2 189,27 189.1,28.3 183.7,25.3 
			187.9,28.3 184.6,27.7 188.1,28.7 185.3,28.8 188.4,28.9 186.7,29.4 188.5,29.1 183.2,33.8 188.3,29.9 186.7,32.5 188.9,29.7 
			188.5,31.8 189.3,29.4 189.6,30.6 189.5,29.3 194.9,32.3 190.6,29.3 193.9,29.9 190.4,28.9 193.2,28.8 190.1,28.7 191.8,28.2 
			190,28.5 195.4,23.8 		"/>
		<rect x="4.7" y="18.7" class="st17" width="7.1" height="23.7"/>
		<polygon class="st17" points="34.4,42.4 29.9,42.4 19.1,29 19.1,42.4 13.5,42.4 13.5,18.7 18.5,18.7 28.8,31.9 28.8,18.7 
			34.4,18.7 		"/>
		<path class="st17" d="M38.6,37.9h1.1c2.1,0,3.7-0.5,4.8-1.6c1.3-1.4,2-3.5,2-6.3c0-2.8-0.9-4.8-2.6-5.9c-1-0.6-2.3-1-4-1h-1.2
			l-2.9,0v-4.5H39c2.6,0,4.4,0.1,5.5,0.3c3,0.5,5.3,1.8,6.9,3.7c1.7,1.9,2.5,4.3,2.5,7.2c0,4.5-1.7,8-5.2,10.2
			c-2.3,1.5-5.4,2.2-9.3,2.2h-3.7v-4.5L38.6,37.9z"/>
		<polygon class="st17" points="69,42.4 54.5,42.4 54.5,18.7 69,18.7 69,23.2 61.6,23.2 61.6,27.7 68.9,27.7 68.9,32.3 61.6,32.3 
			61.6,37.9 69,37.9 		"/>
		<polygon class="st17" points="86,42.4 70.2,42.4 70.2,18.7 77.3,18.7 77.3,37.9 86,37.9 		"/>
		<polygon class="st1" points="4.7,12.4 11.8,18.6 11.8,12.4 		"/>
	</g>
	<g>
		<path d="M0.3,94.7C0.1,94.3,0,93.9,0,93.3c0-0.5,0.1-1,0.3-1.4c0.2-0.4,0.4-0.8,0.7-1.1C1.6,90.3,2.4,90,3.3,90
			c1,0,1.8,0.2,2.4,0.7c0.7,0.5,1.1,1.3,1.1,2.2c0,1.2-0.3,2.1-0.8,2.6c-0.6,0.6-1.4,0.9-2.6,0.9C1.8,96.4,0.7,95.8,0.3,94.7z
			 M0.9,93.1c0,1.7,0.9,2.5,2.6,2.5c0.8,0,1.5-0.3,2.1-0.8c0.5-0.5,0.8-1.1,0.8-2c0-0.8-0.3-1.3-0.9-1.7c-0.5-0.3-1.2-0.5-2-0.5
			c-0.6,0-1.2,0.2-1.7,0.7C1.1,91.9,0.9,92.4,0.9,93.1z"/>
		<path d="M7.4,95.1c0-0.1,0-0.3,0-0.5s0-0.4,0-0.7c0-0.2,0-0.5,0-0.7s0-0.5,0.1-0.7C7.5,92,7.7,91.8,8,91.8
			c0.2,0.1,0.3,0.1,0.4,0.2c0.1,0.1,0.1,0.2,0.1,0.3s0,0.3-0.1,0.5C8.1,93.4,8,94,8,94.5c0,0.2,0,0.3,0,0.5c0.1,0.5,0.5,0.7,1.2,0.7
			c0.4,0,0.7-0.1,1-0.2c0.6-0.2,1-0.5,1.2-0.8c0.1-0.3,0.1-0.6,0.1-0.9c0-0.2,0-0.5,0-0.7s0-0.4-0.1-0.6c0-0.2,0-0.5,0-0.8
			c0.1,0,0.2-0.1,0.3-0.1c0.1,0,0.2,0,0.3,0.1s0.2,0.3,0.2,0.5c0.1,0.3,0.1,0.6,0.1,0.9s0,0.7,0,1.1s0,0.7,0,1.1s0,0.6,0,0.9
			c-0.1,0.1-0.2,0.1-0.2,0.1c-0.3,0-0.5-0.3-0.6-0.9c-0.1,0.1-0.3,0.2-0.5,0.3c-0.5,0.3-1,0.4-1.7,0.5c-0.1,0-0.3,0-0.4,0
			c-0.2,0-0.3,0-0.6-0.1C8.2,96.3,8,96.2,7.8,96C7.6,95.8,7.5,95.5,7.4,95.1z"/>
		<path d="M18.4,92.6c-0.3-0.2-0.7-0.3-1.2-0.3c-0.4,0-0.9,0.1-1.2,0.2c-0.7,0.3-1.2,0.7-1.5,1.2c-0.1,0.2-0.2,0.4-0.2,0.7
			c0,0,0,0.2,0,0.4c0,0.2,0,0.5,0.1,0.8c0.1,0.3,0.1,0.7,0.1,1c-0.2,0-0.3,0-0.4,0.1c-0.1,0-0.2,0-0.2,0c-0.1,0-0.1,0-0.2-0.1
			s-0.1-0.2-0.2-0.3c0,0,0-0.2,0-0.4s0-0.4-0.1-0.7c0-0.3-0.1-0.6-0.1-0.9s-0.1-0.7-0.1-1c-0.1-0.7-0.1-1.2-0.2-1.6
			c0-0.2,0.1-0.3,0.4-0.3c0.2,0,0.3,0.1,0.4,0.2c0.1,0.1,0.2,0.3,0.2,0.4c0.1,0.2,0.1,0.3,0.1,0.5s0,0.3,0,0.3
			c0.9-0.8,2.1-1.3,3.5-1.3c0.2,0,0.3,0,0.5,0c0,0,0.1,0,0.2,0c0.1,0,0.1,0,0.2,0.1c0.1,0.1,0.1,0.2,0.1,0.4
			C18.7,92.3,18.6,92.5,18.4,92.6z"/>
		<path d="M25.2,95.5l0-1.7c0-0.3,0-0.5-0.1-0.7h-1.7l0-0.7h1.6v-2.8c0-0.1,0.1-0.1,0.1-0.2c0.1-0.1,0.2-0.2,0.3-0.2s0.1,0,0.2,0
			c0.1,0,0.1,0.1,0.2,0.2c0.1,0.5,0.2,1.2,0.2,2.1c0,0.2,0,0.5,0,0.7c0.2,0,0.5,0,0.7,0h0.6c0.1,0,0.3,0,0.4,0l0,0.8l-1.6,0l0.1,3.7
			c-0.1,0.1-0.2,0.1-0.3,0.1C25.4,96.7,25.2,96.3,25.2,95.5z"/>
		<path d="M33.4,92.6c-0.3-0.2-0.7-0.3-1.2-0.3c-0.4,0-0.9,0.1-1.2,0.2c-0.7,0.3-1.2,0.7-1.5,1.2c-0.1,0.2-0.2,0.4-0.2,0.7
			c0,0,0,0.2,0,0.4c0,0.2,0,0.5,0.1,0.8c0.1,0.3,0.1,0.7,0.1,1c-0.2,0-0.3,0-0.4,0.1c-0.1,0-0.2,0-0.2,0c-0.1,0-0.1,0-0.2-0.1
			s-0.1-0.2-0.2-0.3c0,0,0-0.2,0-0.4s0-0.4-0.1-0.7c0-0.3-0.1-0.6-0.1-0.9s-0.1-0.7-0.1-1c-0.1-0.7-0.1-1.2-0.2-1.6
			c0-0.2,0.1-0.3,0.4-0.3c0.2,0,0.3,0.1,0.4,0.2c0.1,0.1,0.2,0.3,0.2,0.4c0.1,0.2,0.1,0.3,0.1,0.5s0,0.3,0,0.3
			c0.9-0.8,2.1-1.3,3.5-1.3c0.2,0,0.3,0,0.5,0c0,0,0.1,0,0.2,0c0.1,0,0.1,0,0.2,0.1c0.1,0.1,0.1,0.2,0.1,0.4
			C33.7,92.3,33.6,92.5,33.4,92.6z"/>
		<path d="M38.4,94.7c-0.5,0.8-1.3,1.4-2.2,1.6c-0.2,0-0.4,0.1-0.6,0.1c-0.2,0-0.3,0-0.4,0c-0.1,0-0.2,0-0.4,0
			c-0.1,0-0.3-0.1-0.4-0.1c-0.3-0.2-0.4-0.4-0.4-0.6c0-0.1,0-0.3,0-0.4s0-0.4,0.1-0.6c0.1-0.3,0.2-0.6,0.4-0.9
			c0.2-0.3,0.4-0.6,0.7-0.9c0.6-0.5,1.2-0.9,1.8-1.1c0.2,0,0.4-0.1,0.5-0.1c0.2,0,0.3,0,0.4,0c0.4,0,0.7,0.3,0.8,0.9
			c0.1,0.4,0.1,0.9,0.2,1.5s0,1.1,0.1,1.5c0,0.3,0.1,0.7,0.1,1h-0.6c0-0.2-0.1-0.4-0.1-0.5c0-0.2,0-0.3,0-0.4
			C38.5,95.2,38.4,94.9,38.4,94.7z M38.4,93c0-0.4-0.2-0.6-0.6-0.6c-0.1,0-0.1,0-0.2,0c-0.5,0-1.1,0.3-1.7,0.8
			c-0.3,0.2-0.5,0.5-0.7,0.8c-0.3,0.4-0.4,0.8-0.4,1.1c0,0.4,0.2,0.7,0.7,0.8c0.6,0,1.3-0.3,1.9-0.9c0.3-0.3,0.5-0.5,0.6-0.8
			C38.2,93.7,38.4,93.4,38.4,93z"/>
		<path d="M44,94.1c0-0.9,0-1.5-0.1-1.9c0.1-0.1,0-0.2-0.3-0.2c-0.2,0-0.6,0.1-0.9,0.2c-0.4,0.1-0.7,0.2-0.9,0.4
			c-0.6,0.3-0.9,0.6-1,0.8v2.9H40c-0.1-0.2-0.1-0.9-0.1-2.1c0-1,0-1.7,0.1-2.2s0.1-0.7,0.1-0.8c0.2-0.1,0.3-0.2,0.5-0.2
			c0.2,0,0.3,0.2,0.3,0.6c0,0.2,0,0.3,0,0.5s0,0.3,0,0.3c1.2-0.9,2.1-1.3,2.7-1.3c0.7,0,1.1,0.6,1.2,1.8c0,0.4,0.1,1,0.1,1.7l0,0.9
			c0,0.3,0,0.6,0,0.9c-0.1,0-0.1,0.1-0.2,0.1c0,0-0.1,0-0.1,0s-0.2,0-0.3,0C44,96.2,44,95.9,44,95.6c0-0.3,0-0.6,0-0.8L44,94.1z"/>
		<path d="M49,93.7c0.8,0,1.2,0.2,1.2,0.6c0,0.3-0.2,0.7-0.7,1.1c-0.7,0.6-1.5,1.1-2.6,1.4c-0.1,0-0.1,0-0.2-0.2
			c-0.1-0.1-0.1-0.2-0.1-0.2c0-0.1-0.1-0.1-0.1-0.1c0.8-0.3,1.5-0.6,2-1c0.4-0.3,0.5-0.5,0.5-0.6c0-0.2-0.2-0.2-0.6-0.2
			c-0.4,0-1,0.1-1.9,0.3c-0.4,0-0.7-0.1-1-0.4c-0.2-0.2-0.4-0.4-0.4-0.7c0-0.2,0.1-0.4,0.2-0.6s0.3-0.4,0.5-0.5
			c0.2-0.2,0.5-0.3,0.8-0.5c0.7-0.3,1.4-0.5,2.2-0.5c0.2,0,0.4,0,0.6,0.1c0.2,0,0.3,0.1,0.3,0.2c0,0.2,0,0.4,0,0.7
			c-0.4-0.2-0.9-0.3-1.4-0.3c-0.7,0-1.2,0.1-1.6,0.4c-0.4,0.3-0.7,0.6-0.7,1c0,0.2,0.1,0.3,0.4,0.3l0.8-0.1
			C48,93.8,48.6,93.7,49,93.7z"/>
		<path d="M51.9,92.2c1-0.3,1.8-0.5,2.5-0.5c0.9,0,1.5,0.2,1.8,0.7c0.1,0.2,0.2,0.5,0.2,0.7c0,0.4-0.1,0.7-0.3,1.1
			c-0.2,0.4-0.5,0.7-0.9,1c-0.9,0.7-1.9,1.2-3.2,1.3c0,0.1,0,0.2,0,0.4c0,0.2,0,0.4,0,0.6c0,0.2,0,0.4,0,0.7c0,0.2,0,0.5,0,0.7
			c0,0.6,0,0.9,0,1c0,0.1,0,0.1,0,0.2c0,0.2-0.1,0.3-0.2,0.4c-0.1,0.1-0.3,0.1-0.5,0.1c0,0-0.1,0-0.1,0L51.2,92
			c0.1-0.1,0.2-0.1,0.3-0.1c0.1,0,0.2,0,0.3,0.1C51.8,92,51.9,92.1,51.9,92.2z M55,92.6c-0.2-0.1-0.5-0.2-0.8-0.2
			c-0.3,0-0.5,0-0.8,0.1c-0.6,0.1-1.1,0.4-1.3,0.8c-0.1,0.2-0.2,0.4-0.2,0.7c0,0,0,0.1,0,0.1v1.9c1.5-0.3,2.5-0.8,3.2-1.4
			c0.4-0.3,0.5-0.7,0.5-1C55.6,93.1,55.4,92.8,55,92.6z"/>
		<path d="M61.2,94.7c-0.5,0.8-1.3,1.4-2.2,1.6c-0.2,0-0.4,0.1-0.6,0.1c-0.2,0-0.3,0-0.4,0c-0.1,0-0.2,0-0.4,0
			c-0.1,0-0.3-0.1-0.4-0.1c-0.3-0.2-0.4-0.4-0.4-0.6c0-0.1,0-0.3,0-0.4s0-0.4,0.1-0.6c0.1-0.3,0.2-0.6,0.4-0.9
			c0.2-0.3,0.4-0.6,0.7-0.9c0.6-0.5,1.2-0.9,1.8-1.1c0.2,0,0.4-0.1,0.5-0.1c0.2,0,0.3,0,0.4,0c0.4,0,0.7,0.3,0.8,0.9
			c0.1,0.4,0.1,0.9,0.2,1.5s0,1.1,0.1,1.5c0,0.3,0.1,0.7,0.1,1h-0.6c0-0.2-0.1-0.4-0.1-0.5c0-0.2,0-0.3,0-0.4
			C61.3,95.2,61.3,94.9,61.2,94.7z M61.2,93c0-0.4-0.2-0.6-0.6-0.6c-0.1,0-0.1,0-0.2,0c-0.5,0-1.1,0.3-1.7,0.8
			c-0.3,0.2-0.5,0.5-0.7,0.8c-0.3,0.4-0.4,0.8-0.4,1.1c0,0.4,0.2,0.7,0.7,0.8c0.6,0,1.3-0.3,1.9-0.9c0.3-0.3,0.5-0.5,0.6-0.8
			C61.1,93.7,61.2,93.4,61.2,93z"/>
		<path d="M67.9,92.6c-0.3-0.2-0.7-0.3-1.2-0.3c-0.4,0-0.9,0.1-1.2,0.2c-0.7,0.3-1.2,0.7-1.5,1.2c-0.1,0.2-0.2,0.4-0.2,0.7
			c0,0,0,0.2,0,0.4c0,0.2,0,0.5,0.1,0.8c0.1,0.3,0.1,0.7,0.1,1c-0.2,0-0.3,0-0.4,0.1c-0.1,0-0.2,0-0.2,0c-0.1,0-0.1,0-0.2-0.1
			s-0.1-0.2-0.2-0.3c0,0,0-0.2,0-0.4s0-0.4-0.1-0.7c0-0.3-0.1-0.6-0.1-0.9s-0.1-0.7-0.1-1c-0.1-0.7-0.1-1.2-0.2-1.6
			c0-0.2,0.1-0.3,0.4-0.3c0.2,0,0.3,0.1,0.4,0.2c0.1,0.1,0.2,0.3,0.2,0.4c0.1,0.2,0.1,0.3,0.1,0.5s0,0.3,0,0.3
			c0.9-0.8,2.1-1.3,3.5-1.3c0.2,0,0.3,0,0.5,0c0,0,0.1,0,0.2,0c0.1,0,0.1,0,0.2,0.1c0.1,0.1,0.1,0.2,0.1,0.4
			C68.2,92.3,68.1,92.5,67.9,92.6z"/>
		<path d="M70.9,95.8c0.6,0,1.6-0.3,2.9-0.9c0.1,0,0.1,0,0.2,0.1C74,95,74,95.1,74,95.2c-0.3,0.5-0.8,0.9-1.7,1.1
			c-0.8,0.3-1.6,0.3-2.3,0.1c-0.8-0.2-1.3-0.7-1.5-1.3c0-0.1,0-0.3,0-0.5s0.1-0.5,0.2-0.9c0.1-0.4,0.3-0.7,0.6-1.1s0.6-0.6,1-0.8
			c0.4-0.2,0.8-0.3,1.2-0.3c0.4,0,0.9,0.1,1.4,0.4c0.2,0.1,0.4,0.3,0.6,0.5s0.2,0.3,0.2,0.5c0,0.1,0,0.1,0,0.2
			c0,0.4-0.2,0.7-0.6,0.8c-0.2,0-0.4,0.1-0.6,0.1l-1.6-0.1c-0.5,0-0.9,0.1-1.2,0.3c-0.2,0.1-0.3,0.3-0.3,0.6
			C69.7,95.4,70.2,95.8,70.9,95.8z M72.8,92.4c-0.2-0.1-0.3-0.2-0.5-0.2c-0.2,0-0.3-0.1-0.4-0.1s-0.3,0-0.6,0.1
			c-0.3,0.1-0.5,0.2-0.7,0.3c-0.5,0.2-0.7,0.5-0.7,0.7c0.6,0,1,0.1,1.3,0.1c0.8,0,1.3-0.1,1.6-0.2c0.2-0.1,0.3-0.2,0.3-0.3
			C73.1,92.7,73,92.5,72.8,92.4z"/>
		<path d="M78.9,94.1c0-0.9,0-1.5-0.1-1.9c0.1-0.1,0-0.2-0.3-0.2c-0.2,0-0.6,0.1-0.9,0.2c-0.4,0.1-0.7,0.2-0.9,0.4
			c-0.6,0.3-0.9,0.6-1,0.8v2.9h-0.7c-0.1-0.2-0.1-0.9-0.1-2.1c0-1,0-1.7,0.1-2.2s0.1-0.7,0.1-0.8c0.2-0.1,0.3-0.2,0.5-0.2
			c0.2,0,0.3,0.2,0.3,0.6c0,0.2,0,0.3,0,0.5s0,0.3,0,0.3c1.2-0.9,2.1-1.3,2.7-1.3c0.7,0,1.1,0.6,1.2,1.8c0,0.4,0.1,1,0.1,1.7l0,0.9
			c0,0.3,0,0.6,0,0.9c-0.1,0-0.1,0.1-0.2,0.1c0,0-0.1,0-0.1,0s-0.2,0-0.3,0c-0.1-0.3-0.1-0.6-0.1-0.9c0-0.3,0-0.6,0-0.8L78.9,94.1z"
			/>
		<path d="M84.6,95.4c0.3-0.1,0.6-0.2,0.9-0.3c0.3-0.1,0.5-0.2,0.8-0.2s0.4,0.1,0.4,0.2c0,0,0,0.1,0,0.2c0,0.1-0.1,0.2-0.3,0.3
			s-0.4,0.2-0.6,0.3s-0.5,0.2-0.8,0.3s-0.6,0.1-0.9,0.2c-0.6,0.1-1,0.2-1.3,0.2s-0.5,0-0.8-0.1c-0.3-0.1-0.6-0.2-0.8-0.3
			c-0.6-0.3-0.9-0.7-0.9-1.3c0,0,0-0.1,0-0.3s0.1-0.3,0.2-0.6s0.3-0.5,0.5-0.7c0.2-0.2,0.5-0.5,0.8-0.7c0.6-0.4,1.2-0.7,1.9-0.8
			c0.2,0,0.4-0.1,0.6-0.1s0.3,0,0.4,0c0.1,0,0.2,0,0.3,0s0.2,0,0.3,0.1c0.2,0.1,0.3,0.3,0.3,0.6c0,0.2-0.1,0.3-0.4,0.5
			c-0.1,0-0.1,0.1-0.2,0.1c0-0.2-0.1-0.3-0.1-0.4s-0.2-0.2-0.4-0.2c-0.8,0.2-1.6,0.4-2.2,0.8c-0.7,0.4-1,0.8-1,1.3c0,0,0,0.1,0,0.2
			c0,0.5,0.2,0.8,0.5,1c0.3,0.1,0.6,0.2,1,0.2c0.4,0,0.8,0,1.1-0.1C84,95.6,84.3,95.5,84.6,95.4z"/>
		<path d="M89.5,100.6c-0.2,0.3-0.3,0.5-0.5,0.5c-0.1,0-0.2,0-0.2-0.1c0-0.1,0-0.2,0-0.3c0.2-0.7,0.4-1.4,0.7-2.3
			c0.3-0.9,0.5-1.4,0.6-1.7c-0.3-0.3-0.6-0.8-1.2-1.5c-1.1-1.6-1.7-2.4-1.7-2.6c0,0,0,0,0,0l0.4-0.4c0.6,0.5,1.3,1.4,2.2,2.7
			c0.2,0.3,0.4,0.6,0.6,0.8c0.2-0.3,0.3-0.6,0.4-0.8c0.1-0.2,0.2-0.4,0.2-0.5c0.1-0.1,0.1-0.3,0.2-0.5c0.2-0.6,0.6-1.4,1-2.3
			c0.1,0,0.1,0,0.2,0c0.2,0,0.3,0,0.4,0.1c0,0,0,0.1,0,0.1s0,0.1,0,0.1L89.5,100.6z"/>
		<path d="M93.5,95.6c0-0.1,0.1-0.1,0.2-0.2s0.1,0,0.2,0c0.1,0,0.1,0,0.2,0c0.1,0,0.2,0.1,0.2,0.2c0,0,0,0,0,0.1c0,0,0,0.1,0,0.1
			s-0.1,0.2-0.1,0.3c-0.1,0.1-0.1,0.2-0.2,0.3c-0.1,0.1-0.1,0.2-0.2,0.3c-0.1,0.1-0.1,0.2-0.2,0.2c0,0.1-0.1,0.1-0.1,0.2
			c-0.2,0.2-0.3,0.3-0.5,0.3c0,0-0.1,0-0.1,0L93.5,95.6z"/>
		<path d="M101.9,100.6c-0.2,0.3-0.3,0.5-0.5,0.5c-0.1,0-0.2,0-0.2-0.1s0-0.2,0-0.3c0.2-0.7,0.4-1.4,0.7-2.3
			c0.3-0.9,0.5-1.4,0.6-1.7c-0.3-0.3-0.6-0.8-1.2-1.5c-1.1-1.6-1.7-2.4-1.7-2.6c0,0,0,0,0,0l0.4-0.4c0.6,0.5,1.3,1.4,2.2,2.7
			c0.2,0.3,0.4,0.6,0.6,0.8c0.2-0.3,0.3-0.6,0.4-0.8c0.1-0.2,0.2-0.4,0.2-0.5c0.1-0.1,0.1-0.3,0.2-0.5c0.2-0.6,0.6-1.4,1-2.3
			c0.1,0,0.1,0,0.2,0c0.2,0,0.3,0,0.4,0.1c0,0,0,0.1,0,0.1s0,0.1,0,0.1L101.9,100.6z"/>
		<path d="M106,94.5c0-0.8,0.4-1.5,1.1-2.1c0.6-0.4,1.3-0.7,2.1-0.7c0,0,0.1,0,0.3,0s0.4,0,0.6,0.1c0.6,0.2,1,0.6,1.2,1.1
			c0.1,0.2,0.1,0.4,0.1,0.5s0,0.2,0,0.3c0,0.9-0.3,1.6-1,2.1c-0.6,0.5-1.4,0.7-2.4,0.7c-0.7,0-1.2-0.2-1.5-0.5
			C106.2,95.7,106,95.2,106,94.5z M106.7,94.7c0,0.4,0.1,0.7,0.4,0.9c0.2,0.1,0.5,0.2,0.9,0.2c0.4,0,0.8,0,1.1-0.1
			c0.3-0.1,0.6-0.2,0.9-0.3c0.5-0.3,0.8-0.9,0.8-1.6c0-0.4-0.1-0.8-0.3-1.1c-0.3-0.3-0.6-0.4-1-0.4c-0.3,0.1-0.6,0.1-0.8,0.2
			s-0.6,0.2-0.8,0.3C107.3,93.1,106.9,93.8,106.7,94.7z"/>
		<path d="M111.9,95.1c0-0.1,0-0.3,0-0.5c0-0.2,0-0.4,0-0.7c0-0.2,0-0.5,0-0.7s0-0.5,0.1-0.7c0.1-0.5,0.3-0.7,0.6-0.7
			c0.2,0.1,0.3,0.1,0.4,0.2c0.1,0.1,0.1,0.2,0.1,0.3s0,0.3-0.1,0.5c-0.2,0.6-0.4,1.2-0.4,1.7c0,0.2,0,0.3,0,0.5
			c0.1,0.5,0.5,0.7,1.2,0.7c0.4,0,0.7-0.1,1-0.2c0.6-0.2,1-0.5,1.2-0.8c0.1-0.3,0.1-0.6,0.1-0.9c0-0.2,0-0.5,0-0.7
			c0-0.2,0-0.4-0.1-0.6c0-0.2,0-0.5,0-0.8c0.1,0,0.2-0.1,0.3-0.1s0.2,0,0.3,0.1c0.1,0.1,0.2,0.3,0.2,0.5s0.1,0.6,0.1,0.9
			s0,0.7,0,1.1c0,0.4,0,0.7,0,1.1s0,0.6,0,0.9c-0.1,0.1-0.2,0.1-0.2,0.1c-0.3,0-0.5-0.3-0.6-0.9c-0.1,0.1-0.3,0.2-0.5,0.3
			c-0.5,0.3-1,0.4-1.7,0.5c-0.1,0-0.3,0-0.4,0c-0.2,0-0.3,0-0.6-0.1s-0.4-0.2-0.6-0.4C112.1,95.8,111.9,95.5,111.9,95.1z"/>
		<path d="M122.9,92.6c-0.3-0.2-0.7-0.3-1.2-0.3c-0.4,0-0.9,0.1-1.2,0.2c-0.7,0.3-1.2,0.7-1.5,1.2c-0.1,0.2-0.2,0.4-0.2,0.7
			c0,0,0,0.2,0,0.4c0,0.2,0,0.5,0.1,0.8c0.1,0.3,0.1,0.7,0.1,1c-0.2,0-0.3,0-0.4,0.1c-0.1,0-0.2,0-0.2,0c-0.1,0-0.1,0-0.2-0.1
			s-0.1-0.2-0.2-0.3c0,0,0-0.2,0-0.4c0-0.2,0-0.4-0.1-0.7c0-0.3-0.1-0.6-0.1-0.9c0-0.3-0.1-0.7-0.1-1c-0.1-0.7-0.1-1.2-0.2-1.6
			c0-0.2,0.1-0.3,0.4-0.3c0.2,0,0.3,0.1,0.4,0.2c0.1,0.1,0.2,0.3,0.2,0.4c0,0.2,0.1,0.3,0.1,0.5c0,0.2,0,0.3,0,0.3
			c1-0.8,2.1-1.3,3.5-1.3c0.2,0,0.3,0,0.5,0c0,0,0.1,0,0.2,0c0.1,0,0.1,0,0.2,0.1c0.1,0.1,0.1,0.2,0.1,0.4
			C123.2,92.3,123.1,92.5,122.9,92.6z"/>
		<path d="M129.7,95.5l0-1.7c0-0.3,0-0.5-0.1-0.7H128l0-0.7h1.6v-2.8c0-0.1,0.1-0.1,0.1-0.2c0.1-0.1,0.2-0.2,0.3-0.2
			c0.1,0,0.1,0,0.2,0c0,0,0.1,0.1,0.2,0.2c0.1,0.5,0.2,1.2,0.2,2.1c0,0.2,0,0.5,0,0.7c0.2,0,0.5,0,0.7,0h0.6c0.1,0,0.3,0,0.4,0
			l0,0.8l-1.6,0l0.1,3.7c-0.1,0.1-0.2,0.1-0.3,0.1C129.9,96.7,129.7,96.3,129.7,95.5z"/>
		<path d="M137.8,92.6c-0.3-0.2-0.7-0.3-1.2-0.3c-0.4,0-0.9,0.1-1.2,0.2c-0.7,0.3-1.2,0.7-1.5,1.2c-0.1,0.2-0.2,0.4-0.2,0.7
			c0,0,0,0.2,0,0.4c0,0.2,0,0.5,0.1,0.8c0.1,0.3,0.1,0.7,0.1,1c-0.2,0-0.3,0-0.4,0.1c-0.1,0-0.2,0-0.2,0c-0.1,0-0.1,0-0.2-0.1
			s-0.1-0.2-0.2-0.3c0,0,0-0.2,0-0.4c0-0.2,0-0.4-0.1-0.7c0-0.3-0.1-0.6-0.1-0.9c0-0.3-0.1-0.7-0.1-1c-0.1-0.7-0.1-1.2-0.2-1.6
			c0-0.2,0.1-0.3,0.4-0.3c0.2,0,0.3,0.1,0.4,0.2c0.1,0.1,0.2,0.3,0.2,0.4c0,0.2,0.1,0.3,0.1,0.5c0,0.2,0,0.3,0,0.3
			c1-0.8,2.1-1.3,3.5-1.3c0.2,0,0.3,0,0.5,0c0,0,0.1,0,0.2,0c0.1,0,0.1,0,0.2,0.1c0.1,0.1,0.1,0.2,0.1,0.4
			C138.1,92.3,138,92.5,137.8,92.6z"/>
		<path d="M138.6,95.1c0-0.1,0-0.3,0-0.5c0-0.2,0-0.4,0-0.7c0-0.2,0-0.5,0-0.7s0-0.5,0.1-0.7c0.1-0.5,0.3-0.7,0.6-0.7
			c0.2,0.1,0.3,0.1,0.4,0.2c0.1,0.1,0.1,0.2,0.1,0.3s0,0.3-0.1,0.5c-0.2,0.6-0.4,1.2-0.4,1.7c0,0.2,0,0.3,0,0.5
			c0.1,0.5,0.5,0.7,1.2,0.7c0.4,0,0.7-0.1,1-0.2c0.6-0.2,1-0.5,1.2-0.8c0.1-0.3,0.1-0.6,0.1-0.9c0-0.2,0-0.5,0-0.7
			c0-0.2,0-0.4-0.1-0.6c0-0.2,0-0.5,0-0.8c0.1,0,0.2-0.1,0.3-0.1s0.2,0,0.3,0.1c0.1,0.1,0.2,0.3,0.2,0.5s0.1,0.6,0.1,0.9
			s0,0.7,0,1.1c0,0.4,0,0.7,0,1.1s0,0.6,0,0.9c-0.1,0.1-0.2,0.1-0.2,0.1c-0.3,0-0.5-0.3-0.6-0.9c-0.1,0.1-0.3,0.2-0.5,0.3
			c-0.5,0.3-1,0.4-1.7,0.5c-0.1,0-0.3,0-0.4,0c-0.2,0-0.3,0-0.6-0.1s-0.4-0.2-0.6-0.4C138.8,95.8,138.6,95.5,138.6,95.1z"/>
		<path d="M147.9,93.7c0.8,0,1.2,0.2,1.2,0.6c0,0.3-0.2,0.7-0.7,1.1c-0.7,0.6-1.5,1.1-2.6,1.4c-0.1,0-0.1,0-0.2-0.2
			c-0.1-0.1-0.1-0.2-0.1-0.2s-0.1-0.1-0.1-0.1c0.8-0.3,1.5-0.6,2-1c0.4-0.3,0.5-0.5,0.5-0.6c0-0.2-0.2-0.2-0.6-0.2
			c-0.4,0-1,0.1-1.9,0.3c-0.4,0-0.7-0.1-1-0.4c-0.2-0.2-0.4-0.4-0.4-0.7c0-0.2,0.1-0.4,0.2-0.6s0.3-0.4,0.5-0.5
			c0.2-0.2,0.5-0.3,0.8-0.5c0.7-0.3,1.4-0.5,2.2-0.5c0.2,0,0.4,0,0.6,0.1c0.2,0,0.3,0.1,0.3,0.2c0,0.2,0,0.4,0,0.7
			c-0.4-0.2-0.9-0.3-1.4-0.3c-0.7,0-1.2,0.1-1.6,0.4c-0.4,0.3-0.7,0.6-0.7,1c0,0.2,0.1,0.3,0.4,0.3l0.8-0.1
			C147,93.8,147.5,93.7,147.9,93.7z"/>
		<path d="M151.4,95.5l0-1.7c0-0.3,0-0.5-0.1-0.7h-1.7l0-0.7h1.6v-2.8c0-0.1,0.1-0.1,0.1-0.2c0.1-0.1,0.2-0.2,0.3-0.2
			c0.1,0,0.1,0,0.2,0c0,0,0.1,0.1,0.2,0.2c0.1,0.5,0.2,1.2,0.2,2.1c0,0.2,0,0.5,0,0.7c0.2,0,0.5,0,0.7,0h0.6c0.1,0,0.3,0,0.4,0
			l0,0.8l-1.6,0l0.1,3.7c-0.1,0.1-0.2,0.1-0.3,0.1C151.6,96.7,151.4,96.3,151.4,95.5z"/>
	</g>
</g>
</svg>
