<?xml version="1.0" encoding="utf-8"?>
<!-- Generator: Adobe Illustrator 25.0.0, SVG Export Plug-In . SVG Version: 6.00 Build 0)  -->
<svg version="1.1" id="Layer_1" xmlns="http://www.w3.org/2000/svg" xmlns:xlink="http://www.w3.org/1999/xlink" x="0px" y="0px"
	 viewBox="0 0 192.4 60" style="enable-background:new 0 0 192.4 60;" xml:space="preserve">
<style type="text/css">
	.st0{fill:#16202C;}
	.st1{fill:#FFFFFF;}
</style>
<path class="st0" d="M2.1,2L2.1,2L2.1,2L2.1,2z"/>
<path class="st0" d="M124.1,15.6c0-1.9,0-3.7,0-5.6c1.5,0,3,0,4.5,0v18.6c-1.5,0-3,0-4.5,0c0-0.5,0-1,0-1.5c-0.6,0.6-1.2,1-1.8,1.3
	c-0.9,0.5-2,0.6-3,0.4c-0.9-0.1-1.6-0.5-2.2-1.1c-0.8-0.8-1.2-1.9-1.5-3c-0.3-1.3-0.4-2.7-0.4-4c0.1-1.5,0.2-3.1,0.9-4.5
	c0.4-0.7,0.9-1.3,1.6-1.8c0.7-0.4,1.7-0.6,2.5-0.6c0.7,0,1.4,0.2,2,0.5C123,14.6,123.6,15.1,124.1,15.6 M121.2,17.3
	c-0.4,0.2-0.7,0.6-0.9,1c-0.3,0.7-0.4,1.5-0.4,2.3c0,1.1-0.1,2.3,0.4,3.4c0.2,0.6,0.6,1,1.1,1.3c0.6,0.2,1.4,0.1,2-0.2
	c0.3-0.2,0.6-0.4,0.9-0.7c0-2,0-4,0-6.1c-0.3-0.4-0.7-0.7-1-0.9C122.5,17.1,121.8,17.1,121.2,17.3"/>
<path class="st0" d="M74,28.6c0-5.7,0-11.4,0-17.1c1.6,0,3.1,0,4.7,0c0,4.5,0,9,0,13.5c2.1,0,4.2,0,6.3,0c0,1.2,0,2.4,0,3.6
	C81.4,28.6,77.7,28.6,74,28.6"/>
<path class="st0" d="M107.3,14.4c0.7-0.4,1.5-0.7,2.3-0.7c0.9-0.1,1.7,0.1,2.4,0.6c0.6,0.4,0.9,1,1.1,1.7c0.2,0.8,0.2,1.7,0.2,2.4
	c0,3.4,0,6.7,0,10c-1.5,0-3,0-4.5,0c0-3.1,0-6.1,0-9.2c0-0.6-0.1-1.1-0.5-1.5c-0.4-0.4-1-0.4-1.5-0.2c-0.7,0.3-1.2,0.8-1.8,1.3
	c-0.1,3.2,0,6.4,0,9.6c-1.5,0-3,0-4.5,0c0-4.8,0-9.7,0-14.4c1.5,0,3,0,4.5,0c0,0.7,0,1.3,0,2C105.9,15.5,106.6,14.9,107.3,14.4"/>
<path class="st0" d="M153.4,14c0.9-0.2,1.8-0.2,2.8,0c0.7,0.2,1.3,0.7,1.7,1.3c0.5,0.9,0.6,1.8,0.6,2.8c0,3.6,0,7,0,10.6
	c-1.5,0-3,0-4.5,0v-7.8c0-0.8,0.1-1.5-0.1-2.3c-0.1-0.4-0.3-0.7-0.7-0.9c-0.4-0.2-0.9-0.1-1.3,0.1c-0.6,0.3-1.2,0.8-1.7,1.3
	c0,3.2,0,6.4,0,9.6c-1.5,0-3,0-4.5,0c0-4.8,0-9.7,0-14.4c1.5,0,3,0,4.5,0c0,0.6,0,1.3,0,2C151.2,15.2,152.1,14.3,153.4,14"/>
<path class="st0" d="M90.7,13.9c1.5-0.2,3-0.1,4.4,0.4c0.9,0.4,1.8,1,2.4,1.8c0.9,1,1.3,2.3,1.5,3.6c0.2,1.4,0.2,2.8-0.2,4.2
	c-0.3,1.2-0.9,2.4-1.8,3.3c-1,1-2.4,1.5-3.7,1.7c-1.3,0.2-2.8,0.1-4-0.4c-1.2-0.4-2.1-1.3-2.8-2.3c-0.9-1.3-1.2-2.9-1.3-4.5
	c-0.1-1.5,0.2-3.1,0.9-4.4c0.6-1.2,1.6-2.1,2.8-2.7C89.5,14.2,90.1,14,90.7,13.9 M91.8,17.1c-0.7,0.1-1.3,0.7-1.5,1.5
	c-0.4,1.2-0.4,2.4-0.4,3.7c0.1,1,0.2,2,0.8,2.8c0.6,0.7,1.6,0.9,2.4,0.6c0.6-0.2,1-0.9,1.2-1.5c0.3-1,0.3-2.2,0.2-3.3
	c-0.1-1-0.1-2-0.7-2.9C93.5,17.1,92.6,16.9,91.8,17.1"/>
<path class="st0" d="M135.7,13.9c1.7-0.2,3.4-0.1,4.9,0.6c1.2,0.6,2.3,1.7,2.8,3c0.7,1.6,0.9,3.4,0.7,5.1c-0.2,1.7-0.8,3.4-2,4.5
	c-1.1,1.1-2.6,1.7-4.1,1.8c-1.7,0.1-3.4-0.1-4.8-1.1c-1.3-0.9-2.1-2.2-2.5-3.6c-0.4-1.5-0.5-3.2-0.2-4.8c0.2-1.4,0.9-2.8,2-3.9
	C133.2,14.6,134.4,14.1,135.7,13.9 M136.7,17.1c-0.6,0.1-1,0.4-1.3,0.9c-0.3,0.6-0.5,1.2-0.6,1.8c-0.1,1-0.1,2,0,3.1
	c0.1,0.7,0.2,1.5,0.7,2c0.8,1.1,2.7,1,3.4-0.1c0.4-0.6,0.5-1.3,0.6-2.1c0.1-1,0.1-2,0-2.9c-0.1-0.7-0.2-1.5-0.7-2.1
	C138.2,17.1,137.4,16.9,136.7,17.1"/>
<path class="st0" d="M107.2,32.8c0.6,0,1,0,1.6,0c0,2.7,0,5.3,0,8c0.5-0.5,0.9-1,1.3-1.5c0.9-1,1.8-2.1,2.7-3.1
	c0.1-0.1,0.2-0.1,0.3-0.1c0.6,0,1.2,0,1.8,0c-1.5,1.7-2.9,3.2-4.4,5c1.6,1.9,3.1,3.8,4.7,5.7c-0.7,0-1.3,0-2.1,0
	c-1.1-1.4-2.2-2.8-3.4-4.2c-0.4-0.4-0.6-0.9-1-1.2c0,1.8,0,3.6,0,5.4c-0.6,0-1,0-1.6,0C107.2,42.1,107.2,37.5,107.2,32.8"/>
<path class="st0" d="M147,32.8c0.6,0,1,0,1.6,0c0,1.7,0,3.4,0,5c0.6-0.6,1.2-1.1,1.9-1.5c0.8-0.4,1.8-0.6,2.7-0.2
	c0.6,0.2,1,0.6,1.2,1.2c0.2,0.5,0.3,1.1,0.3,1.7c0,2.6,0,5.3,0,7.9c-0.6,0-1,0-1.6,0c0-2.5,0-5,0-7.5c0-0.6-0.1-1.1-0.5-1.5
	c-0.5-0.4-1.2-0.4-1.7-0.3c-1,0.2-1.7,1-2.3,1.8c0,2.5,0,5,0,7.5c-0.6,0-1,0-1.6,0C147,46.8,147,32.8,147,32.8z"/>
<path class="st0" d="M74.1,35.2c0.7-0.9,1.7-1.3,2.8-1.5c1-0.1,2.1,0,3,0.5c0.7,0.4,1.3,1,1.5,1.8c-0.6,0.2-1.1,0.4-1.6,0.6
	c-0.2-0.6-0.6-1.2-1.2-1.3C77.9,35,77,35,76.2,35.4c-0.6,0.3-0.9,1-0.9,1.6c0,0.4,0.1,0.9,0.3,1.3c0.2,0.4,0.7,0.6,1.1,0.8
	c0.9,0.4,1.8,0.8,2.7,1.2c0.7,0.3,1.3,0.8,1.7,1.5c0.8,1.5,0.5,3.5-0.9,4.5c-1,0.8-2.4,1-3.7,0.9c-1-0.1-2.1-0.6-2.8-1.3
	c-0.4-0.4-0.6-0.9-0.7-1.3c0.6-0.2,1.1-0.4,1.6-0.6c0.2,0.6,0.5,1.2,1,1.5c0.7,0.4,1.5,0.6,2.3,0.4c0.7-0.2,1.4-0.7,1.7-1.4
	c0.3-0.9,0-2.1-0.9-2.6c-1.2-0.6-2.4-1.1-3.6-1.7c-0.7-0.4-1.4-1-1.6-1.9C73.4,37,73.5,36,74.1,35.2"/>
<path class="st0" d="M83.9,34.3c0.6-0.2,1-0.4,1.5-0.7c0,1.1,0,2.2,0,3.3c0.9,0,1.7,0,2.5,0c0,0.4,0,0.8,0,1.2h-2.5c0,2,0,3.9,0,5.9
	c0,0.5,0.1,1.2,0.6,1.5c0.7,0.3,1.4,0.1,2-0.1c0,0.4,0,0.9,0,1.3c-0.8,0.3-1.7,0.4-2.6,0.1c-0.6-0.2-1-0.6-1.3-1
	c-0.2-0.4-0.3-0.9-0.3-1.4c0-2.1,0-4.2,0-6.2h-1.6c0-0.4,0-0.8,0-1.2c0.6,0,1,0,1.6,0C83.9,36.1,83.9,35.2,83.9,34.3"/>
<path class="st0" d="M120.4,33.9h7.7c0,0.4,0,0.9,0,1.3h-6c0,1.3,0,2.8,0,4.1c1.9,0,3.8,0,5.7,0c0,0.4,0,0.9,0,1.3
	c-1.9,0-3.8,0-5.7,0v4.6c2.1,0,4.2,0,6.2,0c0,0.4,0,0.9,0,1.3c-2.6,0-5.3,0-7.8,0C120.4,42.5,120.4,38.2,120.4,33.9"/>
<path class="st0" d="M92,35.9c1.3-0.2,2.7,0.1,3.7,0.9c0.9,0.9,1.3,2.1,1.5,3.2c0.2,1.6,0.1,3.2-0.7,4.7c-0.5,1-1.4,1.7-2.4,2
	c-1,0.2-2.1,0.2-3-0.2c-0.9-0.4-1.7-1.1-2-2c-0.6-1.3-0.7-2.7-0.6-4.1c0.1-1.3,0.6-2.6,1.5-3.6C90.4,36.4,91.1,36.1,92,35.9
	 M92.2,37.2c-0.5,0.1-0.9,0.3-1.3,0.7c-0.6,0.7-0.9,1.5-0.9,2.4c-0.1,1-0.1,2,0.1,2.9c0.2,0.7,0.5,1.5,1.1,1.9
	c0.7,0.6,1.8,0.6,2.7,0.2c0.7-0.4,1.2-1.2,1.4-1.9c0.3-1,0.3-2.2,0.2-3.3c-0.1-0.9-0.4-1.7-0.9-2.4C93.9,37.3,93,37.1,92.2,37.2"/>
<path class="st0" d="M100.1,36.6c0.9-0.6,1.9-0.7,2.9-0.6c0.7,0.1,1.4,0.4,1.9,0.9c0.5,0.6,0.9,1.2,1.1,1.9c-0.5,0.1-1,0.3-1.4,0.4
	c-0.2-0.6-0.5-1.3-1-1.7c-0.6-0.4-1.3-0.3-2-0.1c-0.7,0.2-1.2,0.9-1.4,1.5c-0.4,1.1-0.5,2.3-0.4,3.5c0.1,1,0.3,2,1,2.8
	c0.8,0.8,2.2,0.8,3,0.1c0.4-0.4,0.7-0.9,0.9-1.4c0.5,0.2,0.9,0.3,1.4,0.5c-0.3,0.7-0.7,1.3-1.2,1.9c-0.6,0.5-1.2,0.8-2,0.9
	c-0.9,0.1-1.9,0-2.7-0.4c-0.7-0.4-1.3-1.1-1.6-1.9c-0.4-1-0.5-2-0.6-3.1c0-1,0.1-2.1,0.6-3.1C98.9,37.7,99.4,37,100.1,36.6"/>
<path class="st0" d="M140.8,36.2c0.8-0.2,1.6-0.3,2.4-0.2c0.7,0.1,1.3,0.5,1.8,1c0.4,0.5,0.7,1.1,0.9,1.7c-0.5,0.1-1,0.3-1.5,0.4
	c-0.2-0.6-0.5-1.3-1-1.7c-0.6-0.4-1.3-0.4-2-0.1c-0.6,0.2-1,0.7-1.3,1.3c-0.4,0.9-0.5,1.8-0.5,2.8c0,0.9,0.1,1.8,0.4,2.6
	c0.2,0.6,0.6,1.2,1.2,1.4c0.8,0.4,1.8,0.2,2.4-0.4c0.4-0.4,0.7-0.9,0.9-1.4c0.5,0.2,0.9,0.3,1.4,0.5c-0.3,0.7-0.6,1.3-1.2,1.8
	c-0.5,0.4-1.1,0.7-1.7,0.9c-0.8,0.1-1.7,0.1-2.4-0.2c-0.9-0.3-1.5-1-1.9-1.8c-0.5-0.9-0.7-2-0.7-2.9c-0.1-1.4,0.1-2.8,0.7-4
	C139.1,37.2,139.8,36.5,140.8,36.2"/>
<path class="st0" d="M158,36.6c0.7-0.6,1.7-0.7,2.6-0.7c0.8,0,1.7,0.2,2.3,0.7c0.6,0.5,0.9,1.2,1,2c0.1,0.7,0.1,1.4,0.1,2.1
	c0,1.6,0,3.2,0,4.8c0,0.4,0.1,0.9,0.1,1.3c-0.6,0-1.1,0-1.7,0c0-0.6,0-1.2,0-1.8c-0.5,0.6-1,1.2-1.7,1.5c-0.8,0.4-1.7,0.5-2.6,0.3
	c-0.6-0.1-1.2-0.6-1.5-1.1c-0.5-0.7-0.6-1.7-0.4-2.6c0.1-0.6,0.4-1.2,0.9-1.7c0.6-0.6,1.5-1,2.3-1.1c1-0.2,2-0.1,3.1-0.1
	c0-0.8,0.1-1.7-0.4-2.3c-0.4-0.6-1.2-0.8-1.8-0.7c-0.6,0-1,0.2-1.4,0.6c-0.4,0.4-0.6,0.8-0.8,1.3c-0.4-0.1-0.9-0.2-1.4-0.4
	C156.9,37.8,157.3,37,158,36.6 M159.4,41.6c-0.5,0.1-1,0.4-1.3,0.9c-0.4,0.6-0.4,1.3-0.3,1.9c0.1,0.5,0.4,0.9,0.9,1
	c0.7,0.2,1.4,0.1,2-0.2c0.6-0.4,1.2-0.9,1.7-1.5c0-0.8,0-1.6,0-2.4C161.4,41.4,160.3,41.3,159.4,41.6"/>
<path class="st0" d="M169.3,36.2c0.6-0.3,1.3-0.4,2-0.3c0.6,0.1,1.2,0.4,1.6,0.9c0.4,0.6,0.6,1.4,0.6,2.1c0,2.6,0,5.2,0,7.8
	c-0.6,0-1,0-1.6,0c0-2.4,0-4.9,0-7.3c0-0.6-0.1-1.2-0.6-1.7c-0.4-0.4-1-0.4-1.6-0.3c-1,0.2-1.7,0.9-2.3,1.7
	c-0.1,0.1-0.1,0.2-0.1,0.3c0,2.4,0,4.9,0,7.3c-0.6,0-1,0-1.6,0c0-3.6,0-7.1,0-10.7c0.6,0,1,0,1.6,0c0,0.6,0,1.2,0,1.7
	C167.9,37.2,168.6,36.6,169.3,36.2"/>
<path class="st0" d="M176,36.7c1-0.8,2.3-0.9,3.6-0.7c0.4,0,0.7,0.2,1.1,0.2c1,0,2,0,3,0c0,0.4,0,0.7,0,1.1c-0.6,0-1.2,0-1.8,0
	c0.4,0.4,0.7,0.9,0.8,1.5c0.2,1.1-0.1,2.3-1,3.1c-1,0.9-2.5,1-3.8,0.9c-0.3,0.2-0.6,0.6-0.5,0.9c0.1,0.3,0.4,0.4,0.7,0.4
	c1.1,0.3,2.2,0.5,3.3,0.8c0.7,0.2,1.5,0.6,1.8,1.3c0.5,1,0.4,2.3-0.4,3.1c-0.7,0.7-1.7,1-2.6,1.1c-1,0.1-2,0.1-3.1-0.1
	c-0.7-0.2-1.5-0.5-2-1.1c-0.7-0.9-0.6-2.1,0-2.9c0.4-0.6,0.9-0.9,1.5-1.2c-0.2-0.1-0.5-0.3-0.6-0.6c-0.2-0.4-0.1-1,0.2-1.3
	c0.2-0.3,0.5-0.5,0.8-0.7c-0.9-0.4-1.6-1.1-1.8-2C174.6,39,174.9,37.5,176,36.7 M178.1,37c-0.6,0.1-1.2,0.4-1.5,0.9
	c-0.4,0.6-0.4,1.4-0.2,2.1c0.2,0.7,0.7,1.2,1.4,1.4c0.9,0.2,1.8,0.1,2.5-0.5c0.5-0.4,0.7-1.1,0.7-1.8c0-0.6-0.2-1.3-0.7-1.7
	C179.7,37,178.8,36.9,178.1,37 M176.2,46.7c-0.2,0.4-0.3,1-0.1,1.4c0.2,0.4,0.6,0.6,1,0.7c0.8,0.3,1.7,0.4,2.5,0.2
	c0.7-0.1,1.3-0.3,1.8-0.8c0.4-0.5,0.5-1.3,0-1.8c-0.3-0.3-0.8-0.4-1.2-0.6c-0.9-0.2-1.8-0.4-2.7-0.6
	C177.1,45.7,176.5,46.2,176.2,46.7"/>
<path class="st0" d="M185.8,36.6c0.9-0.6,1.9-0.8,2.9-0.7c0.9,0.1,1.7,0.4,2.3,1c0.8,0.8,1.2,1.9,1.3,3c0.1,0.7,0.1,1.3,0.1,2
	c-2.3,0-4.6,0-6.9,0c0,0.9,0.2,1.8,0.6,2.6c0.3,0.5,0.7,0.9,1.2,1c0.9,0.3,1.8,0.2,2.6-0.4c0.4-0.3,0.7-0.8,0.9-1.3
	c0.5,0.2,0.9,0.3,1.4,0.5c-0.3,0.7-0.8,1.4-1.4,1.9c-1.2,0.9-2.9,1-4.3,0.4c-1.3-0.5-2.1-1.8-2.4-3.1c-0.4-1.6-0.4-3.4,0.2-4.9
	C184.6,37.8,185.1,37.1,185.8,36.6 M187.7,37.2c-0.6,0.1-1.2,0.6-1.5,1.2c-0.4,0.7-0.6,1.5-0.7,2.3c1.8,0,3.5,0,5.3,0
	c-0.1-1-0.2-2-0.9-2.7C189.4,37.3,188.4,37,187.7,37.2"/>
<path class="st0" d="M135.6,36.1c0.6,0,1.2,0,1.7,0c-1,1.7-2.1,3.3-3.2,5c1.2,1.9,2.3,3.8,3.4,5.7c-0.6,0-1.3,0-1.9,0
	c-0.7-1.3-1.5-2.6-2.3-4c-0.1-0.2-0.2-0.4-0.3-0.7c-0.3,0.7-0.8,1.3-1.2,2c-0.6,0.9-1.1,1.8-1.7,2.7c-0.6,0-1.2,0-1.8,0
	c1.2-1.9,2.3-3.7,3.6-5.6c-1-1.7-2.1-3.3-3.1-5c0.6,0,1.2,0,1.9,0c0.8,1.4,1.7,2.7,2.4,4.1c0.4-0.9,0.9-1.6,1.4-2.4
	C134.9,37.3,135.2,36.7,135.6,36.1"/>
<path class="st1" d="M28.5,5.3c0-0.2,0-0.6,0.2-0.8c0.1,0.4,0.2,0.6,0.6,0.7c0.1-0.2,0.3-0.4,0.6-0.3c-0.1,0.2-0.1,0.6,0.1,0.8
	c0.2-0.2,0.4-0.4,0.6-0.5c-0.1,0.2-0.1,0.6-0.1,0.9c0.2,0,0.4,0,0.6,0c0,0.2,0,0.5-0.2,0.6C30.6,7,30.3,7.2,30,7.5
	c0,0.2,0.1,0.3,0,0.5c-0.1,0.3-0.6,0.4-0.8,0.1c-0.3-0.2,0.1-0.4,0.3-0.5c-0.1-0.1-0.2-0.1-0.2-0.1c-0.2,0.2-0.5,0.2-0.7,0.1
	c-0.1-0.1-0.2-0.1-0.4,0c0.2,0.1,0.3,0.2,0.5,0.3c-0.2,0.2-0.4,0.5-0.7,0.4c-0.4-0.1-0.4-0.5-0.3-0.8c-0.3-0.3-0.7-0.6-0.9-0.9
	c-0.1-0.2-0.1-0.5-0.1-0.7c0.3,0,0.5,0.2,0.7,0.3c0.1-0.2,0.1-0.6,0-0.8c0.2,0.1,0.4,0.2,0.6,0.4c0-0.4-0.1-0.7-0.4-0.9
	c0.1-0.1,0.2-0.2,0.4-0.2C28.2,4.8,28.4,5.1,28.5,5.3 M26.6,6c0.1,0.1,0.1,0.3,0.1,0.4c0.1,0.1,0.3,0.1,0.5,0.2
	C27.3,6.2,27,5.9,26.6,6 M30.3,6.6C30.6,6.6,31,6.6,31,6.1C30.7,6.1,30.4,6.3,30.3,6.6 M27.7,6.7c0.3,0.1,0.4,0.5,0.7,0.6V6.7
	C28.2,6.6,27.9,6.7,27.7,6.7 M29.2,6.6c0,0.2,0,0.4,0,0.6c0.4-0.1,0.5-0.4,0.7-0.6C29.7,6.7,29.4,6.6,29.2,6.6"/>
<path class="st1" d="M35.1,6c0.5-0.2,0.9,0.3,0.9,0.8c0.7-0.6,1.9,0,2.1,0.9c-0.3-0.1-0.6-0.3-1-0.2c-0.3,0.1-0.6,0.2-0.8,0.2
	c-0.3,0-0.6-0.1-0.9-0.2c0.1,0.2,0.3,0.4,0.6,0.5C35.6,8,35.3,8.1,35.1,8C34.7,8,34.4,7.5,34,7.4c-0.4-0.1-0.8-0.1-1.2,0.1
	c-0.2,0.1-0.4,0.3-0.2,0.6c0.1,0.2,0.4,0.3,0.6,0.4c0.4,0.1,0.9-0.1,1.3-0.2c0.2,0.1,0.4,0.2,0.6,0.2c-0.4,0.2-0.9,0.5-1.3,0.6
	c-0.6,0.1-1.2,0.1-1.6-0.2c-0.4-0.3-0.5-0.9-0.2-1.2c0.4-0.6,1.2-0.8,2-0.7c0.4,0.1,0.9,0.3,1.3,0.1C35.4,6.7,35.3,6.2,35.1,6"/>
<path class="st1" d="M26.4,7.1C26.5,7,26.6,7,26.8,7c0.2,0.2,0.5,0.6,0.5,0.9c0.1,0.2,0.3,0.4,0.4,0.5C28,8.6,28,8.9,28.2,9.1
	c0.2,0.4,0.9,0.4,1.1,0.1c0.1-0.2,0.2-0.5,0.3-0.7c0.1-0.2,0.4-0.2,0.5-0.4c0.1-0.2,0.1-0.5,0.2-0.7c0.1-0.2,0.2-0.3,0.4-0.4
	c0.2,0.1,0.3,0.3,0.5,0.4c-0.2,0-0.4,0.1-0.6,0.1c0.1,0.4,0.2,0.9,0.5,1.3c-0.2,0-0.3-0.1-0.5-0.1c0.5,0.5,0.3,1.2,0,1.8
	c-0.1-0.4-0.1-0.9-0.5-1c0.4,0.7,0.1,1.8-0.7,2c0.2-0.5,0.2-1.2-0.2-1.6c0.1,0.2,0.3,0.6,0.2,0.9c-0.1,0.4-0.6,0.7-0.7,1
	c-0.1,0.2-0.1,0.4-0.1,0.6c-0.1-0.1-0.2-0.1-0.3-0.2c-0.2-0.7-0.1-1.5,0.2-2.1c-0.4,0.5-0.7,1.2-0.6,1.8c-0.5-0.5-0.4-1.2,0-1.8
	c-0.5,0.2-0.6,0.7-0.6,1.2c-0.2-0.3-0.4-0.6-0.4-1s0.2-0.8,0.6-1c-0.1,0-0.1,0-0.1,0c-0.4,0.2-0.6,0.5-0.8,0.8
	c-0.3-0.5-0.2-1.2,0.2-1.6c-0.1,0.2-0.2,0.2-0.5,0.2c0.2-0.4,0.5-0.7,0.6-1.1C26.7,7.4,26.5,7.3,26.4,7.1"/>
<path class="st1" d="M25.5,7.2c0.2,0,0.4,0.1,0.6,0.1c0,0.1-0.1,0.2-0.2,0.3C25.8,7.5,25.7,7.3,25.5,7.2"/>
<path class="st1" d="M24.8,7.8C25,7.5,25.6,7.5,25.5,8C25.3,8,25.1,7.8,24.8,7.8"/>
<path class="st1" d="M25.8,7.9c0.2,0,0.4-0.2,0.6-0.4c0.1,0.4-0.3,0.7-0.5,1c0.1,0.1,0.2,0.2,0.4,0.3c-0.1,0.6-0.1,1.2,0.3,1.6
	c0.2,0.2,0.2,0.6,0.4,0.9c0.1,0.2,0.4,0.4,0.6,0.5c-0.1,0.1-0.1,0.2-0.2,0.2c-0.2-0.2-0.5-0.4-0.7-0.6c-0.2-0.1-0.4-0.2-0.5-0.4
	c0.1,0,0.2,0,0.3,0c-0.2-0.1-0.5-0.4-0.7-0.6c0.1,0,0.2-0.1,0.2-0.1c-0.2-0.2-0.4-0.6-0.4-1c-0.4-0.1-0.7-0.4-0.7-0.8
	c0.2,0,0.6-0.1,0.6-0.4C25.6,8.1,25.7,8,25.8,7.9"/>
<path class="st1" d="M13.2,7.6c0.2,0.2,0.4,0.6,0.6,0.9c0.7,0.9,1.8,1.4,2.9,1.5c-0.7,1-1,2.2-1.7,3.1c-0.6,0.6-1.4,0.9-2.2,0.8
	c-0.6,0-1.1-0.3-1.5-0.7c-0.6-0.6-1-1.3-1.1-2c0.4,0.2,0.9,0.4,1.5,0.5c0.6,0.1,1.2,0,1.7-0.1c-0.1-0.4-0.4-0.9-0.4-1.3
	C12.7,9.4,12.8,8.4,13.2,7.6"/>
<path class="st1" d="M51.1,7.8c0.1-0.1,0.1-0.2,0.2-0.2c0.4,0.7,0.4,1.5,0.4,2.3c-0.1,0.6-0.3,1-0.4,1.5c0.6,0.1,1.2,0.2,1.8,0.1
	c0.5-0.1,1-0.2,1.4-0.5c-0.2,1-0.9,2-1.8,2.5c-0.6,0.3-1.2,0.2-1.8,0.1c-0.6-0.1-1-0.4-1.3-0.9c-0.7-0.9-0.9-2.1-1.7-3
	C49.1,9.8,50.4,9.1,51.1,7.8"/>
<path class="st1" d="M36.4,8c0.2-0.1,0.6-0.2,0.8-0.2c0.4,0.1,0.9,0.3,1,0.7c0.1,0.4,0.1,0.9-0.2,1.2c-0.2,0.4-0.7,0.6-1.1,0.7
	c-0.5,0.1-1,0-1.5-0.2c0.4,0.3,0.6,0.7,0.7,1.2c0.4,0.2,1,0.2,1.5,0.2c0.4,0.1,0.6,0.5,0.7,0.8c-0.2-0.1-0.4-0.1-0.6-0.2
	c0.4,0.3,0.6,0.7,0.6,1.2c-0.1-0.1-0.3-0.2-0.4-0.3c0.2,0.4,0.3,0.8,0.1,1.2c-0.1,0.1-0.1,0.2-0.2,0.2c-0.1-0.2-0.1-0.3-0.1-0.5
	c-0.1,0.4-0.2,0.9-0.6,1c-0.5-0.1-0.9-0.4-1.4-0.2c0.1-0.4,0.1-0.8,0.4-1c0.2-0.2,0.4,0.1,0.6,0.2c0.1,0.1,0.3,0.1,0.5,0.1
	c0.1-0.3,0.2-0.6,0.1-0.9c-0.1-0.2-0.2-0.5-0.2-0.8c-0.7,0.1-1.4,0.1-2-0.1c-0.2-0.4-0.3-0.8-0.6-1.1c-0.1-0.1-0.1-0.2-0.2-0.2
	c-0.2,0.3-0.4,0.7-0.2,1c0.1,0.4,0.3,0.6,0.6,0.9c0.1,0.2-0.1,0.3-0.2,0.4c-0.2-0.1-0.6,0-0.7,0.2c-0.4-0.1-0.6,0.3-0.7,0.6
	C32.5,14,32,14,31.6,14.2c-0.4-0.1-0.8-0.2-1.2-0.1c0.1-0.3,0.2-0.7,0.5-0.8c0.4-0.1,0.8,0.3,1.2,0.1c0.4-0.4,0.7-0.8,1.2-1
	c-0.6,0-1-0.7-0.7-1.2c0.1-0.4,0.4-0.6,0.7-0.8c-0.2,0-0.6-0.1-0.7,0.1c-0.4,0.2-0.4,0.6-0.8,0.9c-0.4,0.2-0.8,0.4-1.2,0.6
	c0,0.2-0.1,0.4-0.2,0.6c-0.1-0.1-0.2-0.2-0.2-0.4c0.1,0.5-0.1,1-0.5,1.4c0-0.2-0.1-0.4-0.1-0.6c-0.1,0.5-0.4,0.9-0.8,1.2
	c-0.3,0.2-0.4,0.4-0.7,0.6c0-0.2-0.1-0.5-0.2-0.6c-0.2-0.1-0.5,0.1-0.6,0.2c-0.2-0.1-0.3-0.1-0.4,0.1c-0.1,0-0.2,0-0.2,0
	c-0.2,0.1-0.1,0.2-0.2,0.4c-0.1-0.2-0.1-0.4,0-0.6c0.1-0.2,0.3-0.2,0.5-0.3c0.1-0.1,0.2-0.4,0.5-0.4c0.1,0,0.3,0,0.4,0
	c0.4-0.2,0.6-0.7,0.9-1c0-0.1,0-0.2,0-0.3c0.2,0.1,0.4,0.1,0.6,0.1c-0.1-0.3-0.2-0.7,0.1-0.9c0.5,0,0.9-0.2,1.2-0.5
	c0.6-0.4,0.9-1,1-1.7c1.3-0.2,2.5,0,3.8,0.2c0.6,0.1,1.3,0.2,1.8-0.1c0.4-0.2,0.6-0.6,0.4-1c-0.2-0.4-0.8-0.6-1.2-0.3
	C36,8.5,36,8.8,36,9.1c-0.2-0.1-0.4-0.1-0.6-0.2c-0.2-0.2-0.1-0.6,0.2-0.6C35.9,8.3,36.1,8.1,36.4,8"/>
<path class="st1" d="M24.5,8.3C24.6,8,24.9,8,25.2,8.1c0,0.1,0,0.2,0,0.3C24.9,8.4,24.7,8.3,24.5,8.3"/>
<path class="st1" d="M29.3,8.3c0.1,0,0.1,0,0.2,0c-0.1,0.4-0.2,0.9-0.7,0.9c-0.5,0.1-0.6-0.5-0.8-0.8c0.1,0,0.1,0,0.2,0
	c0.1,0.4,0.2,0.7,0.6,0.7C29.2,9,29.3,8.7,29.3,8.3"/>
<path class="st1" d="M28.5,8.5c0.2-0.1,0.5-0.1,0.6,0.1c0,0.2-0.2,0.4-0.5,0.3C28.5,8.8,28.5,8.6,28.5,8.5"/>
<path class="st1" d="M27.1,14.8c0.1-0.2,0.4-0.2,0.5,0.1c0,0.2-0.1,0.4-0.1,0.6C27.3,15.3,27.2,15.1,27.1,14.8"/>
<path class="st1" d="M32,14.8c0.2-0.1,0.5-0.1,0.7-0.1c0.4,0.2,0.6,0.6,0.8,0.9c0.1,0.1,0.2,0.2,0.2,0.4c-0.4,0.2-0.9-0.1-1.1-0.4
	C32.4,15.3,32.2,15.1,32,14.8"/>
<path class="st1" d="M26.7,14.9c0.1,0,0.1-0.1,0.2-0.1c0.2,0.2,0.1,0.5,0.2,0.7C26.8,15.4,26.7,15.2,26.7,14.9"/>
<path class="st1" d="M30.3,14.9c0.4-0.2,0.9-0.2,1.2,0.1c0.2,0.2,0.5,0.6,0.7,0.9c-0.4,0.3-0.9,0.1-1.2-0.2
	C30.8,15.4,30.6,15.1,30.3,14.9"/>
<path class="st1" d="M33.7,14.9c0.3-0.1,0.6-0.1,0.9,0.1c0.4,0.4,0.5,0.9,0.8,1.2c-0.4,0.2-0.9-0.1-1-0.4
	C34.1,15.5,33.9,15.2,33.7,14.9"/>
<path class="st1" d="M28.7,15.1c0.2-0.2,0.7-0.3,1-0.1c0.4,0.3,0.7,0.7,1,1.1c-0.4,0.3-1,0.1-1.2-0.3C29.2,15.5,29,15.2,28.7,15.1"
	/>
<path class="st1" d="M26.3,14.9c0.1,0.1,0.2,0.1,0.2,0.1c0.1,0.2,0.1,0.4,0.2,0.6C26.4,15.6,26.2,15.3,26.3,14.9"/>
<path class="st1" d="M27.9,15.2c0.5,0.2,0.9,0.6,1.2,0.9c-0.2,0.2-0.7,0.2-1,0.2c-0.3-0.1-0.7-0.2-0.7-0.6c0.2,0,0.4,0,0.6-0.1
	C27.9,15.6,27.9,15.4,27.9,15.2"/>
<path class="st1" d="M35.3,15.2c0.6-0.1,1.2-0.1,1.5,0.4c0.2,0.2,0,0.9-0.4,0.7C35.9,16.2,35.6,15.7,35.3,15.2"/>
<path class="st1" d="M29.8,18.7c2.1-0.1,4.2-0.7,5.9-2c0.1,0.1,0.1,0.2,0.2,0.2c-0.1,0.1-0.2,0.3-0.4,0.5c-0.4,0.2-0.7,0.4-1,0.6
	c-1.4,0.7-2.9,1.2-4.4,1.3c-0.7,0.1-1.6,0.1-2.2-0.4c-0.4-0.4-0.5-1-0.4-1.5c0.2-0.2,0.3-0.4,0.5-0.6c0.1,0,0.1-0.1,0.2-0.1
	c-0.1,0.4-0.1,0.9,0.2,1.3c0.2,0.3,0.4,0.4,0.7,0.6c0.3-0.8,1-1.5,1.8-1.8C30.3,17.4,29.9,18,29.8,18.7"/>
<path class="st1" d="M35.5,17.5c0.2-0.1,0.2-0.3,0.4-0.5c0.4,0.4,0.9,0.9,1.4,1.2c0.5,0.2,1,0.2,1.6,0.2c0.4,0,0.9-0.1,1.3-0.2
	c-0.3,0.6-0.4,1.2-0.4,1.8c0,1.1,0.2,2.2,1,3.1c-0.9-0.1-1.7-0.5-2.4-1c-0.9-0.7-1.7-1.6-1.8-2.8C36.2,20,36.1,21,36,21.9
	C35,20.7,34.8,18.9,35.5,17.5"/>
<path class="st1" d="M26.4,17.8c0.1,0.1,0.3,0.1,0.5,0.1c-0.5,0.6-0.7,1.5-0.3,2.1c0.5,0.7,1.3,0.8,2.1,0.8c1.8,0,3.4-0.6,5.1-1.2
	c-1.1,0.9-2.4,1.5-3.7,1.7c0.4,1.1,0.6,2.3,0.4,3.6c-0.2-1.1-0.4-2.3-1.2-3.2c-0.2-0.2-0.5-0.2-0.7-0.2c-0.6-0.1-1.2-0.2-1.8-0.5
	c-0.6,1.1-1.8,1.8-3,1.9c0.4-0.5,0.6-1,0.8-1.7c0.2-1,0.2-2.1-0.2-3.1c0.6,0.2,1.3,0.2,1.9,0.2C26.3,18.2,26.4,18,26.4,17.8"/>
<path class="st1" d="M13,18.9c0.1-0.1,0.3-0.2,0.4-0.2c0,0.2,0,0.4,0.2,0.4c0.2,0.1,0.4-0.2,0.4-0.4c0.2,0.1,0.4,0.1,0.6,0.1
	c-0.2,0.2-0.5,0.6-0.9,0.5C13.4,19.3,13.2,19,13,18.9"/>
<path class="st1" d="M50.4,18.7c0.2,0,0.4-0.1,0.6-0.1C50.9,18.8,51,19,51.2,19c0.2,0,0.2-0.2,0.2-0.4c0.1,0.1,0.3,0.2,0.4,0.3
	c-0.2,0.2-0.4,0.4-0.7,0.4C50.9,19.3,50.6,19,50.4,18.7"/>
<path class="st1" d="M15.7,22.8c0.2-0.1,0.5-0.2,0.7-0.4c0.3,0.7,0.7,1.3,1,2c-1.8,0.9-3.4,2.1-4.8,3.7c-0.4-0.2-0.6-0.6-1-0.9
	c0.1-0.1,0.1-0.2,0.2-0.3c-0.1-0.1-0.1-0.1-0.2-0.1c-0.1,0.1-0.1,0.2-0.2,0.2c-0.1-0.1-0.3-0.2-0.4-0.4c0.2-0.2,0.3-0.4,0.5-0.6
	c0.2,0.2,0.4,0.4,0.6,0.6c0.4-0.4,0.7-0.7,1-1c-0.1-0.4-0.4,0-0.5,0.1c-0.1-0.1-0.2-0.2-0.4-0.4c0.2-0.2,0.5-0.5,0.8-0.7
	c0.2,0.2,0.3,0.4,0.5,0.6c0.4-0.4,0.8-0.6,1.2-1c0-0.1-0.1-0.2-0.1-0.2c-0.2,0.1-0.3,0.2-0.5,0.3c-0.1-0.1-0.2-0.3-0.3-0.4
	c0.2-0.2,0.6-0.4,0.9-0.6c0.1,0.2,0.3,0.4,0.4,0.7c0.4-0.2,0.8-0.5,1.3-0.7c0-0.1-0.1-0.2-0.1-0.2c-0.1,0.1-0.2,0.1-0.4,0.1
	C15.9,23.1,15.8,23,15.7,22.8 M15.8,24c0.1,0.1,0.1,0.2,0.2,0.3c-0.2,0.1-0.5,0.4-0.8,0.4c-0.1-0.1-0.2-0.2-0.4-0.2
	c0.1,0.1,0.1,0.2,0.2,0.4c-0.2,0.2-0.4,0.3-0.7,0.5c-0.1-0.1-0.2-0.2-0.2-0.2c-0.1,0-0.1,0.1-0.2,0.1c0.1,0.1,0.1,0.2,0.2,0.3
	c-0.2,0.2-0.5,0.4-0.7,0.6c-0.1-0.1-0.2-0.2-0.2-0.3c-0.1,0.1-0.1,0.1-0.2,0.2c0.1,0.1,0.2,0.2,0.2,0.3c-0.2,0.2-0.4,0.4-0.6,0.6
	c-0.1-0.1-0.1-0.1-0.2-0.2c-0.1,0.1-0.1,0.1-0.1,0.2c0.1,0.1,0.2,0.1,0.2,0.2c-0.1,0.1-0.3,0.3-0.1,0.4c0.2-0.2,0.4-0.4,0.6-0.6
	c0.1,0.1,0.1,0.1,0.2,0.2c0.1-0.1,0.1-0.1,0.2-0.2c-0.1-0.1-0.1-0.2-0.2-0.2c0.2-0.2,0.4-0.4,0.6-0.6c0.1,0.1,0.2,0.3,0.3,0.2
	c0.1-0.1-0.1-0.2-0.1-0.4c0.6-0.4,1.1-0.9,1.7-1.2c0.1,0.1,0.1,0.2,0.2,0.3c0.1-0.1,0.2-0.1,0.2-0.1c-0.1-0.1-0.1-0.2-0.2-0.3
	c0.3-0.2,0.6-0.4,1-0.5c0-0.1-0.1-0.2-0.1-0.2c-0.2,0.1-0.3,0.2-0.5,0.2C16.1,24.1,16,23.8,15.8,24"/>
<path class="st1" d="M48.4,22.5c0.2,0.1,0.6,0.2,0.7,0.4c-0.1,0.1-0.2,0.3-0.2,0.4c-0.1-0.1-0.2-0.1-0.4-0.1c0,0.1-0.1,0.2-0.1,0.2
	c0.4,0.2,0.9,0.5,1.3,0.7c0.1-0.2,0.2-0.4,0.4-0.7c0.3,0.2,0.6,0.4,0.9,0.6c-0.1,0.1-0.2,0.3-0.3,0.4c-0.2-0.1-0.3-0.2-0.4-0.3
	c0,0.1-0.1,0.2-0.1,0.2c0.4,0.3,0.9,0.6,1.2,1c0.1-0.2,0.3-0.4,0.5-0.6c0.2,0.2,0.6,0.4,0.8,0.7c-0.1,0.1-0.2,0.2-0.4,0.4
	c-0.1-0.1-0.2-0.2-0.4-0.3c0,0.1-0.1,0.2-0.1,0.2c0.3,0.4,0.7,0.7,1,1c0.2-0.2,0.4-0.4,0.6-0.6c0.2,0.2,0.3,0.4,0.5,0.6
	c-0.1,0.1-0.2,0.2-0.4,0.4c-0.1-0.1-0.1-0.2-0.2-0.2c-0.1,0.1-0.1,0.1-0.2,0.1c0.1,0.1,0.1,0.2,0.2,0.2c-0.3,0.3-0.6,0.6-1,0.9
	c-1.3-1.5-2.9-2.8-4.8-3.7C47.8,23.8,48.1,23.2,48.4,22.5 M48.9,23.9c-0.1,0.1-0.1,0.2-0.2,0.3c-0.2-0.1-0.6-0.4-0.6-0.1
	c0.3,0.2,0.7,0.3,1,0.5c-0.1,0.1-0.1,0.2-0.1,0.3c0.1,0,0.2,0.1,0.2,0.1c0.1-0.1,0.1-0.2,0.1-0.3c0.6,0.3,1.2,0.8,1.7,1.2
	c-0.1,0.1-0.1,0.2-0.2,0.3c0.1,0.1,0.1,0.1,0.2,0.2c0.1-0.1,0.1-0.2,0.2-0.2c0.2,0.2,0.4,0.4,0.7,0.6c-0.1,0.1-0.2,0.2-0.2,0.3
	c0.1,0.1,0.2-0.1,0.3-0.2c0.2,0.2,0.4,0.4,0.6,0.6c0.1-0.1,0.1-0.1,0.2-0.2c-0.1-0.1-0.1-0.1-0.2-0.2c0.1-0.1,0.1-0.2,0.2-0.2
	c-0.1-0.2-0.2-0.1-0.4,0c-0.2-0.2-0.4-0.4-0.6-0.6c0.1-0.1,0.3-0.4,0.1-0.5c-0.1,0.1-0.2,0.2-0.2,0.3c-0.2-0.2-0.4-0.4-0.7-0.6
	c0-0.1,0.1-0.2,0.2-0.3c-0.1-0.1-0.1-0.1-0.2-0.1c-0.1,0.1-0.1,0.2-0.2,0.2c-0.2-0.2-0.5-0.4-0.7-0.6c0.1-0.1,0.1-0.2,0.2-0.3
	c-0.1-0.1-0.1-0.1-0.2-0.1c-0.1,0.1-0.1,0.2-0.2,0.3c-0.2-0.2-0.6-0.3-0.8-0.5c0.1-0.1,0.1-0.2,0.2-0.3C49,24,48.9,23.9,48.9,23.9"
	/>
<path class="st1" d="M28,25.6c0.1,0,0.2-0.1,0.3-0.1c0.4,0.4,0.9,0.9,1.5,1c0.6,0.2,1.2,0.2,1.8,0.1c0.9-0.2,1.5-0.7,2.3-1.1
	c0.5,0,1-0.1,1.5,0.1c-0.2,0.1-0.5,0.2-0.7,0.2c-0.8,0.2-1.4,0.7-2.1,1.1c-0.6,0.2-1.1,0.4-1.7,0.5c-0.8,0-1.5-0.3-2.1-0.8
	C28.5,26.3,28.3,25.9,28,25.6"/>
<path class="st1" d="M26.3,28.4c-0.1-0.5,0.4-1,0.9-0.9c0.3,0,0.5,0.3,0.7,0.6c1.3,0,2.8,0,4.1,0c0.1-0.2,0.3-0.6,0.6-0.4
	c0.2,0.1,0.3,0.2,0.4,0.4c1.3,0,2.8,0,4.1,0c0.1-0.3,0.4-0.6,0.8-0.6c0.5,0,0.9,0.4,0.8,0.9c0,0.2-0.2,0.4-0.3,0.6
	c0.6,0.9,1,1.7,1.6,2.5c0.2,0.3,0.1,0.7-0.1,0.9c-0.4,0.4-0.9,0.6-1.4,0.7c-0.8,0.1-1.7,0-2.3-0.5c-0.3-0.2-0.6-0.7-0.4-1
	c0.6-0.9,1.1-1.7,1.6-2.6c-0.1-0.1-0.2-0.2-0.3-0.4c-0.7,0-1.5,0.1-2.1,0.6c-0.6-0.4-1.3-0.6-2.1-0.6c0.1,0.4,0.3,0.9,0.6,1.2
	c-0.3,0.4-0.6,0.9-0.9,1.3c-0.2-0.4-0.6-0.9-0.9-1.3c0.2-0.4,0.4-0.8,0.6-1.3c-0.7,0-1.5,0.1-2.1,0.6c-0.6-0.5-1.4-0.6-2.1-0.6
	c-0.1,0.2-0.2,0.3-0.2,0.5c0.5,0.9,1,1.7,1.6,2.5c0.2,0.3,0.1,0.7-0.1,0.9c-0.4,0.4-0.9,0.6-1.5,0.7c-0.7,0.1-1.5,0-2.1-0.4
	c-0.3-0.2-0.6-0.5-0.6-0.9c0-0.2,0.1-0.4,0.2-0.6c0.5-0.7,1-1.5,1.5-2.3C26.4,28.8,26.3,28.6,26.3,28.4 M26.9,27.9
	c-0.3,0.1-0.3,0.6-0.1,0.7c0.2,0.1,0.6-0.1,0.6-0.3C27.5,28,27.2,27.9,26.9,27.9 M37.7,28c-0.2,0.1-0.2,0.6,0,0.7
	c0.2,0.1,0.6-0.1,0.5-0.4C38.1,28,37.8,27.9,37.7,28 M25.6,31c0.4-0.1,0.9-0.1,1.3-0.1c0-0.6,0-1.2,0-1.8C26.4,29.7,26,30.4,25.6,31
	 M27.2,29c0,0.6,0,1.2,0,1.8c0.4,0,0.9,0.1,1.3,0.1C28.1,30.4,27.7,29.7,27.2,29 M36.3,31c0.4-0.1,0.9-0.1,1.3-0.1
	c0-0.6,0-1.2,0-1.8C37.2,29.7,36.7,30.4,36.3,31 M38,29c0,0.6,0,1.2,0,1.8c0.4,0,0.9,0.1,1.3,0.1C38.8,30.4,38.4,29.7,38,29
	 M25.7,31.3c-0.1,0.1-0.4,0.1-0.4,0.2c0.5,0.2,1.1,0.2,1.7,0.2c0-0.2,0-0.4,0-0.7C26.5,31.2,26.1,31.2,25.7,31.3 M27.2,31.2
	c0,0.2,0,0.4,0,0.7c0.6-0.1,1.2,0,1.7-0.3c-0.1-0.1-0.1-0.2-0.2-0.2C28.2,31.2,27.7,31.2,27.2,31.2 M36.4,31.3
	c-0.2,0.1-0.4,0.1-0.4,0.2c0.5,0.3,1.1,0.2,1.7,0.3v-0.7C37.2,31.2,36.8,31.2,36.4,31.3 M38,31.2v0.7c0.6,0,1.2,0,1.7-0.3
	c-0.1-0.1-0.2-0.2-0.3-0.2C38.9,31.2,38.4,31.2,38,31.2"/>
<path class="st1" d="M22.8,33.9c2.6,0,5.3,0,8,0v6.8c-2.6,0-5.3,0-7.8,0c-0.2,0-0.2,0.2-0.4,0.2c0-0.1,0-0.2-0.1-0.2v-0.1
	c0.2-0.2,0.6-0.4,0.9-0.6c-0.2-0.2-0.6-0.3-0.9-0.3v-0.2c0.4-0.2,0.8-0.4,0.7-0.9c-0.1-0.3-0.4-0.2-0.7-0.2h-0.1
	c0.2-0.1,0.4-0.4,0.7-0.2c0.1,0.1,0.1,0.3,0.2,0.4c0.2-0.1,0.4-0.4,0.5-0.6c0.1-0.6-0.1-1.1-0.5-1.5c-0.2-0.4-0.3-0.9-0.6-1.3
	C22.7,34.8,22.8,34.4,22.8,33.9 M26.6,35.2c-0.1,0.9-0.1,1.7-0.1,2.5c-0.3-0.1-0.6-0.2-0.9-0.3c0,0.3,0,0.6,0,0.9
	c0.3,0.1,0.6,0.2,0.9,0.3c0.1,0.2,0.1,0.6,0,0.8c-0.1,0.3,0.2,0.7,0.6,0.6c0.3,0,0.6-0.4,0.4-0.7c-0.1-0.2,0-0.5,0-0.7
	c0.3-0.1,0.6-0.1,0.9-0.2c0-0.3,0-0.6,0-1c-0.3,0.1-0.6,0.2-0.9,0.3c0-0.8,0.1-1.5-0.1-2.3c-0.1-0.4-0.1-0.8-0.5-1
	C26.8,34.7,26.7,34.9,26.6,35.2"/>
<path class="st1" d="M34.1,33.9c2.6,0,5.3,0,8,0c-0.1,0.6,0.1,1.2-0.2,1.7c-0.2,0.4-0.2,0.9-0.5,1.2c-0.3,0.4-0.5,0.9-0.4,1.4
	c0.1,0.3,0.3,0.5,0.5,0.6c0.1-0.2,0.1-0.4,0.3-0.5c0.2,0,0.5,0.2,0.7,0.3l-0.1,0.1c-0.2-0.1-0.4-0.2-0.6-0.1
	c-0.2,0.1-0.2,0.4-0.1,0.6c0.2,0.3,0.4,0.4,0.7,0.6c0,0.1,0,0.1,0,0.2c-0.4,0-0.7,0.1-1,0.3c0.4,0.2,0.9,0.4,1.1,0.9
	c-0.1,0.1-0.1,0.2-0.1,0.4c0,0.2,0.1,0.4,0.1,0.6c-0.2-0.1-0.4-0.1-0.6-0.1c-0.1,0.2-0.1,0.6-0.3,0.7c-0.2,0.1-0.4,0.1-0.6,0.2
	c-0.2,0.4,0.1,0.9,0.4,1.2c0.3,0.2,0.1,0.6,0.1,0.9c0.2,0.1,0.4,0.1,0.6,0.1c-0.1,0.1-0.2,0.2-0.4,0.4c-0.2-0.1-0.3-0.2-0.5-0.3
	c-0.7,2.7-2.4,5.2-4.7,6.8c-0.7,0.5-1.6,0.9-2.4,1.2c0-3.2,0-6.3,0-9.5c2.2,0,4.5,0,6.7,0c0-0.4,0-0.7,0.1-1
	c-0.4-0.2-0.9-0.3-1.4-0.4c0.2-0.4,0.7-0.8,1.2-0.8c0.6-0.1,1.1,0.4,1.7,0.5c0-0.4,0-0.7-0.2-1c-2.6,0-5.3,0-8,0
	C34.1,38.4,34.1,36.2,34.1,33.9 M39.7,41.9c0.4,0,0.9,0.1,1.2,0.4c0.1,0.1,0.2,0.3,0.4,0.2c0.2-0.2,0.4-0.4,0.3-0.7
	C41.1,41.3,40.2,41.3,39.7,41.9 M39.7,44.7c0.5-0.2,1-0.2,1.6-0.1c0-0.2,0-0.5-0.1-0.7c-0.1-0.2-0.3-0.1-0.4-0.1
	C40.3,43.9,40,44.3,39.7,44.7"/>
<path class="st1" d="M18.8,35c0.5-0.1,0.6,0.4,0.5,0.8c-0.1,0-0.1-0.1-0.1-0.1c0.1-0.2,0-0.4-0.2-0.6h-0.1C18.9,35,18.8,35,18.8,35"
	/>
<path class="st1" d="M45.6,35.6c-0.1-0.4,0.2-0.7,0.6-0.6c0,0.1-0.1,0.1-0.1,0.1c-0.3,0-0.3,0.3-0.4,0.6l0,0L45.6,35.6z"/>
<path class="st1" d="M21.6,37.9c0.2,0,0.4-0.2,0.6,0c0.2,0.2,0.1,0.4,0.1,0.6c-0.1,0-0.1,0-0.2,0c0-0.2,0-0.4-0.2-0.5
	c-0.1,0-0.1,0-0.1,0C21.7,38,21.6,37.9,21.6,37.9"/>
<path class="st1" d="M42.7,37.9c0.2-0.2,0.4,0,0.6,0c-0.1,0-0.1,0.1-0.2,0.1c-0.1,0.1-0.2,0-0.3,0.1s-0.1,0.3-0.1,0.4l0,0l-0.1-0.1
	C42.6,38.3,42.6,38.1,42.7,37.9"/>
<path class="st1" d="M21.4,40.7L21.4,40.7c0.3,0.2,0.7,0.6,1,0.2l0,0c0,0.3,0,0.6,0,0.9c0,0.1,0,0.1,0,0.1l-0.2-0.1
	c0.1-0.2,0.2-0.4,0.1-0.7C22,41.3,21.5,41.1,21.4,40.7"/>
<path class="st1" d="M42.6,41.1c0.3,0,0.6-0.2,0.7-0.4c0.1,0,0.1,0,0.2,0c-0.1,0.2-0.1,0.4-0.3,0.5c-0.2,0.1-0.4,0.1-0.6,0.1
	C42.6,41.2,42.6,41.1,42.6,41.1"/>
<path class="st1" d="M22.9,41.6c0.4-0.2,0.8-0.4,1.3-0.4c0.6,0,1,0.4,1.2,0.8c-0.5,0.1-1,0.1-1.4,0.4c0.1,0.4,0.1,0.7,0.1,1
	c2.2,0,4.5,0,6.7,0c0,3.1,0,6.3,0,9.4c-1.6-0.6-3.1-1.5-4.2-2.8c-1.4-1.5-2.4-3.4-3-5.3c-0.1,0.1-0.3,0.2-0.5,0.2
	c-0.2,0-0.3-0.2-0.4-0.3c0.2,0,0.4,0,0.7-0.1c-0.1-0.2-0.1-0.6,0-0.8c0.2-0.2,0.4-0.4,0.6-0.8c0.1-0.2,0-0.4-0.1-0.6
	c-0.2,0-0.4,0-0.6-0.1C23,42.2,22.9,41.9,22.9,41.6c-0.1,0.1-0.2,0.1-0.3,0.1l-0.1-0.1c0,0,0-0.1,0-0.1
	C22.7,41.6,22.8,41.6,22.9,41.6 M23.2,41.8c-0.2,0.2,0.1,0.6,0.4,0.7c0.2,0,0.3-0.2,0.5-0.3c0.3-0.2,0.7-0.3,1.1-0.3
	C24.6,41.3,23.8,41.3,23.2,41.8 M23.5,44.6c0.6-0.1,1.1-0.1,1.6,0.1c-0.2-0.5-0.7-1-1.3-0.9C23.4,44,23.5,44.3,23.5,44.6"/>
<path class="st1" d="M10.7,50c0.1-0.3,0.5-0.2,0.7-0.1c0.3,0.2,0.6,0.5,0.9,0.3c0.1,0,0.1-0.1,0.1-0.1c0.4,0.1,0.7,0.3,1,0.6
	c0,0.1,0.1,0.1,0.1,0.1c0.1,0,0.2,0,0.2,0c1.2,0.2,2.4,0.6,3.5,1c1.3,0.6,2.6,1.2,3.9,1.8C22,54,23,54.2,23.9,54c0,1.3,0,2.6,0,3.9
	c-1,0.2-2.1-0.1-3.1-0.6c-1.5-0.7-3-1.5-4.5-2c-1.6-0.6-3.2-0.9-4.9-0.9c-2-0.1-4,0.2-6,0.6c0-1.3,0-2.6,0-3.9c1-0.2,2-0.4,3-0.6
	c0.2,0.1,0.4,0.3,0.6,0.4c0-0.4,0-0.7,0-1.1c0.2,0.5,0.5,1,1,1.2c0.2,0.1,0.6,0,0.7-0.2C10.7,50.8,10.5,50.4,10.7,50 M10.8,50.6
	c0.1,0.3,0.4,0.4,0.6,0.6c0.2,0.1,0.5,0.4,0.7,0.6c0-0.5-0.1-1-0.3-1.3C11.6,50.1,11.3,50,11,50C10.7,50.1,10.7,50.4,10.8,50.6
	 M9.7,51.6c0.1,0.2,0.1,0.5,0.1,0.7c0,0.5,0.1,1-0.1,1.5c0.2,0,0.4,0,0.6,0c-0.1-0.2-0.1-0.5-0.1-0.7c0-0.5-0.1-1,0.1-1.5
	C10.2,51.6,10,51.6,9.7,51.6 M11.7,51.9c-0.5,0.4-0.4,1.3,0.1,1.7c0.4,0.3,1,0.3,1.5,0.2c0-0.2,0-0.3,0.1-0.5
	c-0.3,0.2-0.7,0.3-1,0.1c-0.5-0.2-0.6-1-0.1-1.3c0.4-0.2,0.7,0,1,0.2c0-0.2,0-0.4,0-0.5C12.7,51.6,12.1,51.6,11.7,51.9 M7.1,51.9
	c0.1,0.2,0.1,0.6,0.1,0.8c0,0.5,0.1,1-0.1,1.4C7.5,54,8,54,8.3,53.7C8.9,53.3,9,52.4,8.4,52C8.1,51.7,7.6,51.7,7.1,51.9 M14.1,51.9
	c-0.1,0.2-0.1,0.3-0.2,0.5c0.2-0.1,0.5-0.1,0.7-0.1c0,0.6,0.1,1.3-0.1,1.9c0.2,0.1,0.4,0.1,0.6,0.1c-0.1-0.6-0.1-1.3-0.1-2
	c0.2,0.1,0.4,0.2,0.6,0.2c0.1-0.1,0.1-0.3,0.2-0.4C15.3,52.1,14.8,52,14.1,51.9 M16.7,52.6c0.2,0.6,0.1,1.2,0.1,1.8
	c0.1,0.6,0.7,0.9,1.3,0.8c0.1,0.2,0.4,0.2,0.6,0.4c-0.1-0.7-0.1-1.5,0-2.3c-0.2-0.1-0.4-0.2-0.6-0.2c0.2,0.6,0.1,1.1,0.1,1.7
	c-0.2,0.4-0.7-0.1-0.9-0.4c-0.1-0.6-0.1-1,0-1.6C17.1,52.7,16.9,52.7,16.7,52.6 M19.5,53.7c0.1,0.1,0.2,0.3,0.3,0.4
	c0,0.6,0.1,1.3-0.1,1.9c0.2,0.1,0.4,0.1,0.7,0.2c-0.2-0.4-0.1-0.9-0.1-1.3c0.2,0.3,0.4,0.7,0.6,1c0.2-0.2,0.4-0.4,0.6-0.5
	c0,0.4,0.1,0.9-0.1,1.3c0.2,0.1,0.4,0.2,0.7,0.3c-0.2-0.6-0.1-1.2-0.1-1.7c0-0.2,0.1-0.4,0.2-0.5c-0.2-0.1-0.4-0.1-0.6-0.2
	c-0.2,0.2-0.5,0.4-0.7,0.7c-0.2-0.4-0.5-0.8-0.7-1.2C19.9,53.8,19.7,53.8,19.5,53.7"/>
<path class="st1" d="M53.4,49.9c0.2-0.2,0.6-0.2,0.7,0.1c0.2,0.3,0.1,0.7-0.1,1c0.2,0.2,0.5,0.4,0.7,0.2c0.4-0.2,0.7-0.7,1-1.2
	c0,0.4,0,0.7,0,1.1c0.2-0.1,0.4-0.3,0.6-0.4c1,0.1,2,0.3,2.9,0.5c0,1.3,0,2.6,0,3.9c-1.8-0.4-3.6-0.7-5.4-0.6c-2,0.1-3.9,0.4-5.8,1
	c-1.5,0.5-2.8,1.2-4.3,1.9c-1,0.4-2.1,0.8-3.1,0.6c0-1.3,0-2.6,0-3.9c1.4,0.3,2.8-0.3,4-0.9c2-1,4-2,6.2-2.3c0.1,0,0.2,0,0.2,0
	c0-0.1,0.1-0.1,0.1-0.2c0.2-0.2,0.6-0.4,0.9-0.5c0.1,0.1,0.2,0.1,0.4,0.1C52.9,50.3,53.1,50.1,53.4,49.9 M53.2,50.2
	c-0.4,0.4-0.4,1-0.4,1.5c0.3-0.2,0.6-0.5,0.9-0.7c0.3-0.1,0.6-0.5,0.4-0.8C53.9,49.8,53.4,50,53.2,50.2 M54.2,51.6
	c0.1,0.5,0.1,1,0.1,1.4c0,0.2-0.2,0.4-0.4,0.5c-0.2,0.1-0.6-0.1-0.6-0.4c-0.1-0.5-0.1-1,0.1-1.5c-0.2,0-0.4,0-0.6,0
	c0.2,0.6,0.1,1.1,0.1,1.7c0.1,0.2,0.2,0.5,0.6,0.6c0.2,0.1,0.5-0.1,0.7-0.1c0.2,0.1,0.4,0.1,0.6,0.1c-0.1-0.6-0.1-1.1-0.1-1.7
	c0-0.2,0-0.4,0.1-0.6C54.6,51.6,54.4,51.6,54.2,51.6 M55.7,51.6c0.1,0.1,0.2,0.2,0.3,0.4c-0.1,0.6,0.1,1.3-0.1,1.9
	c0.2,0,0.5,0,0.7,0.1c-0.2-0.4-0.1-0.9-0.1-1.4c0.2,0.2,0.4,0.6,0.6,0.9c0.2-0.2,0.4-0.5,0.6-0.7c0,0.4,0.1,0.9-0.1,1.3
	c0.2,0,0.4,0.1,0.7,0.1C58,53.8,58,53.3,58,52.9c0-0.4-0.1-0.7,0.2-1c-0.2,0-0.4-0.1-0.6-0.1c-0.2,0.3-0.5,0.6-0.7,0.9
	c-0.2-0.4-0.5-0.7-0.7-1C56.1,51.7,55.8,51.7,55.7,51.6 M50.3,52c-0.1,0.2-0.1,0.4-0.2,0.6c0.2-0.1,0.5-0.2,0.7-0.3
	c0,0.6,0.1,1.3-0.1,1.9c0.2,0,0.4-0.1,0.6-0.1c-0.2-0.6-0.1-1.3-0.1-1.9c0.2,0,0.4,0,0.6,0.1c0.1-0.2,0.1-0.3,0.2-0.5
	C51.4,51.8,50.8,51.9,50.3,52 M47.5,53.3c-0.2,0.4-0.1,1.1,0.4,1.3c0.5,0.2,1,0,1.5-0.3c0-0.2,0-0.4,0-0.6c-0.2,0.3-0.7,0.6-1.1,0.5
	c-0.5-0.2-0.5-0.9-0.2-1.2c0.2-0.4,0.7-0.4,1.1-0.3c0-0.2-0.1-0.3-0.1-0.5C48.4,52.2,47.8,52.7,47.5,53.3 M45.7,53.3
	c-0.4,0.9-0.6,1.9-1,2.8c0.2-0.1,0.5-0.2,0.7-0.3c0-0.1,0-0.3,0.1-0.4c0.3-0.2,0.6-0.2,0.9-0.4c0.1,0.1,0.1,0.2,0.1,0.4
	c0.2-0.1,0.4-0.2,0.6-0.2C46.5,54.6,46.2,53.9,45.7,53.3 M42.7,54.6c0.2,0.7,0.1,1.5,0,2.3c0.2-0.1,0.4-0.2,0.6-0.2
	c-0.1-0.2-0.1-0.5-0.1-0.8c0.4-0.2,0.9-0.4,1-0.9c0.1-0.2-0.1-0.6-0.3-0.6C43.5,54.2,43.1,54.4,42.7,54.6"/>
<path class="st1" d="M7.7,52.1c0.2,0.1,0.6,0.1,0.6,0.4c0.2,0.5-0.2,1-0.6,1.2C7.7,53.1,7.7,52.6,7.7,52.1"/>
<path class="st1" d="M45.6,54.9c0.1-0.2,0.1-0.4,0.2-0.7c0.1,0.1,0.2,0.3,0.3,0.4C45.9,54.7,45.7,54.8,45.6,54.9"/>
<path class="st1" d="M43.3,54.7c0.2-0.1,0.4-0.2,0.6,0c0.2,0.4-0.2,0.7-0.6,0.7C43.3,55.2,43.3,54.9,43.3,54.7"/>
<path class="st1" d="M26.1,55.3c1.1,0.4,2.2,0.6,3.4,0.7c1.9,0.2,3.8,0.2,5.7,0c1.2-0.1,2.4-0.3,3.6-0.7c0,1.2,0,2.4,0,3.7
	c-0.7,0.3-1.3,0.4-2.1,0.6c-2.6,0.4-5.1,0.5-7.7,0.1c-1-0.1-2-0.3-2.9-0.7C26.1,57.7,26.1,56.5,26.1,55.3 M27.1,56.4
	c0.1,0.2,0.3,0.4,0.3,0.6c0,0.6,0.1,1.2-0.1,1.7c0.2,0,0.4,0.1,0.7,0.1c-0.2-0.4-0.1-0.9-0.1-1.3c0.2,0.2,0.4,0.6,0.6,0.9
	c0.2-0.2,0.4-0.4,0.7-0.7c0,0.4,0.1,0.9-0.1,1.3c0.2,0,0.4,0.1,0.7,0.1c-0.1-0.3-0.1-0.7-0.1-1c0-0.4-0.1-0.9,0.2-1.2
	c-0.2,0-0.4-0.1-0.6,0c-0.2,0.2-0.5,0.6-0.7,0.8c-0.2-0.4-0.5-0.7-0.7-1.1C27.6,56.4,27.4,56.4,27.1,56.4 M37.2,56.5
	c-0.2,0.4-0.5,0.7-0.7,1.1c-0.2-0.2-0.5-0.6-0.7-0.8c-0.2,0-0.4,0.1-0.7,0.1c0.1,0.1,0.2,0.2,0.3,0.3c-0.1,0.6,0.1,1.3-0.1,1.9
	c0.2-0.1,0.4-0.1,0.7-0.1c-0.2-0.4-0.1-0.9-0.1-1.4c0.2,0.2,0.4,0.5,0.7,0.7c0.2-0.3,0.4-0.6,0.6-0.8c0,0.4,0.1,0.9-0.1,1.3
	c0.2-0.1,0.4-0.1,0.7-0.1c-0.1-0.3-0.1-0.6-0.1-1c0-0.4-0.1-0.9,0.2-1.3C37.6,56.4,37.3,56.4,37.2,56.5 M33.9,56.9
	c0.1,0.6,0.1,1.1,0.1,1.6c-0.1,0.4-0.8,0.4-0.9-0.1c0-0.5-0.1-1,0.1-1.5c-0.2,0-0.4,0-0.6,0c0.2,0.6,0,1.1,0.1,1.7
	c0,0.2,0.2,0.5,0.4,0.6c0.3,0.1,0.6,0,0.8-0.1c0.2,0.1,0.4,0.1,0.6,0.1c-0.1-0.7-0.1-1.5,0-2.3C34.3,56.9,34,56.9,33.9,56.9
	 M30.4,56.9c0.1,0.2,0.1,0.6,0.1,0.8c0,0.5,0.1,1-0.1,1.5c0.4,0,0.8,0.1,1.2,0.1c0.1-0.2,0.1-0.4,0.2-0.5c-0.3,0.1-0.6,0.1-0.9,0.1
	c0-0.2,0-0.4,0-0.6c0.2,0,0.3,0.1,0.5,0.1c0.1-0.1,0.2-0.2,0.2-0.4c-0.2,0-0.5,0-0.7-0.1c0-0.2,0-0.4,0-0.6c0.2,0.1,0.4,0.1,0.6,0.2
	c0.1-0.2,0.1-0.3,0.2-0.5C31.3,56.9,30.9,56.9,30.4,56.9"/>
<path class="st0" d="M31.8,0h1.7c0,0.3,0,0.6,0,1C33.7,1,34,1,34.3,1c0.1-0.3,0.1-0.6,0.2-0.9c0.6,0.1,1.2,0.2,1.7,0.4
	c-0.2,0.6-0.4,1.2-0.6,1.8c-0.1,0.4-0.4,0.7-0.7,1c-1.5-0.6-3.3-0.6-4.8,0c-0.2-0.3-0.6-0.6-0.7-0.9c-0.2-0.6-0.4-1.2-0.6-1.8
	c0.6-0.1,1.1-0.3,1.7-0.3c0.1,0.3,0.1,0.6,0.2,0.9c0.3-0.1,0.6-0.1,0.9-0.1c0-0.3,0-0.6,0-0.9C31.6,0,31.7,0,31.8,0"/>
<path class="st0" d="M30.4,3.5c1-0.3,2-0.4,3-0.2c0.4,0.1,0.7,0.1,1.1,0.3c0.1,0.7,0.2,1.5,0.3,2.2c0.3-0.1,0.7-0.2,1,0.1
	c0.2,0.1,0.2,0.6,0.6,0.5c0.9-0.2,2,0.6,1.8,1.7c0.4,0.6,0.4,1.4,0,2c-0.4,0.6-1.2,0.9-2,0.9c0.1,0.1,0.1,0.2,0.1,0.3
	c0.4,0.1,0.7,0.1,1,0.1c0.4,0,0.7,0.3,0.9,0.6c0.2,0.4,0.2,1,0.2,1.5c0.1,0.4-0.1,0.8-0.3,1.2c-0.2,0.4-0.6,0.6-1,0.8
	c0.2,0.4,0.2,1-0.1,1.3c-0.2,0.2-0.5,0.2-0.7,0.3c0.6,0.6,1.3,1.1,2.1,1c0.7-0.1,1.1-0.8,1.3-1.4c0.4-1.3,0.4-2.8,0.1-4.2
	c-0.1-0.5-0.3-1-0.7-1.3c0.9-0.3,2.2-0.1,2.8,0.8c-0.1-1,0.2-2.2,1-2.9c0.4-0.4,0.9-0.7,1.5-0.7c1,0.1,2.1,0.6,2.8,1.3
	c0.7-0.1,1.4-0.3,2-0.7c0.7-0.5,1.2-1.2,1.3-2.1c0.6,0.1,1,0.6,1.2,1.1c0.4,1.1,0.4,2.3,0.1,3.4c1,0.1,2.1-0.4,2.8-1.3
	c0.4,1,0.1,2.1-0.4,3.1c-0.6,0.9-1.4,1.6-2.4,1.7c-1,0.1-2-0.1-2.8-0.9c-0.6-0.5-0.8-1.2-1.2-1.8c-0.2-0.4-0.5-0.7-0.9-0.7
	c-0.7-0.1-1.5,0.1-2,0.4c-0.6,0.4-1,1.1-1.2,1.8c0.8-0.3,1.7-0.1,2.4,0.5c0.6,0.5,0.9,1.2,0.7,2c-0.2,1-1.1,1.7-2,2.1
	c0.2-0.6-0.1-1.2-0.7-1.3c-0.7-0.1-1.5,0.1-2.1,0.4c-0.6,0.4-1.1,0.8-1.4,1.4c-0.4,0.9-0.3,2-0.1,2.9c0.2,0.8,0.8,1.6,1.7,1.8
	c-0.9,0.5-2,0.6-3,0.3c-1.2-0.4-2.1-1.3-2.7-2.4c-0.1,1.3,0.2,2.8,1.2,3.8c-1.3-0.2-2.7,0-3.9,0.6H34c-0.8,0.4-1.5,0.9-2.3,1.1
	c-0.6,0.1-1.2,0.2-1.8-0.1c-0.6-0.2-1-0.6-1.5-1l0,0c-0.1-0.3-0.2-0.6-0.1-0.9c0.1-0.3,0.4-0.4,0.7-0.6c0-0.6-0.1-1.3-0.7-1.7
	c-0.4-0.1-0.8-0.2-1.2-0.5c-0.7,0.9-1.8,1.7-3.1,1.8c-0.7,0.1-1.5-0.1-2.1-0.4c0.4-0.1,0.7-0.3,1-0.6c0.6-0.7,0.9-1.6,0.9-2.5
	c0-0.7-0.1-1.4-0.6-1.9c-1-0.9-2.1-1.6-3.4-1.9c-1.3-0.4-2.8-0.3-4.1,0.1c0.3-1.1,1.3-1.8,2.3-2.2c1-0.4,2.2-0.2,3.1,0.3
	c-0.4-1.2-1-2.3-2-3c-0.4-0.2-0.7-0.5-1.2-0.6c-0.5-0.1-0.9,0.2-1.2,0.6c-0.5,0.7-0.8,1.5-1.3,2c-0.4,0.5-1,0.8-1.7,0.9
	c-0.7,0.1-1.4,0.2-2.1-0.2c-1.1-0.6-2-1.7-2.1-2.9C9.4,11,9.4,10.4,9.7,9.9c0.6,0.9,1.7,1.3,2.8,1.2c-0.3-1-0.3-2.1,0-3.2
	c0.2-0.6,0.6-1.2,1.3-1.3c0.1,0.4,0.1,0.7,0.3,1c0.6,1,1.8,1.7,3,1.8c0.7-0.7,1.7-1.2,2.8-1.3c0.7-0.1,1.5,0.3,2,0.9
	c0.8,1,1,2.3,1,3.6c0.1-0.5,0.3-1,0.7-1.3c0.7-0.4,1.5,0,1.8,0.6c-0.4,0.1-0.7,0.4-0.9,0.7c-0.4,0.9-0.5,1.9-0.4,2.9
	c0.1,0.8,0.4,1.6,1,2.1c0.4,0.3,1,0.3,1.5,0.2v0.1c-0.1,0.2-0.1,0.4-0.2,0.6c-0.7,0-1.3-0.1-1.9-0.2c0.4,1,0.4,2,0.2,3.1
	c-0.1,0.6-0.4,1.2-0.8,1.7c1.2-0.1,2.4-0.8,3-1.9c0.6,0.2,1.2,0.4,1.8,0.5c0.2,0.1,0.6,0,0.7,0.2c0.7,0.9,0.9,2.1,1.2,3.2
	c0.2-1.2,0.1-2.4-0.4-3.6c1.3-0.2,2.6-0.9,3.7-1.7c-1.7,0.6-3.3,1.2-5.1,1.2c-0.7,0-1.7-0.1-2.1-0.8s-0.2-1.5,0.3-2.1l0.1-0.1l0,0
	c0.1-0.1,0.2-0.2,0.3-0.3l0.1-0.1c-0.1,0.6,0,1.2,0.4,1.5c0.6,0.5,1.5,0.5,2.2,0.4c1.5-0.2,3.1-0.7,4.4-1.3c0.4-0.2,0.7-0.4,1-0.6
	l0,0c-0.7,1.4-0.6,3.2,0.4,4.4c0.1-0.9,0.2-1.9,0.7-2.7c0.2,1.1,0.9,2.1,1.8,2.8c0.7,0.5,1.5,0.9,2.4,1c-0.7-0.9-1-2-1-3.1
	c0-0.6,0.1-1.2,0.4-1.8c-0.5,0.2-0.9,0.3-1.4,0.3c-0.6,0-1.1,0.1-1.6-0.2c-0.6-0.2-1-0.7-1.4-1.2L35.8,17c-0.1-0.1-0.1-0.2-0.2-0.2
	c-1.7,1.3-3.8,2-5.9,2c0.1-0.7,0.5-1.3,1-1.9c-0.9,0.3-1.5,1-1.8,1.8c-0.3-0.1-0.6-0.3-0.7-0.6C28,17.7,28,17.2,28,16.8
	c-0.1,0-0.1,0.1-0.2,0.1c0,0-0.1,0-0.1,0c-0.2-0.1-0.4-0.2-0.7-0.3c-0.2-0.1-0.3-0.4-0.4-0.6c-0.6-0.2-1.2-0.7-1-1.4
	c0.1-0.5,0.7-0.6,1-0.9c0.2-0.2,0.7,0,0.9-0.3c0.2-0.2,0.6-0.6,0.5-0.9c-0.1-0.1-0.3-0.2-0.4-0.4c-0.1,0.1-0.3,0.2-0.5,0.1
	c-0.2-0.1-0.4-0.3-0.6-0.4c-0.2-0.2-0.6-0.3-0.7-0.6c-0.3-0.4-0.4-1-0.6-1.5c-0.2-0.1-0.4-0.2-0.5-0.3c-0.2-0.2-0.2-0.4-0.3-0.7
	c-0.1,0.1-0.2,0.2-0.3,0.2c-0.1-0.6,0.1-1.3,0.7-1.5c0-0.1,0-0.1,0-0.2C25,7,25.3,6.9,25.7,6.9c0.2,0.1,0.5,0,0.7-0.2
	c0-0.4-0.1-0.8-0.1-1.2c0.3,0,0.6,0.1,0.9,0.2c-0.1-0.2-0.2-0.4-0.3-0.6c0.1-0.1,0.2-0.1,0.3-0.1c0.1-0.2,0.1-0.5,0.4-0.6
	c0.2-0.1,0.5,0,0.7,0.1c0.1-0.2,0.3-0.3,0.6-0.4c0.1,0.2,0.1,0.5,0.3,0.7c0.3-0.2,0.7-0.2,1-0.1C30.1,4.9,30,5,29.9,5.2
	c0.1-0.1,0.2-0.2,0.2-0.4C30.3,4.5,30.4,4,30.4,3.5 M32.1,4c-0.3,0.4-0.2,0.9-0.2,1.3c0.4,0,0.7,0,1.1,0c0-0.4,0.1-1-0.2-1.3
	C32.6,3.9,32.3,3.9,32.1,4 M28.5,5.3c-0.2-0.2-0.3-0.6-0.6-0.6c-0.2-0.1-0.2,0.1-0.4,0.2C27.9,5,28,5.4,28,5.8
	c-0.2-0.2-0.4-0.4-0.7-0.4c0.1,0.2,0.1,0.6,0,0.8c-0.2-0.1-0.4-0.3-0.7-0.3c0,0.2,0,0.5,0.1,0.7c0.2,0.4,0.6,0.6,0.9,0.9
	c-0.1,0.3-0.1,0.7,0.3,0.8c0.3,0.1,0.6-0.1,0.7-0.4c-0.1-0.1-0.3-0.2-0.5-0.3c0.1-0.1,0.2-0.1,0.4,0c0.2,0.1,0.6,0.1,0.7-0.1
	c0.1,0.1,0.2,0.1,0.2,0.1c-0.1,0.1-0.6,0.3-0.3,0.5c0.2,0.2,0.7,0.2,0.8-0.1c0.1-0.1,0-0.3,0-0.5c0.3-0.3,0.6-0.6,0.9-0.8
	C31,6.5,31,6.2,31,6.1c-0.2,0-0.4,0-0.6,0c0-0.3,0-0.6,0.1-0.9c-0.2,0.1-0.4,0.3-0.6,0.5c-0.1-0.2-0.1-0.6-0.1-0.8
	c-0.3-0.1-0.5,0.1-0.6,0.3c-0.3-0.1-0.5-0.3-0.6-0.7C28.5,4.8,28.5,5.1,28.5,5.3 M35.1,6c0.2,0.2,0.4,0.7,0.1,0.9
	c-0.4,0.1-0.9-0.1-1.3-0.1c-0.7-0.1-1.5,0.1-2,0.7c-0.2,0.4-0.1,1,0.2,1.2c0.4,0.4,1.1,0.4,1.6,0.2c0.5-0.1,0.9-0.4,1.3-0.6
	c-0.2-0.1-0.4-0.2-0.6-0.2c-0.4,0.1-0.9,0.3-1.3,0.2c-0.2,0-0.5-0.1-0.6-0.4c-0.1-0.2,0.1-0.5,0.2-0.6c0.4-0.2,0.7-0.1,1.2-0.1
	C34.3,7.4,34.6,7.9,35,8c0.2,0.1,0.6,0,0.8-0.1c-0.2-0.1-0.4-0.3-0.6-0.5c0.3,0.1,0.6,0.2,0.9,0.2s0.6-0.2,0.8-0.2
	c0.4-0.1,0.7,0.1,1,0.2c-0.2-0.9-1.3-1.4-2.1-0.9C36,6.3,35.6,5.8,35.1,6 M26.4,7.1c0.1,0.2,0.2,0.3,0.4,0.3
	c-0.1,0.4-0.3,0.7-0.6,1.1c0.2,0,0.4,0,0.6-0.1c-0.5,0.4-0.6,1-0.2,1.6c0.2-0.3,0.4-0.6,0.7-0.8c0.1,0,0.1,0,0.1,0
	c-0.4,0.2-0.6,0.6-0.6,1c0,0.4,0.2,0.7,0.4,1c0-0.4,0.1-1,0.6-1.2c-0.4,0.5-0.5,1.3,0,1.8c-0.1-0.7,0.1-1.3,0.6-1.8
	c-0.2,0.7-0.5,1.4-0.2,2.1c0.1,0.1,0.2,0.1,0.3,0.2c0-0.2-0.1-0.4,0.1-0.6c0.2-0.4,0.6-0.6,0.7-1c0.1-0.3-0.1-0.6-0.2-0.9
	c0.4,0.4,0.4,1.1,0.2,1.6c0.8-0.2,1.2-1.3,0.7-2c0.4,0.2,0.5,0.7,0.5,1c0.3-0.6,0.5-1.3,0-1.8c0.2,0,0.3,0.1,0.5,0.1
	c-0.2-0.4-0.4-0.9-0.5-1.3c0.2,0,0.4,0,0.6-0.1c-0.1-0.2-0.3-0.3-0.5-0.4c-0.1,0.1-0.2,0.3-0.4,0.4c-0.1,0.2-0.1,0.5-0.2,0.7
	c-0.1,0.2-0.4,0.2-0.5,0.4c-0.1,0.2-0.2,0.5-0.3,0.7c-0.2,0.4-0.9,0.3-1.1-0.1C28,9,28,8.7,27.7,8.5c-0.2-0.2-0.4-0.2-0.4-0.5
	c0-0.4-0.3-0.7-0.5-0.9C26.7,7,26.6,7.1,26.4,7.1 M25.5,7.2c0.2,0.1,0.3,0.3,0.4,0.5c0.1-0.1,0.2-0.2,0.2-0.3
	C25.9,7.3,25.7,7.2,25.5,7.2 M24.8,7.8C25,7.8,25.3,8,25.5,8C25.7,7.5,25,7.5,24.8,7.8 M25.8,7.9c-0.1,0.1-0.2,0.2-0.4,0.3
	c0.1,0.4-0.3,0.4-0.6,0.4c0,0.4,0.3,0.7,0.7,0.8c0.1,0.4,0.2,0.7,0.4,1c-0.1,0-0.2,0.1-0.2,0.1c0.2,0.2,0.4,0.4,0.7,0.6
	c-0.1,0-0.2,0-0.3,0c0.1,0.2,0.3,0.3,0.5,0.4c0.3,0.1,0.5,0.4,0.7,0.6c0.1-0.1,0.1-0.2,0.2-0.2c-0.2-0.1-0.4-0.2-0.6-0.5
	c-0.2-0.2-0.2-0.6-0.4-0.9c-0.4-0.4-0.4-1-0.3-1.6c-0.1-0.1-0.2-0.2-0.4-0.3c0.2-0.3,0.6-0.6,0.5-1C26.3,7.7,26.1,7.9,25.8,7.9
	 M13.2,7.6c-0.4,0.9-0.5,1.8-0.4,2.7c0.1,0.4,0.2,0.9,0.4,1.3c-0.6,0.1-1.2,0.2-1.7,0.1c-0.5-0.1-1-0.2-1.5-0.5
	c0.1,0.8,0.6,1.5,1.1,2c0.4,0.4,0.9,0.7,1.5,0.7c0.8,0,1.7-0.2,2.2-0.8c0.8-0.9,1-2.1,1.7-3.1c-1.1-0.2-2.1-0.7-2.9-1.5
	C13.5,8.1,13.4,7.8,13.2,7.6 M51.1,7.8c-0.7,1.2-2,1.9-3.3,2.1c0.7,0.9,0.9,2.1,1.7,3c0.3,0.4,0.8,0.7,1.3,0.9
	c0.6,0.1,1.3,0.2,1.8-0.1c1-0.5,1.6-1.5,1.8-2.5c-0.4,0.2-0.9,0.4-1.4,0.5c-0.6,0.1-1.2,0-1.8-0.1c0.2-0.5,0.4-1,0.4-1.5
	c0.1-0.8,0-1.7-0.4-2.3C51.1,7.6,51.1,7.8,51.1,7.8 M36.4,8c-0.2,0.1-0.4,0.3-0.6,0.4c-0.3,0.1-0.4,0.4-0.2,0.6
	c0.1,0.2,0.4,0.2,0.6,0.2c0-0.3,0-0.6,0.2-0.8c0.4-0.3,1-0.1,1.2,0.3c0.2,0.4-0.1,0.8-0.4,1c-0.6,0.3-1.2,0.2-1.8,0.1
	c-1.2-0.2-2.5-0.4-3.8-0.2c-0.1,0.7-0.5,1.3-1,1.7c-0.3,0.4-0.7,0.6-1.2,0.5c-0.2,0.2-0.2,0.6-0.1,0.9c-0.2-0.1-0.4-0.1-0.6-0.1
	c0,0.1,0,0.2,0,0.3c-0.3,0.3-0.5,0.7-0.9,1c-0.1,0-0.3,0-0.4,0c-0.2,0-0.4,0.2-0.5,0.4c-0.2,0.1-0.4,0.1-0.5,0.3
	c-0.1,0.2-0.1,0.4,0,0.6c0.1-0.1,0.1-0.4,0.2-0.4c0.1,0,0.2,0,0.2,0c0.1-0.1,0.3-0.2,0.4-0.1c0.1-0.2,0.3-0.4,0.6-0.2
	c0.2,0.1,0.2,0.4,0.2,0.6c0.3-0.1,0.5-0.4,0.7-0.6c0.4-0.2,0.7-0.7,0.8-1.2c0.1,0.2,0.1,0.4,0.1,0.6c0.4-0.4,0.6-0.9,0.5-1.4
	c0.1,0.1,0.2,0.2,0.2,0.4c0.1-0.2,0.2-0.4,0.2-0.6c0.4-0.2,0.8-0.4,1.2-0.6c0.4-0.2,0.4-0.6,0.8-0.9c0.2-0.2,0.5-0.1,0.7-0.1
	c-0.3,0.2-0.6,0.4-0.7,0.8c-0.2,0.5,0.2,1.2,0.7,1.2c-0.5,0.2-0.9,0.6-1.2,1c-0.4,0.2-0.8-0.1-1.2-0.1c-0.3,0.1-0.4,0.5-0.5,0.8
	c0.4-0.1,0.8,0,1.2,0.1c0.4-0.2,0.9-0.2,1.3-0.1c0.2-0.2,0.4-0.6,0.7-0.6c0.1-0.2,0.4-0.4,0.7-0.2c0.1-0.1,0.2-0.2,0.2-0.4
	c-0.2-0.3-0.4-0.6-0.6-0.9s0-0.7,0.2-1c0.1,0,0.2,0.1,0.2,0.2c0.2,0.4,0.3,0.7,0.6,1.1c0.7,0.2,1.3,0.2,2,0.1c0,0.3,0.1,0.6,0.2,0.8
	c0.1,0.3,0,0.6-0.1,0.9c-0.2,0-0.4,0-0.5-0.1c-0.2-0.1-0.3-0.4-0.6-0.2c-0.3,0.2-0.3,0.7-0.4,1c0.5-0.1,1,0.1,1.4,0.2
	c0.4-0.1,0.6-0.6,0.6-1c0,0.2,0.1,0.3,0.1,0.5c0.1,0.1,0.2-0.1,0.2-0.2c0.2-0.4,0.1-0.9-0.1-1.2c0.2,0.1,0.3,0.2,0.4,0.3
	c0-0.5-0.2-0.9-0.6-1.2c0.2,0.1,0.4,0.1,0.6,0.2c-0.1-0.3-0.3-0.7-0.7-0.8c-0.5,0-1,0-1.5-0.2c-0.1-0.4-0.4-0.9-0.7-1.2
	c0.4,0.2,1,0.4,1.5,0.2c0.4-0.1,0.9-0.4,1.1-0.7c0.2-0.4,0.3-0.8,0.2-1.2c-0.2-0.4-0.6-0.7-1-0.7C36.9,7.8,36.6,7.9,36.4,8
	 M24.5,8.3c0.2,0,0.5,0,0.7,0.1c0-0.1,0-0.2,0-0.3C24.9,8,24.6,8.1,24.5,8.3 M29.3,8.3c-0.1,0.3-0.2,0.7-0.5,0.8
	c-0.4-0.1-0.6-0.4-0.6-0.7c-0.1,0-0.1,0-0.2,0c0.2,0.3,0.3,0.9,0.8,0.8c0.4-0.1,0.6-0.6,0.7-0.9C29.5,8.3,29.4,8.3,29.3,8.3
	 M28.5,8.5c0,0.1,0,0.3,0.2,0.4c0.2,0.1,0.5-0.1,0.5-0.3C29,8.4,28.7,8.4,28.5,8.5 M36.5,8.7c-0.2,0.2-0.1,0.5-0.1,0.7
	c-0.4,0.1-0.9,0.1-1.2-0.2c0,0.1,0,0.2,0.1,0.3c0.6,0.1,1.1,0.1,1.6-0.1c0.2-0.1,0.4-0.3,0.3-0.6C37.1,8.6,36.7,8.4,36.5,8.7
	 M35.7,12.8c0,0.2,0.1,0.5,0.1,0.7c0.1-0.1,0.3-0.2,0.5-0.2c0.2,0,0.5,0.2,0.7,0.4c0.1-0.3-0.2-0.6-0.2-0.9
	C36.3,12.8,36,12.8,35.7,12.8 M27.1,14.8c0,0.2,0.1,0.5,0.4,0.6c0-0.2,0.1-0.4,0.1-0.6C27.6,14.6,27.2,14.5,27.1,14.8 M32,14.8
	c0.2,0.2,0.5,0.5,0.6,0.8c0.2,0.4,0.7,0.6,1.1,0.4c0-0.2-0.2-0.3-0.2-0.4c-0.2-0.3-0.4-0.7-0.8-0.9C32.4,14.7,32.1,14.8,32,14.8
	 M26.7,14.9c0,0.2,0.1,0.5,0.4,0.6c-0.1-0.2,0.1-0.6-0.2-0.7C26.8,14.8,26.8,14.9,26.7,14.9 M30.3,14.9c0.2,0.2,0.5,0.5,0.7,0.7
	c0.2,0.4,0.8,0.6,1.2,0.2c-0.2-0.3-0.5-0.6-0.7-0.9C31.2,14.7,30.6,14.7,30.3,14.9 M33.7,14.9c0.2,0.2,0.4,0.6,0.6,0.9
	c0.2,0.4,0.7,0.7,1,0.4c-0.3-0.4-0.4-0.9-0.8-1.2C34.3,14.8,33.9,14.8,33.7,14.9 M28.7,15.1c0.3,0.2,0.6,0.4,0.7,0.7
	c0.2,0.4,0.9,0.6,1.2,0.3c-0.4-0.4-0.6-0.8-1-1.1C29.3,14.8,29,14.8,28.7,15.1 M26.3,14.9c-0.1,0.3,0.1,0.6,0.4,0.7
	c-0.1-0.2-0.1-0.4-0.2-0.6C26.4,15.1,26.4,15,26.3,14.9 M27.9,15.2c0,0.1,0,0.3,0,0.4c-0.2,0-0.4,0.1-0.6,0.1
	c0.1,0.4,0.4,0.5,0.7,0.6c0.3,0.1,0.7,0.1,1-0.2C28.7,15.8,28.3,15.4,27.9,15.2 M35.3,15.2c0.3,0.4,0.6,1,1.1,1.2
	c0.4,0.1,0.6-0.5,0.4-0.7C36.5,15.2,35.8,15.1,35.3,15.2"/>
<path class="st0" d="M26.6,6c0.4-0.1,0.7,0.2,0.6,0.6c-0.2-0.1-0.4-0.1-0.5-0.2C26.7,6.3,26.7,6.1,26.6,6"/>
<path class="st0" d="M30.3,6.6c0.1-0.4,0.4-0.6,0.7-0.5C31,6.6,30.6,6.6,30.3,6.6"/>
<path class="st0" d="M27.7,6.7c0.2,0,0.5,0,0.7,0v0.6C28,7.2,27.9,6.8,27.7,6.7"/>
<path class="st0" d="M29.2,6.6c0.2,0,0.5,0,0.7,0c-0.3,0.1-0.4,0.5-0.7,0.6C29.2,7,29.2,6.8,29.2,6.6"/>
<path class="st0" d="M2.4,17.3c0.1-1,0.3-2,1-2.8c0.1,1.5,0.7,2.8,1.5,3.9c0-0.9,0-1.7,0.4-2.4c0.1-0.3,0.4-0.5,0.7-0.7
	c0.1,2.1,0.8,4.2,1.8,6.1c0.5,0.9,1.2,1.8,1.6,2.8c0.3,0.6,0.4,1.2,0.2,1.8c-0.1,0.4-0.3,0.7-0.4,1.1c-0.1,0.6,0.2,1.1,0.5,1.5
	c0.4,0.6,1.2,0.9,1.9,0.8c0.6-0.1,0.9-0.6,1.1-1c-0.6-0.6-1.3-1.2-1.9-1.8c0.2-0.3,0.5-0.6,0.7-0.9c-0.2-0.4-0.3-0.9-0.4-1.3
	c-0.2,0.2-0.3,0.5-0.6,0.7c-0.5-0.9-0.4-2-0.1-2.9c-0.2-0.1-0.4-0.1-0.6-0.1c0.1-0.6,0.2-1.2,0.4-1.7c0.2-0.4,0.6-0.7,0.9-1
	c-1-0.1-2-0.7-2.1-1.7c0.3,0.1,0.6,0.2,0.9,0.2c-0.4-0.2-0.7-0.4-1-0.8c-0.4-0.6-0.4-1.2-0.3-1.8c0.9,1,2.1,1.7,3.4,2
	c-0.2-0.1-0.5-0.3-0.7-0.5c0.1-0.7,0.2-1.5,0.8-1.8c0,0.2,0,0.6,0.1,0.8c0.3,0.6,0.8,1.1,1.2,1.6c0.6,0,1.1-0.1,1.6-0.2
	c0.4-0.1,0.7,0.2,0.9,0.5c0.5-0.1,1.1-0.2,1.5,0.2c0.4,0.4,0.4,1,0.3,1.6c-0.2-0.4-0.6-0.6-1-0.6c-0.4,0.1-0.6,0.5-0.8,0.7
	c-0.3,0.4-0.9,0.4-1.2,0.6c-0.2,0.2-0.4,0.4-0.6,0.6c0.7-0.1,1.3,0.2,1.9,0.2c0.4,0.1,0.7-0.1,1-0.4c0,0.4-0.1,1-0.6,1.2
	c-0.6,0.3-1.2,0.1-1.8-0.1c-0.6,0.2-1.3,0.4-1.9,0c-0.2-0.2-0.2-0.7-0.2-1c-0.2,0.6-0.2,1.3,0.4,1.6c0.4,0.3,1,0.2,1.5,0.1
	c0.6,0.1,1,0.4,1.5,0.6c-0.1-0.1-0.1-0.3-0.2-0.4c0.4-0.2,0.7-0.4,1.2-0.6c0.4,0.7,0.7,1.6,1.2,2.3c0.2,0.1,0.5,0.2,0.7,0.2
	c0.9,0.3,1.8,0.9,2.4,1.7c-0.3-0.1-0.7-0.1-1-0.1c0.6,0.2,1.3,0.5,1.7,1.1c0.4,0.6,0.2,1.4-0.1,2c-0.2-0.6-0.4-1.2-1-1.5
	c0.2,0.4,0.4,0.8,0.4,1.2c0.1,0.6,0,1.2-0.2,1.8c-0.5-0.5-1.2-0.7-1.9-0.7c0.4,0.5,0.9,0.9,1.2,1.5c0.3,0.4,0.5,0.9,0.8,1.3
	c0.4,0.6,1,1,1.6,1.6c0-3.1,0-6.2,0-9.2h4.1c0.5,0,1,0,1.5,0.1c0,0,0.1,0.1,0.1,0.1c0.2,0.3,0.4,0.7,0.7,0.9
	c0.6,0.6,1.3,0.9,2.1,0.8c0.6,0,1.2-0.2,1.7-0.5c0.7-0.4,1.3-0.9,2.1-1.1c0.2-0.1,0.5-0.1,0.7-0.2c0.1,0,0.2-0.1,0.4-0.1
	c0.9-0.1,1.9-0.1,2.9-0.1c1.3,0,2.6,0,3.9,0c0,3.1,0,6.2,0,9.2c0.7-0.7,1.5-1.3,2-2.3c0.4-0.8,1-1.5,1.6-2.2c-0.7,0-1.4,0.2-1.9,0.7
	c-0.4-1-0.2-2.1,0.2-3c-0.6,0.2-0.9,0.9-1,1.5c-0.3-0.6-0.4-1.4-0.1-2c0.4-0.6,1.1-0.9,1.7-1.2c-0.4,0-0.7,0-1,0.1
	c0.7-1,1.9-1.6,3.1-1.8c0.4-0.8,0.8-1.6,1.2-2.4c0.4,0.1,0.8,0.4,1.2,0.6c-0.1,0.1-0.1,0.3-0.2,0.4c0.4-0.2,0.9-0.4,1.3-0.6
	c0.2-0.1,0.6,0,0.8,0c0.5,0.1,1.1-0.2,1.3-0.7c0.1-0.4,0.1-0.7-0.1-1c0,0.3,0,0.6-0.1,0.9c-0.2,0.4-0.6,0.6-1,0.6
	c-0.4,0.1-0.8-0.2-1.2-0.2c-0.6,0.1-1.2,0.4-1.7,0.1c-0.4-0.2-0.6-0.8-0.6-1.2c0.3,0.2,0.7,0.4,1,0.4c0.6-0.1,1.2-0.3,1.9-0.2
	c-0.2-0.2-0.4-0.5-0.7-0.7c-0.4-0.2-0.9-0.2-1.2-0.6c-0.3-0.2-0.5-0.7-1-0.7c-0.4,0-0.7,0.2-0.9,0.6c-0.1-0.4-0.2-1,0.2-1.5
	c0.4-0.4,1-0.4,1.5-0.2c0.2-0.3,0.6-0.6,0.9-0.5c0.5,0.1,1,0.2,1.6,0.2c0.4-0.5,0.9-1,1.2-1.6c0.1-0.2,0.1-0.6,0.1-0.9
	c0.6,0.4,0.9,1.2,0.8,1.8c-0.2,0.2-0.5,0.3-0.7,0.5c1.3-0.2,2.5-1,3.4-2c0.1,0.6,0.1,1.3-0.3,1.9c-0.2,0.4-0.7,0.6-1,0.8
	c0.3-0.1,0.6-0.1,0.9-0.2c-0.1,0.4-0.2,0.7-0.5,0.9c-0.4,0.5-1,0.7-1.7,0.8c0.4,0.2,0.7,0.6,0.9,0.9c0.2,0.6,0.4,1.1,0.4,1.7
	c-0.2,0.1-0.4,0.1-0.6,0.1c0.3,0.9,0.4,2-0.1,2.9c-0.2-0.2-0.4-0.4-0.6-0.7c-0.1,0.5-0.2,0.9-0.4,1.3c0.2,0.3,0.5,0.6,0.7,0.9
	c-0.1,0.1-0.2,0.2-0.3,0.3c-0.6,0.5-1,1-1.6,1.5c0.2,0.4,0.6,0.9,1.1,1c1.2,0.2,2.3-0.7,2.4-1.9c0.1-0.5-0.2-0.9-0.4-1.3
	c-0.2-0.6-0.2-1.3,0.1-2c0.6-1.1,1.3-2.1,1.8-3.2c0.9-1.8,1.5-3.7,1.6-5.7c0.3,0.2,0.6,0.4,0.7,0.8c0.7,0.7,0.7,1.5,0.7,2.3
	c0.7-1.2,1.4-2.5,1.5-3.9c0.6,0.6,0.8,1.5,0.9,2.3c0.2,1.3-0.1,2.6-0.6,3.7c0.8-0.7,1.4-1.5,1.6-2.5c0.3,0.6,0.4,1.4,0.2,2.1
	c-0.2,1.1-0.9,2.1-1.5,2.9c0.7-0.1,1.4-0.2,2-0.7c0,0.7-0.2,1.3-0.6,1.9c-0.6,0.7-1.4,1.2-2.3,1.4c0.9,0.1,1.8,0.1,2.8-0.1
	c-0.2,0.4-0.4,0.9-0.7,1.3c-0.7,1-1.8,1.8-3.1,2c0.7,0.4,1.7,0.7,2.5,0.8c-0.3,0.6-0.9,1.1-1.5,1.3c-0.7,0.2-1.5,0.1-2.1-0.1
	c0.5,0.4,0.9,0.9,1.3,1.3c-0.6,0.6-1.5,0.7-2.3,0.6c0.1,0.6,0.2,1.3-0.1,1.9c-0.6,0.1-1.2,0-1.8-0.3c0,0.4-0.1,0.9-0.3,1.2
	c-0.7-0.1-1.3-0.5-1.8-1c-0.1,0.4-0.3,0.8-0.5,1.2c-0.3-0.1-0.7-0.3-0.9-0.6c-0.2-0.3-0.4-0.7-0.5-1.1c-0.1,0.4,0,0.9,0.2,1.2
	c0.2,0.4,0.7,0.7,1.2,0.9c0.3-0.2,0.5-0.6,0.6-1c0.4,0.4,0.9,0.6,1.5,0.6c0.3,0.6,0.6,1.2,0.8,1.9c0.3,1,0.5,2,0.9,2.9
	c0.2,0.5,0.4,1,0.7,1.4c0.2,0.4,0.7,0.7,1.2,0.8c0.5,0,0.9-0.4,1-0.9c0.2-0.6,0.2-1.2,0.2-1.8c-0.2-1.4-1-2.6-1.2-4
	c-0.1-0.7,0.1-1.5,0.6-2c0.6-0.8,1.7-1.1,2.6-0.9c0.5,0.1,0.9,0.4,1.2,0.9c0.2,0.3,0.6,0.6,0.9,0.5c-0.2,0.3-0.6,0.6-0.9,0.7
	c0.1,0.2,0.2,0.5,0.2,0.8c0,0.4-0.3,0.6-0.4,0.8c-0.1,0.4,0.2,0.6,0.6,0.9c-0.2,0.2-0.4,0.2-0.6,0.4c0,0.6-0.1,1.3-0.7,1.7
	c0.1-0.7-0.3-1.3-0.5-2c-0.1-0.4-0.1-0.8-0.1-1.2c-0.1,0.2-0.2,0.6-0.3,0.9c-0.6-0.4-0.7-1.3-0.5-2c0.1-0.3,0.4-0.5,0.6-0.7
	c-0.1-0.2-0.4-0.4-0.7-0.3c-0.6,0.3-0.9,1-0.7,1.7c0.2,1.1,0.7,2.1,1.1,3.2c0.2,0.9,0.4,1.8,0.1,2.8c-0.2,0.7-0.7,1.5-1.3,1.8
	c-0.9,0.4-2.1,0.2-2.9-0.6c-0.7-0.7-1-1.5-1.4-2.4c0,0.6-0.1,1.1-0.1,1.7c-0.1,0.4,0.1,0.9,0.4,1.2C57,44,57.3,44,57.6,44
	c-0.1,0.4-0.2,0.9,0,1.3c0.2,0.6,0.7,0.8,0.9,1.3c0.2,0.5,0.1,1-0.2,1.5c-0.1-0.5-0.1-0.9-0.4-1.3c0,0.6,0.2,1.2,0,1.8
	c-0.1,0.3-0.2,0.6-0.4,0.9c0-0.4-0.1-1-0.5-1.3c0.1,0.6,0.1,1.2-0.2,1.8c1.1,0.1,2.1,0.3,3.2,0.6c0,1.6,0,3.2,0,4.8
	c-3.5-0.9-7.3-1.1-10.8,0c-1.8,0.6-3.6,1.5-5.3,2.3c-1,0.4-2.3,0.7-3.4,0.3c0-0.4,0-0.9,0-1.3c-0.3,0.1-0.6,0.1-0.9,0.2
	c-0.1,0.1-0.3,0.1-0.2,0.2c0,0.7,0,1.3,0,2c-0.5,0.2-1,0.4-1.5,0.6c-1.2,0.3-2.4,0.4-3.7,0.5H31c-1-0.1-2.1-0.2-3.1-0.4
	c-0.7-0.1-1.4-0.3-2-0.7c0-0.7,0-1.4,0-2.1c-0.4-0.1-0.7-0.2-1.2-0.3c0,0.4,0,0.9,0,1.3c-0.9,0.3-1.9,0.2-2.8-0.1
	c-1.5-0.6-2.9-1.3-4.4-2c-1.5-0.6-3.2-1-4.8-1.2c-2.5-0.2-5,0.1-7.5,0.7c0-1.6,0-3.2,0-4.8c1-0.2,2.1-0.5,3.2-0.6
	c-0.2-0.6-0.2-1.2-0.2-1.8c-0.4,0.3-0.4,0.8-0.5,1.3c-0.2-0.3-0.4-0.7-0.5-1.1c-0.1-0.6,0.1-1,0.1-1.6c-0.2,0.4-0.4,0.9-0.4,1.3
	c-0.3-0.4-0.4-1-0.2-1.5c0.1-0.5,0.7-0.7,0.9-1.2c0.2-0.4,0.1-0.9,0-1.3c0.8,0.1,1.5-0.7,1.3-1.5C8.8,42,8.8,41.4,8.8,41
	c-0.4,0.9-0.7,1.8-1.5,2.5c-0.7,0.6-1.8,0.9-2.8,0.4c-0.7-0.4-1.1-1.1-1.3-1.8c-0.3-0.9-0.1-2,0.2-2.9c0.3-1,0.7-1.9,1-2.9
	c-0.1-0.2-0.1-0.8-0.4-1.2c-0.2-0.2-0.4-0.4-0.7-0.4c-0.2,0.1-0.3,0.2-0.4,0.4c0.2,0.2,0.5,0.4,0.6,0.7c0.2,0.7,0.1,1.5-0.6,1.9
	c-0.1-0.3-0.2-0.6-0.3-0.9c0,0.4,0,0.7-0.1,1.1c-0.2,0.7-0.6,1.4-0.6,2.1c-0.6-0.4-0.7-1.1-0.7-1.8c-0.2-0.1-0.4-0.2-0.6-0.3
	c0.2-0.2,0.5-0.4,0.6-0.7c0.1-0.4-0.4-0.6-0.4-0.9c-0.1-0.3,0.1-0.6,0.2-0.9c-0.4-0.2-0.7-0.4-0.9-0.7v-0.1c0.4,0.1,0.8-0.2,1-0.6
	c0.3-0.4,0.7-0.7,1.3-0.7c0.9-0.1,1.8,0.2,2.4,0.9C5.3,35,5.6,36,5.3,36.9c-0.2,1.2-0.9,2.2-1.1,3.4C4,41,4,41.6,4.3,42.2
	c0.2,0.4,0.6,0.9,1.1,0.8c0.6-0.1,1-0.6,1.3-1c0.4-0.8,0.8-1.6,1-2.4C8,38.3,8.3,37.1,8.9,36c0.6-0.1,1-0.2,1.5-0.6
	c0.1,0.4,0.4,0.7,0.6,1c0.4-0.2,0.7-0.4,1-0.7c0.4-0.4,0.4-0.9,0.4-1.4c-0.2,0.4-0.2,0.9-0.6,1.2c-0.2,0.2-0.5,0.4-0.8,0.6
	c-0.2-0.4-0.4-0.7-0.5-1.2c-0.4,0.4-0.9,0.8-1.5,0.9c-0.1,0-0.3,0.1-0.4-0.1c-0.2-0.4-0.2-0.7-0.3-1.1c-0.6,0.2-1.2,0.2-1.8,0.2
	c-0.2-0.6-0.2-1.3-0.1-1.9c-0.8,0.2-1.7,0-2.3-0.6c0.4-0.5,0.8-0.9,1.3-1.3c-0.7,0.1-1.4,0.2-2.1,0c-0.7-0.2-1.3-0.7-1.6-1.3
	c0.9-0.1,1.7-0.4,2.5-0.8c-0.5-0.1-1-0.2-1.4-0.5c-1.1-0.6-2-1.7-2.4-2.8c0.9,0.2,1.8,0.2,2.8,0.1c-0.8-0.3-1.6-0.6-2.1-1.3
	c-0.5-0.6-0.7-1.3-0.7-2c0.6,0.4,1.3,0.7,2,0.7c-0.6-0.8-1.2-1.7-1.5-2.6C1,19.8,1,18.9,1.4,18.1c0.2,1,0.8,1.8,1.6,2.4
	C2.6,19.5,2.3,18.4,2.4,17.3 M13,18.9c0.2,0.2,0.4,0.5,0.7,0.4c0.4,0,0.6-0.3,0.9-0.5c-0.2,0-0.4-0.1-0.6-0.1c0,0.2-0.1,0.4-0.4,0.4
	c-0.2-0.1-0.2-0.2-0.2-0.4C13.2,18.7,13.1,18.7,13,18.9 M50.4,18.7c0.2,0.2,0.5,0.6,0.9,0.6c0.3,0,0.5-0.2,0.7-0.4
	c-0.1-0.1-0.3-0.2-0.4-0.3c0,0.2,0,0.4-0.2,0.4c-0.2,0.1-0.4-0.2-0.3-0.4C50.8,18.7,50.6,18.7,50.4,18.7 M15.7,22.8
	c0.1,0.1,0.1,0.3,0.2,0.4c0.1-0.1,0.2-0.1,0.4-0.1c0,0.1,0.1,0.2,0.1,0.2c-0.4,0.2-0.9,0.4-1.3,0.7c-0.1-0.2-0.3-0.4-0.4-0.7
	c-0.3,0.2-0.6,0.4-0.9,0.6c0.1,0.1,0.2,0.3,0.3,0.4c0.1-0.1,0.3-0.2,0.5-0.3c0,0.1,0.1,0.2,0.1,0.2c-0.4,0.3-0.9,0.6-1.2,1
	c-0.2-0.2-0.3-0.4-0.5-0.6c-0.2,0.2-0.6,0.4-0.8,0.7c0.1,0.1,0.2,0.2,0.4,0.4c0.1-0.1,0.4-0.4,0.5-0.1c-0.4,0.4-0.7,0.7-1,1
	c-0.2-0.2-0.4-0.4-0.6-0.6c-0.2,0.2-0.3,0.4-0.5,0.6c0.1,0.1,0.3,0.2,0.4,0.4c0.1-0.1,0.1-0.2,0.2-0.2c0.1,0.1,0.1,0.1,0.2,0.1
	c-0.1,0.1-0.1,0.2-0.2,0.3c0.3,0.3,0.6,0.6,1,0.9c1.3-1.5,2.9-2.8,4.8-3.7c-0.3-0.7-0.7-1.3-1-2C16.2,22.6,15.9,22.7,15.7,22.8
	 M48.4,22.5c-0.2,0.7-0.7,1.3-0.9,2c1.8,0.9,3.5,2.1,4.8,3.7c0.3-0.3,0.7-0.6,1-0.9c-0.1-0.1-0.1-0.2-0.2-0.2
	c0.1-0.1,0.1-0.1,0.2-0.1c0.1,0.1,0.1,0.2,0.2,0.2c0.1-0.1,0.2-0.2,0.4-0.4c-0.2-0.2-0.3-0.4-0.5-0.6c-0.2,0.2-0.4,0.4-0.6,0.6
	c-0.3-0.4-0.7-0.7-1-1c0-0.1,0.1-0.2,0.1-0.2c0.1,0.1,0.2,0.2,0.4,0.3c0.1-0.1,0.2-0.2,0.4-0.4c-0.2-0.2-0.5-0.5-0.8-0.7
	c-0.2,0.2-0.3,0.4-0.5,0.6c-0.4-0.3-0.8-0.7-1.2-1c0-0.1,0.1-0.2,0.1-0.2c0.1,0.1,0.3,0.2,0.4,0.3c0.1-0.1,0.2-0.3,0.3-0.4
	c-0.2-0.2-0.6-0.4-0.9-0.6c-0.1,0.2-0.3,0.4-0.4,0.7c-0.4-0.2-0.9-0.5-1.3-0.7c0-0.1,0.1-0.1,0.1-0.2c0.1,0.1,0.2,0.1,0.4,0.1
	c0.1-0.1,0.2-0.3,0.2-0.4C48.9,22.7,48.7,22.6,48.4,22.5 M6.1,23.5c0,1,0.6,2,1.3,2.8c-0.2,0.3-0.4,0.6-0.3,1
	c0.1,0.2,0.2,0.4,0.4,0.5C7.2,28.2,7.4,28.9,8,29c-0.2,0.5,0.2,1.1,0.7,1.1c0.1,0.3,0.1,0.7,0.4,0.8C9.3,31,9.6,31,9.8,31
	c0.1,0.2,0.3,0.6,0.6,0.6c0.2,0.1,0.5,0,0.7-0.1c0.2,0.1,0.4,0.4,0.6,0.4c0.4-0.1,0.9-0.4,0.8-0.9c-0.2,0.2-0.4,0.6-0.7,0.5
	c-0.3,0.1-0.6-0.1-0.7-0.4c-0.4,0.3-1,0.2-1.2-0.4c-0.2,0-0.5,0.1-0.7-0.1c-0.2-0.2-0.3-0.4-0.4-0.7c-0.2-0.1-0.4-0.1-0.5-0.2
	c-0.2-0.2-0.2-0.6-0.2-0.9c-0.1-0.1-0.3-0.1-0.4-0.2c-0.2-0.3-0.1-0.7,0-1c-0.1-0.1-0.3-0.1-0.4-0.3c-0.2-0.4,0-0.9,0.4-1.2
	C6.8,25.6,6.4,24.6,6.1,23.5 M57.1,26.3c0.5,0.3,0.6,1.2-0.1,1.5c0.2,0.4,0.2,1.1-0.4,1.2c0.1,0.4-0.1,1.1-0.7,1
	c-0.1,0.5-0.5,1-1,0.8c-0.1,0.2-0.2,0.4-0.4,0.4c-0.3,0.1-0.6,0.1-0.9-0.1c-0.2,0.2-0.4,0.4-0.8,0.4c-0.3,0-0.5-0.2-0.7-0.5
	c-0.1,0.4,0.4,0.8,0.7,0.9c0.2,0.1,0.5-0.2,0.7-0.3c0.2,0.1,0.5,0.2,0.8,0.1c0.3-0.1,0.4-0.4,0.6-0.6c0.2,0.1,0.5,0.1,0.7-0.1
	c0.3-0.2,0.4-0.5,0.4-0.8c0.6,0,0.9-0.6,0.7-1.1c0.2-0.1,0.4-0.2,0.5-0.4c0.2-0.3,0.1-0.6-0.1-0.9c0.2-0.1,0.4-0.3,0.4-0.6
	c0.1-0.4-0.1-0.7-0.3-0.9c0.7-0.7,1.3-1.7,1.3-2.8C58.5,24.6,58,25.6,57.1,26.3 M26.3,28.4c0,0.2,0.2,0.4,0.3,0.6
	c-0.5,0.7-1,1.5-1.5,2.3c-0.1,0.2-0.2,0.4-0.2,0.6c0,0.4,0.2,0.7,0.6,0.9c0.6,0.4,1.4,0.5,2.1,0.4c0.6-0.1,1.1-0.2,1.5-0.7
	c0.2-0.2,0.3-0.6,0.1-0.9c-0.5-0.9-1.1-1.7-1.6-2.5c0.1-0.2,0.2-0.3,0.2-0.5c0.7,0,1.5,0.1,2.1,0.6c0.6-0.5,1.3-0.6,2.1-0.6
	c-0.1,0.4-0.4,0.9-0.6,1.3c0.3,0.4,0.6,0.9,0.9,1.3c0.2-0.5,0.6-0.9,0.9-1.3c-0.2-0.4-0.4-0.8-0.6-1.2c0.7,0,1.5,0.1,2.1,0.6
	c0.6-0.5,1.4-0.6,2.1-0.6c0.1,0.1,0.2,0.3,0.3,0.4c-0.5,0.9-1.1,1.7-1.6,2.6c-0.2,0.4,0.1,0.9,0.4,1c0.7,0.5,1.5,0.6,2.3,0.5
	c0.5-0.1,1-0.2,1.4-0.7c0.2-0.2,0.4-0.7,0.1-0.9c-0.6-0.9-1-1.7-1.6-2.5c0.1-0.2,0.2-0.3,0.3-0.6c0.1-0.4-0.3-0.9-0.8-0.9
	c-0.4,0-0.6,0.2-0.8,0.6c-1.3,0-2.8,0-4.1,0c-0.1-0.2-0.1-0.4-0.4-0.4c-0.3-0.1-0.6,0.2-0.6,0.4c-1.3,0-2.8,0-4.1,0
	c-0.1-0.2-0.4-0.5-0.7-0.6C26.7,27.4,26.2,27.9,26.3,28.4 M14.8,32.6c0.4,0.4,0.9,0.4,1.4,0.4c0.1,0.3,0.2,0.6,0.4,0.8
	c-0.9,0.7-1.8,1.3-2.5,2.2c-0.1,0.1-0.2,0.2-0.1,0.3c0.3,0.9,1.3,1.3,2.1,1.5c0.8,0.1,1.7,0.4,2.2,1c0.6,0.7,0.7,1.8,1.2,2.6
	c0.1,0.2,0.3,0.4,0.5,0.6c-0.7,0-1.3-0.5-1.8-1c0.1,0.4,0.2,0.7,0.5,1c-0.1,0.2-0.1,0.5-0.2,0.7c0.9,0,1.8,0.2,2.6,0.6
	c0.1-0.3,0.1-0.6,0-0.9c-0.2-0.5-0.2-1-0.1-1.5c0.1-0.2,0.3-0.4,0.5-0.4l0.1,0.1c0.1,0.5,0.6,0.6,1,0.6c0.1,0.2,0,0.5-0.1,0.7
	l0.2,0.1c0-0.1,0-0.1,0-0.1l0,0l0.1,0.1c0.1,0,0.2,0,0.3,0c0.1,0.2,0.1,0.6,0.3,0.7c0.2,0.1,0.4,0.1,0.6,0.1
	c0.1,0.2,0.1,0.4,0.1,0.6c-0.1,0.3-0.4,0.5-0.6,0.8c-0.2,0.2-0.1,0.6,0,0.8c-0.2,0.1-0.4,0.1-0.7,0.1c0.1,0.1,0.2,0.3,0.4,0.3
	c0.2-0.1,0.3-0.2,0.5-0.2c0.6,2,1.6,3.9,3,5.3c1.2,1.2,2.6,2.1,4.2,2.8c0-3.2,0-6.3,0-9.4c-2.2,0-4.5,0-6.7,0c0.1-0.4,0-0.7-0.1-1
	c0.4-0.2,0.9-0.4,1.4-0.4c-0.2-0.4-0.7-0.8-1.2-0.8c-0.5,0-0.9,0.2-1.3,0.4c-0.1,0-0.2,0-0.4,0c0-0.2,0-0.4,0-0.7
	c0.1,0,0.2-0.2,0.4-0.2c2.6,0,5.3,0,7.8,0v-7c-2.6,0-5.3,0-8,0c0,0.4-0.1,0.9,0.1,1.3c0.2,0.4,0.3,0.9,0.6,1.3
	c0.3,0.4,0.6,1,0.5,1.5c-0.1,0.3-0.3,0.5-0.5,0.6c-0.1-0.1-0.1-0.3-0.2-0.4c-0.2-0.1-0.5,0.1-0.7,0.2l-0.1,0.1c-0.1,0-0.2,0-0.2-0.1
	v-0.1c0-0.2,0.1-0.4-0.1-0.6c-0.1-0.1-0.4,0-0.6,0V38c-0.3-0.1-0.6-0.4-0.6-0.7c0.1-0.4,0.3-0.7,0.3-1c-0.1-0.2-0.2-0.4-0.4-0.6
	c-0.4-0.1-0.7-0.1-1,0.2c-0.2,0.2-0.4,0.2-0.6,0l0.1-0.1c0.1-0.4-0.1-0.9-0.5-0.8h-0.1c0-0.1,0-0.3,0.1-0.4c0.4-0.2,0.7-0.1,1.2-0.2
	c-0.6-0.6-1.3-1.1-1.9-1.7c0.1,0.7-0.1,1.4-0.5,1.9c-0.5-0.6-1-1.3-1.2-2.1c-0.6,0.2-1.2,0.1-1.6-0.3c-0.2-0.2-0.4-0.6-0.5-0.9
	C14.3,31.8,14.4,32.4,14.8,32.6 M50,32.2c-0.4,0.4-1.1,0.5-1.6,0.3c-0.1,0.8-0.7,1.5-1.2,2.1c-0.5-0.5-0.6-1.2-0.5-1.9
	c-0.6,0.6-1.3,1.1-1.9,1.7c0.4,0.1,0.8,0,1.1,0.2c0.2,0.1,0.2,0.2,0.2,0.4h-0.1c-0.4-0.1-0.7,0.3-0.6,0.6l0.1,0.1v0.1l-0.1,0.1
	c0,0.2-0.2,0.2-0.4,0.1c-0.2-0.2-0.5-0.4-0.8-0.3c-0.4-0.1-0.6,0.4-0.7,0.7c0.1,0.2,0.1,0.6,0.2,0.8c0.2,0.4-0.1,0.8-0.4,0.9
	l-0.1-0.1c-0.2,0-0.4-0.2-0.6,0c-0.1,0.2-0.1,0.4,0,0.6l0.1,0.1l0,0c-0.1,0-0.1,0.1-0.2,0.1h-0.1c-0.2-0.1-0.4-0.3-0.7-0.3
	c-0.2,0.1-0.2,0.3-0.3,0.5c-0.2-0.2-0.4-0.4-0.5-0.6c-0.1-0.5,0.1-1,0.4-1.4c0.2-0.4,0.3-0.8,0.5-1.2c0.3-0.5,0.1-1.1,0.2-1.7
	c-2.6,0-5.3,0-8,0c0,2.3,0,4.5,0,6.8c2.6,0,5.3,0,8,0c0.3,0.2,0.2,0.6,0.2,1c-0.6-0.1-1.1-0.6-1.7-0.5c-0.6,0-0.9,0.4-1.2,0.8
	c0.5,0.1,1,0.1,1.4,0.4c-0.1,0.4-0.1,0.7-0.1,1c-2.2,0-4.5,0-6.7,0c0,3.2,0,6.3,0,9.5c0.9-0.3,1.7-0.7,2.4-1.2
	c2.3-1.6,4-4.1,4.7-6.8c0.2,0.1,0.4,0.2,0.5,0.3c0.1-0.1,0.3-0.2,0.4-0.4c-0.2,0-0.4,0.1-0.6-0.1c0-0.3,0.1-0.7-0.1-0.9
	c-0.3-0.3-0.6-0.7-0.4-1.2c0.2,0,0.4,0,0.6-0.2c0.2-0.2,0.2-0.5,0.3-0.7c0.2,0,0.4,0.1,0.6,0.1c-0.1-0.2-0.1-0.4-0.1-0.6h0.1
	l0.1-0.1c0.2-0.1,0.4-0.1,0.6-0.1c0.2-0.1,0.2-0.3,0.3-0.5v-0.1c0.2,0.1,0.5,0.2,0.6,0.4c0.1,0.5,0.1,1-0.1,1.5
	c-0.1,0.3-0.1,0.6,0,0.9c0.9-0.4,1.7-0.6,2.6-0.6c-0.1-0.2-0.1-0.5-0.2-0.7c0.2-0.3,0.4-0.7,0.5-1c-0.3,0.3-0.6,0.6-1,0.8
	c-0.2,0.2-0.6,0.2-0.9,0.2c0.8-0.7,0.8-1.8,1.3-2.6c0.4-0.9,1.2-1.3,2.1-1.5c0.7-0.1,1.3-0.3,1.9-0.7c0.3-0.2,0.6-0.6,0.6-0.9
	c-0.7-1-1.7-1.7-2.6-2.4c0.1-0.2,0.3-0.6,0.4-0.8c0.5,0,1.1-0.1,1.5-0.5c0.4-0.3,0.4-0.7,0.4-1.2C50.4,31.7,50.3,32,50,32.2
	 M12.2,39.4c0.2,0.8,0.8,1.5,0.7,2.3c-0.6,1-0.9,2.3-0.7,3.5c-0.8-0.1-1.2-0.9-1.5-1.5c-0.1,0.5,0.1,0.9,0.3,1.3
	c-0.2,0.6-0.5,1-0.8,1.5c0,0.7,0.1,1.5,0.7,2c0.4-0.2,0.7-0.5,1.2-0.6c0.3-0.1,0.7,0.1,0.9,0.4c-0.4,0.1-0.5,0.4-0.5,0.7
	c-0.1,0.1-0.3,0.1-0.4,0.3c-0.1,0.2,0.1,0.6,0.2,0.7V50c-0.4,0.2-0.7-0.1-0.9-0.3s-0.6-0.2-0.7,0.1c-0.2,0.3,0,0.7,0.1,1
	c-0.2,0.2-0.5,0.4-0.7,0.2c-0.5-0.2-0.7-0.8-1-1.2c0,0.4,0,0.7,0,1.1c-0.2-0.1-0.4-0.2-0.6-0.4c-1,0.1-2,0.3-3,0.6
	c0,1.3,0,2.6,0,3.9c2-0.4,4-0.7,6-0.6c1.7,0.1,3.4,0.4,4.9,0.9c1.6,0.6,3,1.3,4.5,2c1,0.4,2,0.8,3.1,0.6c0-1.3,0-2.6,0-3.9
	c-0.9,0.2-1.9,0-2.8-0.4c-1.3-0.6-2.6-1.2-3.9-1.8c-1.2-0.4-2.3-0.9-3.5-1v-0.1c0-0.1,0-0.3,0.1-0.4c2.3,0.4,4.3,1.3,6.4,2.3
	c0.9,0.4,1.8,0.8,2.7,0.9c0-0.2,0-0.5,0-0.7c0.1-0.3,0.4-0.5,0.7-0.6c0.9-0.2,1.7,0,2.4,0.4c0.4,0.2,0.7,0.6,0.8,1s0,0.8,0,1.2
	c1.4,0.4,2.8,0.5,4.3,0.6c2.3,0.1,4.5-0.1,6.7-0.6c0.1-0.5-0.1-1,0.1-1.5c0.4-0.7,1.2-1.1,1.9-1.3c0.6-0.1,1.2-0.1,1.7,0.2
	c0.4,0.2,0.3,0.7,0.3,1.2c1.2-0.2,2.3-0.8,3.5-1.3c1.8-0.9,3.6-1.6,5.6-2c0,0.1,0,0.3,0,0.4v0.1c-2.2,0.3-4.3,1.3-6.2,2.3
	c-1.2,0.6-2.6,1.2-4,0.9c0,1.3,0,2.6,0,3.9c1,0.3,2.1-0.1,3.1-0.6c1.4-0.6,2.8-1.3,4.3-1.9c1.8-0.7,3.8-1,5.8-1
	c1.8,0,3.6,0.2,5.4,0.6c0-1.3,0-2.6,0-3.9c-1-0.2-2-0.4-2.9-0.5c-0.2,0.1-0.4,0.2-0.6,0.4c0-0.4,0-0.7,0-1.1c-0.2,0.5-0.5,1-1,1.2
	c-0.2,0.2-0.6,0-0.7-0.2c0.1-0.3,0.3-0.7,0.1-1c-0.2-0.2-0.6-0.2-0.7-0.1c-0.2,0.2-0.5,0.4-0.9,0.3V50c0.1-0.2,0.2-0.5,0.2-0.8
	c0-0.2-0.2-0.2-0.4-0.4c0-0.3-0.1-0.7-0.5-0.7c0.1-0.2,0.4-0.4,0.6-0.4c0.6,0,1,0.4,1.5,0.6c0.6-0.4,0.7-1.2,0.7-1.9
	c-0.3-0.5-0.6-1-0.8-1.5c0.2-0.4,0.4-0.9,0.4-1.3c-0.3,0.7-0.7,1.5-1.5,1.5c0.1-0.7,0.1-1.3-0.1-2c-0.1-0.6-0.4-1.1-0.6-1.6
	c-0.1-1,0.7-1.8,0.7-2.8c0-0.4-0.1-0.7-0.3-1c0,0.6-0.1,1.2-0.4,1.7c-0.1,0.3-0.2,0.7-0.6,0.7c-0.9,0.4-1.7,0.6-2.6,0.7
	c-0.2,1,0.1,2,0.2,3c0,0.3,0,0.7-0.2,0.9c-0.2,0.1-0.6,0.1-0.8,0.4c-0.3,0.4-0.4,1-0.9,1.2c0-0.2,0-0.4,0-0.6c-0.5,0.8-1.5,1-2.4,1
	c0.2-0.2,0.4-0.4,0.5-0.7c-0.3,0.2-0.6,0.4-0.9,0.4c-0.4,0.1-0.9-0.1-1.3-0.3c0.2-0.2,0.4-0.4,0.6-0.7c-0.4,0.2-0.8,0.4-1.2,0.2
	c-0.3-0.1-0.6-0.4-0.7-0.7c-0.6,1.7-1.3,3.4-2.5,4.7c-1.7,2-4.2,3.5-6.8,3.9c-1.5-0.3-3-0.9-4.3-1.8c-2.4-1.6-4.2-4.2-5-6.9
	c-0.2,0.3-0.4,0.7-0.8,0.8c-0.4,0.1-0.8-0.1-1.2-0.2c0.1,0.3,0.3,0.5,0.6,0.7c-0.4,0.2-0.9,0.4-1.3,0.3c-0.3-0.1-0.6-0.2-0.9-0.4
	c0.1,0.2,0.3,0.5,0.5,0.7C19,47,18,46.9,17.6,46c-0.1,0.2,0,0.4,0,0.6c-0.4-0.2-0.6-0.7-0.8-1.1c-0.2-0.3-0.6-0.4-0.9-0.5
	c-0.2-0.2-0.2-0.6-0.2-0.9c0.1-1,0.4-2,0.2-3c-0.9-0.1-1.8-0.4-2.7-0.8c-0.1-0.1-0.2-0.1-0.2-0.2c-0.4-0.7-0.7-1.5-0.6-2.3
	C12.1,38.3,12,38.9,12.2,39.4 M26.1,55.3c0,1.2,0,2.4,0,3.7c0.9,0.4,1.9,0.6,2.9,0.7c2.6,0.4,5.1,0.3,7.7-0.1
	c0.7-0.1,1.4-0.2,2.1-0.6c0-1.2,0-2.4,0-3.7c-1.2,0.4-2.4,0.6-3.6,0.7c-1.9,0.2-3.8,0.2-5.7,0C28.3,55.9,27.2,55.7,26.1,55.3"/>
<path class="st0" d="M18.1,19.8c0.3-0.1,0.5-0.4,0.6-0.7c0.1,0.4,0.2,1-0.2,1.3c-0.5,0.4-1.1,0.2-1.7,0c-0.6-0.2-1.2-0.1-1.7,0.1
	c0.2-0.4,0.6-0.7,1-0.8C16.9,19.7,17.5,20.1,18.1,19.8"/>
<path class="st0" d="M46,19.3L46,19.3c0.2,0.2,0.4,0.5,0.6,0.6c0.7,0.2,1.3-0.2,2,0c0.4,0.1,0.7,0.4,0.9,0.8
	c-0.4-0.1-0.7-0.2-1.1-0.2c-0.6,0-1.1,0.3-1.7,0.2c-0.4,0-0.7-0.2-0.8-0.6C45.9,19.9,46,19.6,46,19.3"/>
<path class="st0" d="M15.8,24c0.2-0.2,0.3,0.1,0.4,0.2c0.2-0.1,0.3-0.2,0.5-0.2c0,0.1,0.1,0.2,0.1,0.2c-0.3,0.2-0.7,0.3-1,0.5
	c0.1,0.1,0.1,0.2,0.2,0.3C16,25,15.9,25,15.8,25.1c-0.1-0.1-0.1-0.2-0.2-0.3c-0.6,0.4-1.1,0.8-1.7,1.2c0.1,0.1,0.2,0.2,0.1,0.4
	c-0.1,0.1-0.2-0.1-0.3-0.2c-0.2,0.2-0.4,0.4-0.6,0.6c0.1,0.1,0.1,0.2,0.2,0.2c-0.1,0.1-0.1,0.1-0.2,0.2c-0.1-0.1-0.1-0.1-0.2-0.2
	c-0.2,0.2-0.4,0.4-0.6,0.6c-0.2-0.1-0.1-0.3,0.1-0.4c-0.1-0.1-0.2-0.2-0.2-0.2c0.1-0.1,0.1-0.1,0.1-0.2c0.1,0.1,0.1,0.1,0.2,0.2
	c0.2-0.2,0.4-0.4,0.6-0.6c-0.1-0.1-0.2-0.2-0.2-0.3C12.9,26,13,26,13,25.9c0.1,0.1,0.2,0.2,0.2,0.3c0.2-0.2,0.5-0.4,0.7-0.6
	c-0.1-0.1-0.1-0.2-0.2-0.3c0.1-0.1,0.1-0.1,0.2-0.1c0.1,0.1,0.2,0.2,0.2,0.2c0.2-0.2,0.4-0.4,0.7-0.5c-0.1-0.1-0.1-0.2-0.2-0.4
	c0.2-0.1,0.3,0.1,0.4,0.2c0.3-0.1,0.6-0.3,0.8-0.4C15.9,24.2,15.9,24.1,15.8,24"/>
<path class="st0" d="M48.9,23.9C48.9,23.9,49,24,49,24c-0.1,0.1-0.1,0.2-0.2,0.3c0.2,0.2,0.5,0.3,0.8,0.5c0.1-0.1,0.1-0.2,0.2-0.3
	c0.1,0.1,0.1,0.1,0.2,0.1c-0.1,0.1-0.1,0.2-0.2,0.3c0.2,0.2,0.5,0.4,0.7,0.6c0.1-0.1,0.1-0.2,0.2-0.2c0.1,0.1,0.1,0.1,0.2,0.1
	c-0.1,0.1-0.2,0.2-0.2,0.3c0.2,0.2,0.4,0.4,0.7,0.6c0.1-0.1,0.2-0.2,0.2-0.3c0.2,0.1,0.1,0.3-0.1,0.5c0.2,0.2,0.4,0.4,0.6,0.6
	c0.1-0.1,0.3-0.2,0.4,0c-0.1,0.1-0.1,0.2-0.2,0.2c0.1,0.1,0.1,0.1,0.2,0.2c-0.1,0.1-0.1,0.1-0.2,0.2c-0.2-0.2-0.4-0.4-0.6-0.6
	c-0.1,0.1-0.2,0.3-0.3,0.2c-0.1-0.1,0.1-0.2,0.2-0.3c-0.2-0.2-0.4-0.4-0.7-0.6c-0.1,0.1-0.1,0.2-0.2,0.2c-0.1-0.1-0.1-0.1-0.2-0.2
	c0.1-0.1,0.1-0.2,0.2-0.3c-0.6-0.4-1.1-0.9-1.7-1.2c-0.1,0.1-0.1,0.2-0.1,0.3c-0.1,0-0.2-0.1-0.2-0.1c0.1-0.1,0.1-0.2,0.1-0.3
	c-0.3-0.2-0.7-0.4-1-0.5c0.1-0.4,0.4-0.1,0.6,0.1C48.7,24.1,48.8,24,48.9,23.9"/>
<path class="st0" d="M39.6,24.5c0.6-0.1,1.2-0.1,1.8-0.1c1.1-0.1,2.1,0.5,2.9,1.1c-0.3,0.4-0.6,0.7-0.9,1.1
	c-0.2-0.2-0.4-0.4-0.6-0.6c0-0.3,0-0.6,0-0.9c-1.3,0-2.7,0-4,0C39.1,24.9,39.3,24.6,39.6,24.5"/>
<path class="st0" d="M20.5,25.5c0.8-0.6,1.7-1.1,2.7-1.1c0.6,0,1.2,0.1,1.8,0.1c0.4,0,0.7,0.4,1,0.7c-1.3,0-2.7,0-4,0
	c0,0.3,0,0.6,0,0.9c-0.2,0.1-0.5,0.4-0.7,0.6C21.1,26.2,20.8,25.9,20.5,25.5"/>
<path class="st0" d="M26.9,27.9c0.2-0.1,0.6,0.1,0.5,0.4c0.1,0.3-0.3,0.4-0.6,0.3S26.6,28,26.9,27.9"/>
<path class="st0" d="M25.6,31c0.4-0.7,0.9-1.3,1.3-2c0,0.6,0,1.2,0,1.8C26.4,30.9,26,31,25.6,31"/>
<path class="st0" d="M27.2,29c0.5,0.6,0.9,1.3,1.3,2c-0.4-0.1-0.9-0.1-1.3-0.1C27.2,30.3,27.2,29.7,27.2,29"/>
<path class="st0" d="M25.7,31.3c0.4-0.1,0.9-0.1,1.2-0.1c0,0.2,0,0.4,0,0.7c-0.6-0.1-1.2,0-1.7-0.3C25.3,31.4,25.5,31.3,25.7,31.3"
	/>
<path class="st0" d="M27.2,31.2c0.5,0,0.9,0.1,1.4,0.2c0.1,0,0.2,0.1,0.2,0.2c-0.5,0.3-1.1,0.3-1.7,0.3
	C27.2,31.7,27.2,31.4,27.2,31.2"/>
<g>
	<path class="st0" d="M37.7,28c0.2-0.1,0.5,0,0.5,0.2c0.1,0.3-0.2,0.6-0.5,0.4C37.3,28.5,37.3,28.1,37.7,28"/>
	<path class="st0" d="M36.3,31c0.4-0.7,0.9-1.3,1.3-2c0,0.6,0,1.2,0,1.8C37.2,30.9,36.7,31,36.3,31"/>
	<path class="st0" d="M38,29c0.5,0.6,0.9,1.3,1.3,2c-0.4-0.1-0.9-0.1-1.3-0.1C38,30.3,38,29.7,38,29"/>
	<path class="st0" d="M36.4,31.3c0.4-0.1,0.8-0.1,1.2-0.1v0.7c-0.6-0.1-1.2,0-1.7-0.3C36.1,31.4,36.2,31.3,36.4,31.3"/>
	<path class="st0" d="M38,31.2c0.4,0,0.9,0.1,1.3,0.2c0.1,0,0.2,0.1,0.3,0.2c-0.5,0.2-1.1,0.2-1.7,0.2V31.2z"/>
</g>
<path class="st0" d="M26.6,35.2c0.1-0.3,0.2-0.6,0.4-0.8c0.4,0.2,0.4,0.6,0.5,1c0.1,0.8,0,1.5,0.1,2.3c0.3-0.1,0.6-0.2,0.9-0.3
	c0,0.3,0,0.6,0,1c-0.3,0.1-0.6,0.2-0.9,0.2c-0.1,0.2-0.1,0.5,0,0.7c0.1,0.3-0.1,0.6-0.4,0.7c-0.3,0.1-0.7-0.3-0.6-0.6
	c0.1-0.2,0.1-0.6,0-0.8c-0.3-0.1-0.6-0.1-0.9-0.3c0-0.3,0-0.6,0-0.9c0.3,0.1,0.6,0.2,0.9,0.3C26.6,36.9,26.5,36.1,26.6,35.2"/>
<path class="st0" d="M18.5,35.4c0.1-0.1,0.2-0.2,0.3-0.2h0.1H19c0.2,0.2,0.2,0.4,0.2,0.6v0.1c-0.2,0.3-0.5,0.6-0.6,1
	C18.4,36.3,18.3,35.8,18.5,35.4"/>
<path class="st0" d="M45.6,35.6c0.1-0.2,0.1-0.6,0.4-0.6H46c0.1,0.1,0.2,0.1,0.3,0.3c0.1,0.4,0,0.9-0.1,1.3
	C46.2,36.3,45.9,36,45.6,35.6L45.6,35.6z"/>
<path class="st0" d="M21.7,38L21.7,38c0.1-0.1,0.1,0,0.2,0c0.2,0.1,0.2,0.3,0.2,0.5v0.1c-0.3,0.6-1,0.6-1.5,0.3
	C21,38.8,21.3,38.4,21.7,38"/>
<path class="st0" d="M42.9,38.1c0.1-0.1,0.2-0.1,0.3-0.1l0.1,0.1c0.3,0.4,0.7,0.7,1.2,0.9c-0.3,0.1-0.6,0.2-0.9,0.1
	c-0.3-0.1-0.5-0.2-0.7-0.4l0,0C42.8,38.4,42.8,38.3,42.9,38.1"/>
<path class="st0" d="M22.5,38.6c0.2,0,0.6-0.1,0.7,0.2c0.1,0.4-0.4,0.7-0.7,0.9h-0.1c-0.1,0-0.3,0-0.4,0c0.2-0.3,0.4-0.7,0.5-1
	C22.5,38.7,22.5,38.6,22.5,38.6"/>
<path class="st0" d="M41.8,38.6c0.2-0.1,0.4,0,0.6,0.1v0.1c0.1,0.4,0.2,0.7,0.4,0.9c-0.1,0-0.2,0-0.4,0.1h-0.1
	c-0.3-0.1-0.6-0.2-0.7-0.6C41.6,39,41.6,38.7,41.8,38.6"/>
<path class="st0" d="M21.6,40.6c0.2-0.4,0.6-0.6,0.9-0.7h0.1c0.3,0.1,0.6,0.1,0.9,0.3c-0.3,0.1-0.6,0.3-0.9,0.6v0.1
	c0,0.1,0,0.1,0,0.1l0,0c-0.3,0.4-0.7,0.1-1-0.2V40.6z"/>
<path class="st0" d="M41.4,40.2c0.3-0.2,0.6-0.3,1-0.3h0.1c0.3,0.2,0.7,0.3,0.8,0.7v0.1c-0.2,0.2-0.4,0.4-0.7,0.4v0
	C42.3,40.6,41.9,40.3,41.4,40.2"/>
<path class="st0" d="M23.2,41.8c0.6-0.5,1.4-0.4,1.9,0.1c-0.4,0-0.8,0.1-1.1,0.3c-0.2,0.1-0.3,0.3-0.5,0.3
	C23.3,42.4,23,42,23.2,41.8"/>
<path class="st0" d="M39.7,41.9c0.5-0.6,1.4-0.6,1.9-0.1c0.1,0.2-0.1,0.6-0.3,0.7c-0.2,0.1-0.3-0.1-0.4-0.2
	C40.6,42,40.2,41.9,39.7,41.9"/>
<path class="st0" d="M23.5,44.6c0.1-0.2,0-0.6,0.2-0.8c0.6-0.1,1.1,0.4,1.3,0.9C24.6,44.6,24.1,44.4,23.5,44.6"/>
<path class="st0" d="M39.7,44.7c0.2-0.4,0.6-0.9,1-0.9c0.1,0,0.4-0.1,0.4,0.1c0.1,0.2,0.1,0.4,0.1,0.7
	C40.8,44.5,40.3,44.6,39.7,44.7"/>
<path class="st0" d="M12.7,49.1c0.1-0.2,0.1-0.6,0.4-0.7c0.6,0.2,0.9,0.8,1,1.4C13.7,49.5,13.2,49.3,12.7,49.1"/>
<path class="st0" d="M50.8,49.8c0.1-0.6,0.4-1.1,1-1.3c0.4,0,0.4,0.4,0.4,0.7C51.7,49.3,51.2,49.5,50.8,49.8"/>
<path class="st0" d="M12.4,49.3c0.2-0.1,0.4,0,0.6,0.1c0.4,0.3,0.6,0.8,0.6,1.3h-0.1c-0.3-0.3-0.6-0.5-1-0.6v-0.1
	C12.4,49.8,12.3,49.5,12.4,49.3"/>
<path class="st0" d="M52,49.3c0.1-0.1,0.3-0.2,0.4,0c0.1,0.2,0.1,0.5-0.1,0.7c-0.1,0-0.1,0.1-0.2,0.1v0.1c-0.3,0.1-0.6,0.3-0.9,0.5
	h-0.1C51.3,50.1,51.5,49.6,52,49.3"/>
<path class="st0" d="M10.8,50.6c-0.1-0.2,0-0.5,0.2-0.6c0.3-0.1,0.6,0.1,0.8,0.3c0.2,0.4,0.3,0.9,0.3,1.3c-0.2-0.2-0.4-0.4-0.7-0.6
	C11.1,51,10.8,50.9,10.8,50.6"/>
<path class="st0" d="M53.2,50.2c0.2-0.2,0.7-0.4,0.9,0c0.1,0.3-0.1,0.7-0.4,0.8c-0.3,0.2-0.6,0.4-0.9,0.7
	C52.8,51.2,52.9,50.6,53.2,50.2"/>
<path class="st0" d="M9.7,51.6c0.2,0,0.4,0,0.6-0.1c-0.1,0.5-0.1,1-0.1,1.5c0,0.2,0,0.5,0.1,0.7c-0.2,0-0.4,0-0.6,0
	c0.1-0.5,0.1-1,0.1-1.5C9.9,52,9.8,51.8,9.7,51.6"/>
<path class="st0" d="M54.2,51.6c0.2,0,0.4,0,0.6,0c-0.1,0.2-0.1,0.4-0.1,0.6c0,0.6-0.1,1.1,0.1,1.7c-0.2,0-0.4,0-0.6-0.1
	c-0.2,0-0.5,0.1-0.7,0.1c-0.2-0.1-0.5-0.3-0.6-0.6c-0.1-0.6,0.1-1.1-0.1-1.7c0.2,0,0.4,0,0.6,0c-0.1,0.5-0.1,1-0.1,1.5
	c0,0.2,0.3,0.4,0.6,0.4c0.2-0.1,0.4-0.2,0.4-0.5C54.3,52.6,54.4,52.1,54.2,51.6"/>
<path class="st0" d="M11.7,51.9c0.4-0.4,1-0.4,1.5-0.2c0,0.2,0,0.4,0,0.5c-0.3-0.2-0.7-0.4-1-0.2c-0.5,0.2-0.4,1.1,0.1,1.3
	c0.3,0.2,0.7,0.1,1-0.1c0,0.2,0,0.3-0.1,0.5c-0.5,0.2-1,0.2-1.5-0.2C11.2,53.2,11.1,52.3,11.7,51.9"/>
<path class="st0" d="M55.7,51.6c0.2,0,0.4,0,0.7,0.1c0.2,0.4,0.5,0.7,0.7,1c0.2-0.2,0.5-0.6,0.7-0.9c0.2,0,0.4,0.1,0.6,0.1
	c-0.2,0.2-0.2,0.7-0.2,1c0,0.4-0.1,0.8,0.1,1.2c-0.2-0.1-0.4-0.1-0.7-0.1c0.1-0.4,0.1-0.9,0.1-1.3c-0.2,0.2-0.4,0.5-0.6,0.7
	c-0.2-0.3-0.4-0.6-0.6-0.9c0,0.5-0.1,1,0.1,1.4c-0.2,0-0.5,0-0.7-0.1c0.2-0.6,0.1-1.3,0.1-1.9C55.8,51.9,55.7,51.7,55.7,51.6"/>
<path class="st0" d="M7.1,51.9c0.4-0.1,1-0.2,1.4,0.1c0.5,0.4,0.4,1.3-0.1,1.7C8,54,7.6,54,7.2,54.1c0.1-0.5,0.1-0.9,0.1-1.4
	C7.2,52.4,7.2,52.1,7.1,51.9 M7.7,52.1c0,0.6,0,1,0,1.6c0.4-0.2,0.9-0.7,0.6-1.2C8.2,52.2,7.9,52.2,7.7,52.1"/>
<path class="st0" d="M50.3,52c0.6-0.1,1.2-0.2,1.8-0.2c-0.1,0.2-0.1,0.3-0.2,0.5c-0.2,0-0.4-0.1-0.6-0.1c0.1,0.6-0.1,1.3,0.1,1.9
	c-0.2,0-0.4,0.1-0.6,0.1c0.1-0.6,0.1-1.3,0.1-1.9c-0.2,0.1-0.5,0.2-0.7,0.3C50.1,52.4,50.2,52.2,50.3,52"/>
<path class="st0" d="M14.1,51.9c0.6,0.1,1.2,0.2,1.8,0.3c-0.1,0.1-0.1,0.3-0.2,0.4c-0.2-0.1-0.4-0.2-0.6-0.2c0,0.6-0.1,1.3,0.1,2
	c-0.2-0.1-0.4-0.1-0.6-0.1c0.1-0.6,0.1-1.3,0.1-1.9c-0.2,0-0.5,0.1-0.7,0.1C14,52.2,14.1,52,14.1,51.9"/>
<path class="st0" d="M47.5,53.3c0.2-0.7,0.9-1.1,1.6-1c0,0.2,0.1,0.3,0.1,0.5c-0.4-0.1-0.9-0.1-1.1,0.3c-0.3,0.4-0.3,1,0.2,1.2
	c0.4,0.1,0.8-0.2,1.1-0.5c0,0.2,0,0.4,0,0.6c-0.4,0.3-1,0.6-1.5,0.3C47.4,54.4,47.3,53.8,47.5,53.3"/>
<path class="st0" d="M16.7,52.6c0.2,0.1,0.4,0.1,0.6,0.2c-0.1,0.6-0.1,1,0,1.6c0.1,0.3,0.6,0.7,0.9,0.4c0-0.6,0.1-1.2-0.1-1.7
	c0.2,0.1,0.4,0.2,0.6,0.2c-0.1,0.7-0.1,1.5,0,2.3c-0.2-0.1-0.5-0.1-0.6-0.4c-0.6,0.1-1.2-0.2-1.3-0.8C16.7,53.8,16.9,53.2,16.7,52.6
	"/>
<path class="st0" d="M45.7,53.3c0.5,0.6,0.9,1.3,1.4,1.8c-0.2,0.1-0.4,0.2-0.6,0.2c-0.1-0.1-0.1-0.2-0.1-0.4
	c-0.3,0.1-0.6,0.2-0.9,0.4c-0.1,0.1-0.1,0.2-0.1,0.4c-0.2,0.1-0.5,0.2-0.7,0.3C45.1,55.2,45.2,54.2,45.7,53.3 M45.6,54.9
	c0.2-0.1,0.3-0.1,0.5-0.2c-0.1-0.1-0.2-0.3-0.3-0.4C45.7,54.4,45.6,54.7,45.6,54.9"/>
<path class="st0" d="M19.5,53.7c0.2,0.1,0.4,0.1,0.7,0.2c0.2,0.4,0.5,0.8,0.7,1.2c0.2-0.2,0.6-0.4,0.7-0.7c0.2,0.1,0.4,0.1,0.6,0.2
	C22,54.9,21.9,55,22,55.2c0,0.6-0.1,1.2,0.1,1.7c-0.2-0.1-0.4-0.2-0.7-0.3c0.2-0.4,0.1-0.9,0.1-1.3c-0.2,0.1-0.4,0.3-0.6,0.5
	c-0.2-0.3-0.4-0.7-0.6-1c0,0.4-0.1,0.9,0.1,1.3C20.2,56.1,20,56,19.8,56c0.2-0.6,0.1-1.3,0.1-1.9C19.7,54,19.5,53.8,19.5,53.7"/>
<path class="st0" d="M42.7,54.6c0.4-0.2,0.8-0.4,1.2-0.3c0.2,0.1,0.4,0.4,0.3,0.6c-0.1,0.5-0.6,0.7-1,0.9c0,0.2,0,0.6,0.1,0.8
	c-0.2,0.1-0.4,0.2-0.6,0.2C42.9,56.1,43,55.3,42.7,54.6 M43.3,54.7c0,0.2,0,0.5,0,0.7c0.3-0.1,0.7-0.4,0.6-0.7
	C43.7,54.5,43.5,54.6,43.3,54.7"/>
<path class="st0" d="M27.1,56.4c0.2,0.1,0.4,0.1,0.7,0.1c0.2,0.4,0.5,0.7,0.7,1.1c0.2-0.2,0.5-0.6,0.7-0.8c0.2-0.1,0.4,0,0.6,0
	c-0.3,0.4-0.2,0.8-0.2,1.2c0,0.4,0,0.7,0.1,1c-0.2,0-0.4-0.1-0.7-0.1c0.2-0.4,0.1-0.9,0.1-1.3c-0.2,0.2-0.4,0.4-0.7,0.7
	c-0.2-0.3-0.4-0.6-0.6-0.9c0,0.4-0.1,0.9,0.1,1.3c-0.2-0.1-0.4-0.1-0.7-0.1c0.1-0.6,0.1-1.2,0.1-1.7C27.5,56.7,27.2,56.6,27.1,56.4"
	/>
<path class="st0" d="M37.2,56.5c0.2-0.1,0.4-0.1,0.6-0.1c-0.3,0.4-0.2,0.9-0.2,1.3c0,0.3,0,0.7,0.1,1c-0.2,0.1-0.4,0.1-0.7,0.1
	c0.2-0.4,0.1-0.9,0.1-1.3c-0.2,0.2-0.4,0.6-0.6,0.8c-0.2-0.2-0.4-0.4-0.7-0.7c0,0.5-0.1,0.9,0.1,1.4c-0.2,0-0.4,0.1-0.7,0.1
	c0.2-0.6,0.1-1.3,0.1-1.9c-0.1-0.1-0.2-0.2-0.3-0.3c0.2,0,0.4,0,0.7-0.1c0.2,0.3,0.5,0.6,0.7,0.8C36.7,57.2,37,56.9,37.2,56.5"/>
<path class="st0" d="M33.9,56.9c0.2,0,0.4-0.1,0.6-0.1c-0.1,0.7-0.1,1.5,0,2.3c-0.2,0-0.4,0.1-0.6-0.1c-0.2,0.1-0.6,0.2-0.8,0.1
	c-0.2-0.1-0.4-0.3-0.4-0.6c-0.1-0.6,0.1-1.1-0.1-1.7c0.2,0,0.4,0,0.6,0c-0.1,0.5-0.1,1-0.1,1.5c0.1,0.4,0.7,0.5,0.9,0.1
	C34,58,34,57.5,33.9,56.9"/>
<path class="st0" d="M30.4,56.9c0.4,0.1,0.9,0.1,1.3,0.1c-0.1,0.2-0.1,0.3-0.2,0.5c-0.2-0.1-0.4-0.1-0.6-0.2c0,0.2,0,0.4,0,0.6
	c0.2,0,0.5,0,0.7,0.1c-0.1,0.1-0.2,0.2-0.2,0.4c-0.2,0-0.3-0.1-0.5-0.1c0,0.2,0,0.4,0,0.6c0.3,0,0.6-0.1,0.9-0.1
	c-0.1,0.2-0.1,0.4-0.2,0.5c-0.4,0-0.9-0.1-1.2-0.1c0.1-0.5,0.1-1,0.1-1.5C30.6,57.4,30.5,57.1,30.4,56.9"/>
</svg>
