<?xml version="1.0" encoding="utf-8"?>
<!-- Generator: Adobe Illustrator 16.0.2, SVG Export Plug-In . SVG Version: 6.00 Build 0)  -->
<!DOCTYPE svg PUBLIC "-//W3C//DTD SVG 1.1//EN" "http://www.w3.org/Graphics/SVG/1.1/DTD/svg11.dtd">
<svg version="1.1" id="Layer_1" xmlns="http://www.w3.org/2000/svg" xmlns:xlink="http://www.w3.org/1999/xlink" x="0px" y="0px"
	 width="64px" height="64.051px" viewBox="288.079 287.642 64 64.051" enable-background="new 288.079 287.642 64 64.051"
	 xml:space="preserve">
<linearGradient id="SVGID_1_" gradientUnits="userSpaceOnUse" x1="320.0786" y1="287.6416" x2="320.0786" y2="351.6929">
	<stop  offset="0" style="stop-color:#234930"/>
	<stop  offset="1" style="stop-color:#83B645"/>
</linearGradient>
<path fill="url(#SVGID_1_)" d="M351.116,295.106c-0.926-2.91-2.18-4.994-2.233-5.082c-0.205-0.339-0.629-0.515-1.013-0.427
	c-0.099,0.022-2.467,0.575-5.199,1.94c-3.688,1.841-6.264,4.299-7.451,7.107c-0.988,2.339-1.13,5.198-0.429,8.356
	c-1.493-1.667-3.172-3.126-5.003-4.354c-0.559-1.104-2.037-3.823-4.348-6.665c-0.761-0.936-2.225,0.239-1.456,1.184
	c1.557,1.915,2.729,3.799,3.462,5.093l-8.547-1.667l-8.121-11.076c0.789,0.011,1.58,0.087,2.367,0.242
	c2.496,0.489,4.962,1.76,7.33,3.778c0.928,0.791,2.133-0.648,1.217-1.428c-2.616-2.229-5.37-3.64-8.187-4.191
	c-4.299-0.841-9.313,0.263-14.501,3.195c-3.867,2.186-6.453,4.586-6.561,4.687c-0.346,0.323-0.401,0.91-0.112,1.288
	c0.379,0.778,1.816,3.584,4.208,6.606c1.41,1.781,2.897,3.306,4.436,4.559c-0.437,0.366-0.862,0.75-1.274,1.152
	c-2.199,2.151-3.882,4.688-4.987,7.461c-0.977,2.45-1.502,5.086-1.532,7.803c-0.048,4.443,1.239,8.728,3.724,12.393
	c2.427,3.58,5.82,6.328,9.813,7.947c1.118,0.452,1.824-1.285,0.706-1.738c-1.447-0.587-2.806-1.339-4.059-2.233
	c0.161-0.889,0.532-4.088-1.593-7.4c-0.298-0.463,0.592-2.283,1.123-3.37c0.548-1.12,1.114-2.278,1.378-3.368
	c0.281-1.159-0.035-2.131-0.913-2.813c-0.645-0.5-1.488-0.76-2.231-0.989c-0.482-0.148-1.03-0.316-1.226-0.479
	c-0.402-0.337-1.06-1.584-1.588-2.585c-0.586-1.11-1.145-2.167-1.715-2.818c1.283-3.046,3.343-5.742,5.923-7.804
	c2.357,1.606,5.047,2.714,7.907,2.938c-3.316,2.569-4.389,5.851-2.855,9.002c1.791,3.68,5.476,3.092,8.727,2.574
	c0.563-0.09,1.145-0.183,1.702-0.252c0.209-0.026,0.272,0.031,0.314,0.068c0.712,0.633,0.691,3.658,0.675,5.867
	c-0.021,3.055-0.04,5.941,1.098,7.423c0.581,0.755,1.398,1.141,2.356,1.141c0.574,0,1.198-0.138,1.853-0.419
	c2.83-1.212,5.772-4.859,5.323-7.745c-0.392-2.523-0.652-4.19-0.04-5.534c0.566-1.244,1.933-2.395,4.626-3.864
	c0.323,1.453,0.485,2.963,0.468,4.514c-0.058,5.291-2.172,10.243-5.955,13.943c-4.227,4.135-10.168,6.178-16.045,5.53
	c-1.197-0.13-1.404,1.733-0.205,1.866c6.433,0.708,12.937-1.528,17.563-6.054c4.141-4.051,6.456-9.472,6.519-15.265
	c0.083-7.681-3.857-14.485-9.856-18.405c1.239-0.884,2.163-1.648,2.675-2.092c2.188,1.569,4.128,3.502,5.742,5.755
	c3.875,5.408,5.412,12,4.328,18.564c-2.238,13.549-15.082,22.753-28.633,20.514c-6.564-1.084-12.313-4.658-16.188-10.066
	c-3.875-5.407-5.412-12-4.328-18.564c0.195-1.181-1.655-1.491-1.851-0.306c-1.166,7.058,0.487,14.148,4.653,19.963
	c4.167,5.815,10.35,9.659,17.408,10.826c1.476,0.243,2.954,0.363,4.421,0.363c5.547,0,10.944-1.723,15.542-5.018
	c5.816-4.167,9.661-10.349,10.826-17.407c0.854-5.172,0.193-10.361-1.86-15.053c0.948-0.279,2.561-0.822,4.326-1.704
	c3.688-1.841,6.265-4.299,7.451-7.107C352.399,302.594,352.366,299.034,351.116,295.106z M296.656,320.907
	c0.698,1.324,1.358,2.575,2.044,3.148c0.486,0.406,1.163,0.614,1.878,0.834c1.834,0.563,2.047,0.84,1.871,1.565
	c-0.216,0.892-0.737,1.957-1.24,2.986c-0.969,1.982-1.884,3.854-1.017,5.207c1.23,1.917,1.441,3.805,1.42,4.979
	c-5.589-5.04-7.864-12.999-5.783-20.234C296.106,319.866,296.396,320.416,296.656,320.907z M342.054,302.467l-2.667-6.462
	c1.298-1.213,2.803-2.126,4.085-2.77c1.093-0.548,2.132-0.958,2.966-1.248L342.054,302.467z M348.167,292.715
	c0.372,0.8,0.805,1.833,1.174,3c0.404,1.28,0.775,2.868,0.85,4.523l-6.249,2.578L348.167,292.715z M336.948,299.376
	c0.277-0.655,0.634-1.261,1.048-1.822l3.036,7.355l-2.724,6.514c-0.383-0.812-0.833-1.878-1.216-3.09
	C336.324,305.908,335.677,302.384,336.948,299.376z M342.96,310.813c-1.052,0.528-2.055,0.927-2.872,1.215l2.827-6.758l7.195-2.969
	c-0.104,0.806-0.303,1.605-0.627,2.372C348.212,307.681,345.234,309.673,342.96,310.813z M309.125,310.279
	c-0.332-0.065-0.659-0.145-0.981-0.235l10.385-7.612l8.551,1.667C323.965,306.553,316.384,311.701,309.125,310.279z
	 M299.634,304.408c-2.221-2.394-3.849-4.953-4.783-6.592l10.881,2.122L299.634,304.408z M301.556,291.889l4.553,6.21l-10.952-2.135
	C296.536,294.876,298.812,293.241,301.556,291.889z M308.824,298.629l-5.52-7.529c1.652-0.679,3.426-1.213,5.244-1.451l7.636,10.415
	L308.824,298.629z M308.24,300.427l7.782,1.517l-9.988,7.321c-1.884-0.87-3.579-2.121-5.062-3.511L308.24,300.427z M333.701,318.75
	c-3.383,1.802-5.039,3.218-5.825,4.944c-0.844,1.854-0.535,3.845-0.106,6.599c0.253,1.625-1.678,4.649-4.207,5.732
	c-0.936,0.401-1.603,0.353-1.982-0.141c-0.746-0.97-0.725-3.907-0.709-6.267c0.022-3.264,0.042-6.083-1.305-7.281
	c-0.484-0.431-1.104-0.613-1.792-0.529c-0.59,0.074-1.188,0.169-1.767,0.261c-3.449,0.55-5.62,0.77-6.744-1.542
	c-1.822-3.744,1.866-6.517,3.536-7.536c0.34-0.207,0.656-0.452,0.949-0.724c4.037-0.482,7.851-2.214,11.25-4.383
	C329.072,310.319,332.2,314.172,333.701,318.75z"/>
</svg>
