<?xml version="1.0" encoding="utf-8"?>
<!-- Generator: Adobe Illustrator 16.0.2, SVG Export Plug-In . SVG Version: 6.00 Build 0)  -->
<!DOCTYPE svg PUBLIC "-//W3C//DTD SVG 1.1//EN" "http://www.w3.org/Graphics/SVG/1.1/DTD/svg11.dtd">
<svg version="1.1" id="Capa_1" xmlns="http://www.w3.org/2000/svg" xmlns:xlink="http://www.w3.org/1999/xlink" x="0px" y="0px"
	 width="64px" height="64px" viewBox="274 364 64 64" enable-background="new 274 364 64 64" xml:space="preserve">
<g>
	<g>
		<linearGradient id="SVGID_1_" gradientUnits="userSpaceOnUse" x1="305.9995" y1="364" x2="305.9995" y2="428.0005">
			<stop  offset="0" style="stop-color:#234930"/>
			<stop  offset="1" style="stop-color:#83B645"/>
		</linearGradient>
		<path fill="url(#SVGID_1_)" d="M338,396c0-17.645-14.355-32-32-32c-5.532,0-10.921,1.433-15.7,4.129h-3.913V364h-6.194v13.096
			C276.147,382.608,274,389.132,274,396c0,17.646,14.355,32,32,32c3.932,0,7.77-0.707,11.408-2.097
			c2.077,1.32,4.534,2.097,7.173,2.097c3.218,0,6.331-1.157,8.766-3.258l-1.35-1.563c-2.059,1.777-4.692,2.756-7.416,2.756
			c-6.261,0-11.355-5.094-11.355-11.354s5.095-11.355,11.355-11.355s11.354,5.095,11.354,11.355c0,2.616-0.865,5.076-2.503,7.113
			l1.609,1.294c1.907-2.373,2.958-5.358,2.958-8.407c0-2.641-0.777-5.098-2.099-7.176C337.29,403.766,338,399.932,338,396z
			 M290.516,374.323h2.064v2.064v12.387h-2.064V374.323z M286.387,370.193h2.064v2.064v16.517h-2.064V370.193z M282.258,366.064
			h2.065v2.064v20.646h-2.065V366.064z M304.968,425.91c-15.686-0.536-28.342-13.191-28.877-28.878h28.877V425.91z M304.968,394.968
			h-28.862c0.168-5.025,1.564-9.827,4.087-14.108v9.979h4.129h2.064h2.064h2.064h2.064h2.064h2.064h2.065h4.129v-10.323h-4.129
			v-4.129h-4.129v-4.129h-4.129v-1.866c4.368-2.646,9.331-4.115,14.452-4.291V394.968z M294.645,388.774v-10.323h2.064v2.064v8.258
			H294.645z M298.774,388.774v-6.194h2.064v6.194H298.774z M335.91,394.968h-8.838l7.592-7.591
			C335.393,389.793,335.82,392.337,335.91,394.968z M330.708,379.123l-11.529,11.529l1.46,1.459l11.2-11.2
			c0.801,1.367,1.495,2.801,2.075,4.295l-9.761,9.761h-6.371l1.335-1.335l-1.46-1.459l-2.794,2.794h-6.371l19.378-19.378
			C328.9,376.694,329.852,377.873,330.708,379.123z M307.032,366.09c2.63,0.09,5.175,0.517,7.591,1.246l-7.591,7.591V366.09z
			 M307.032,387.137l12.545-12.545l-1.46-1.459l-11.085,11.085v-6.371l9.761-9.761c1.494,0.579,2.929,1.274,4.296,2.076
			l-1.663,1.663l1.459,1.459l1.992-1.992c1.25,0.856,2.43,1.806,3.534,2.837l-19.379,19.379V387.137z M324.581,401.161
			c-7.399,0-13.42,6.021-13.42,13.42c0,3.882,1.667,7.373,4.311,9.825c-2.72,0.908-5.549,1.408-8.439,1.506v-28.88h28.88
			c-0.098,2.89-0.603,5.717-1.509,8.437C331.951,402.826,328.461,401.161,324.581,401.161z"/>
	</g>
</g>
<g>
	<g>
		<linearGradient id="SVGID_2_" gradientUnits="userSpaceOnUse" x1="293.6177" y1="401.4629" x2="293.6177" y2="415.3105">
			<stop  offset="0" style="stop-color:#234930"/>
			<stop  offset="1" style="stop-color:#83B645"/>
		</linearGradient>
		<polygon fill="url(#SVGID_2_)" points="286.694,413.851 299.081,401.463 300.541,402.923 288.154,415.311 		"/>
	</g>
</g>
<g>
	<g>
		<linearGradient id="SVGID_3_" gradientUnits="userSpaceOnUse" x1="297.7417" y1="409.4189" x2="297.7417" y2="415.6133">
			<stop  offset="0" style="stop-color:#234930"/>
			<stop  offset="1" style="stop-color:#83B645"/>
		</linearGradient>
		<path fill="url(#SVGID_3_)" d="M297.742,409.419c-1.708,0-3.097,1.39-3.097,3.097c0,1.708,1.39,3.098,3.097,3.098
			c1.707,0,3.097-1.39,3.097-3.098C300.839,410.809,299.449,409.419,297.742,409.419z M297.742,413.549
			c-0.569,0-1.033-0.463-1.033-1.033c0-0.569,0.464-1.032,1.033-1.032c0.568,0,1.032,0.463,1.032,1.032
			C298.774,413.086,298.311,413.549,297.742,413.549z"/>
	</g>
</g>
<g>
	<g>
		<linearGradient id="SVGID_4_" gradientUnits="userSpaceOnUse" x1="289.4839" y1="401.1611" x2="289.4839" y2="407.3545">
			<stop  offset="0" style="stop-color:#234930"/>
			<stop  offset="1" style="stop-color:#83B645"/>
		</linearGradient>
		<path fill="url(#SVGID_4_)" d="M289.484,401.161c-1.708,0-3.097,1.39-3.097,3.097c0,1.708,1.389,3.097,3.097,3.097
			s3.097-1.389,3.097-3.097C292.581,402.551,291.191,401.161,289.484,401.161z M289.484,405.29c-0.569,0-1.032-0.462-1.032-1.032
			c0-0.569,0.463-1.032,1.032-1.032s1.032,0.463,1.032,1.032C290.516,404.828,290.053,405.29,289.484,405.29z"/>
	</g>
</g>
<g>
	<g>
		<linearGradient id="SVGID_5_" gradientUnits="userSpaceOnUse" x1="324.5801" y1="405.29" x2="324.5801" y2="423.8711">
			<stop  offset="0" style="stop-color:#234930"/>
			<stop  offset="1" style="stop-color:#83B645"/>
		</linearGradient>
		<path fill="url(#SVGID_5_)" d="M324.581,413.549c-1.139,0-2.064-0.927-2.064-2.065c0-1.138,0.926-2.064,2.064-2.064
			s2.064,0.927,2.064,2.064h2.064c0-1.919-1.321-3.521-3.097-3.982v-2.211h-2.064v2.211c-1.776,0.462-3.098,2.063-3.098,3.982
			c0,2.277,1.853,4.13,4.13,4.13c1.139,0,2.064,0.926,2.064,2.064s-0.926,2.064-2.064,2.064s-2.064-0.926-2.064-2.064h-2.065
			c0,1.919,1.321,3.521,3.098,3.982v2.211h2.064v-2.211c1.775-0.462,3.097-2.063,3.097-3.982
			C328.71,415.4,326.857,413.549,324.581,413.549z"/>
	</g>
</g>
<g>
	<g>
		<linearGradient id="SVGID_6_" gradientUnits="userSpaceOnUse" x1="332.8389" y1="413.5488" x2="332.8389" y2="415.6133">
			<stop  offset="0" style="stop-color:#234930"/>
			<stop  offset="1" style="stop-color:#83B645"/>
		</linearGradient>
		<rect x="331.807" y="413.549" fill="url(#SVGID_6_)" width="2.064" height="2.064"/>
	</g>
</g>
<g>
	<g>
		<linearGradient id="SVGID_7_" gradientUnits="userSpaceOnUse" x1="316.3223" y1="413.5488" x2="316.3223" y2="415.6133">
			<stop  offset="0" style="stop-color:#234930"/>
			<stop  offset="1" style="stop-color:#83B645"/>
		</linearGradient>
		<rect x="315.29" y="413.549" fill="url(#SVGID_7_)" width="2.064" height="2.064"/>
	</g>
</g>
</svg>
