<svg xmlns="http://www.w3.org/2000/svg" xmlns:xlink="http://www.w3.org/1999/xlink" width="375" viewBox="0 0 375 375" height="375" version="1.0"><defs><clipPath id="b"><path d="M 51.113281 159 L 270.113281 159 L 270.113281 311.160156 L 51.113281 311.160156 Z M 51.113281 159"/></clipPath><clipPath id="c"><path d="M 131 44.910156 L 252 44.910156 L 252 191 L 131 191 Z M 131 44.910156"/></clipPath><clipPath id="d"><path d="M 176 117 L 297 117 L 297 238 L 176 238 Z M 176 117"/></clipPath><clipPath id="e"><path d="M 157.886719 122.277344 L 306.402344 96.417969 L 337.539062 275.226562 L 189.023438 301.089844 Z M 157.886719 122.277344"/></clipPath><clipPath id="f"><path d="M 157.886719 122.277344 L 306.402344 96.417969 L 337.539062 275.226562 L 189.023438 301.089844 Z M 157.886719 122.277344"/></clipPath><clipPath id="g"><path d="M 261 204 L 334 204 L 334 279 L 261 279 Z M 261 204"/></clipPath><clipPath id="h"><path d="M 157.886719 122.277344 L 306.402344 96.417969 L 337.539062 275.226562 L 189.023438 301.089844 Z M 157.886719 122.277344"/></clipPath><clipPath id="i"><path d="M 157.886719 122.277344 L 306.402344 96.417969 L 337.539062 275.226562 L 189.023438 301.089844 Z M 157.886719 122.277344"/></clipPath><clipPath id="j"><path d="M 192 133 L 232 133 L 232 171 L 192 171 Z M 192 133"/></clipPath><clipPath id="k"><path d="M 157.886719 122.277344 L 306.402344 96.417969 L 337.539062 275.226562 L 189.023438 301.089844 Z M 157.886719 122.277344"/></clipPath><clipPath id="l"><path d="M 157.886719 122.277344 L 306.402344 96.417969 L 337.539062 275.226562 L 189.023438 301.089844 Z M 157.886719 122.277344"/></clipPath><clipPath id="o"><path d="M 0.5 0.703125 L 101 0.703125 L 101 101.203125 L 0.5 101.203125 Z M 0.5 0.703125"/></clipPath><clipPath id="n"><path d="M0 0H101V102H0z"/></clipPath><filter x="0%" y="0%" width="100%" xlink:type="simple" xlink:actuate="onLoad" height="100%" id="a" xlink:show="other"><feColorMatrix values="0 0 0 0 1 0 0 0 0 1 0 0 0 0 1 0 0 0 1 0" color-interpolation-filters="sRGB"/></filter><mask id="m"><g filter="url(#a)"><path fill-opacity=".6" d="M-37.5 -37.5H412.5V412.5H-37.5z"/></g></mask></defs><path fill="#FFF" d="M-37.5 -37.5H412.5V412.5H-37.5z"/><path fill="#FFF" d="M-37.5 -37.5H412.5V412.5H-37.5z"/><path fill="#FFF" d="M 137.03125 70.832031 L 137.03125 45.820312 L 250.066406 45.820312 L 250.066406 183.660156 L 216.671875 186.390625 L 137.03125 70.832031"/><path fill="#FFF" d="M 108.34375 95.835938 L 108.34375 70.832031 L 221.378906 70.832031 L 221.378906 183.660156 L 191.707031 183.722656 L 108.34375 95.835938"/><path fill="#FFF" d="M 77.847656 162.972656 L 77.847656 98.566406 L 190.882812 98.566406 L 190.882812 186.390625 L 77.847656 162.972656"/><path fill="#FFF" d="M 161.671875 185.453125 L 136.699219 163.90625 C 135.996094 163.300781 135.101562 162.964844 134.175781 162.964844 L 58.613281 162.964844 C 56.476562 162.964844 54.742188 164.707031 54.742188 166.851562 L 54.742188 303.636719 C 54.742188 305.78125 56.476562 307.519531 58.613281 307.519531 L 262.613281 307.519531 C 264.75 307.519531 266.484375 305.78125 266.484375 303.636719 L 266.484375 190.273438 C 266.484375 188.128906 264.75 186.390625 262.613281 186.390625 L 164.191406 186.390625 C 163.265625 186.390625 162.371094 186.058594 161.671875 185.453125"/><g clip-path="url(#b)"><path fill="#2B7F5C" d="M 58.613281 166.609375 C 58.480469 166.609375 58.375 166.714844 58.375 166.851562 L 58.375 303.636719 C 58.375 303.769531 58.480469 303.878906 58.613281 303.878906 L 262.613281 303.878906 C 262.746094 303.878906 262.855469 303.769531 262.855469 303.636719 L 262.855469 190.273438 C 262.855469 190.140625 262.746094 190.035156 262.613281 190.035156 L 164.191406 190.035156 C 162.398438 190.035156 160.660156 189.386719 159.300781 188.214844 L 134.332031 166.667969 C 134.285156 166.628906 134.230469 166.609375 134.175781 166.609375 Z M 262.613281 311.160156 L 58.613281 311.160156 C 54.476562 311.160156 51.109375 307.785156 51.109375 303.636719 L 51.109375 166.851562 C 51.109375 162.699219 54.476562 159.324219 58.613281 159.324219 L 134.175781 159.324219 C 135.96875 159.324219 137.707031 159.96875 139.066406 161.144531 L 164.035156 182.691406 C 164.078125 182.726562 164.136719 182.75 164.191406 182.75 L 262.613281 182.75 C 266.75 182.75 270.117188 186.128906 270.117188 190.273438 L 270.117188 303.636719 C 270.117188 307.785156 266.75 311.160156 262.613281 311.160156"/></g><path fill="#2B7F5C" d="M 190.882812 190.035156 C 188.878906 190.035156 187.253906 188.402344 187.253906 186.390625 L 187.253906 102.210938 L 81.480469 102.210938 L 81.480469 162.972656 C 81.480469 164.980469 79.851562 166.613281 77.847656 166.613281 C 75.839844 166.613281 74.214844 164.980469 74.214844 162.972656 L 74.214844 98.566406 C 74.214844 96.554688 75.839844 94.925781 77.847656 94.925781 L 190.882812 94.925781 C 192.890625 94.925781 194.515625 96.554688 194.515625 98.566406 L 194.515625 186.390625 C 194.515625 188.402344 192.890625 190.035156 190.882812 190.035156"/><path fill="#2B7F5C" d="M 219.5625 190.035156 L 178.316406 190.035156 C 176.3125 190.035156 174.683594 188.402344 174.683594 186.390625 C 174.683594 184.378906 176.3125 182.75 178.316406 182.75 L 215.929688 182.75 L 215.929688 77.207031 L 110.15625 77.207031 L 110.15625 98.566406 C 110.15625 100.578125 108.53125 102.210938 106.527344 102.210938 C 104.519531 102.210938 102.894531 100.578125 102.894531 98.566406 L 102.894531 73.5625 C 102.894531 71.554688 104.519531 69.921875 106.527344 69.921875 L 219.5625 69.921875 C 221.570312 69.921875 223.195312 71.554688 223.195312 73.5625 L 223.195312 186.390625 C 223.195312 188.402344 221.570312 190.035156 219.5625 190.035156"/><g clip-path="url(#c)"><path fill="#2B7F5C" d="M 248.25 190.035156 C 246.246094 190.035156 244.621094 188.402344 244.621094 186.390625 L 244.621094 52.191406 L 138.847656 52.191406 L 138.847656 73.5625 C 138.847656 75.578125 137.21875 77.207031 135.214844 77.207031 C 133.207031 77.207031 131.582031 75.578125 131.582031 73.5625 L 131.582031 48.550781 C 131.582031 46.539062 133.207031 44.910156 135.214844 44.910156 L 248.25 44.910156 C 250.257812 44.910156 251.882812 46.539062 251.882812 48.550781 L 251.882812 186.390625 C 251.882812 188.402344 250.257812 190.035156 248.25 190.035156"/></g><path fill="#2B7F5C" d="M 169.691406 127.398438 L 99.042969 127.398438 C 97.039062 127.398438 95.414062 125.765625 95.414062 123.757812 C 95.414062 121.742188 97.039062 120.113281 99.042969 120.113281 L 169.691406 120.113281 C 171.699219 120.113281 173.324219 121.742188 173.324219 123.757812 C 173.324219 125.765625 171.699219 127.398438 169.691406 127.398438"/><path fill="#2B7F5C" d="M 169.691406 149.734375 L 99.042969 149.734375 C 97.039062 149.734375 95.414062 148.101562 95.414062 146.089844 C 95.414062 144.078125 97.039062 142.449219 99.042969 142.449219 L 169.691406 142.449219 C 171.699219 142.449219 173.324219 144.078125 173.324219 146.089844 C 173.324219 148.101562 171.699219 149.734375 169.691406 149.734375"/><path fill="#2B7F5C" d="M 169.695312 172.066406 L 141.941406 172.066406 C 139.9375 172.066406 138.308594 170.4375 138.308594 168.425781 C 138.308594 166.414062 139.9375 164.78125 141.941406 164.78125 L 169.695312 164.78125 C 171.699219 164.78125 173.328125 166.414062 173.328125 168.425781 C 173.328125 170.4375 171.699219 172.066406 169.695312 172.066406"/><g clip-path="url(#d)"><g clip-path="url(#e)"><g clip-path="url(#f)"><path fill="#2B7F5C" d="M 194.023438 135.5 C 217.285156 111.898438 255.296875 111.582031 278.921875 134.792969 C 302.546875 158.003906 302.839844 195.949219 279.578125 219.550781 C 256.316406 243.148438 218.304688 243.464844 194.679688 220.257812 C 171.054688 197.046875 170.761719 159.101562 194.023438 135.5 Z M 201.457031 142.804688 C 220.675781 123.304688 252.082031 123.042969 271.601562 142.21875 C 291.121094 161.394531 291.363281 192.746094 272.144531 212.246094 C 252.921875 231.742188 221.519531 232.007812 202 212.828125 C 182.480469 193.652344 182.238281 162.300781 201.457031 142.804688 Z M 201.457031 142.804688" fill-rule="evenodd"/></g></g></g><g clip-path="url(#g)"><g clip-path="url(#h)"><g clip-path="url(#i)"><path fill="#2B7F5C" d="M 262.375 222.800781 L 280.992188 205.234375 C 281.152344 205.082031 281.332031 204.972656 281.542969 204.902344 C 281.75 204.828125 281.964844 204.800781 282.191406 204.820312 C 282.417969 204.835938 282.636719 204.894531 282.847656 204.996094 C 283.058594 205.097656 283.246094 205.234375 283.40625 205.40625 L 333.398438 258.277344 C 333.5625 258.449219 333.6875 258.640625 333.777344 258.859375 C 333.867188 259.074219 333.914062 259.292969 333.917969 259.519531 C 333.921875 259.75 333.878906 259.964844 333.796875 260.167969 C 333.714844 260.371094 333.59375 260.546875 333.433594 260.695312 L 314.820312 278.261719 C 314.660156 278.410156 314.476562 278.523438 314.269531 278.59375 C 314.0625 278.664062 313.84375 278.691406 313.621094 278.675781 C 313.394531 278.660156 313.175781 278.601562 312.964844 278.5 C 312.753906 278.398438 312.566406 278.261719 312.40625 278.089844 L 262.414062 225.21875 C 262.25 225.046875 262.125 224.851562 262.035156 224.636719 C 261.945312 224.421875 261.898438 224.199219 261.894531 223.972656 C 261.890625 223.746094 261.933594 223.53125 262.015625 223.328125 C 262.097656 223.125 262.21875 222.949219 262.375 222.800781 Z M 262.375 222.800781" fill-rule="evenodd"/></g></g></g><g clip-path="url(#j)"><g clip-path="url(#k)"><g clip-path="url(#l)"><path fill="#2B7F5C" d="M 192.710938 170.96875 C 199.769531 155.738281 215.390625 138.144531 231.6875 133.5625 C 207.574219 132.890625 192.152344 156.925781 192.710938 170.96875 Z M 192.710938 170.96875" fill-rule="evenodd"/></g></g></g><g mask="url(#m)"><g><g clip-path="url(#n)" transform="translate(187 127)"><g clip-path="url(#o)"><path fill="#FFF" d="M 101 50.953125 C 101 52.597656 100.917969 54.238281 100.757812 55.878906 C 100.597656 57.515625 100.355469 59.140625 100.035156 60.757812 C 99.714844 62.371094 99.3125 63.964844 98.835938 65.539062 C 98.359375 67.113281 97.804688 68.660156 97.175781 70.183594 C 96.546875 71.703125 95.84375 73.1875 95.066406 74.640625 C 94.289062 76.089844 93.445312 77.5 92.53125 78.871094 C 91.617188 80.238281 90.636719 81.558594 89.59375 82.832031 C 88.550781 84.101562 87.445312 85.320312 86.28125 86.484375 C 85.117188 87.648438 83.902344 88.753906 82.628906 89.796875 C 81.355469 90.839844 80.035156 91.820312 78.667969 92.734375 C 77.300781 93.648438 75.890625 94.492188 74.4375 95.269531 C 72.984375 96.046875 71.5 96.746094 69.980469 97.378906 C 68.460938 98.007812 66.910156 98.5625 65.335938 99.039062 C 63.761719 99.515625 62.167969 99.914062 60.554688 100.238281 C 58.9375 100.558594 57.3125 100.800781 55.675781 100.960938 C 54.039062 101.121094 52.394531 101.203125 50.75 101.203125 C 49.105469 101.203125 47.460938 101.121094 45.824219 100.960938 C 44.1875 100.800781 42.5625 100.558594 40.945312 100.238281 C 39.332031 99.914062 37.738281 99.515625 36.164062 99.039062 C 34.589844 98.5625 33.039062 98.007812 31.519531 97.378906 C 30 96.746094 28.515625 96.046875 27.0625 95.269531 C 25.609375 94.492188 24.199219 93.648438 22.832031 92.734375 C 21.464844 91.820312 20.144531 90.839844 18.871094 89.796875 C 17.597656 88.753906 16.382812 87.648438 15.21875 86.484375 C 14.054688 85.320312 12.949219 84.101562 11.90625 82.832031 C 10.863281 81.558594 9.882812 80.238281 8.96875 78.871094 C 8.054688 77.5 7.210938 76.089844 6.433594 74.640625 C 5.65625 73.1875 4.953125 71.703125 4.324219 70.183594 C 3.695312 68.660156 3.140625 67.113281 2.664062 65.539062 C 2.1875 63.964844 1.785156 62.371094 1.464844 60.757812 C 1.144531 59.140625 0.902344 57.515625 0.742188 55.878906 C 0.582031 54.238281 0.5 52.597656 0.5 50.953125 C 0.5 49.308594 0.582031 47.664062 0.742188 46.027344 C 0.902344 44.390625 1.144531 42.761719 1.464844 41.148438 C 1.785156 39.535156 2.1875 37.941406 2.664062 36.367188 C 3.140625 34.789062 3.695312 33.242188 4.324219 31.722656 C 4.953125 30.203125 5.65625 28.714844 6.433594 27.265625 C 7.210938 25.8125 8.054688 24.402344 8.96875 23.035156 C 9.882812 21.667969 10.863281 20.347656 11.90625 19.074219 C 12.949219 17.800781 14.054688 16.585938 15.21875 15.421875 C 16.382812 14.257812 17.597656 13.152344 18.871094 12.109375 C 20.144531 11.066406 21.464844 10.085938 22.832031 9.171875 C 24.199219 8.257812 25.609375 7.410156 27.0625 6.636719 C 28.515625 5.859375 30 5.15625 31.519531 4.527344 C 33.039062 3.898438 34.589844 3.34375 36.164062 2.867188 C 37.738281 2.386719 39.332031 1.988281 40.945312 1.667969 C 42.5625 1.347656 44.1875 1.105469 45.824219 0.945312 C 47.460938 0.785156 49.105469 0.703125 50.75 0.703125 C 52.394531 0.703125 54.039062 0.785156 55.675781 0.945312 C 57.3125 1.105469 58.9375 1.347656 60.554688 1.667969 C 62.167969 1.988281 63.761719 2.386719 65.335938 2.867188 C 66.910156 3.34375 68.460938 3.898438 69.980469 4.527344 C 71.5 5.15625 72.984375 5.859375 74.4375 6.636719 C 75.890625 7.410156 77.300781 8.257812 78.667969 9.171875 C 80.035156 10.085938 81.355469 11.066406 82.628906 12.109375 C 83.902344 13.152344 85.117188 14.257812 86.28125 15.421875 C 87.445312 16.585938 88.550781 17.800781 89.59375 19.074219 C 90.636719 20.347656 91.617188 21.667969 92.53125 23.035156 C 93.445312 24.402344 94.289062 25.8125 95.066406 27.265625 C 95.84375 28.714844 96.546875 30.203125 97.175781 31.722656 C 97.804688 33.242188 98.359375 34.789062 98.835938 36.367188 C 99.3125 37.941406 99.714844 39.535156 100.035156 41.148438 C 100.355469 42.761719 100.597656 44.390625 100.757812 46.027344 C 100.917969 47.664062 101 49.308594 101 50.953125 Z M 101 50.953125"/></g></g></g></g></svg>