<?xml version="1.0" encoding="utf-8"?>
<!-- Generator: Adobe Illustrator 26.0.2, SVG Export Plug-In . SVG Version: 6.00 Build 0)  -->
<svg version="1.1"
	 id="svg9285" inkscape:version="0.92.0 r15299" xmlns:cc="http://creativecommons.org/ns#" xmlns:dc="http://purl.org/dc/elements/1.1/" xmlns:inkscape="http://www.inkscape.org/namespaces/inkscape" xmlns:rdf="http://www.w3.org/1999/02/22-rdf-syntax-ns#" xmlns:sodipodi="http://sodipodi.sourceforge.net/DTD/sodipodi-0.dtd" xmlns:svg="http://www.w3.org/2000/svg"
	 xmlns="http://www.w3.org/2000/svg" xmlns:xlink="http://www.w3.org/1999/xlink" x="0px" y="0px" width="120px" height="64px" viewBox="0 0 156 70.2"
	 style="enable-background:new 0 0 156 70.2;" xml:space="preserve">
<style type="text/css">
	.st0{fill:#324290;}
	.st1{fill:#E21D24;}
</style>
<sodipodi:namedview  bordercolor="#666666" borderopacity="1.0" fit-margin-bottom="0" fit-margin-left="0" fit-margin-right="0" fit-margin-top="0" id="base" inkscape:current-layer="layer1" inkscape:cx="78.005991" inkscape:cy="41.438616" inkscape:document-units="mm" inkscape:pageopacity="0.0" inkscape:pageshadow="2" inkscape:window-height="744" inkscape:window-maximized="1" inkscape:window-width="1280" inkscape:window-x="-4" inkscape:window-y="-4" inkscape:zoom="5.7495584" pagecolor="#ffffff" showgrid="false" units="px">
	</sodipodi:namedview>
<g id="layer1" transform="translate(-121.47997,-148.94514)" inkscape:groupmode="layer" inkscape:label="Layer 1">
	<g id="g9724" transform="translate(0.13229329,-0.13228587)">
		<path id="path8729" inkscape:connector-curvature="0" class="st0" d="M217.5,178.3L217.5,178.3c-3-1.6-5.9-2.9-8.8-3.8l0.1-0.2
			l-0.1,0.2l0.1-0.4h11.9v4.2L217.5,178.3z M220.2,177.9v-3.3h-10c2.5,0.9,5,2,7.5,3.3H220.2z"/>
		<path id="path8733" inkscape:connector-curvature="0" class="st0" d="M174.2,178.3v-4v-0.2h12.1l0.1,0.4c-2.8,0.9-5.6,2.2-8.5,3.8
			l-0.1,0L174.2,178.3z M174.7,177.9h3c2.5-1.4,4.9-2.5,7.3-3.3h-10.3L174.7,177.9z"/>
		<path id="path8737" inkscape:connector-curvature="0" class="st0" d="M191.7,173.4c-5.5,0.9-10.6,3.2-15.1,5.8l-0.2,0.1l2.3,4
			l0.2-0.1c5.5-3.8,11.6-5.9,18.3-5.9l0.3,0c6.8,0.1,12.7,2.1,18.2,5.9l0.2,0.1l2.5-4.3l-0.2-0.1c-4.9-2.8-9.8-4.7-15-5.5l-0.1,0
			c-0.4,0.4-1.2-0.3-1.3,0.3l0.1,0c5.6,0.7,10.7,2.6,15.9,5.6l-2.1,3.4c-5.5-3.7-11.4-5.7-18.2-5.8l-0.3,0h0
			c-6.7,0-12.8,2.1-18.3,5.8l-1.9-3.2c4.7-2.7,10.1-5,15.8-5.8c-0.2-0.5-0.9,0.2-1.3-0.2c0.4,0.4,1.1-0.3,1.3,0.2l0.1,0
			 M178.9,183.1l0.2-0.1L178.9,183.1z"/>
		<path id="path8741" inkscape:connector-curvature="0" class="st0" d="M265.7,198.6l10.1-14.3h-14.1l-6.3,9.7v-9.7h-12.5v0.9
			c-2.7-1.5-6.2-2.4-9.7-2.3c-7.8,0.1-13.1,3.7-15.8,8.5c-3.4-7-11.1-11.8-19.9-11.8c-6.6,0-12.6,2.7-16.6,7v-2.3H151
			c-7.8-2.5-21-3.3-26.5,5.1c-2,3.1-2,7.4,0.8,10.2c2.7,2.6,6.3,3.4,9.3,3.9c1.4,0.2,2.8,0.4,3.8,0.6c0.5,0.1,0.9,0.2,1.2,0.3
			c0.2,0.1,0.3,0.1,0.3,0.2c-0.1,0.1-0.3,0.1-0.5,0.2c-0.9,0.3-2.2,0.4-2.8,0.4c-3.3-0.1-6.5-1.5-9.2-3.4l-1.7-1.2l-4.3,9.8l1.4,0.8
			c4.5,2.4,9.3,3.7,14.6,3.7c6.7,0,16.6-2.7,16.6-11.5c0-2.5-0.7-4.6-3-6.4c-2.2-1.7-5.4-2.5-8-3c-1.3-0.3-2.6-0.5-3.6-0.7
			c-0.9-0.2-1.5-0.4-1.9-0.6c0.4-0.2,1.1-0.4,2-0.3c2.4,0.1,5.2,0.9,7.2,2l1.6,0.9l1.2-2.4v2.3h9.4v18.9h12.7v-18.9h4.7
			c-0.3,1.4-0.5,2.9-0.5,4.4c0,11.1,9.9,19.8,21.8,19.8c8.9,0,16.7-4.9,20.1-12.1c2.7,4.6,7.9,7.9,15.6,7.9c3.7,0,6.8-0.7,9.7-2.3
			v1.1h12.5v-10.6l7.3,10.6h14.6L265.7,198.6z M254.8,201.3v12h-11.3v-1.6c-3.2,1.9-6.4,2.8-10.4,2.8c-8.1,0-13.3-3.8-15.7-8.7
			c-2.9,7.5-10.8,12.9-20,12.9c-11.6,0-21.2-8.6-21.2-19.2c0-1.7,0.3-3.4,0.7-5H171v18.9h-11.4v-18.9h-9.4v-4.3l-2.1,4.2l-1-0.6
			c-2.1-1.1-5-2-7.5-2.1c-1.2,0-2.1,0.2-2.6,0.6c-0.3,0.2-0.4,0.4,0.2,0.8c0.3,0.3,1,0.5,2.1,0.8c1,0.2,2.3,0.5,3.6,0.7
			c2.6,0.5,5.7,1.3,7.7,2.9c2.1,1.6,2.7,3.5,2.7,5.9c0,8.1-9.2,10.8-16,10.8c-5.2,0-9.8-1.2-14.3-3.6l-0.9-0.5l3.8-8.6l1.1,0.8
			c2.8,1.9,6.1,3.3,9.5,3.5c0.7,0,2-0.1,3-0.4c0.5-0.2,0.8-0.4,1-0.5c0.1-0.1,0.1-0.2-0.1-0.6c-0.2-0.3-0.8-0.6-1.9-0.8
			c-1.1-0.2-2.4-0.4-3.9-0.6c-2.9-0.5-6.4-1.2-8.9-3.7c-2.5-2.5-2.6-6.5-0.7-9.4c5.3-8,18.1-7.3,25.9-4.8h29.4v3.3
			c3.8-4.9,10.1-8.1,17.2-8.1c9.1,0,16.9,5.3,19.9,12.7c2.3-5.2,7.6-9.3,15.8-9.3c3.8,0,7.6,1.1,10.3,2.8v-1.4h11.3v11.1l7.2-11.1
			h12.6l-9.7,13.7l11.2,14.7H263L254.8,201.3z"/>
		<path id="path8745" inkscape:connector-curvature="0" class="st0" d="M197.5,190.2c-5.1,0-9.2,4.1-9.2,9.2c0,5.1,4.1,9.2,9.2,9.2
			c5.1,0,9.2-4.1,9.2-9.2C206.7,194.4,202.6,190.2,197.5,190.2 M197.5,208.1c-4.8,0-8.6-3.9-8.6-8.6c0-4.8,3.9-8.6,8.6-8.6
			c4.8,0,8.6,3.9,8.6,8.6S202.3,208.1,197.5,208.1"/>
		<path id="path8749" inkscape:connector-curvature="0" class="st0" d="M239.2,194.8c-1.4-0.7-2.9-1.2-4.4-1.2
			c-4.6,0-6.7,2.8-6.7,5.5c0,2.7,2.2,5.6,6.7,5.6c1.9,0,3.3-0.5,4.9-1.5l0.9-0.6l3,3.8v-17.3l-3.4,6.2L239.2,194.8z M242.9,191.5
			v13.1l-2.3-2.9l-1.3,0.9c-1.5,0.9-2.8,1.4-4.5,1.4c-4.2,0-6.1-2.6-6.1-4.9c0-2.3,1.8-4.9,6.1-4.9c1.4,0,2.8,0.4,4.1,1.1l1.5,0.8
			L242.9,191.5z"/>
		<g id="g9668">
			<path id="path8753" inkscape:connector-curvature="0" class="st0" d="M197.5,209.8c5.7,0,10.4-4.6,10.4-10.4
				c0-5.7-4.6-10.4-10.4-10.4c-5.7,0-10.4,4.6-10.4,10.4C187.2,205.2,191.8,209.8,197.5,209.8 M197.5,181.4c11.1,0,20,8.1,20,18.1
				c0,9.9-8.9,18.1-20,18.1c-11.1,0-20-8.1-20-18.1C177.5,189.5,186.4,181.4,197.5,181.4"/>
			<path id="path8757" inkscape:connector-curvature="0" class="st0" d="M179.1,193.3h-9.3v18.9h-9.1v-18.9h-9.4v-7.2h27.8V193.3z"
				/>
			<path id="path8769" inkscape:connector-curvature="0" class="st0" d="M244.6,209.6c-3.5,2.6-7,3.7-11.4,3.7
				c-10.9,0-16.1-7.1-16-14.2c0.1-7.1,5.4-14.3,16-14.4c3.8,0,7.5,1.1,9.9,2.8l-3.5,6.3c-1.5-0.8-3.2-1.3-4.9-1.3
				c-5.2,0-7.8,3.3-7.8,6.7c0,3.4,2.7,6.7,7.8,6.7c2.1,0,3.8-0.6,5.5-1.7L244.6,209.6z"/>
			<path id="path8773" inkscape:connector-curvature="0" class="st0" d="M253.6,198.4v0.7v13h-9v-26.1h9V198.4z M254.4,198.8
				l8.2-12.7h9.8l-8.9,12.6l10.3,13.5h-10.2L254.4,198.8z"/>
			<path id="path8785" inkscape:connector-curvature="0" class="st0" d="M147.6,192.9c-2.2-1.2-5.3-2.2-8-2.2
				c-1.3,0-2.5,0.2-3.3,0.8c-1,0.7-1,1.8,0.1,2.7c0.6,0.5,1.5,0.8,2.6,1c1,0.2,2.3,0.5,3.6,0.7c2.7,0.5,5.4,1.2,7.2,2.7
				c1.7,1.4,2.3,2.9,2.3,5c0,6.9-8,9.7-14.8,9.7c-5,0-9.4-1.2-13.8-3.5l2.8-6.3c2.9,2,6.4,3.5,10.1,3.7c0.8,0,2.3-0.1,3.4-0.5
				c0.6-0.2,1.2-0.5,1.5-0.9c0.4-0.6,0.4-1.3-0.1-1.9c-0.5-0.8-1.6-1.1-2.6-1.3c-1.1-0.2-2.4-0.4-3.9-0.6c-2.9-0.4-6.1-1.2-8.3-3.4
				c-2.1-2-2.2-5.5-0.6-7.9c4.9-7.4,17.2-6.9,24.9-4.2L147.6,192.9z"/>
		</g>
		<path id="path8789" inkscape:connector-curvature="0" class="st1" d="M197.5,192.6c3.9,0,7.1,3.1,7.1,6.8c0,3.7-3.2,6.8-7.1,6.8
			c-3.9,0-7.1-3.1-7.1-6.8C190.4,195.7,193.6,192.6,197.5,192.6"/>
		<path id="path8793" inkscape:connector-curvature="0" class="st0" d="M221.5,165.2c-0.1,0-0.4,0.1-0.6-0.3c-0.2-0.4-0.2-1-0.3-1.3
			c0-0.3-0.2-0.8-0.4-1.1c-0.1-0.3-0.3-1.6-1.7-1.6c-1.1,0-1.9,1.2-1.8,2c0,0.6,0.1,1.4,0.4,2.4c0.3,0.9,0.3,1.2,0.2,1.6
			c-0.1,0.2-0.1,0.2-0.2,0.1c0-0.1-0.2-0.5-0.7-0.9c-0.6-0.4-1.2-0.8-1.3-1c-0.1-0.2-0.1-0.2,0-0.3c0.1-0.1,0.4-0.3,0.3-0.9
			c-0.1-0.4-0.6-0.6-0.6-0.6s0.2-0.3,0.1-0.6c-0.1-0.3-0.2-0.5-0.4-0.5c-0.2,0-0.2,0.1-0.2,0.1l0.1,0.2c0,0.1-0.2,0.3-0.4,0.2
			c-0.2-0.1-0.4-0.3-0.4-0.6c0-0.2,0.1-0.2,0.1-0.2s0-0.1,0.1-0.2c0.1,0,0.8-0.1,1,0c0.3,0,0.4,0,0.5,0c0.1,0,0.2,0,0.2-0.3
			c0-0.3-0.1-0.4-0.2-0.5l-0.2-0.2l-0.1-0.3l-0.2,0c0,0.1,0,0.3-0.3,0.3c-0.3,0-0.4,0-0.5,0c0,0-0.1-0.2-0.1-0.3
			c0-0.2-0.1-0.4,0.1-0.5c0.1-0.1,0.4-0.2,0.6-0.2c0.1,0,0.2,0.1,0.2,0.2c0,0.1,0,0.3,0.1,0.2c0.1,0,0.2-0.2,0.2-0.3
			c0-0.1,0-0.2,0.1-0.3l0.1-0.2c0-0.1,0.1-0.3,0.1-0.4c0-0.2,0.1-0.2-0.1-0.3c-0.2-0.1-0.4-0.2-0.6-0.2l-0.3,0.1
			c0,0-0.1,0.1-0.1-0.1s-0.3-0.5-0.7-0.5c-0.2,0-0.4,0-0.8,0.1c-0.6,0.1-1.3,0.2-1.6,0.2c-0.5-0.1-0.5-0.2-0.6-0.3
			c-0.2-0.1-0.2-0.1-0.2,0.1c0,0.1,0,0.3,0.1,0.5c0.1,0.1,0.2,0.3,0.2,0.3l-0.1,0.1l-0.5,0.1c-0.1,0-0.3,0-0.1,0.1
			c0.1,0.2,0.3,0.3,0.4,0.3c0.1,0,0.2,0.1,0.2,0.1l0,0.1l-0.3,0.4c-0.1,0.1-0.1,0.2-0.3,0.2c-0.2,0-0.5-0.1-0.6-0.2l-0.1-0.1
			c-0.1,0.1-0.1,0.3,0,0.5c0.1,0.2,0.2,0.3,0.2,0.4l0.1,0.1c0,0,0,0.1-0.4,0.3c-0.4,0.2-0.5,0.3-0.7,0.2c-0.3,0-1.5-0.7-1.9-0.8
			c-0.3-0.1-0.8-0.3-1.1,0c-0.3,0.2-0.5,0.7-0.6,1.2c0,0.5,0.1,0.6,0.1,0.6l0.1-0.3l0.1-0.2l0.5-0.2c0,0,0,0.3,0.1,0.5l0.2,0.2
			l0.1-0.1l0.1-0.3l0.4-0.2l0.1,0.1c0,0.1,0.1,0.4,0.2,0.5c0.1,0.2,0.2,0.3,0.2,0.3c0.1,0,0-0.2,0.1-0.3c0-0.2,0.1-0.2,0.2-0.2
			c0.1,0,0.1,0.2,0.1,0.5c0.1,0.2,0.1,0.4,0.2,0.4l-0.1,0.1c-0.1,0-0.3-0.2-0.7-0.1c-0.3,0-0.4,0.2-0.4,0.3
			c-0.1,0.2-0.1,0.2-0.1,0.1c0-0.1,0-0.5-0.3-0.6c-0.3-0.2-0.5-0.2-0.5-0.2l-0.1,0.1c0,0-0.7,0.8-0.8,1.1c-0.1,0.3-0.2,0.7,0.1,0.9
			c0.3,0.3,0.8,0.6,0.8,0.6l0,0.4h-0.1c0,0-0.2-0.1-0.6,0c-0.4,0.1-0.5,0.2-0.6,0.2l-0.1,0.2h0v-2.5l0.9-0.8l0-0.1l-1.5-2.1
			c0,0-0.7,0.1-1.2,0c-0.5-0.1-1.3-0.4-2-1.1c-0.6-0.7-0.6-1-0.6-1s0.1-0.2,0.2-0.4c0.1-0.2,0.1-0.4,0.1-0.4l0.2,0l0.2,0l0.1-0.2
			c0-0.1,0.2-0.2,0.2-1.3c0-1-0.2-1.3-0.3-1.4l-0.2,0l-0.2,0l-0.1-0.4l0.1-0.1c0,0,0.3,0,0.3-0.4c0-0.2-0.2-0.3-0.2-0.3l0,0l0.1-0.2
			l0.1-0.1c0.1,0,0.4,0.1,0.5-0.2c0.2-0.3,0-0.5-0.1-0.6c-0.1-0.1-0.2-0.1-0.1-0.2c0.1-0.1,0.4-0.5,0.7-0.7c0.3-0.2,0.5-0.3,0.6-0.3
			l-0.1-0.2c-0.1,0-0.2-0.1-0.3-0.1c-0.2,0-0.3,0.1-0.4,0.1l-0.1,0.2c0,0-0.4-0.5-0.8-0.1c-0.3,0.2-0.1,0.7,0,0.7l0.2,0.2
			c0,0-0.2,0.2-0.4,0.2c-0.3-0.1-0.5-0.2-0.5-0.3c-0.1-0.1-0.1-0.3-0.1-0.3s0.4,0.1,0.5-0.3c0-0.3-0.2-0.3-0.2-0.3s0.1-0.4-0.3-0.4
			c-0.3-0.1-0.4,0.3-0.4,0.3s-0.4,0-0.4,0.4c0,0.3,0.3,0.3,0.3,0.3L199,151c-0.1,0.1-0.2,0.3-0.4,0.3c-0.4,0-0.4,0-0.5-0.1l-0.2-0.3
			l0-0.1l0.3,0c0.1,0,0.4-0.1,0.4-0.5c0-0.5-0.5-0.6-0.5-0.6s0.1-0.7-0.5-0.6c-0.5,0-0.4,0.6-0.4,0.6s-0.6,0.1-0.6,0.6
			c0,0.6,0.7,0.5,0.7,0.5s-0.2,0.5-0.7,0.5c-0.5,0-0.6-0.5-0.6-0.5s0.4,0,0.4-0.3c-0.1-0.3-0.4-0.2-0.4-0.2s0.1-0.4-0.4-0.3
			c-0.4,0.1-0.3,0.4-0.3,0.4s-0.3,0.1-0.2,0.4c0,0.3,0.5,0.2,0.5,0.2s0.1,0.6-0.4,0.7c-0.5,0.1-0.6-0.2-0.6-0.2l0,0
			c0,0,0.6-0.3,0.3-0.7c-0.4-0.5-0.8,0-0.8,0s-0.1-0.3-0.4-0.3c-0.2,0-0.5,0.1-0.5,0.2l0.2,0.1c0.1,0,0.9,0.7,1,0.9
			c0.1,0.3,0,0.3,0,0.3c-0.1,0.1-0.3,0.3-0.1,0.6c0.2,0.3,0.5,0.2,0.5,0.2l0.2,0.3c0,0-0.2,0.1-0.2,0.4c0,0.3,0.4,0.4,0.4,0.4
			l-0.1,0.4l-0.1,0l-0.2,0c0,0-0.3,0.2-0.3,1.3c0,1.1,0.3,1.7,0.3,1.7l0.3,0l0.1,0.1c0,0.1,0.1,0.3,0.1,0.4c0,0.1,0.2,0.4,0.2,0.4
			s-0.1,0.7-1,1.4c-0.7,0.5-1.6,0.8-2.3,0.7c-0.4,0-0.4-0.1-0.5-0.1c-0.1,0-0.2,0.2-0.3,0.4c-0.1,0.2-1.2,1.7-1.2,1.7l0.1,0.2
			l0.8,0.7c0,0.1,0,0.1,0,0.3c0,0.2,0,2.2,0,2.2s-0.1-0.3-0.2-0.3c-0.1,0-0.3-0.1-0.4-0.1c-0.1,0-0.3-0.1-0.5-0.1
			c-0.1,0-0.3,0.1-0.3,0.1l0-0.4c0,0,0.1,0,0.2-0.1l0.3-0.3c0.2-0.1,0.3-0.2,0.3-0.3c0-0.2,0.1-0.3,0.1-0.5c0-0.1,0-0.3-0.2-0.5
			c-0.1-0.2-0.5-0.8-0.6-0.9l-0.3-0.1l-0.2,0.2c0,0-0.3,0-0.4,0.2c0,0.1-0.1,0.2-0.1,0.3c0,0.2,0,0.3,0,0.3l-0.1-0.1
			c-0.1-0.1-0.2-0.5-0.5-0.4c-0.3,0.1-0.6,0.2-0.6,0.2l-0.1,0c0-0.1,0.2-0.3,0.2-0.5c0.1-0.2,0.1-0.4,0.2-0.4c0.2,0,0.1,0.5,0.1,0.5
			s0.1,0.1,0.2-0.1c0.1-0.2,0.2-0.6,0.3-0.7l0.1-0.1l0.5,0.4l0.1,0.3c0.1,0,0.2-0.2,0.2-0.4c0-0.2,0-0.4,0.1-0.4
			c0.1,0,0.1,0.1,0.3,0.1c0.1,0,0.1,0.1,0.2,0.2l0.1,0.3c0,0.1,0.2,0.1,0.2-0.1c0-0.2,0-0.8-0.2-1.2c-0.3-0.4-0.6-0.7-1-0.5
			c-0.5,0.1-1.9,0.8-2.2,0.8c-0.3,0-0.3,0.1-0.6-0.1c-0.3-0.2-0.6-0.3-0.6-0.4l0-0.1c0.1,0,0.4-0.3,0.3-0.6c0-0.3-0.1-0.3-0.1-0.3h0
			c0,0-0.2,0.2-0.6,0.2c-0.3,0-0.4-0.2-0.5-0.3l-0.1-0.1l-0.1-0.2l0.2-0.1l0.4-0.2l0.1-0.2l-0.4-0.1l-0.3-0.1c0-0.1,0.3-0.2,0.3-0.5
			c0-0.3-0.1-0.4-0.1-0.4h-0.1c0,0-0.3,0.3-0.8,0.3c-0.5,0-0.6,0-1.3-0.1c-0.7-0.1-1.3-0.2-1.5,0c-0.2,0.2-0.2,0.5-0.3,0.5
			c-0.1,0,0-0.1-0.5-0.1c-0.2,0-0.3,0.2-0.3,0.2c0,0-0.2,0-0.2,0.2c0,0.2,0.1,0.5,0.2,0.6c0.1,0.2,0.1,0.1,0.2,0.4
			c0,0.2,0.1,0.3,0.2,0.3l0.1-0.3c0-0.1,0.1-0.2,0.3-0.1c0.2,0.1,0.4,0.1,0.5,0.2c0.1,0.1,0.1,0.2,0.1,0.4c0,0.2-0.1,0.4-0.2,0.4
			c-0.1,0-0.4,0.1-0.5,0.1l-0.2-0.2l-0.1-0.2l-0.1,0.2l-0.1,0.2c0,0-0.5,0.2-0.5,0.6c0,0.3,0.3,0.3,0.4,0.3c0.1,0,0.4,0,0.6,0
			c0.2,0,0.7,0,0.7,0.1c0.1,0,0.2,0.1,0.1,0.4c0,0.3-0.2,0.5-0.5,0.5c-0.3,0-0.2-0.1-0.2-0.3l0.1-0.2c0,0-0.2-0.1-0.3,0.1
			c-0.1,0.1-0.3,0.3-0.3,0.5l0.1,0.3l0.1,0.1c0,0-0.6,0.1-0.7,0.9c0,0.5,0.3,0.7,0.3,0.7l0.1,0.2c0,0.1-0.2,0.3-0.5,0.5
			c-0.3,0.3-0.7,0.5-0.9,0.6c-0.3,0.2-0.5,0.4-0.6,0.6c-0.1,0.2,0,0.3-0.1,0.3c-0.1,0-0.2-0.2-0.2-0.6c0-0.7,0.8-2.1,0.7-3.5
			c-0.1-1.4-1-2.1-1.9-2.1c-0.7,0-1,0.4-1.3,0.8c-0.3,0.4-0.2,0.5-0.4,0.8c-0.2,0.3-0.3,0.7-0.4,1c0,0.3-0.1,1.3-0.3,1.5
			c-0.2,0.2-0.3,0.4-0.5,0.3c-0.2-0.1-0.4-0.1-0.4,0c0,0.1,0.1,0.4,0.4,0.4c0.4,0.1,0.5,0,0.6,0c0.1,0.1,0.6,0.2,1,0
			c0.5-0.2,1.3-0.8,1-2.1c-0.2-0.9-0.5-1.2-0.2-1.5c0.3-0.3,0.9-0.2,1,0.2c0.2,0.4,0.3,0.5,0.2,1.2c-0.1,0.7-0.2,1.1-0.5,1.8
			c-0.2,0.7-0.5,1.3-0.5,2.2c0,0.7,0.6,1.1,0.6,1.1s0,0.1-0.1,0.2c-0.1,0.2-0.2,0.3-0.1,0.4c0.1,0.1,0.2,0,0.4,0.1
			c0.2,0.1,0.7,0.3,0.6,0.7c-0.1,0.4-0.4,0.5-0.9,0.5c-0.5,0-1-0.2-1-0.5c0-0.3,0-0.3,0-0.4l-0.1-0.1c-0.1,0.1-0.4,0.4-0.4,0.8
			c0,0.2,0.1,0.4,0.1,0.5l-0.1,0.1l-0.3,0.2c-0.1,0.1-0.1,0.2-0.1,0.3c0,0.1,0,0.2,0.1,0.3c0.1,0.1,0.6,0.5,0.8,0.8
			c0.2,0.3,0.4,0.5,0.4,0.7l0,0.2c0,0.1-0.1,0.1,0,0.2l0.2-0.1c0.1-0.1,0.3-0.2,0.3-0.3c0-0.2,0-0.2,0.1-0.3l0.1-0.1l0.3,0.1
			c0.1,0.1,0.2,0.1,0.2,0.3l0,0.3l0.1,0l0.2-0.3l0.1-0.2l0-0.1l0.2,0l0.3,0.2v0.2l0.1,0.1l0.3-0.3l0.2-0.1l0.3,0.2l0,0.3
			c0,0.1,0.1,0,0.2-0.1c0-0.1,0.2-0.7-0.2-1.1c-0.3-0.4-0.7-0.5-1.1-0.3c-0.4,0.2-0.6,0.3-0.6,0.3l0,0l0.1-0.1
			c0-0.1,0.1-0.3,0.4-0.5c0.3-0.1,1-0.3,1.6-0.4c0.6-0.1,1.2-0.3,1.2-0.9c0-0.6-0.1-0.9-0.1-0.9s0.2-0.1,0.3-0.2
			c0.1-0.1,0.3-0.1,0.3-0.1l-0.1-0.2c-0.1-0.1-0.1-0.4-0.1-0.6c0-0.1,0.1-0.2,0.2-0.2l0.7-0.3l0.1,0l0.1,0c0,0,0-0.1,0-0.3
			c0-0.1,0.1-0.3,0.1-0.3s0.2,0.6,0.6,0.8c0.2,0.1,0.5,0.2,0.7,0.2c0.3,0.1,0.6,0,0.6,0l0,0.2l0,0.2c0,0,0,0.1,0.2,0.1
			c0.1,0,0.4-0.1,0.6-0.1c0.2,0,0.4,0,0.5,0.1l0.3,0.3l0,0.2c0,0.1-0.2,0.2-0.1,0.7c0.1,0.5,0.4,0.6,0.4,0.6l0.1,0.1
			c-0.1,0-0.4,0.2-0.4,0.8c0,0.6,0.3,0.7,0.4,0.8l0.3,0.1v0.1c0,0-0.2,0.4,0,0.7c0.2,0.3,0.5,0.5,0.9,0.5c0.4-0.1,0.6-0.5,0.7-0.7
			c0-0.2,0-0.4,0-0.4s0.6,0,0.9-0.6c0.2-0.5,0-0.8,0-0.8s0.6-0.1,0.7-0.6c0.1-0.5,0-0.6,0-0.7l0-0.1l0.1,0c0.1,0,0.3,0.2,0.6,0.2
			c0.3,0,0.5,0,0.5,0l0,1.6l-0.9,1l0,0.1c0.1,0,0.8,0.5,1,0.7c0.5,0.4,0.9,0.9,0.9,0.9s1.8,0,2.6,0.3c0.4,0.1,1.2,0.5,1.9,1
			c0.7,0.5,1.2,1,1.2,1s1.4-1.3,2.8-1.7c1.7-0.5,2.8-0.3,2.8-0.3s0.4-0.6,0.8-0.9c0.6-0.5,1.1-0.8,1.1-0.8v-0.1l-1-1.1l0-1.4
			l0.1-0.2c0.1,0,0.5,0,0.8-0.1c0.3-0.1,0.4-0.2,0.4-0.1c0,0-0.2,0.3-0.1,0.8c0.1,0.5,0.4,0.6,0.5,0.6l0.2,0.1l0,0.1
			c0,0-0.2,0.3,0.1,0.9c0.3,0.6,0.8,0.5,0.8,0.5s-0.1,1.2,0.9,1.1c0.4,0,0.6-0.4,0.7-0.7c0.1-0.3,0-0.5,0-0.5s0.7-0.1,0.6-0.9
			c0-0.7-0.4-0.8-0.4-0.8s0.5-0.2,0.5-0.7c0.1-0.5-0.1-0.6-0.1-0.7c0-0.1,0.1-0.3,0.2-0.5c0.1-0.1,0.3-0.1,0.6-0.1
			c0.3,0,0.5,0.1,0.7,0.1c0.2,0,0.2-0.1,0.1-0.2c0-0.2-0.1-0.3,0-0.2c0.1,0,0.6,0.1,1-0.1c0.4-0.2,0.7-0.4,0.7-0.6
			c0.1-0.1,0.1-0.2,0.1-0.2c0,0,0,0,0.1,0.2c0,0.1,0,0.2,0.1,0.3c0.1,0.1,0.6,0.1,0.9,0.3c0.3,0.2,0.4,0.2,0.3,0.5
			c-0.1,0.2-0.2,0.4-0.2,0.4l0.1,0.2l0.2,0.1l0.3,0.2c0,0,0,0,0,0.2c0,0.1-0.1,0.9,0,1.2c0.2,0.3,0.5,0.5,1.6,0.7
			c0.6,0.1,1.1,0.2,1.3,0.4c0.2,0.2,0.2,0.6,0.2,0.6s-0.5-0.5-1.2-0.5c-0.7,0-0.8,0.8-0.9,1.2c0,0.4,0,0.5,0,0.5
			c0,0,0.1-0.2,0.3-0.3l0.5-0.2l0,0.3l0.1,0.3c0,0,0.2-0.2,0.3-0.3c0.1-0.1,0.3-0.3,0.4-0.2c0.1,0,0,0.3,0.1,0.4
			c0,0.2,0.1,0.3,0.1,0.3c0,0,0-0.1,0.1-0.3c0.1-0.1,0.5-0.5,0.7-0.4c0.1,0.1,0,0.3,0.2,0.5c0.1,0.2,0.3,0.2,0.3,0.2l0-0.2
			c0-0.1,0.3-0.5,0.4-0.7c0.1-0.2,0.4-0.5,0.6-0.8c0.3-0.2,0.6-0.5,0.4-0.8c-0.1-0.2-0.3-0.3-0.4-0.3c-0.1-0.1,0-0.1,0.1-0.3
			c0-0.2,0.1-0.5-0.1-0.8c-0.2-0.2-0.3-0.3-0.3-0.3l0,0.2c0,0.1,0,0.6-0.4,0.7c-0.4,0.1-0.9,0.1-1.1,0c-0.2-0.1-0.4-0.2-0.4-0.6
			c0-0.3,0.3-0.5,0.5-0.5c0.2,0,0.3-0.1,0.4-0.1c0.1,0,0.1,0,0-0.2c-0.1-0.2-0.1-0.3-0.2-0.3l0.1-0.1c0,0,0.8-0.5,0.6-1.7
			c-0.2-1.2-0.8-2.2-0.9-3.2c-0.1-1,0.1-1.6,0.7-1.6c0.3,0,0.6,0.2,0.6,0.4c0,0.2-0.1,0.3-0.2,0.6c-0.2,0.5-0.4,1-0.1,1.8
			c0.3,0.7,0.8,1.1,1.3,1.2c0.4,0.1,0.6-0.1,0.7-0.1l0.1-0.1l0.2,0c0.1,0,0.6,0,0.7-0.3C221.8,165.1,221.6,165.1,221.5,165.2
			 M177.7,171.8l0.2-0.1c0.1,0,0.1-0.1,0.3-0.2c0.2-0.1,0.5,0.3,0.5,0.4c0,0.1,0.1,0.2,0.1,0.2l-0.2-0.1c-0.1,0-0.2-0.1-0.3-0.1
			c-0.1,0-0.1,0.2-0.1,0.2l-0.2,0l-0.3-0.1L177.7,171.8 M187.7,163.1c0.3-0.1,0.4,0.1,0.6,0.3c0.2,0.2,0.2,0.3,0.4,0.2
			c0.2-0.1,0.2-0.5,0.2-0.7c0.1-0.2,0.3-0.3,0.4-0.3c0.1,0,0.5,0.5,0.6,0.9c0.1,0.4-0.1,0.5-0.2,0.6c-0.1,0.1-0.3,0.3-0.3,0.3
			s0-0.9,0-1.1c0-0.2-0.1-0.2-0.1,0c0,0.1-0.1,0.3-0.1,0.5c0,0.2-0.2,0.5-0.2,0.5s-1-0.6-1.2-0.7c-0.2-0.1-0.3,0-0.2,0
			c0.1,0.1,1,0.8,1.1,0.9c0.1,0.1,0.2,0.1,0.1,0.2c0,0-0.2,0.1-0.3,0.2c-0.1,0.1-0.3,0.1-0.3,0.2c-0.1,0.1-0.4,0.2-0.1,0.2
			c0.2,0,0.8-0.3,0.9-0.3h0.1c0,0.1-0.1,0.2-0.4,0.4c-0.3,0.2-0.7,0.2-1,0.2c-0.2,0-0.1-0.3-0.1-0.5c0-0.2,0.4-0.4,0.4-0.4
			c0.1-0.1,0.1-0.2-0.1-0.3c-0.2-0.1-0.6-0.2-0.7-0.4c-0.1-0.2-0.1-0.5-0.1-0.7c0-0.2,0.1-0.1,0.2-0.1
			C187.3,163.3,187.5,163.2,187.7,163.1 M187.1,165.4c0,0-0.4-0.3-0.8-0.3c-0.3,0.1-0.8,0.8-0.9,1c-0.1,0.2-0.2,0.3-0.2,0.3
			c-0.1,0-0.2-0.2-0.4-0.5c-0.2-0.3-0.2-0.6-0.2-0.6s0.3-0.2,0.8-0.5c0.5-0.3,1-0.8,1.1-1c0.1-0.2,0.1,0.1,0.2,0.4
			c0.1,0.2,0.2,0.3,0.3,0.4c0.1,0,0.3,0.1,0.3,0.1s-0.2,0.1-0.3,0.2C187,165.1,187.1,165.4,187.1,165.4 M187,167.9
			c0,0.2,0.1,0.6,0.1,0.6s-0.1-0.1-0.3-0.2c-0.2-0.1-0.4,0-0.4,0s0-0.2,0-0.4c0-0.2,0.2-0.4,0.3-0.4C187,167.4,187,167.7,187,167.9
			 M187.6,169.2c0.2,0,0.4,0.2,0.4,0.5c0,0.3-0.3,0.5-0.5,0.5c-0.2,0-0.4-0.2-0.4-0.6C187.2,169.3,187.4,169.2,187.6,169.2
			 M187.3,166.9c-0.1,0-0.1-0.1-0.1-0.3c0-0.2,0-0.3,0-0.3c0.1,0,0.3,0,0.5,0c0.2,0-0.1,0.2-0.2,0.2L187.3,166.9 M186.9,161.3
			c0.2-0.1,1.5-0.6,1.8-0.7c0.3-0.1,0.3-0.1,0.5,0.1c0.2,0.2,0.2,0.4,0.2,0.4s-0.2,0-0.3-0.1c-0.2-0.1-0.2-0.2-0.3-0.2l0,0.3
			l-0.1,0.1l-0.7-0.2L188,161l-0.1,0.3l-0.1,0.1l-0.4,0c-0.1,0-0.1,0.1-0.1,0.2c0,0.1-0.1,0.4-0.1,0.5l-0.1,0c0-0.1-0.1-0.2-0.2-0.3
			c-0.1-0.1-0.1-0.1-0.2-0.2l-0.1-0.2C186.6,161.4,186.7,161.4,186.9,161.3 M180,159c-0.1,0-0.3-0.2-0.2-0.3c0-0.1,0.2-0.2,0.4-0.2
			c0.2,0,0.9,0.3,1,0.3l0.3,0.4c0.1,0.1,0.4,0,0.5-0.1c0.1-0.1,0-0.3,0-0.5c-0.1-0.2-0.1-0.3-0.3-0.3l-0.3,0.2l-0.3-0.1
			c-0.1,0-0.2,0-0.1-0.2c0.1-0.2,0.3-0.2,0.5-0.2c0.1,0,0.4,0,0.6,0c0.2,0,0.6,0.1,1,0.2c0.4,0.1,0.9,0,0.9,0l-0.3,0.2l-0.1,0.1
			l0.3,0.1l0,0.1l-0.7,0.2c-0.1,0-0.2,0.1-0.1,0.1c0.1,0,0.4,0.1,0.7,0.1c0.3,0.1,0.5,0.4,0.7,0.6c0.2,0.3,0.3,0.2,0.4,0.2l0.1,0.1
			l-0.2,0.2l0,0.2c0.1,0,0.7,0.4,1.1,0.7c0.5,0.3,0.9,0.9,1,1.1c0.1,0.2,0,0.2-0.1,0.1c-0.1-0.1-1-0.6-2-1.2c-1-0.7-1.4-1.4-1.5-1.5
			l-0.1-0.1c-0.1,0,0,0.2,0,0.5c0,0.3,0.1,0.8,0.2,1c0,0.2-0.1,0-0.2-0.2c-0.1-0.1-0.3-0.4-0.4-0.6c-0.1-0.1-0.1,0-0.1,0.1
			c0,0.1-0.1,0.3-0.1,0.5c0,0.2,0,0.2-0.1,0.1c-0.2-0.1-0.5-0.4-0.7-0.6c-0.2-0.2-0.2-0.5-0.2-0.8c0-0.3-0.3-0.5-0.5-0.5
			C180.8,159.2,180.2,159.1,180,159 M183,163.3c0,0.5-0.3,0.9-0.4,1c-0.1,0.1-0.1,0.1-0.2,0c-0.1-0.1-0.2-0.5-0.4-1.2
			c-0.2-0.7-0.1-1.2,0-1.3c0-0.1,0.1,0,0.3,0.1c0.2,0.1,0.2,0.2,0.3,0.4c0.1,0.1,0.2,0.1,0.2-0.1c0-0.2,0-0.5,0-0.5s0.1,0.1,0.3,0.3
			c0.1,0.1,0.3,0.4,0.4,0.6c0.3,0.6,0.3,1,0.3,1.1c0,0.1-0.1,0-0.4-0.3c-0.3-0.3-0.4-0.6-0.5-0.6C182.9,162.7,183,162.8,183,163.3
			 M183.9,161.2c0,0,0.4,0.2,0.8,0.6c0.4,0.5,0.4,1,0.4,1.2c0,0.1-0.1,0.1-0.1,0.1s-0.5-0.2-0.8-0.8
			C183.8,161.8,183.9,161.2,183.9,161.2 M180.9,161.1c-0.2,0-0.9,0-1,0c-0.1,0,0-0.2,0.2-0.2c0.2,0,0.6,0,0.9,0
			c0.3,0,0.5,0.3,0.4,0.3C181.3,161.1,181.1,161.1,180.9,161.1 M180.4,163.4c0.2-0.1,0.4,0.2,0.5,0.1c0.1,0,0-0.3,0-0.3l0-0.1
			c0.1,0,0.1,0,0.3-0.1c0.2-0.1,0.2-0.3,0.3-0.3c0,0,0.1,0,0.1,0.2c0,0.1,0,0.3,0,0.5c-0.1,0.7-0.6,1-0.9,1c-0.4,0-0.6-0.1-0.6-0.5
			C180,163.5,180.2,163.4,180.4,163.4 M175.9,163.4c0.2,0.8-0.3,1.3-0.4,1.4l-0.4,0.2c-0.1-0.1,0.1-0.2,0.2-0.3
			c0.1-0.2,0.2-0.4,0.2-0.7c0-0.2,0-0.8,0-1.2c0-0.4,0.1-0.5,0.1-0.5s0,0.1,0.1,0.3C175.7,162.8,175.8,162.7,175.9,163.4 M186,167.9
			c-0.1-0.1-0.2-0.3-0.4-0.4c-0.2-0.1-0.5,0-0.7,0h-0.1l0-0.3c0.1-0.1,0.1-0.1-0.3-0.1c-0.3,0.1-0.8,0-1.3-0.2
			c-0.5-0.2-0.7-0.9-0.8-1c-0.1-0.2-0.4-0.2-0.4,0c-0.1,0.2-0.3,0.8-0.3,0.8s-0.1,0-0.3,0.1c-0.2,0.1-0.5,0.2-0.8,0.5
			c-0.3,0.2-0.2,0.6-0.2,0.7v0.2l-0.3,0.2l-0.2,0.2c0,0.1,0.1,0.4,0.1,0.7c0,0.3,0,0.6-0.3,0.8c-0.3,0.2-1.5,0.3-1.9,0.4
			c-0.4,0.1-0.7,0.3-0.9,0.5c-0.1,0.2-0.4,0.9-0.5,1.1c-0.1,0.2-0.1,0.1-0.2,0c-0.1-0.1-0.3-0.3-0.5-0.6c-0.3-0.3-0.5-0.4-0.5-0.5
			l0.4-0.3l0-0.2l0.2,0c0.1,0.1,0.3,0.1,0.9,0.2c0.6,0,1.1-0.3,1.2-1c0.1-0.6-0.6-0.9-0.8-0.9c-0.2-0.1-0.1-0.1,0-0.3l0.1-0.3
			c0,0-0.4-0.1-0.6-0.7c-0.3-0.7,0-1.6,0.2-2.2c0.2-0.6,0.6-1.4,0.6-2.3c0-0.9-0.4-1.7-1.2-1.7c-0.8,0-1.1,0.9-1.2,1.3
			c-0.1,0.4,0,1.1-0.3,1.8c-0.2,0.7-0.7,0.7-0.7,0.7s0.3-0.3,0.3-0.7c0-0.2,0.1-1.1,0.3-1.3c0.1-0.3,0.3-0.8,0.4-1
			c0.1-0.2,0.4-0.9,1.2-1c0.8,0,1.3,0.6,1.4,1.3c0.1,0.5,0,1-0.1,1.4c-0.2,1-0.6,1.6-0.7,2.3c-0.1,0.7,0.3,1,0.4,1.2
			c0.2,0.2,0.4,0.2,0.4,0.1c0,0,0.1-0.2,0.1-0.3c0.1-0.1,0.1-0.3,0.2-0.4c0.1-0.3,0.7-0.6,1-0.8c0.3-0.2,0.9-0.6,0.9-0.7
			c0.1-0.1,0.4-0.1,1-0.1c0.5,0,1,0,1,0l0.1,0.1l0.2,0.2c0.1,0,0.5-0.4,0.7-0.7c0.2-0.3,0.3-0.7,0.3-0.7s0.3,0.3,0.5,0.4
			c0.2,0.1,0.2,0.2,0.3,0.2c0.1,0,0.1-0.2,0.1-0.5c0.1-0.3,0-0.5,0.1-0.5c0,0,0.1,0.1,0.4,0.2c0.2,0.1,0.5,0.2,0.6,0.2
			c0.1,0,0.1-0.3,0.2-0.7c0.1-0.3,0-0.5,0-0.6c0-0.1,0-0.1,0.2-0.1c0.1,0.1,0.7,0.4,0.8,0.5c0.1,0.1,0.1,0.1,0.1,0.2
			c-0.1,0.1-0.2,0.3-0.8,0.9c-0.5,0.6-1.4,1-1.6,1c-0.2,0.1-0.1,0.2,0,0.7c0.2,0.5,0.6,1,0.7,1.1c0.1,0.1,0.3,0.2,0.4,0
			c0.1-0.2,0.8-1.1,0.9-1.3c0.1-0.2,0.5,0.1,0.6,0.1l0,0.1c-0.1,0-0.2,0.1-0.2,0.4c0,0.3,0.2,0.6,0.2,0.6s-0.3,0-0.5,0.2
			C186,167.4,186.1,167.7,186,167.9C186.1,168,186.1,168,186,167.9 M186,169.2c0-0.2,0.1-0.6,0.4-0.6c0.3,0,0.5,0.3,0.5,0.5
			c0,0.2,0,0.6-0.3,0.6C186.2,169.8,186.1,169.4,186,169.2 M186.5,171.4c-0.2,0-0.4-0.3-0.3-0.6c0-0.3,0.3-0.5,0.5-0.4
			c0.2,0,0.5,0.2,0.4,0.6C187,171.3,186.7,171.4,186.5,171.4 M187.7,172.2c0,0.2-0.2,0.5-0.4,0.4c-0.2,0-0.4-0.4-0.4-0.6
			c0-0.2,0.2-0.4,0.5-0.4C187.6,171.7,187.7,172,187.7,172.2 M188.6,171.1c0,0.3-0.3,0.5-0.6,0.4c-0.2,0-0.4-0.3-0.4-0.6
			c0.1-0.3,0.4-0.4,0.6-0.4C188.5,170.5,188.6,170.8,188.6,171.1 M189.3,169.6c-0.1,0.4-0.4,0.5-0.5,0.5c-0.1,0-0.4-0.2-0.4-0.5
			c0-0.2,0.2-0.5,0.4-0.6C189.1,169.1,189.4,169.3,189.3,169.6 M189,168.7l-0.3,0c0,0,0-0.2,0-0.3c0-0.1-0.1-0.4-0.1-0.5
			c0-0.1,0-0.1,0.2-0.1c0.2,0,0.2,0,0.2,0.1c0,0.1,0,0.3,0,0.5C189,168.6,189,168.7,189,168.7 M189.6,168.7c-0.4-0.2-0.2-0.7-0.2-1
			c0-0.3-0.2-0.4-0.3-0.4c-0.1,0-0.7,0.1-0.9,0.2c-0.2,0.1-0.1,0.2,0,0.5c0.1,0.4,0,0.6-0.1,0.8c-0.1,0.2-0.2,0-0.5-0.4
			c-0.3-0.4-0.2-0.9,0-1.4c0.2-0.4,0.6-0.6,0.6-0.6s-0.2,0.3-0.4,0.8c-0.1,0.5,0,1.2,0,1.2l0.1,0c0,0,0.1-0.8,0.2-1.2
			c0.1-0.4,0.5-0.6,0.5-0.6s0.3,0.1,0.7,0.5c0.4,0.4,1,1.2,1,1.2l0.1-0.1c0,0-0.3-0.5-0.6-0.9c-0.2-0.4-0.9-0.9-0.9-0.9s0,0,0.4-0.2
			c0.4-0.2,0.6-0.1,0.8-0.1c0.1,0,0.2,0,0.1-0.1c-0.1-0.1-0.2-0.1-0.4-0.1c-0.2-0.1-0.6,0.1-0.8,0.1c-0.2,0.1-0.5,0.2-0.5,0.2
			s0.1-0.2,0.3-0.3c0.2-0.1,0.7-0.3,0.8-0.3c0.1-0.1,0.5,0.1,0.7,0.2c0.2,0.1,0.2,0.7,0.2,0.7l-0.2-0.1c-0.1,0-0.3-0.1-0.5-0.1
			c-0.2,0-0.3,0.2-0.3,0.5c0,0.4,0.5,0.5,0.7,0.5c0.1,0.1,0.2,0.2,0.3,0.5c0.1,0.3,0.1,1,0.1,1S190.1,168.9,189.6,168.7
			 M190.8,167.5c0,0-0.2-0.3-0.4-0.4c-0.2-0.1-0.5-0.1-0.5-0.2c0-0.2,0.4,0,0.6,0.1c0.2,0.1,0.2,0.2,0.2,0.2L190.8,167.5z
			 M194.5,152.2c-0.1-0.2,0.4-0.3,0.9-0.4c0.5-0.1,1.3-0.2,2.1-0.2c0.7,0,1.3,0.1,2.1,0.3c0.8,0.2,1,0.3,0.9,0.4
			c0,0.1-0.2,0.1-0.4,0c-0.2-0.1-1.4-0.4-2.6-0.4c-1.2,0-1.3,0.1-1.9,0.2C195,152.2,194.6,152.4,194.5,152.2 M199,153.4
			c-0.4-0.1-1.2-0.1-1.6-0.1c-0.4,0-1.3,0.1-1.7,0.1c-0.4,0.1-0.6,0.2-0.6,0c0-0.1,0.3-0.2,0.5-0.2c0.3-0.1,1.1-0.2,1.8-0.2
			c0.7,0,1.3,0.1,1.6,0.1c0.2,0,0.8,0.1,0.8,0.3C199.8,153.6,199.4,153.5,199,153.4 M199.5,154.3c0,0-0.4,0-0.7-0.1
			c-0.4-0.1-0.8-0.2-0.8-0.3l0.2-0.1c0.1,0,0.8,0.1,1.1,0.1C199.6,153.9,199.5,154.3,199.5,154.3 M197,153.9c0,0-0.3,0.1-0.7,0.2
			c-0.5,0.1-0.8,0.1-0.8,0.1l0-0.1l0.1-0.1l0-0.1c0,0,0.1-0.1,0.3-0.1c0.2,0,1-0.1,1.1-0.1L197,153.9 M195.2,152.6
			c0,0,0.1,0,0.3-0.1l0.2,0l0.1,0.2c0,0.2,0,0.2-0.1,0.2l-0.3,0.1l-0.1-0.1L195.2,152.6 M196.3,152.5L196.3,152.5l0.4,0l0.1,0.1
			l-0.1,0.1l-0.3,0L196.3,152.5L196.3,152.5 M197.2,152.5c0-0.2,0.1-0.3,0.3-0.3c0.3,0,0.3,0.2,0.3,0.3c0,0.1,0,0.3-0.3,0.3
			C197.3,152.8,197.2,152.7,197.2,152.5 M198.2,152.6c0-0.1,0.1-0.1,0.3-0.1c0.2,0,0.2,0.1,0.2,0.2c0,0.1,0,0.2-0.2,0.1
			C198.2,152.7,198.2,152.6,198.2,152.6 M199.1,152.6c0-0.1,0.2-0.1,0.4,0c0.2,0,0.2,0.1,0.2,0.2c0,0.1-0.1,0.1-0.3,0.1
			C199.2,152.8,199.1,152.7,199.1,152.6 M195.1,156.9c-0.1,0-0.1,0-0.2-0.1c0-0.1-0.1-0.5-0.1-1.1c0-0.6,0.1-0.8,0.1-0.9
			c0-0.1,0-0.1,0.2-0.1c0.1,0,0.5,0,1.2-0.2c0.3,0,0.4-0.1,0.6-0.2c0.3-0.1,0.5-0.2,0.5-0.2l0.1,0c0,0,0.6,0.2,1.1,0.4
			c0.5,0.1,0.9,0.2,1.1,0.2l0.2,0c0,0,0,0.2,0.1,0.3c0,0.3,0.1,0.7,0,1.3c-0.1,0.6-0.2,0.6-0.2,0.6s-0.2,0-0.5,0.1
			c-0.2,0-0.4,0.1-0.7,0.2c-0.8,0.3-1.2,0.7-1.2,0.7s-0.4-0.3-1.1-0.7C195.7,156.9,195.3,156.9,195.1,156.9 M199.5,157.4
			c0,0,0,0.4-0.6,1c-0.6,0.6-1.2,0.8-1.4,0.8c-0.1,0-0.4,0-1.2-0.5c-0.8-0.5-0.9-1.2-0.9-1.2s0.2,0,0.7,0.2c0.5,0.2,1.1,0.6,1.2,0.8
			c0.2,0.2,0.2,0.1,0.2,0.1c0.1-0.1,0.4-0.3,0.9-0.6C199,157.5,199.5,157.4,199.5,157.4 M194.3,160c0.7-0.5,1.2-1.3,1.2-1.4l0.1,0
			c0,0,0.2,0.2,0.6,0.5c0.5,0.3,1,0.5,1.3,0.5c0.3,0,0.9-0.3,1.2-0.5c0.3-0.2,0.6-0.5,0.7-0.6l0.1,0.1c0,0.1,0.3,0.6,1.1,1.3
			c0.8,0.7,2,0.8,2,0.8s-0.4,0.4-1.8,0.8c-1.4,0.5-2.3,0.5-2.4,0.5l-0.2,0l0.2-0.1c0.1-0.1,0.3-0.2,0.6-0.7c0.3-0.6,0.3-1.2,0.3-1.4
			c0-0.2-0.1-0.3-0.1-0.2c0,0-0.1,0.1-0.1,0.2c0,0.1,0,0.5-0.3,1c-0.3,0.7-0.9,0.9-1,1c-0.1,0-0.5,0-0.5,0c-0.1,0-0.1,0-0.7-0.5
			c-0.5-0.5-0.6-1.2-0.6-1.4c0-0.1,0-0.3-0.1-0.3c-0.1,0-0.1,0.1-0.1,0.2c0,0.1-0.1,0.7,0.2,1.2c0.3,0.6,0.8,0.9,0.8,0.9l0,0.1
			c0,0-0.8,0-2.3-0.4c-1.5-0.4-2.1-1-2.1-1S193.4,160.6,194.3,160 M203.8,163.1l0,8l0.1,0.1l0.7,0.7v0.1c0,0-0.6,0.4-0.9,0.6
			c-0.3,0.3-0.7,0.8-0.7,0.8s-1.2-0.1-2.6,0.3c-1.7,0.5-2.8,1.7-2.8,1.7h0c0,0-0.7-0.8-2.2-1.5c-1.5-0.8-3.2-0.6-3.2-0.6
			s-0.5-0.5-0.7-0.7c-0.3-0.2-0.9-0.7-0.9-0.7v-0.1l0.8-0.8c0,0,0-1.6,0-3.4c0-2.1,0-4.4,0-4.4l0-0.2l-0.8-0.7l1.1-1.7l0.2,0
			c0,0,0.1,0.1,1.1,0.6c1.5,0.8,3.4,1.1,4.6,1.1c1.2,0,1.9-0.1,3.1-0.4c1.3-0.3,2.7-1.2,2.8-1.2l0.1,0l1.1,1.6l0,0.1L203.8,163.1z
			 M217,172.3l-0.1,0.1l-0.2,0.1l-0.1,0l0-0.1c0,0-0.1,0-0.3,0c-0.2,0-0.3,0.1-0.3,0.1s0-0.3,0.3-0.5c0.3-0.1,0.6,0.1,0.7,0.1
			L217,172.3 M214.2,163.3c0,0-0.3,0.3-0.2,0.4c0.1,0.1,0.4-0.3,0.7-0.1c0.3,0.2,0.3,0.8-0.1,1c-0.4,0.2-0.9-0.2-1-0.4
			c-0.1-0.2-0.2-0.5-0.2-0.7c0-0.2,0.1-0.6,0.1-0.6l0.2,0.2L214.2,163.3 M214.8,161c0.4,0,0.3,0.3,0.3,0.3l-1.6,0.1
			c0,0,0.2-0.2,0.3-0.3C213.9,161,214.4,161,214.8,161 M209.1,161.4c0.4-0.2,1.2-0.7,1.2-0.7l-0.1-0.2l-0.1-0.2c0,0,0.2,0,0.4-0.1
			c0.2-0.1,0.2-0.3,0.4-0.5c0.2-0.2,0.8-0.3,1-0.4c0.2,0,0.2-0.1,0-0.2c-0.1-0.1-0.6-0.1-0.7-0.2c-0.1,0,0-0.1,0-0.1s0.2,0,0.4-0.1
			c0.1,0-0.1-0.1-0.2-0.2c-0.2-0.1-0.2-0.2-0.2-0.2s0.7,0.2,1.3,0c0.4-0.1,0.8-0.1,1.2-0.1c0.2,0,0.4,0.2,0.4,0.3l-0.2,0.2
			c-0.2,0.1-0.3,0-0.3,0l-0.2-0.1c-0.1,0-0.2,0.1-0.3,0.3c0,0.2-0.1,0.4,0,0.5l0.5,0.2c0.1-0.1,0.2-0.4,0.2-0.4s0.5-0.3,1.1-0.4
			c0.7-0.1,0.5,0.4,0.3,0.5c-0.2,0.1-0.7,0.1-1.1,0.4c-0.5,0.2-0.2,0.5-0.4,1.1c-0.2,0.5-0.9,0.8-0.9,0.8s0-0.5-0.1-0.9
			c0-0.3-0.1,0-0.3,0.3c-0.2,0.3-0.5,0.6-0.5,0.6s0-0.5,0.1-0.7c0-0.2,0.2-0.7,0.2-0.8l-0.1,0c0,0-0.2,0.4-1.1,1.3
			c-0.8,0.8-2.3,1.5-2.5,1.5c-0.2,0-0.2,0-0.2,0c0-0.1,0.1-0.2,0.2-0.4C208.4,162,208.7,161.7,209.1,161.4 M211.9,162.9
			c-0.1,0.1-0.2,0.3-0.3,0.4c-0.1,0.1-0.4,0.4-0.4,0.4c0,0-0.1-0.4,0.1-0.9c0.1-0.3,0.4-0.5,0.5-0.6l0.4-0.5c0.1,0,0,0.3,0,0.4
			c0,0.1,0,0.2,0,0.2l0.3-0.3l0.4-0.3c0.1,0,0.1,0.6,0,1.5c-0.1,0.9-0.4,1.3-0.4,1.3s-0.1-0.1-0.2-0.3c-0.1-0.1-0.1-0.3-0.2-0.5
			c-0.1-0.3-0.1-0.6,0-0.8C212.1,162.8,211.9,162.9,211.9,162.9 M211,162.3c-0.1,0.5-0.8,1-0.9,1.1c-0.1,0.1-0.2,0.1-0.2-0.1
			c0-0.2,0-0.5,0.3-1c0.4-0.5,0.9-0.8,0.9-0.8S211.1,161.7,211,162.3 M207.8,169.7c0,0.2-0.1,0.6-0.4,0.6c-0.3,0-0.5-0.2-0.5-0.4
			c0-0.3,0.2-0.6,0.4-0.6C207.5,169.3,207.8,169.5,207.8,169.7 M207.7,167l-0.2-0.2l-0.3-0.3h0.6c0.1,0,0.1,0.1,0,0.3
			C207.8,166.9,207.7,167,207.7,167 M207.8,168.7c0,0,0.1-0.4,0.1-0.6c0.1-0.2,0-0.5,0-0.5s0.2,0,0.3,0c0.2,0.1,0.2,0.4,0.2,0.5
			c0,0.2,0,0.2-0.1,0.2c-0.1,0-0.1,0-0.3,0.1C208,168.5,207.8,168.7,207.8,168.7 M208,165.5l-0.1-0.1c0,0,0-0.2,0-0.3
			c0-0.1-0.3-0.2-0.3-0.2l0.3-0.2c0.1,0,0.1-0.2,0.3-0.4c0.1-0.2,0.1-0.3,0.2-0.3c0,0,0.3,0.3,0.7,0.7c0.4,0.4,1.1,0.7,1.2,0.8
			c0.2,0.1,0.2,0,0.1,0.2c0,0.1-0.1,0.4-0.3,0.6l-0.2,0.2c-0.1,0.1-0.2,0.1-0.2,0c0-0.1-0.2-0.3-0.3-0.5c-0.1-0.2-0.5-0.6-0.7-0.7
			C208.5,165.3,208.1,165.5,208,165.5 M207.3,161.5c-0.1,0-0.2,0-0.2,0c0-0.1,0-0.2-0.1-0.4c0-0.2-0.3,0-0.4,0l-0.5,0.2l0-0.4
			c-0.1-0.1-0.3,0.1-0.5,0.2c-0.2,0.1,0-0.2,0.1-0.3c0.1-0.1,0.3-0.4,0.9-0.1c0.8,0.4,1.8,0.8,1.8,0.8s-0.3,0.5-0.4,0.6
			c-0.1,0.1-0.1,0.1-0.1,0c0-0.1-0.1-0.3-0.1-0.5C207.7,161.4,207.5,161.5,207.3,161.5 M205.3,164.3c-0.1-0.1-0.2-0.1-0.2-0.3
			c0-0.1,0-0.4,0-0.5c0-0.1,0.5-0.7,0.5-0.7l0.3,0c0.1,0.1,0.2,0.5,0.3,0.8c0.1,0.3,0.4,0.2,0.4,0.1c0.1-0.1,0.1-0.2,0.2-0.3
			l0.4-0.2l0.8,0.2l0.1,0.1c0,0.1,0,0.3-0.1,0.6c-0.1,0.3-0.5,0.3-0.6,0.4c-0.1,0-0.3,0.1-0.3,0.3c0,0.2,0.1,0.2,0.3,0.2
			c0.2,0.1,0.2,0.3,0.2,0.5c0,0.2,0,0.2-0.3,0.2c-0.6,0-0.9-0.3-1-0.4c-0.1-0.1-0.1-0.2-0.1-0.2l0.2,0.1c0.1,0.1,0.5,0.3,0.7,0.3
			c0.2,0,0.1,0,0.1-0.1c0,0-0.2-0.1-0.4-0.2c-0.1-0.1-0.3-0.2-0.3-0.2c-0.2-0.1-0.1-0.2-0.1-0.2s1.1-0.8,1.2-0.9
			c0.1-0.1,0-0.2,0-0.2c-0.1,0-0.2,0.1-0.5,0.3c-0.3,0.1-0.9,0.5-0.9,0.5s-0.1-0.1-0.1-0.3c-0.1-0.3-0.2-0.6-0.2-0.7
			c0-0.2-0.1-0.1-0.1,0.1c0,0.2,0.1,0.8,0.1,0.9c0,0.1,0,0.1-0.1,0.1C205.5,164.5,205.4,164.4,205.3,164.3 M204.2,167.6l0-0.4
			c0-0.1,0.5-0.3,0.6-0.3c0.2,0,0.2,0.2,0.1,0.2l-0.6,0.2L204.2,167.6 M205.5,167.8c0,0.2,0.2,0.7-0.1,0.9c-0.3,0.2-0.8,0.3-1,0.3
			c-0.2,0-0.1-0.2-0.1-0.4c0-0.2,0.1-0.7,0.1-0.8l0.2-0.2c0.1,0,0.7-0.3,0.7-0.5c0-0.2,0-0.6-0.4-0.6c-0.4,0-0.6,0.1-0.6,0.1
			s0-0.4,0.1-0.5c0-0.1,0.3-0.4,0.7-0.4c0.4,0,1,0.4,1.1,0.5c0.1,0.1,0.1,0.2,0.1,0.2s-0.2-0.1-0.3-0.1c-0.2,0-0.6-0.2-0.8-0.2
			c-0.2,0-0.5,0.1-0.5,0.1c-0.1,0-0.1,0.1,0.1,0.1c0.2,0,0.5,0,0.7,0.1c0.2,0.1,0.4,0.2,0.4,0.2s-0.5,0.4-0.8,0.9
			c-0.3,0.4-0.5,0.9-0.5,0.9c0,0.1,0,0.2,0.1,0c0.1-0.1,0.7-1,1-1.2c0.3-0.2,0.6-0.5,0.8-0.2c0.2,0.3,0.3,0.6,0.3,1
			c0,0.3,0,0.5,0,0.6c0,0.1,0.1,0.2,0.2-0.1c0-0.3,0.1-1-0.1-1.3c-0.2-0.3-0.3-0.5-0.3-0.5s0.5,0.2,0.7,0.8c0.2,0.6,0.1,0.8-0.1,1.1
			c-0.1,0.2-0.4,0.5-0.5,0.5l-0.3-0.4c0-0.1-0.1-0.2,0-0.4c0.1-0.2,0.2-0.3,0.2-0.5c0-0.2,0-0.2-0.1-0.2l-0.8-0.3
			C205.8,167.4,205.5,167.6,205.5,167.8 M206.3,168.9l-0.3,0l0-0.1c0,0,0-0.2,0-0.4c0-0.2,0-0.4,0-0.4l0.2,0l0.2,0.1
			c0,0-0.1,0.2-0.1,0.4C206.2,168.7,206.3,168.9,206.3,168.9 M206.2,170.2c-0.3,0-0.5-0.2-0.5-0.5c0-0.3,0.2-0.5,0.4-0.5
			c0.2,0,0.4,0.2,0.4,0.4C206.5,169.9,206.4,170.2,206.2,170.2 M207,171.6c-0.2,0.1-0.5,0.1-0.6-0.3c-0.1-0.4,0-0.6,0.2-0.7
			c0.2-0.1,0.5,0,0.6,0.3C207.4,171.2,207.2,171.5,207,171.6 M207.7,172.8c-0.2,0-0.5-0.1-0.5-0.4c0-0.3,0.2-0.5,0.4-0.5
			c0.2,0,0.4,0.2,0.4,0.4C208.1,172.6,207.9,172.8,207.7,172.8 M208.7,170.9c0,0.2,0,0.6-0.3,0.6c-0.3,0-0.5-0.2-0.5-0.5
			c0-0.2,0.2-0.5,0.3-0.5C208.5,170.4,208.7,170.7,208.7,170.9 M208.9,169.3c0,0.4-0.3,0.6-0.5,0.6c-0.2,0-0.4-0.2-0.4-0.5
			c0-0.3,0.2-0.6,0.4-0.6C208.7,168.8,208.9,169,208.9,169.3 M219.1,164.4c-0.2-0.5,0-0.9,0-1.2c0.1-0.3,0.3-0.8,0.3-0.8
			s0.1,0.1,0.1,0.3c0,0.2,0,0.6,0,1.1c0,0.6,0.1,0.9,0.2,1.1c0.1,0.2,0.2,0.3,0.2,0.3S219.4,165.2,219.1,164.4 M220.2,165
			c-0.3-0.3-0.3-1.1-0.4-1.3c0-0.3-0.1-1.1-0.2-1.3c-0.1-0.2-0.3-0.9-1.1-0.8c-0.8,0-1.2,0.9-1.2,1.5c0,0.5,0.3,1.5,0.4,1.9
			c0.2,0.5,0.6,1.4,0.6,2.2c0,0.8-0.6,1.2-0.7,1.2l-0.1,0.2l0.2,0.3c0,0-0.9,0.3-0.9,1c0.1,0.7,0.6,0.9,1.1,0.9
			c0.5,0.1,1.1-0.1,1.1-0.2l0.1,0.1c0,0-0.1,0.1,0,0.2c0,0.1,0.2,0.1,0.3,0.2l0,0.3c-0.1,0.1-0.4,0.4-0.6,0.6
			c-0.2,0.2-0.3,0.5-0.3,0.5l-0.2,0l-0.1-0.2c0-0.1-0.1-0.4-0.2-0.8c-0.1-0.4-0.6-0.6-0.8-0.7c-0.2-0.1-1.2-0.2-1.7-0.3
			c-0.5-0.1-0.5-0.3-0.5-0.5c0-0.2,0-0.7,0.1-0.9c0-0.2,0-0.2,0-0.3l-0.5-0.3c0,0,0.1-0.3,0.1-0.5c0-0.3-0.3-0.4-0.5-0.5
			c-0.2-0.1-0.8-0.3-0.8-0.3s-0.1-0.4-0.2-0.6c-0.1-0.2-0.1-0.4-0.2-0.4c-0.1,0-0.3,0.1-0.3,0.2c0,0.2,0,0.3-0.5,0.8
			c-0.3,0.3-0.8,0.4-1.2,0.4c-0.2,0-0.4-0.1-0.5-0.1c-0.3-0.1,0,0.4,0,0.4s-0.1,0-0.4,0c-0.2,0-0.6,0-0.7,0.1
			c-0.1,0.1-0.2,0.3-0.2,0.3s-0.1-0.4-0.1-0.6c-0.1-0.2-0.5-0.3-0.6-0.3l-0.1-0.1c0-0.1,0.2-0.4,0.2-0.6c0-0.2,0-0.1,0-0.2l-0.2-0.2
			c0-0.1,0-0.2,0.2-0.2c0.2-0.1,0.3,0,0.5,0.3c0.2,0.2,0.6,0.9,0.7,1c0.1,0.1,0.2,0.2,0.3,0.1c0.1-0.1,0.4-0.3,0.7-0.8
			c0.3-0.5,0.4-1,0.3-1c-0.1,0-0.5-0.2-1.3-0.7c-0.8-0.5-1.2-1.4-1.2-1.4s0.4-0.3,0.7-0.5c0.2-0.1,0.3-0.2,0.3-0.2s0,0.2,0,0.4
			c0,0.3,0.1,0.6,0.1,0.9c0.1,0.3,0.2,0.1,0.3,0l0.8-0.4l0,0c0,0,0,0.1,0,0.2c0,0.1,0.1,0.5,0.2,0.8c0.1,0.2,0.1,0.1,0.2,0.1
			l0.6-0.6c0,0,0.1,0.3,0.2,0.5c0.1,0.2,0.3,0.4,0.4,0.6c0.1,0.2,0.3,0.3,0.4,0.3l0.3-0.3c0,0,0.9-0.1,1.6,0.1
			c0.6,0.2,1.1,0.7,1.7,1.1c0.6,0.5,0.8,1,0.9,1.2c0.1,0.2,0.3,0.1,0.4,0c0.2-0.2,0.3-0.5,0.4-1c0.1-0.5-0.2-1.2-0.4-1.6
			c-0.1-0.3-0.3-0.9-0.4-1.8c-0.1-0.9,0.5-1.9,1.4-1.9c0.9,0,1.1,0.6,1.2,0.8c0.1,0.2,0.2,0.6,0.4,1.1c0.2,0.5,0.1,0.7,0.3,1.3
			c0.1,0.7,0.4,0.9,0.4,0.9S220.5,165.3,220.2,165"/>
		<path id="path8797" inkscape:connector-curvature="0" class="st0" d="M186.2,156.1c0.1,0,0.4,0.3,0.5,0.4c0.1,0.2,0.2,0.2,0.1,0.4
			c-0.1,0.1-0.2,0.2,0,0.3c0.2,0,0.9,0,1.3,0c0.4,0,0.6-0.1,0.9,0.1c0.2,0.2,0.4,0.3,0.3,0.4c-0.1,0-0.1,0.1-0.3,0.1
			c-0.1,0-0.2-0.1-0.3-0.1c-0.3-0.1-0.7-0.1-1,0c-0.3,0.1-0.4,0.4-0.6,0.7c-0.1,0.2-0.1,0.4-0.1,0.5c0,0.2,0,0.3,0,0.3l0.2,0
			c0.1,0,0.2-0.1,0.4-0.1c0.2,0,0.9,0.2,1.4,0.4c0.5,0.2,1.3,0.4,1.6,0.3c0.4-0.1,0.9-0.6,1-0.9c0-0.2-0.1-0.6-0.1-0.8l0.2-0.1
			c0.1,0,0.8,0.6,1,0.8c0.2,0.2,0.3,0.2,0.3,0.3l0.2,0l0.2-0.1l0-0.1c-0.1,0-1.2-0.9-1.3-1.1c-0.1-0.2,0.1-0.3,0.2-0.2
			c0.1,0,0.5,0.2,0.8,0.1c0.2-0.1,0.9-0.7,0.7-1.2c-0.2-0.6-0.5-1.1-1.3-2.1c-0.2-0.2-0.3-0.3-0.4-0.4c-0.1-0.1-0.2-0.1-0.3,0
			c-0.1,0.2-0.4,0.5-0.4,0.5l-0.2,0l-0.2-0.1c-0.1,0-0.3-0.1-0.3,0c0,0.1-0.1,0.4-0.2,0.7c-0.1,0.2-0.1,0.5-0.3,0.1
			c-0.3-0.4-0.6-0.8-1-1.1c-0.4-0.3-0.5-0.2-0.4-0.1c0,0.1,0.1,0.3,0.1,0.3l-0.1,0.1c-0.1,0-0.7,0-1.4,0.3c-0.7,0.4-1.3,0.9-1.3,1
			L186.2,156.1 M186.6,155.8L186.6,155.8c0.2-0.2,0.4-0.4,1.1-0.7c0.8-0.3,1.3-0.2,1.5-0.1c0.1,0,0.1-0.2,0.1-0.2s0.1,0.1,0.3,0.3
			c0.2,0.2,0.3,0.4,0.5,0.8l0.1,0.2c0.1,0.2,0.2,0,0.3-0.2c0.2-0.2,0.3-0.8,0.4-0.9c0-0.1,0.2,0,0.3,0.1l0.2,0
			c0.1-0.1,0.2-0.3,0.4-0.5c0.1-0.2,0.2-0.1,0.5,0.2c0.4,0.4,0.8,0.9,1,1.5c0.2,0.6-0.2,0.9-0.4,1c-0.2,0.1-0.6,0-1-0.1
			c-0.3,0-0.3,0.3-0.4,0.3c-0.1,0-0.1-0.1-0.1-0.4c0-0.2,0.1-0.4,0.1-0.4s0.2,0,0.5-0.1c0.3-0.1,0.4-0.4,0.5-0.4
			c0-0.1,0.2-0.3,0-0.3c-0.1,0,0,0.1-0.2,0.2c-0.2,0.2-0.4,0.2-0.5,0.2l-0.1-0.1c0-0.1,0.1-0.1,0.2-0.4c0.1-0.3,0-0.6,0-0.7
			c0-0.1-0.1-0.1-0.1,0c0,0.1,0,0.3-0.2,0.6c-0.1,0.3-0.2,0.4-0.2,0.4l-0.1-0.1l-0.2-0.5l-0.1,0c0,0.1,0.1,0.5,0.2,0.7
			c0.1,0.3,0,0.2-0.1,0.4c-0.1,0.1-0.1,0.2-0.1,0.3c0,0.2-0.1,0-0.2-0.1c-0.2-0.1-0.9-0.5-1-0.6l-0.2-0.2c0-0.1-0.1-0.2-0.3-0.4
			c-0.1-0.2-0.5-0.5-0.6-0.6l-0.1,0.1c0,0.1,0.4,0.5,0.5,0.6c0.1,0.1,0,0.1-0.1,0.1c-0.2-0.1-0.8-0.3-1-0.3c-0.2,0-0.6-0.1-0.7-0.1
			l-0.1,0.1l0.3,0c0.2,0,1,0.2,1.6,0.6c0.6,0.3,1.6,1,1.6,1s-0.3,0.1-0.5,0.4c-0.2,0.4-0.4,0.4-0.7,0.5c-0.2,0.1-1.1,0.1-1.2,0.1
			l0,0.1c0,0,0.7,0.1,1.3,0.1c0.6,0,0.7-0.5,0.9-0.7c0.2-0.2,0.5-0.1,0.5-0.1s-0.2,0.1-0.2,0.4c0,0.3,0.1,0.5,0.1,0.6
			c0,0.1,0,0.2-0.1,0.4c-0.2,0.2-0.4,0.4-0.7,0.4c-0.7,0-1.8-0.5-2.2-0.6c-0.4-0.1-0.7-0.1-0.7-0.1s0-0.1,0.1-0.4
			c0.1-0.3,0.2-0.3,0.4-0.4c0.2-0.1,0.7,0.1,1,0.1c0.3,0,0.7-0.2,0.7-0.2c0.1-0.1,0.2-0.1,0.2-0.2c-0.1-0.1-0.8-0.8-0.9-0.8
			l-0.1-0.1c-0.1,0-0.6,0-0.7,0.1c-0.1,0-0.6,0-0.7,0c-0.1,0-0.1,0-0.2-0.2c-0.1-0.1-0.1-0.1-0.3-0.3c-0.2-0.2-0.1-0.1-0.3-0.3
			C186.4,155.8,186.6,155.8,186.6,155.8"/>
		<path id="path8801" inkscape:connector-curvature="0" class="st0" d="M201.9,157.7c0.4,0.2,0.7,0.1,0.8,0.1c0.2,0,0.3,0,0.2,0.2
			c-0.1,0.2-1.1,1-1.1,1l-0.2,0.1l0.1,0.1l0.2,0.1c0.1-0.1,1-0.8,1.2-1c0.2-0.2,0.4-0.1,0.3,0.1c-0.1,0.2-0.3,0.7,0.2,1.2
			c0.6,0.5,1,0.5,1.5,0.3c0.5-0.2,1.7-0.6,1.9-0.6c0.2-0.1,0.4,0,0.6,0.1c0.2,0.1,0.3,0.1,0.2-0.3c-0.1-0.4-0.4-1.6-1.1-1.5
			c-0.2,0-0.3,0-0.4,0c-0.4,0.1-0.4,0.1-0.6,0.1c-0.3,0-0.3-0.1-0.1-0.2c0.2-0.1,0.5-0.4,0.5-0.4s0.6,0,1,0.1c0.4,0,0.9,0,1.1,0
			c0.1,0,0.1,0,0-0.1c-0.1-0.1-0.3-0.2-0.2-0.3c0.1-0.2,0.5-0.5,0.7-0.6c0.2-0.1,0.3-0.1,0.1-0.3c-0.2-0.2-0.7-0.8-1.6-1.1
			c-0.6-0.2-1-0.1-1-0.1c-0.1,0-0.1,0-0.1-0.2c0-0.2,0-0.2,0.1-0.3c0-0.1,0-0.1-0.3,0c-0.2,0.1-0.8,0.7-1,1
			c-0.2,0.3-0.2,0.4-0.2,0.4c0,0-0.1-0.1-0.2-0.3c-0.1-0.2-0.2-0.5-0.2-0.7c0-0.2-0.1-0.1-0.2-0.1l-0.3,0.2l-0.2-0.1
			c-0.1-0.1-0.3-0.3-0.4-0.5c-0.1-0.1-0.1-0.2-0.2-0.1c-0.1,0.1-1.1,1.1-1.5,1.9C201.2,156.8,201.4,157.4,201.9,157.7 M201.9,156
			c0.3-0.7,0.9-1.3,1.1-1.4c0.2-0.2,0.2,0,0.3,0.1l0.4,0.4c0.1,0,0.1,0,0.2-0.2c0.2-0.2,0.2,0.1,0.3,0.4c0.1,0.2,0.2,0.6,0.3,0.7
			c0.1,0.1,0.2,0.2,0.3,0c0.1-0.1,0.4-0.6,0.5-0.8c0.2-0.2,0.3-0.5,0.4-0.4l0.1,0.3c0.1,0,0.3-0.2,1,0c0.7,0.1,1.3,0.6,1.4,0.7
			c0.2,0.1,0.1,0.2,0,0.2c-0.1,0.1-0.4,0.4-0.5,0.5c-0.1,0.1-0.1,0.3-0.3,0.3c-0.2,0-1.1-0.1-1.3-0.1c-0.2,0-0.2,0-0.3,0.1l-0.6,0.6
			c-0.1,0.1-0.3,0.2-0.2,0.3c0.1,0.1,0.4,0.3,0.7,0.4c0.1,0.1,0.5,0,0.8-0.1c0.2,0,0.3,0,0.4,0c0.3,0,0.5,0.5,0.6,0.6
			c0.1,0.2,0,0.2-0.1,0.2c-0.1,0-0.3,0-0.7,0.1c-0.4,0.1-1.2,0.4-1.7,0.5c-0.5,0.1-0.9,0-1.1-0.3c-0.2-0.3,0.1-1.1,0-1.3
			c-0.1-0.2-0.2-0.2-0.2-0.2c0-0.1,0.1-0.1,0.3-0.1c0.2,0.1,0.4,0.3,0.7,0.8c0.3,0.4,1.1,0.2,1.3,0.2c0.2,0,0.5,0,0.5-0.1
			c0-0.1-0.5-0.1-1-0.1c-0.5,0-0.8-0.4-0.9-0.5c-0.1-0.2-0.4-0.5-0.4-0.5s0.3-0.2,1-0.7c0.7-0.4,2-0.8,2.2-0.8c0.2,0,0.3,0,0.3-0.1
			c0-0.1-0.3-0.1-0.7,0c-0.4,0-0.9,0.3-1.1,0.3c-0.2,0.1-0.1-0.1,0-0.2c0.1-0.2,0.3-0.4,0.4-0.5l0-0.1c-0.1-0.1-0.4,0.3-0.6,0.5
			c-0.2,0.2-0.4,0.6-0.4,0.6s-0.3,0.2-0.6,0.3c-0.3,0.2-0.8,0.5-0.8,0.5l-0.1-0.2l-0.2-0.3c-0.1-0.1,0-0.3,0.1-0.5
			c0-0.1,0.1-0.5,0.1-0.5l-0.1,0l-0.2,0.5l-0.1,0.1c0-0.1-0.1-0.1-0.2-0.3c-0.1-0.2-0.1-0.4-0.2-0.5c0-0.1,0-0.2-0.1-0.2
			c-0.1,0-0.1,0.1-0.1,0.2c0,0.1-0.1,0.4,0.1,0.7c0.2,0.3,0.2,0.4,0.2,0.4l-0.2,0c-0.1,0-0.4-0.2-0.6-0.4c-0.2-0.2-0.2,0,0.1,0.3
			c0.2,0.3,0.6,0.4,0.7,0.4c0.1,0,0.1,0,0.2,0.1l0.1,0.5l-0.2,0.2c0,0-0.1-0.2-0.2-0.2c-0.1-0.1-0.2-0.1-0.5,0
			c-0.3,0-0.5,0.1-0.7-0.2C201.7,156.9,201.7,156.6,201.9,156"/>
		<path id="path8805" inkscape:connector-curvature="0" class="st0" d="M185.7,171.9c-0.2-0.3-0.5-0.8-1-0.7c-0.6,0.1-0.9,0.2-1,0.2
			c-0.1,0-0.2,0.1-0.4,0c-0.1-0.1-0.3-0.2-0.3-0.4c0-0.1,0.1-0.2,0.2-0.4c0.1-0.2,0.5-1.1,0.7-1.4c0.1-0.3,0.2-0.6-0.3-0.9
			c-0.5-0.3-1-0.5-1.2-0.6c-0.2-0.1-0.6,0.1-0.6,0.3c0,0.2,0.2,0.6,0.2,0.8c0,0.2,0,0.2-0.1,0.3l-0.3,0.1c-0.1,0-0.3,0-0.4,0
			c-0.2,0-0.2,0.1-0.2,0.3c0,0.2,0.2,0.6,0,0.9c-0.2,0.3-0.3,0.5-0.9,0.7c-0.4,0.1-0.5,0.2-0.4,0.2c0.1,0.1,0.2,0.1,0.3,0.1
			c0.1,0,0.3,0,0.3,0s-0.2,0.2-0.2,0.4c0,0.2,0.1,0.5,0.2,0.5c0.1,0,1,0.2,1.2,0.3c0.2,0.1,0.9,0.3,1,0.4l0.1,0.2l0.1,0.2
			c0.1,0,0.2-0.2,0.2-0.4c0-0.2,0-0.3,0.1-0.3c0.1,0,0.3-0.1,0.5,0c0.2,0.1,0.3,0.1,0.3,0.2c0,0.1,0,0.3,0,0.3
			c0.1,0,0.2-0.1,0.2-0.3c0-0.2,0.1-0.4,0.1-0.4l0.3,0.1l0.2,0.2l0,0.2c0.1,0,0.2-0.1,0.3-0.3c0.1-0.2,0-0.3,0.2-0.3
			c0.2,0,0.3,0.2,0.4,0.3c0.1,0.1,0.3,0.2,0.2,0C185.8,172.7,185.9,172.3,185.7,171.9 M185.1,172.1l-0.3-0.1l-0.1,0.3l-0.1,0
			c0,0-0.2-0.1-0.3-0.2c-0.1-0.1-0.4-0.2-0.5-0.2l0,0.2l-0.1,0.1c-0.1,0-0.1-0.1-0.4-0.1c-0.3,0-0.5,0.1-0.7,0.2
			c-0.2,0.1-0.3,0-0.5-0.1c-0.2-0.1-1.1-0.3-1.2-0.3c-0.2,0-0.2,0-0.2-0.2c0-0.2,0.2-0.4,0.3-0.4l0.2-0.1c0-0.1-0.2-0.1-0.4-0.1
			c-0.1,0,0.1-0.1,0.2-0.2c0.1-0.1,0.3-0.2,0.4-0.5c0.1-0.3,0.1-0.6,0.1-0.8c0-0.1,0-0.1,0.1-0.2l0.5-0.1c0.1,0,0.3-0.1,0.4-0.4
			c0-0.3-0.2-0.8-0.2-0.8c0,0,0.1,0,0.2,0c0.1,0,0.5,0.2,0.8,0.4c0.2,0.1,0.3,0.3,0.2,0.6c-0.1,0.3-0.6,1.2-0.7,1.4
			c-0.1,0.2-0.1,0.3-0.1,0.5c0,0.2,0.1,0.3,0.4,0.5s0.3,0.3,0.5,0.2c0.2,0,0.9-0.2,1.1-0.2c0.2,0,0.4,0,0.5,0.1
			c0.1,0.1,0.3,0.4,0.3,0.5C185.4,172.2,185.2,172.1,185.1,172.1"/>
		<path id="path8809" inkscape:connector-curvature="0" class="st0" d="M215.1,171.3c-0.1,0-0.3-0.1-0.5-0.2
			c-0.3-0.2-0.7-0.4-0.7-0.9c0-0.6,0.1-0.5,0.1-0.6c0-0.2-0.1-0.2-0.2-0.2l-0.6-0.1c-0.1,0-0.2,0-0.1-0.3c0.1-0.3,0.2-0.6,0.2-0.6
			c0,0,0.1-0.1,0-0.2c-0.1-0.1-0.3-0.3-0.6-0.1c-0.3,0.1-1,0.4-1.2,0.6c-0.2,0.2-0.3,0.4-0.2,0.7c0.1,0.3,0.4,0.9,0.6,1.2
			c0.2,0.3,0.4,0.5,0.2,0.8c-0.2,0.3-0.2,0.4-0.4,0.3c-0.2,0-1-0.3-1.4-0.3c-0.4,0-0.9,0.4-0.9,0.8c0,0.3-0.1,0.4-0.1,0.5
			c0,0.3-0.1,0.5,0,0.5l0.3-0.3l0.2-0.1l0.2-0.1l0.1,0.2l0.1,0.3c0,0.1,0.1,0.2,0.2,0c0.1-0.2,0.1-0.3,0.2-0.3l0.3-0.2l0.1,0.1
			c0,0.1,0,0.4,0.2,0.5c0.1,0.2,0.2,0.2,0.2,0.1c0-0.1,0.1-0.4,0.3-0.5c0.2-0.1,0.4,0,0.5,0.1c0,0.1,0.2,0.4,0.2,0.5
			c0,0.1,0.2,0.2,0.2,0c0-0.2,0.1-0.4,0.3-0.4c0.2-0.1,1-0.3,1.3-0.4c0.3-0.1,0.4-0.1,0.6-0.1l0.2-0.1l0-0.4
			c-0.1-0.2-0.1-0.2-0.2-0.2l0-0.1c0.1,0,0.3,0,0.4-0.1C215.2,171.4,215.3,171.3,215.1,171.3 M214.2,172.2c-0.2,0.1-1,0.2-1.4,0.3
			c-0.4,0.1-0.7-0.1-1-0.1c-0.2-0.1-0.4,0.1-0.5,0.1c-0.1,0-0.1-0.1-0.1-0.3c0-0.1-0.1-0.1-0.2-0.1c-0.1,0-0.4,0.1-0.6,0.3
			c-0.2,0.1-0.2-0.2-0.2-0.3c0-0.1-0.1,0-0.3,0c-0.1,0.1-0.2,0.1-0.2,0.1l0.1-0.3c0.1-0.1,0.2-0.3,0.6-0.3c0.3,0,1,0.2,1.2,0.3
			c0.2,0.1,0.3,0,0.4-0.1l0.4-0.5l0.1-0.2c0-0.1,0-0.2,0-0.4c0-0.1-0.1-0.2-0.2-0.3c-0.1-0.1-0.5-1-0.6-1.2c-0.1-0.2,0-0.4,0.1-0.5
			c0.1-0.1,0.7-0.4,0.9-0.4c0.2,0,0.1,0,0.1,0.1c-0.1,0.1-0.1,0.4-0.2,0.6c0,0.2,0,0.4,0.2,0.5c0.2,0.1,0.7,0.2,0.7,0.2
			s-0.1,0.2,0,0.7c0.1,0.6,0.5,0.7,0.6,0.8l0,0.1l-0.3,0c-0.1,0-0.1,0.1,0,0.2c0.1,0.1,0.2,0.2,0.4,0.3
			C214.4,172,214.4,172.1,214.2,172.2"/>
		<path id="path8813" inkscape:connector-curvature="0" class="st0" d="M195.5,155.1c-0.1,0-0.2,0-0.2,0c0,0,0,0.3,0,0.6
			c0,0.3,0,0.5,0,0.6c0,0.1,0,0.2,0.1,0.2l0.3,0c0,0,0-0.5,0-0.8c0-0.2,0-0.7,0-0.7S195.7,155.1,195.5,155.1"/>
		<path id="path8817" inkscape:connector-curvature="0" class="st0" d="M196.6,156.9l0.1-0.1c0-0.1,0-0.6,0-0.9c0-0.3,0-0.8,0-0.8
			l-0.1-0.1l-0.2,0.1l-0.1,0.1c0,0.1,0,0.4,0,0.7c0,0.4,0,0.8,0,0.8l0.2,0.1L196.6,156.9"/>
		<path id="path8821" inkscape:connector-curvature="0" class="st0" d="M197.3,157.2l0.1,0.1l0.1,0.1l0.1-0.1l0.1-0.1
			c0-0.1,0-0.9,0-1.4c0-0.5,0-1,0-1.1c0-0.1-0.1-0.1-0.2-0.1c-0.1,0-0.2,0-0.2,0.1c0,0.1,0,0.7,0,1.1c0,0.4,0,1.2,0,1.3L197.3,157.2
			"/>
		<path id="path8825" inkscape:connector-curvature="0" class="st0" d="M198.3,156.8l0.1,0l0.1-0.1c0.1,0,0.2,0,0.2-0.2
			c0-0.2,0-0.5,0-0.8c0-0.3,0-0.7,0-0.8l-0.1-0.1l-0.1,0l-0.1,0l-0.1,0.1c0,0.1,0,0.5,0,0.8C198.4,156.1,198.4,156.8,198.3,156.8"/>
		<path id="path8829" inkscape:connector-curvature="0" class="st0" d="M199.3,155.8c0,0.3,0,0.6,0,0.7l0.1,0.1l0.3,0l0.1-0.1
			c0,0,0-0.5,0-0.7c0-0.2,0-0.5,0-0.6l-0.1-0.1l-0.2,0l0,0.1C199.3,155.2,199.3,155.4,199.3,155.8"/>
		<path id="path8833" inkscape:connector-curvature="0" class="st0" d="M195.5,161.5c0.1,0,0.2,0.1,0.3,0.1l-0.1-0.2
			c-0.1-0.1-0.3-0.4-0.3-0.8c-0.1-0.4,0-0.8,0-0.8l-0.1,0c-0.1,0.1-0.4,0.4-0.7,0.6c-0.3,0.2-0.7,0.4-0.8,0.4c-0.1,0-0.3,0-0.2,0.1
			c0.1,0.1,0.7,0.4,1.2,0.5C195.1,161.4,195.4,161.5,195.5,161.5 M194.1,160.8l-0.1,0l0.1-0.1V160.8z M194.4,160.8l-0.1,0.2
			l-0.1-0.2l0.1-0.2L194.4,160.8 M195.1,161l0-0.1l0,0l0.1,0.2l0.1,0.2l-0.2,0L195.1,161 M194.8,160.4l0.1-0.1l0.1,0
			c0,0,0,0.2,0,0.3s0,0.5,0,0.5l-0.1,0l-0.1-0.1l0-0.2L194.8,160.4 M194.5,161l0-0.3v-0.2l0.1-0.1l0.1,0.1l0,0.3L194.5,161
			L194.5,161"/>
		<path id="path8837" inkscape:connector-curvature="0" class="st0" d="M199.3,161.6c0.1,0,0.6-0.1,1.2-0.3c0.6-0.2,1-0.3,1.1-0.4
			l0-0.2c-0.1,0-0.5-0.2-0.9-0.4c-0.4-0.3-0.7-0.4-0.8-0.6c-0.1-0.1-0.3-0.2-0.3-0.1c0,0.1,0.1,0.6,0,0.9c-0.1,0.4-0.2,0.6-0.3,0.7
			C199.3,161.5,199.2,161.6,199.3,161.6 M201.1,160.8l-0.1,0.1l0-0.1L201.1,160.8z M200.8,160.7l0,0.3l-0.1,0l-0.1,0l0-0.4
			L200.8,160.7z M200.5,160.5l0,0.5l0,0l-0.1,0l0-0.3l0-0.4L200.5,160.5z M200.1,160.3l0.1,0.1c0,0,0,0.1,0,0.2c0,0.1,0,0.3,0,0.4
			l-0.1,0.1l0-0.1c0-0.1,0-0.1,0-0.3C200.1,160.6,200.1,160.3,200.1,160.3 M199.9,161l0.1-0.1l0.1-0.2l0,0.3c0,0.1,0,0.2-0.1,0.2
			l-0.1,0L199.9,161L199.9,161"/>
		<path id="path8841_00000129911468145687640330000014064664047653749139_" inkscape:connector-curvature="0" class="st1" d="
			M196.8,170.6c0-0.3-0.2-1.1-0.2-1.2c0-0.1-0.1-0.1-0.2-0.1c-0.1-0.1-1.1-0.5-1.5-0.8c-0.4-0.3-0.3-0.8-0.2-1.3
			c0.2-0.6,0.8-2.2,0.8-2.2l1.8,0l0,6.9l-1.3,0l0,0c0,0,0.1,0,0.2-0.1c0.1-0.1,0.5-0.4,0.6-0.5C196.9,171,196.9,170.9,196.8,170.6"
			/>
		<path id="path8841" inkscape:connector-curvature="0" class="st0" d="M203.3,161.3L203.3,161.3c-0.1-0.1-1.2,0.7-2.5,1.1
			c-1.2,0.4-3.9,0.9-6.7,0c-1.6-0.5-2.3-1.1-2.4-1.1l-0.1,0l-0.7,0.9l0,0.1l0.6,0.5l0,0.2c0,0.1,0,4,0,4.7c0,0.8,0,3.4,0,3.4
			l-0.6,0.6l0,0.2c0.1,0,0.6,0.4,0.8,0.6c0.2,0.2,0.3,0.3,0.4,0.4c0.1,0.1,0.1,0.1,0.2,0.1c0.1,0,0.8,0,1.1,0c0.3,0,1.2,0.2,2.3,0.8
			c1.1,0.6,1.6,1.1,1.6,1.1l0.2,0c0.1-0.1,1-0.9,2.5-1.4c1.5-0.5,2.6-0.4,2.6-0.4s0.2-0.3,0.5-0.6c0.4-0.3,0.6-0.4,0.6-0.4l0.1-0.1
			l-0.4-0.4l-0.2-0.3c0,0,0-8,0-8.1c0-0.1,0.1-0.2,0.2-0.3c0.1-0.1,0.4-0.4,0.4-0.4l0.1,0l0-0.1L203.3,161.3 M196.8,170.6
			c0-0.3-0.2-1.1-0.2-1.2c0-0.1-0.1-0.1-0.2-0.1c-0.1-0.1-1.1-0.5-1.5-0.8c-0.4-0.3-0.3-0.8-0.2-1.3c0.2-0.6,0.8-2.2,0.8-2.2l1.8,0
			l0,6.9l-1.3,0l0,0c0,0,0.1,0,0.2-0.1c0.1-0.1,0.5-0.4,0.6-0.5C196.9,171,196.9,170.9,196.8,170.6 M197.3,164.5l-2.1,0
			c0,0-0.4,1-0.6,1.5c-0.2,0.5-0.5,1.4-0.5,1.9c0,0.5,0.2,0.7,0.6,0.9c0.4,0.3,1.3,0.7,1.4,0.7l0.1,0.1c0,0.1,0,0.2,0.1,0.4
			c0,0.2,0.1,0.8,0.1,0.9c0,0.1-0.1,0.2-0.4,0.4c-0.3,0.2-0.7,0.4-0.8,0.4l-0.2,0.1l-0.2,0.3l0.1,0.1l2.3,0v1.8l0,0
			c0,0-0.7-0.6-2-1.1c-1.3-0.5-2.6-0.4-2.6-0.4s-0.2-0.2-0.3-0.3c-0.1-0.1-0.4-0.3-0.4-0.4l0.2-0.2l0.2-0.2v-8.6l0-0.2l-0.5-0.4
			l0-0.1l0.1-0.1l0.1,0c0.1,0,0.7,0.4,2.1,0.9c1.4,0.5,3.2,0.5,3.2,0.5l0.1,0.1L197.3,164.5 M203.2,162.3c-0.1,0.1-0.3,0.2-0.4,0.3
			c-0.1,0.1-0.1,0.2-0.1,0.2l0,0.1c0,0.1,0,0.6,0,1.1c0,0.5,0,7.5,0,7.5l0.3,0.4l0,0.1l-0.6,0.5c0,0-1,0-2.2,0.3
			c-1.4,0.4-2.3,1.1-2.4,1.2l-0.1,0l0-0.1c0-0.1,0-3.6,0-4.8c0-1.2,0-5.4,0-5.5l0.1-0.1c0,0,0.9,0,2.5-0.3c1.5-0.3,2.7-1.1,2.7-1.1
			l0.2,0L203.2,162.3"/>
		<path id="path8845" inkscape:connector-curvature="0" class="st0" d="M201.3,165.4c0,0,0.1-0.1,0.1-0.2c0-0.2,0-0.3,0-0.3l-0.9,0
			l0-0.4l-0.1-0.1h-0.7c0,0,0,5,0,5.2c0,0.2,0,0.2,0,0.3l-0.8,0.8v0.1c0.1,0.1,0.3,0.3,0.5,0.5c0.3,0.3,0.5,0.5,0.5,0.5l0.1,0
			c0,0,0.4-0.4,0.6-0.6c0.2-0.2,0.4-0.5,0.5-0.5l0-0.2l-0.7-0.7l0-3.6l0.9,0l0.1-0.1l0-0.3l-0.1-0.1l-0.3,0l0-0.4L201.3,165.4
			 M200.4,170.7l-0.1,0.2l-0.2,0.2l-0.1,0l-0.2-0.2l-0.1-0.1l0-0.1l0.3-0.3l0.1,0L200.4,170.7L200.4,170.7"/>
	</g>
</g>
</svg>
