<?xml version="1.0" encoding="utf-8"?>
<!-- Generator: Adobe Illustrator 16.0.2, SVG Export Plug-In . SVG Version: 6.00 Build 0)  -->
<!DOCTYPE svg PUBLIC "-//W3C//DTD SVG 1.1//EN" "http://www.w3.org/Graphics/SVG/1.1/DTD/svg11.dtd">
<svg version="1.1" id="Layer_1" xmlns="http://www.w3.org/2000/svg" xmlns:xlink="http://www.w3.org/1999/xlink" x="0px" y="0px"
	 width="58.094px" height="64px" viewBox="156.231 150.912 58.094 64" enable-background="new 156.231 150.912 58.094 64"
	 xml:space="preserve">
<linearGradient id="SVGID_1_" gradientUnits="userSpaceOnUse" x1="184.3303" y1="202.9492" x2="186.2097" y2="202.9492">
	<stop  offset="0" style="stop-color:#234930"/>
	<stop  offset="1" style="stop-color:#83B645"/>
</linearGradient>
<path fill="url(#SVGID_1_)" d="M186.21,202.948c0,0.063-0.006,0.124-0.019,0.184c-0.012,0.062-0.029,0.12-0.053,0.177
	c-0.024,0.058-0.053,0.111-0.087,0.163c-0.035,0.052-0.074,0.1-0.117,0.143c-0.044,0.044-0.091,0.083-0.143,0.117
	c-0.051,0.034-0.105,0.063-0.163,0.087c-0.057,0.023-0.115,0.041-0.176,0.054c-0.06,0.012-0.122,0.018-0.183,0.018
	c-0.062,0-0.123-0.006-0.184-0.018c-0.061-0.013-0.119-0.03-0.176-0.054c-0.057-0.023-0.111-0.053-0.163-0.087
	s-0.099-0.073-0.143-0.117c-0.043-0.043-0.083-0.091-0.117-0.143c-0.034-0.052-0.063-0.105-0.086-0.163
	c-0.023-0.057-0.042-0.115-0.054-0.177c-0.012-0.06-0.019-0.121-0.019-0.184c0-0.062,0.007-0.123,0.019-0.183
	c0.012-0.061,0.03-0.12,0.054-0.177c0.023-0.058,0.052-0.111,0.086-0.163c0.035-0.052,0.074-0.099,0.117-0.143
	c0.044-0.044,0.091-0.082,0.143-0.116c0.051-0.035,0.105-0.064,0.163-0.088c0.057-0.024,0.115-0.042,0.176-0.054
	c0.061-0.012,0.122-0.018,0.184-0.018c0.062,0,0.123,0.006,0.183,0.018c0.061,0.012,0.119,0.029,0.176,0.054
	c0.057,0.023,0.111,0.053,0.163,0.088c0.052,0.034,0.099,0.072,0.143,0.116c0.043,0.044,0.083,0.091,0.117,0.143
	c0.034,0.052,0.063,0.105,0.087,0.163c0.023,0.057,0.041,0.116,0.053,0.177C186.204,202.825,186.21,202.887,186.21,202.948z"/>
<g>
	<g>
		<linearGradient id="SVGID_2_" gradientUnits="userSpaceOnUse" x1="166.5457" y1="168.1514" x2="210.4983" y2="168.1514">
			<stop  offset="0" style="stop-color:#234930"/>
			<stop  offset="1" style="stop-color:#83B645"/>
		</linearGradient>
		<path fill="url(#SVGID_2_)" d="M210.468,151.861c0-0.062-0.006-0.124-0.019-0.185c-0.012-0.061-0.03-0.121-0.054-0.177
			c-0.023-0.058-0.053-0.112-0.087-0.165c-0.035-0.052-0.074-0.1-0.118-0.144s-0.092-0.083-0.143-0.118
			c-0.053-0.035-0.106-0.064-0.164-0.088c-0.059-0.024-0.117-0.042-0.178-0.054c-0.062-0.013-0.122-0.019-0.186-0.019h-6.311
			c-0.063,0-0.124,0.006-0.185,0.019c-0.061,0.012-0.12,0.03-0.178,0.054s-0.111,0.053-0.164,0.088
			c-0.052,0.035-0.1,0.073-0.143,0.118c-0.045,0.044-0.084,0.092-0.118,0.144c-0.034,0.052-0.063,0.106-0.088,0.165
			c-0.023,0.057-0.041,0.116-0.054,0.177c-0.012,0.061-0.019,0.123-0.019,0.185c0,0.063,0.007,0.124,0.019,0.185
			c0.013,0.061,0.03,0.121,0.054,0.178c0.024,0.058,0.054,0.112,0.088,0.165c0.034,0.052,0.073,0.1,0.118,0.144
			c0.043,0.043,0.091,0.083,0.143,0.117c0.053,0.035,0.106,0.064,0.164,0.088c0.058,0.024,0.117,0.042,0.178,0.054
			c0.061,0.012,0.122,0.018,0.185,0.018h4.061l-21.145,23.768l-8.462-5.928c-0.102-0.07-0.212-0.119-0.332-0.146
			c-0.121-0.027-0.241-0.03-0.363-0.01c-0.122,0.019-0.234,0.061-0.34,0.125c-0.105,0.064-0.195,0.145-0.269,0.243l-9.637,13.019
			c-0.036,0.05-0.067,0.104-0.093,0.161c-0.025,0.057-0.045,0.115-0.06,0.177c-0.014,0.06-0.022,0.121-0.025,0.184
			c-0.002,0.062,0.001,0.124,0.012,0.186c0.009,0.061,0.025,0.121,0.047,0.18s0.048,0.115,0.081,0.167
			c0.032,0.054,0.07,0.103,0.111,0.149c0.043,0.045,0.089,0.087,0.139,0.124c0.17,0.12,0.359,0.181,0.568,0.182
			c0.149,0.001,0.291-0.031,0.424-0.098c0.133-0.067,0.245-0.161,0.333-0.281l9.091-12.275l8.379,5.914
			c0.095,0.067,0.199,0.115,0.311,0.144c0.113,0.028,0.226,0.036,0.341,0.022c0.116-0.014,0.225-0.047,0.328-0.1
			c0.103-0.054,0.192-0.124,0.271-0.21l21.622-24.314v3.515c-0.001,0.063,0.005,0.125,0.017,0.186s0.029,0.121,0.053,0.178
			s0.053,0.113,0.087,0.165c0.035,0.052,0.075,0.1,0.118,0.144c0.045,0.044,0.093,0.083,0.145,0.118
			c0.052,0.034,0.106,0.063,0.164,0.087c0.058,0.024,0.117,0.042,0.179,0.054c0.061,0.012,0.123,0.018,0.185,0.017
			c0.063,0,0.124-0.006,0.186-0.018c0.061-0.012,0.12-0.03,0.177-0.054c0.059-0.023,0.112-0.053,0.164-0.088
			c0.052-0.035,0.101-0.074,0.144-0.118c0.045-0.043,0.084-0.091,0.118-0.143c0.034-0.052,0.063-0.106,0.087-0.165
			c0.024-0.058,0.042-0.117,0.055-0.178c0.012-0.061,0.018-0.122,0.018-0.185L210.468,151.861z"/>
	</g>
</g>
<linearGradient id="SVGID_3_" gradientUnits="userSpaceOnUse" x1="156.7307" y1="193.5508" x2="164.0037" y2="193.5508">
	<stop  offset="0" style="stop-color:#234930"/>
	<stop  offset="1" style="stop-color:#83B645"/>
</linearGradient>
<path fill="url(#SVGID_3_)" d="M163.057,194.5h-5.379c-0.062,0-0.123-0.006-0.185-0.019c-0.061-0.012-0.121-0.03-0.177-0.054
	c-0.058-0.024-0.112-0.054-0.164-0.088c-0.052-0.034-0.1-0.073-0.144-0.118c-0.044-0.043-0.083-0.092-0.118-0.143
	c-0.035-0.053-0.064-0.107-0.087-0.164c-0.024-0.059-0.042-0.118-0.054-0.179c-0.012-0.062-0.019-0.123-0.019-0.186
	c0-0.062,0.007-0.124,0.019-0.185c0.012-0.062,0.03-0.121,0.054-0.179c0.023-0.057,0.053-0.112,0.087-0.163
	c0.034-0.052,0.073-0.101,0.118-0.144c0.044-0.045,0.091-0.084,0.144-0.118c0.052-0.035,0.106-0.064,0.164-0.088
	c0.057-0.023,0.116-0.042,0.177-0.054c0.062-0.013,0.123-0.019,0.185-0.019h5.379c0.062,0,0.123,0.006,0.184,0.019
	c0.062,0.012,0.121,0.03,0.178,0.054c0.058,0.023,0.112,0.053,0.164,0.088c0.052,0.034,0.1,0.073,0.143,0.118
	c0.044,0.043,0.084,0.092,0.118,0.144c0.035,0.051,0.064,0.106,0.087,0.163c0.024,0.058,0.042,0.117,0.054,0.179
	c0.012,0.061,0.018,0.123,0.018,0.185c0,0.063-0.006,0.124-0.018,0.186c-0.013,0.061-0.03,0.12-0.054,0.179
	c-0.023,0.057-0.053,0.111-0.087,0.164c-0.034,0.051-0.074,0.1-0.118,0.143c-0.043,0.045-0.091,0.084-0.143,0.118
	s-0.106,0.063-0.164,0.088c-0.057,0.023-0.116,0.042-0.178,0.054C163.18,194.494,163.119,194.5,163.057,194.5z"/>
<linearGradient id="SVGID_4_" gradientUnits="userSpaceOnUse" x1="156.7307" y1="187.8584" x2="164.0037" y2="187.8584">
	<stop  offset="0" style="stop-color:#234930"/>
	<stop  offset="1" style="stop-color:#83B645"/>
</linearGradient>
<path fill="url(#SVGID_4_)" d="M163.057,188.808h-5.379c-0.062,0-0.123-0.007-0.185-0.019c-0.061-0.013-0.121-0.03-0.177-0.055
	c-0.058-0.023-0.112-0.053-0.164-0.087c-0.052-0.035-0.1-0.075-0.144-0.118c-0.044-0.045-0.083-0.093-0.118-0.145
	c-0.035-0.052-0.064-0.106-0.087-0.164c-0.024-0.058-0.042-0.117-0.054-0.178c-0.012-0.061-0.019-0.123-0.019-0.186
	c0-0.062,0.007-0.124,0.019-0.185c0.012-0.061,0.03-0.12,0.054-0.177c0.023-0.058,0.053-0.112,0.087-0.165
	c0.034-0.052,0.073-0.1,0.118-0.144c0.044-0.043,0.091-0.083,0.144-0.118c0.052-0.035,0.106-0.064,0.164-0.087
	c0.057-0.024,0.116-0.042,0.177-0.054c0.062-0.012,0.123-0.019,0.185-0.019h5.379c0.062,0,0.123,0.007,0.184,0.019
	c0.062,0.012,0.121,0.03,0.178,0.054c0.058,0.023,0.112,0.053,0.164,0.087c0.052,0.035,0.1,0.074,0.143,0.118
	c0.044,0.044,0.084,0.092,0.118,0.144c0.035,0.052,0.064,0.106,0.087,0.165c0.024,0.058,0.042,0.116,0.054,0.177
	c0.012,0.061,0.018,0.123,0.018,0.185c0,0.063-0.006,0.125-0.018,0.186c-0.013,0.061-0.03,0.12-0.054,0.178
	c-0.023,0.058-0.053,0.112-0.087,0.164c-0.034,0.052-0.074,0.1-0.118,0.145c-0.043,0.043-0.091,0.083-0.143,0.118
	c-0.052,0.034-0.106,0.063-0.164,0.087c-0.057,0.024-0.116,0.042-0.178,0.055C163.18,188.801,163.119,188.808,163.057,188.808z"/>
<linearGradient id="SVGID_5_" gradientUnits="userSpaceOnUse" x1="156.7307" y1="182.1646" x2="164.0037" y2="182.1646">
	<stop  offset="0" style="stop-color:#234930"/>
	<stop  offset="1" style="stop-color:#83B645"/>
</linearGradient>
<path fill="url(#SVGID_5_)" d="M163.057,183.113h-5.379c-0.062,0-0.123-0.006-0.185-0.018c-0.061-0.012-0.121-0.03-0.177-0.054
	c-0.058-0.024-0.112-0.054-0.164-0.088c-0.052-0.034-0.1-0.074-0.144-0.118c-0.044-0.044-0.083-0.092-0.118-0.144
	c-0.035-0.051-0.064-0.106-0.087-0.164c-0.024-0.057-0.042-0.116-0.054-0.178c-0.012-0.061-0.019-0.123-0.019-0.185
	c0-0.063,0.007-0.124,0.019-0.185c0.012-0.061,0.03-0.121,0.054-0.178c0.023-0.057,0.053-0.112,0.087-0.164
	c0.034-0.052,0.073-0.1,0.118-0.143c0.044-0.044,0.091-0.084,0.144-0.118c0.052-0.035,0.106-0.064,0.164-0.088
	c0.057-0.023,0.116-0.042,0.177-0.054c0.062-0.013,0.123-0.019,0.185-0.019h5.379c0.062,0,0.123,0.006,0.184,0.019
	c0.062,0.012,0.121,0.03,0.178,0.054c0.058,0.023,0.112,0.053,0.164,0.088c0.052,0.034,0.1,0.074,0.143,0.118
	c0.044,0.043,0.084,0.091,0.118,0.143c0.035,0.052,0.064,0.107,0.087,0.164c0.024,0.058,0.042,0.117,0.054,0.178
	c0.012,0.062,0.018,0.123,0.018,0.185c0,0.062-0.006,0.124-0.018,0.185c-0.013,0.062-0.03,0.121-0.054,0.178
	c-0.023,0.058-0.053,0.113-0.087,0.164c-0.034,0.052-0.074,0.1-0.118,0.144c-0.043,0.044-0.091,0.084-0.143,0.118
	s-0.106,0.063-0.164,0.088c-0.057,0.023-0.116,0.042-0.178,0.054C163.18,183.107,163.119,183.113,163.057,183.113z"/>
<linearGradient id="SVGID_6_" gradientUnits="userSpaceOnUse" x1="156.7307" y1="176.4712" x2="164.0037" y2="176.4712">
	<stop  offset="0" style="stop-color:#234930"/>
	<stop  offset="1" style="stop-color:#83B645"/>
</linearGradient>
<path fill="url(#SVGID_6_)" d="M163.057,177.42h-5.379c-0.062,0-0.123-0.006-0.185-0.018c-0.061-0.013-0.121-0.03-0.177-0.055
	c-0.058-0.023-0.112-0.053-0.164-0.088c-0.052-0.034-0.1-0.074-0.144-0.117c-0.044-0.044-0.083-0.092-0.118-0.144
	c-0.035-0.052-0.064-0.106-0.087-0.164c-0.024-0.058-0.042-0.117-0.054-0.178c-0.012-0.061-0.019-0.123-0.019-0.185
	c0-0.062,0.007-0.124,0.019-0.185c0.012-0.061,0.03-0.121,0.054-0.178c0.023-0.058,0.053-0.112,0.087-0.164
	c0.034-0.052,0.073-0.1,0.118-0.144c0.044-0.044,0.091-0.083,0.144-0.118c0.052-0.034,0.106-0.063,0.164-0.088
	c0.057-0.023,0.116-0.042,0.177-0.054c0.062-0.012,0.123-0.018,0.185-0.018h5.379c0.062,0,0.123,0.006,0.184,0.018
	c0.062,0.012,0.121,0.03,0.178,0.054c0.058,0.024,0.112,0.054,0.164,0.088c0.052,0.035,0.1,0.074,0.143,0.118
	c0.044,0.044,0.084,0.092,0.118,0.144c0.035,0.052,0.064,0.106,0.087,0.164c0.024,0.057,0.042,0.117,0.054,0.178
	c0.012,0.061,0.018,0.123,0.018,0.185c0,0.063-0.006,0.124-0.018,0.185c-0.013,0.061-0.03,0.121-0.054,0.178
	c-0.023,0.058-0.053,0.112-0.087,0.164c-0.034,0.052-0.074,0.1-0.118,0.144c-0.043,0.043-0.091,0.083-0.143,0.117
	c-0.052,0.035-0.106,0.064-0.164,0.088c-0.057,0.024-0.116,0.042-0.178,0.055C163.18,177.414,163.119,177.42,163.057,177.42z"/>
<linearGradient id="SVGID_7_" gradientUnits="userSpaceOnUse" x1="156.7307" y1="170.7783" x2="164.0037" y2="170.7783">
	<stop  offset="0" style="stop-color:#234930"/>
	<stop  offset="1" style="stop-color:#83B645"/>
</linearGradient>
<path fill="url(#SVGID_7_)" d="M163.057,171.727h-5.379c-0.062,0-0.123-0.006-0.185-0.019c-0.061-0.012-0.121-0.03-0.177-0.053
	c-0.058-0.024-0.112-0.054-0.164-0.088c-0.052-0.034-0.1-0.073-0.144-0.118c-0.044-0.044-0.083-0.092-0.118-0.144
	c-0.035-0.052-0.064-0.106-0.087-0.164c-0.024-0.057-0.042-0.117-0.054-0.178c-0.012-0.061-0.019-0.123-0.019-0.185
	c0-0.063,0.007-0.124,0.019-0.185c0.012-0.061,0.03-0.121,0.054-0.178c0.023-0.058,0.053-0.112,0.087-0.165
	c0.034-0.052,0.073-0.1,0.118-0.144c0.044-0.043,0.091-0.083,0.144-0.117c0.052-0.035,0.106-0.064,0.164-0.088
	c0.057-0.024,0.116-0.042,0.177-0.054c0.062-0.012,0.123-0.018,0.185-0.018h5.379c0.062,0,0.123,0.006,0.184,0.018
	c0.062,0.012,0.121,0.03,0.178,0.054c0.058,0.023,0.112,0.053,0.164,0.088c0.052,0.035,0.1,0.074,0.143,0.117
	c0.044,0.044,0.084,0.092,0.118,0.144c0.035,0.052,0.064,0.106,0.087,0.165c0.024,0.058,0.042,0.117,0.054,0.178
	c0.012,0.061,0.018,0.122,0.018,0.185c0,0.062-0.006,0.124-0.018,0.185c-0.013,0.061-0.03,0.121-0.054,0.178
	c-0.023,0.058-0.053,0.112-0.087,0.164c-0.034,0.052-0.074,0.1-0.118,0.144c-0.043,0.044-0.091,0.083-0.143,0.118
	c-0.052,0.035-0.106,0.064-0.164,0.088c-0.057,0.023-0.116,0.042-0.178,0.053C163.18,171.721,163.119,171.727,163.057,171.727z"/>
<g>
	<g>
		<linearGradient id="SVGID_8_" gradientUnits="userSpaceOnUse" x1="156.2307" y1="188.9551" x2="214.3245" y2="188.9551">
			<stop  offset="0" style="stop-color:#234930"/>
			<stop  offset="1" style="stop-color:#83B645"/>
		</linearGradient>
		<path fill="url(#SVGID_8_)" d="M214.28,199.268V165.54c0-0.167-0.018-0.333-0.049-0.496c-0.033-0.164-0.081-0.323-0.145-0.478
			c-0.064-0.154-0.142-0.3-0.235-0.439c-0.093-0.139-0.197-0.267-0.315-0.385s-0.246-0.224-0.384-0.316
			c-0.14-0.093-0.285-0.171-0.439-0.235c-0.154-0.063-0.313-0.111-0.477-0.144s-0.328-0.049-0.495-0.049h-7.682
			c-0.063,0-0.123,0.006-0.185,0.018c-0.062,0.013-0.121,0.03-0.178,0.055c-0.058,0.023-0.112,0.053-0.164,0.087
			c-0.052,0.035-0.1,0.075-0.144,0.118c-0.044,0.044-0.083,0.092-0.117,0.144c-0.035,0.052-0.064,0.106-0.088,0.164
			c-0.024,0.058-0.042,0.117-0.054,0.178s-0.018,0.123-0.018,0.185c0,0.063,0.006,0.125,0.018,0.185
			c0.012,0.061,0.029,0.121,0.054,0.178c0.023,0.058,0.053,0.112,0.088,0.164c0.034,0.052,0.073,0.1,0.117,0.144
			c0.044,0.044,0.092,0.083,0.144,0.118c0.052,0.034,0.106,0.063,0.164,0.087c0.057,0.024,0.116,0.042,0.178,0.054
			c0.062,0.012,0.122,0.019,0.185,0.019h7.652c0.085,0,0.167,0.016,0.246,0.048c0.078,0.033,0.148,0.08,0.209,0.14
			c0.061,0.06,0.106,0.13,0.139,0.209c0.033,0.08,0.05,0.162,0.05,0.247v33.014h-3.265v-27.775c0-0.063-0.007-0.124-0.019-0.185
			c-0.013-0.061-0.03-0.121-0.054-0.178c-0.024-0.058-0.054-0.112-0.088-0.165c-0.034-0.052-0.074-0.1-0.118-0.144
			c-0.044-0.043-0.092-0.083-0.144-0.117c-0.052-0.035-0.106-0.064-0.163-0.088c-0.058-0.024-0.117-0.042-0.179-0.054
			c-0.06-0.012-0.122-0.018-0.184-0.018h-5.493c-0.062,0-0.124,0.006-0.185,0.018c-0.062,0.012-0.12,0.03-0.178,0.054
			c-0.058,0.023-0.112,0.053-0.164,0.088c-0.051,0.035-0.099,0.074-0.144,0.117c-0.043,0.044-0.083,0.092-0.118,0.144
			c-0.034,0.052-0.063,0.106-0.087,0.165c-0.023,0.058-0.042,0.117-0.054,0.178c-0.013,0.061-0.019,0.122-0.019,0.185v27.775h-4.083
			v-10.627c-0.002-0.061-0.009-0.123-0.022-0.182c-0.013-0.061-0.032-0.118-0.056-0.174c-0.024-0.056-0.055-0.11-0.089-0.16
			c-0.035-0.051-0.075-0.097-0.118-0.141c-0.044-0.042-0.092-0.081-0.143-0.115c-0.051-0.033-0.105-0.062-0.162-0.084
			c-0.057-0.023-0.115-0.041-0.176-0.053c-0.06-0.012-0.12-0.018-0.182-0.018h-5.492c-0.063,0-0.124,0.006-0.186,0.019
			c-0.061,0.012-0.119,0.03-0.178,0.053c-0.058,0.024-0.111,0.054-0.164,0.088c-0.051,0.034-0.099,0.073-0.143,0.118
			s-0.083,0.092-0.118,0.144c-0.034,0.052-0.063,0.106-0.087,0.164c-0.023,0.057-0.042,0.117-0.054,0.178
			c-0.013,0.061-0.019,0.123-0.019,0.185v10.627h-4.076v-13.853c0-0.063-0.007-0.124-0.019-0.185
			c-0.013-0.061-0.03-0.121-0.054-0.179c-0.024-0.058-0.053-0.112-0.088-0.164c-0.034-0.052-0.074-0.1-0.118-0.144
			c-0.043-0.043-0.091-0.083-0.143-0.117c-0.052-0.035-0.106-0.064-0.163-0.088c-0.058-0.024-0.117-0.042-0.179-0.054
			c-0.06-0.012-0.122-0.018-0.184-0.018h-5.485c-0.062,0-0.124,0.006-0.185,0.018c-0.062,0.012-0.12,0.03-0.178,0.054
			c-0.058,0.023-0.112,0.053-0.164,0.088c-0.052,0.035-0.1,0.074-0.144,0.117c-0.044,0.044-0.083,0.092-0.118,0.144
			c-0.035,0.052-0.064,0.106-0.088,0.164c-0.023,0.058-0.042,0.118-0.053,0.179c-0.013,0.061-0.019,0.122-0.019,0.185v13.831h-4.083
			v-5.937c0-0.062-0.006-0.123-0.018-0.184c-0.012-0.062-0.029-0.12-0.054-0.177c-0.023-0.059-0.052-0.112-0.086-0.164
			s-0.073-0.1-0.116-0.144c-0.043-0.045-0.091-0.084-0.143-0.118c-0.051-0.034-0.105-0.063-0.163-0.088
			c-0.057-0.024-0.115-0.043-0.176-0.056c-0.061-0.012-0.122-0.018-0.184-0.019h-5.5c-0.062,0-0.124,0.006-0.185,0.019
			c-0.062,0.012-0.12,0.029-0.178,0.053c-0.058,0.024-0.112,0.054-0.163,0.088c-0.052,0.035-0.1,0.074-0.144,0.118
			c-0.044,0.044-0.083,0.093-0.118,0.145c-0.035,0.051-0.064,0.106-0.088,0.163c-0.023,0.058-0.042,0.117-0.053,0.179
			c-0.013,0.061-0.019,0.123-0.019,0.185v5.937h-9.137V165.54c0-0.085,0.017-0.167,0.049-0.247c0.033-0.079,0.079-0.149,0.14-0.209
			c0.06-0.061,0.13-0.107,0.208-0.14s0.161-0.048,0.246-0.048h34.638c0.063,0,0.124-0.007,0.185-0.019
			c0.061-0.013,0.12-0.03,0.178-0.054s0.111-0.053,0.164-0.087c0.052-0.035,0.1-0.074,0.143-0.118
			c0.045-0.044,0.084-0.092,0.118-0.144c0.034-0.052,0.063-0.106,0.088-0.164c0.023-0.058,0.041-0.117,0.054-0.178
			c0.012-0.061,0.019-0.122,0.019-0.185c0-0.062-0.007-0.124-0.019-0.185c-0.013-0.061-0.03-0.12-0.054-0.178
			c-0.024-0.058-0.054-0.112-0.088-0.164s-0.073-0.1-0.118-0.144c-0.043-0.043-0.091-0.083-0.143-0.118
			c-0.053-0.034-0.106-0.063-0.164-0.087c-0.058-0.024-0.117-0.042-0.178-0.055c-0.061-0.012-0.122-0.018-0.185-0.018h-34.638
			c-0.167,0-0.332,0.017-0.495,0.049c-0.163,0.033-0.322,0.081-0.476,0.144c-0.154,0.064-0.3,0.142-0.438,0.235
			c-0.139,0.093-0.268,0.198-0.385,0.316c-0.117,0.118-0.223,0.246-0.316,0.385c-0.092,0.139-0.171,0.286-0.234,0.439
			c-0.064,0.154-0.111,0.313-0.144,0.478c-0.033,0.163-0.049,0.329-0.049,0.496v33.728c-0.023,0.077-0.038,0.154-0.046,0.235v4.903
			c0.009,0.187,0.035,0.37,0.078,0.553c0.042,0.182,0.1,0.358,0.175,0.529c0.075,0.172,0.163,0.334,0.267,0.49
			c0.104,0.155,0.221,0.299,0.351,0.433c0.13,0.135,0.271,0.255,0.424,0.363c0.151,0.108,0.312,0.201,0.48,0.281
			c0.169,0.078,0.344,0.142,0.524,0.189c0.18,0.047,0.363,0.077,0.549,0.092h18.811c0,1.365,0,3.636-0.105,4.159
			c-0.055,0.184-0.131,0.357-0.23,0.521c-0.099,0.164-0.217,0.312-0.354,0.445c-0.137,0.133-0.29,0.246-0.456,0.34
			c-0.167,0.093-0.343,0.164-0.528,0.212h-2.872c-0.062,0-0.123,0.006-0.184,0.019c-0.061,0.012-0.121,0.03-0.178,0.054
			c-0.058,0.023-0.112,0.053-0.164,0.088c-0.052,0.034-0.1,0.073-0.143,0.118c-0.044,0.044-0.083,0.092-0.118,0.144
			c-0.034,0.052-0.063,0.106-0.087,0.164c-0.024,0.057-0.042,0.116-0.055,0.178c-0.012,0.062-0.018,0.123-0.018,0.185
			c0,0.063,0.006,0.124,0.018,0.186c0.013,0.062,0.03,0.12,0.055,0.179c0.023,0.058,0.053,0.112,0.087,0.164
			c0.035,0.052,0.074,0.1,0.118,0.143c0.043,0.045,0.091,0.084,0.143,0.118c0.052,0.035,0.106,0.064,0.164,0.088
			c0.057,0.023,0.117,0.042,0.178,0.055c0.061,0.012,0.122,0.018,0.184,0.018h23.896c0.063,0,0.124-0.006,0.185-0.018
			c0.062-0.013,0.12-0.031,0.178-0.055s0.112-0.053,0.164-0.088c0.051-0.034,0.099-0.073,0.144-0.118
			c0.043-0.043,0.083-0.091,0.118-0.143c0.034-0.052,0.063-0.106,0.087-0.164c0.023-0.059,0.042-0.117,0.054-0.179
			c0.013-0.062,0.019-0.122,0.019-0.186c0-0.062-0.006-0.123-0.019-0.185c-0.012-0.062-0.03-0.121-0.054-0.178
			c-0.023-0.058-0.053-0.112-0.087-0.164c-0.035-0.052-0.075-0.1-0.118-0.144c-0.045-0.045-0.093-0.084-0.144-0.118
			c-0.052-0.035-0.106-0.064-0.164-0.088s-0.116-0.042-0.178-0.054c-0.061-0.013-0.122-0.019-0.185-0.019h-3.03
			c-0.178-0.05-0.345-0.121-0.503-0.216c-0.157-0.096-0.3-0.21-0.428-0.344c-0.126-0.133-0.232-0.281-0.319-0.444
			c-0.086-0.163-0.15-0.334-0.189-0.515c-0.099-0.531-0.099-2.823-0.114-4.159h19.221c1.516,0,2.447-1.45,2.447-2.854v-4.979
			C214.318,199.422,214.302,199.345,214.28,199.268z M211.877,205.438H159.08c-0.123-0.027-0.239-0.071-0.348-0.133
			c-0.109-0.063-0.206-0.141-0.292-0.232c-0.085-0.093-0.155-0.196-0.209-0.309c-0.053-0.114-0.088-0.234-0.106-0.358v-3.925h54.305
			v3.978C212.43,204.938,212.203,205.438,211.877,205.438z"/>
	</g>
</g>
</svg>
